<svg width="531" height="340" viewBox="0 0 531 340" fill="none" xmlns="http://www.w3.org/2000/svg">
<path d="M178.474 198.722C181.716 195.19 182.607 188.274 179.273 183.62C179.164 183.469 179.055 183.323 178.944 183.176C173.544 176.175 166.418 177.053 161.885 179.967C159.14 181.758 156.777 184.461 155.017 187.823C155.017 187.823 155.202 177.324 151.963 170.034C148.723 162.744 135.366 155.288 125.648 159.37C115.929 163.452 111.581 175.283 111.581 175.283C89.8748 157.124 82.5507 184.281 82.5507 184.281C74.8977 180.724 69.0765 182.97 67.204 187.72C65.606 191.725 65.8778 196.119 67.6633 198.722C109.293 203.714 150.397 208.178 178.474 198.722Z" fill="white"/>
<path d="M470.564 138.109C476.045 123.242 462.252 118.067 453.454 122.279C453.454 122.279 452.414 108.734 445.079 106.3C433.554 102.475 428.221 108.952 427.7 113.479C427.7 113.479 416.066 92.9105 389.163 94.8144C362.26 96.7183 365.837 123.337 365.837 123.337C365.837 123.337 359.414 116.008 350.167 119.555C342.719 122.407 339.755 131.093 341.689 138.117C384.118 141.257 430.803 145.552 470.564 138.109Z" fill="white"/>
<path d="M237.798 114.304C241.297 104.869 232.491 101.585 226.875 104.258C226.875 104.258 226.21 95.6616 221.528 94.1175C214.17 91.6899 210.765 95.8001 210.433 98.6734C210.433 98.6734 203.005 85.62 185.83 86.8283C168.654 88.0365 170.938 104.93 170.938 104.93C170.938 104.93 166.837 100.278 160.934 102.529C156.179 104.339 154.287 109.852 155.522 114.309C182.609 116.302 212.414 119.027 237.798 114.304Z" fill="white"/>
<path d="M418.221 240.931C414.656 230.002 423.637 226.201 429.351 229.304C429.351 229.304 430.025 219.348 434.798 217.561C442.294 214.748 445.762 219.507 446.095 222.836C446.095 222.836 453.663 207.711 471.157 209.119C488.651 210.527 486.33 230.08 486.33 230.08C486.33 230.08 490.526 224.694 496.548 227.3C501.394 229.398 503.323 235.775 502.065 240.949C474.463 243.244 444.091 246.401 418.221 240.931Z" fill="white"/>
<path fill-rule="evenodd" clip-rule="evenodd" d="M227.117 169.104C223.579 174.948 220.71 181.168 218.563 187.647C218.244 188.667 217.594 189.552 216.715 190.163C215.835 190.774 214.777 191.077 213.705 191.024L193.994 190.138C193.358 190.108 192.722 190.203 192.123 190.418C191.524 190.633 190.974 190.964 190.504 191.391C190.034 191.818 189.653 192.334 189.383 192.908C189.114 193.482 188.961 194.104 188.934 194.737L187.469 226.889C187.438 227.522 187.534 228.154 187.75 228.751C187.966 229.347 188.298 229.895 188.728 230.363C189.157 230.831 189.675 231.21 190.252 231.478C190.829 231.746 191.453 231.898 192.089 231.926L211.711 232.812C212.772 232.86 213.788 233.254 214.603 233.933C215.417 234.612 215.985 235.538 216.219 236.57C217.738 243.23 220.007 249.699 222.981 255.854C223.447 256.797 223.589 257.867 223.385 258.898C223.182 259.93 222.644 260.866 221.854 261.564L207.011 274.51C206.531 274.927 206.138 275.434 205.855 276.002C205.572 276.57 205.405 277.189 205.363 277.821C205.324 278.419 205.397 279.019 205.578 279.59C208.037 279.313 210.528 279.171 213.036 279.171H405.825C405.829 279.033 405.826 278.895 405.818 278.757C405.742 277.482 405.162 276.29 404.204 275.441L389.553 262.45C388.757 261.749 388.215 260.807 388.012 259.769C387.808 258.73 387.954 257.654 388.426 256.707C391.464 250.589 393.801 244.15 395.391 237.512C395.632 236.489 396.203 235.573 397.018 234.904C397.832 234.236 398.844 233.851 399.899 233.81L419.622 233.059C420.905 233.009 422.117 232.454 422.99 231.516C423.862 230.578 424.325 229.333 424.276 228.055L423.048 195.881C422.998 194.604 422.441 193.398 421.498 192.529C420.556 191.661 419.305 191.2 418.021 191.248L398.4 192C397.341 192.037 396.298 191.729 395.431 191.121C394.564 190.513 393.921 189.64 393.599 188.635C391.538 182.125 388.748 175.867 385.282 169.979C384.743 169.073 384.517 168.016 384.64 166.971C384.762 165.925 385.225 164.949 385.958 164.19L399.674 150.055C400.565 149.134 401.053 147.9 401.032 146.622C401.011 145.343 400.482 144.126 399.561 143.235L376.299 120.877C375.376 119.987 374.135 119.499 372.85 119.52C371.565 119.541 370.341 120.069 369.447 120.989L355.799 135.045C355.063 135.806 354.095 136.305 353.046 136.463C351.997 136.621 350.924 136.43 349.995 135.92C343.98 132.643 337.614 130.05 331.016 128.191C329.997 127.905 329.1 127.295 328.461 126.455C327.822 125.614 327.477 124.589 327.477 123.535L327.556 103.892C327.559 102.612 327.052 101.383 326.145 100.474C325.239 99.5655 324.008 99.0519 322.721 99.046L290.387 98.9339C289.101 98.9309 287.866 99.4358 286.953 100.338C286.041 101.24 285.525 102.466 285.519 103.746L285.451 123.289C285.448 124.345 285.095 125.372 284.447 126.209C283.799 127.046 282.893 127.648 281.867 127.922C275.248 129.698 268.851 132.212 262.798 135.415C261.864 135.913 260.792 136.093 259.746 135.927C258.7 135.761 257.737 135.258 257.005 134.495L243.402 120.271C242.514 119.347 241.295 118.81 240.011 118.779C238.727 118.747 237.482 119.223 236.55 120.103L213.131 142.303C212.202 143.187 211.663 144.401 211.631 145.679C211.6 146.957 212.078 148.196 212.962 149.124L226.486 163.281C227.218 164.049 227.676 165.034 227.79 166.086C227.904 167.138 227.668 168.199 227.117 169.104Z" fill="#E0E0E0"/>
<path d="M323.272 188.213C293.578 176.276 267.6 206.662 284.109 233.998C287.009 238.784 291.391 242.501 296.597 244.59C326.291 256.527 352.269 226.142 335.76 198.816C332.864 194.025 328.481 190.304 323.272 188.213Z" fill="white"/>
<path fill-rule="evenodd" clip-rule="evenodd" d="M140.838 218.743C138.192 223.117 136.045 227.772 134.439 232.621C134.201 233.384 133.714 234.047 133.057 234.504C132.399 234.962 131.607 235.189 130.805 235.149L116.06 234.485C115.584 234.463 115.109 234.534 114.66 234.695C114.212 234.856 113.801 235.104 113.449 235.423C113.097 235.743 112.812 236.129 112.611 236.559C112.409 236.989 112.295 237.454 112.274 237.928L111.178 261.991C111.156 262.465 111.227 262.939 111.389 263.385C111.551 263.831 111.799 264.241 112.12 264.591C112.441 264.942 112.829 265.225 113.26 265.426C113.692 265.627 114.159 265.741 114.635 265.761L129.313 266.425C130.107 266.46 130.867 266.755 131.477 267.263C132.086 267.772 132.511 268.465 132.686 269.237C133.822 274.222 135.519 279.064 137.744 283.67C138.093 284.376 138.199 285.177 138.047 285.949C137.894 286.721 137.492 287.422 136.901 287.944L128.703 295.097H269.669L262.353 288.607C261.757 288.083 261.352 287.377 261.2 286.6C261.047 285.823 261.156 285.018 261.51 284.308C263.783 279.73 265.53 274.911 266.72 269.942C266.9 269.177 267.328 268.491 267.937 267.991C268.546 267.49 269.303 267.203 270.092 267.172L284.846 266.609C285.807 266.572 286.713 266.157 287.366 265.455C288.019 264.752 288.365 263.821 288.328 262.865L287.409 238.784C287.372 237.828 286.955 236.926 286.25 236.275C285.545 235.625 284.61 235.28 283.649 235.317L268.971 235.879C268.178 235.907 267.398 235.676 266.75 235.221C266.101 234.767 265.62 234.113 265.379 233.36C263.837 228.489 261.75 223.805 259.157 219.397C258.754 218.72 258.586 217.929 258.677 217.146C258.768 216.364 259.115 215.633 259.663 215.065L269.924 204.486C270.59 203.797 270.955 202.873 270.94 201.916C270.924 200.959 270.528 200.048 269.839 199.381L252.438 182.647C251.747 181.982 250.819 181.616 249.858 181.632C248.896 181.648 247.981 182.043 247.312 182.731L237.102 193.252C236.552 193.821 235.828 194.194 235.043 194.313C234.258 194.431 233.456 194.288 232.76 193.907C228.261 191.454 223.498 189.513 218.563 188.122C217.8 187.907 217.129 187.451 216.651 186.822C216.174 186.193 215.915 185.426 215.915 184.637L215.974 169.935C215.977 168.977 215.597 168.057 214.919 167.377C214.241 166.697 213.32 166.313 212.358 166.308L188.169 166.224C187.207 166.222 186.283 166.6 185.6 167.275C184.918 167.951 184.532 168.868 184.527 169.826L184.477 184.452C184.474 185.243 184.21 186.012 183.726 186.638C183.241 187.265 182.563 187.715 181.796 187.92C176.844 189.25 172.059 191.131 167.53 193.529C166.832 193.901 166.03 194.036 165.247 193.912C164.465 193.787 163.744 193.411 163.197 192.84L153.021 182.194C152.357 181.502 151.445 181.101 150.484 181.077C149.523 181.053 148.592 181.41 147.895 182.068L130.375 198.684C129.681 199.345 129.278 200.254 129.254 201.21C129.23 202.167 129.588 203.094 130.249 203.789L140.366 214.385C140.914 214.959 141.257 215.697 141.342 216.484C141.427 217.272 141.25 218.065 140.838 218.743Z" fill="#CFDFFF"/>
<path d="M210.1 232.227C187.126 222.991 167.027 246.501 179.8 267.651C182.043 271.353 185.434 274.229 189.462 275.845C212.436 285.081 232.535 261.572 219.762 240.43C217.521 236.724 214.13 233.844 210.1 232.227Z" fill="white"/>
<path d="M265.621 339.24C411.772 339.24 530.252 325.732 530.252 309.068C530.252 292.405 411.772 278.896 265.621 278.896C119.469 278.896 0.989899 292.405 0.989899 309.068C0.989899 325.732 119.469 339.24 265.621 339.24Z" fill="white"/>
<path d="M370.265 273.602C369.799 272.19 369.175 270.835 368.405 269.562C368.284 269.366 368.232 269.136 368.257 268.907C368.281 268.678 368.381 268.464 368.54 268.297L371.49 265.216C371.682 265.014 371.786 264.744 371.779 264.466C371.772 264.187 371.654 263.923 371.452 263.73L366.358 258.898C366.258 258.803 366.14 258.728 366.011 258.679C365.882 258.629 365.744 258.605 365.606 258.609C365.467 258.612 365.331 258.643 365.205 258.699C365.078 258.755 364.964 258.835 364.869 258.935L361.905 262.021C361.747 262.188 361.538 262.298 361.311 262.334C361.084 262.37 360.851 262.331 360.649 262.222C359.331 261.526 357.94 260.98 356.5 260.593C356.277 260.533 356.079 260.402 355.938 260.219C355.797 260.036 355.719 259.813 355.718 259.582L355.701 255.328C355.701 255.19 355.673 255.054 355.62 254.927C355.567 254.8 355.489 254.685 355.391 254.588C355.293 254.491 355.177 254.414 355.049 254.361C354.921 254.309 354.784 254.282 354.646 254.283L347.609 254.309C347.471 254.309 347.334 254.336 347.206 254.389C347.079 254.442 346.963 254.52 346.866 254.617C346.768 254.715 346.691 254.831 346.638 254.958C346.586 255.085 346.559 255.222 346.559 255.359V259.636C346.56 259.866 346.486 260.089 346.347 260.272C346.209 260.455 346.014 260.588 345.792 260.65C344.357 261.053 342.972 261.617 341.664 262.33C341.461 262.442 341.228 262.484 340.999 262.449C340.77 262.415 340.559 262.307 340.399 262.142L337.429 259.081C337.333 258.982 337.218 258.903 337.091 258.848C336.964 258.793 336.828 258.764 336.689 258.762C336.551 258.76 336.414 258.785 336.285 258.836C336.156 258.887 336.039 258.962 335.94 259.058L330.877 263.925C330.677 264.119 330.562 264.383 330.557 264.661C330.552 264.939 330.658 265.208 330.852 265.408L333.838 268.486C333.998 268.651 334.099 268.863 334.126 269.091C334.152 269.319 334.103 269.549 333.985 269.746C333.231 271.027 332.624 272.389 332.174 273.805C332.105 274.025 331.965 274.216 331.777 274.348C331.588 274.481 331.361 274.549 331.13 274.541L326.861 274.378C326.582 274.368 326.31 274.469 326.105 274.658C325.9 274.848 325.779 275.11 325.769 275.388L325.502 282.388C325.491 282.667 325.591 282.938 325.781 283.142C325.971 283.347 326.234 283.468 326.514 283.479L330.803 283.642C331.033 283.651 331.255 283.734 331.433 283.88C331.611 284.026 331.736 284.226 331.789 284.45C332.134 285.894 332.642 287.296 333.304 288.627C333.407 288.833 333.439 289.067 333.395 289.293C333.352 289.519 333.235 289.724 333.062 289.878L329.891 292.712C329.683 292.897 329.557 293.157 329.54 293.434C329.523 293.711 329.618 293.984 329.802 294.192L334.477 299.432C334.663 299.64 334.924 299.765 335.203 299.781C335.483 299.798 335.757 299.703 335.966 299.517L339.177 296.677C339.349 296.525 339.566 296.432 339.796 296.415C340.026 296.398 340.255 296.457 340.448 296.583C341.982 297.569 343.646 298.34 345.392 298.873C345.613 298.94 345.806 299.078 345.941 299.264C346.076 299.451 346.146 299.677 346.14 299.907L346.01 304.158C346.003 304.436 346.106 304.706 346.298 304.909C346.49 305.111 346.754 305.229 347.034 305.238L354.065 305.447C354.345 305.455 354.616 305.353 354.82 305.162C355.024 304.972 355.143 304.708 355.152 304.43L355.279 300.156C355.286 299.927 355.368 299.706 355.513 299.528C355.658 299.349 355.857 299.223 356.081 299.168C358.287 298.624 360.383 297.708 362.279 296.46C362.471 296.333 362.7 296.272 362.931 296.287C363.162 296.302 363.381 296.392 363.555 296.543L366.769 299.348C366.98 299.532 367.255 299.624 367.534 299.606C367.813 299.588 368.073 299.46 368.258 299.251L372.895 293.98C372.987 293.877 373.056 293.756 373.101 293.625C373.145 293.494 373.163 293.356 373.154 293.218C373.144 293.08 373.108 292.946 373.046 292.822C372.985 292.699 372.899 292.588 372.795 292.497L369.563 289.677C369.39 289.527 369.271 289.324 369.225 289.099C369.18 288.874 369.21 288.641 369.31 288.435C369.955 287.095 370.445 285.687 370.774 284.238C370.825 284.013 370.948 283.811 371.125 283.664C371.302 283.516 371.523 283.43 371.754 283.419L376.02 283.227C376.3 283.215 376.563 283.092 376.751 282.886C376.94 282.681 377.039 282.409 377.026 282.131L376.707 275.131C376.695 274.853 376.572 274.592 376.366 274.404C376.16 274.216 375.888 274.117 375.609 274.129L371.317 274.323C371.087 274.334 370.859 274.27 370.669 274.139C370.479 274.009 370.337 273.82 370.265 273.602Z" fill="#757575"/>
<path d="M348.264 273.413C354.948 270.737 360.792 277.568 357.078 283.72C356.425 284.798 355.439 285.635 354.266 286.105C347.585 288.779 341.741 281.948 345.455 275.798C346.106 274.72 347.092 273.883 348.264 273.413Z" fill="white"/>
<path d="M385.975 291.705H320.458V307.231H385.975V291.705Z" fill="white"/>
<path fill-rule="evenodd" clip-rule="evenodd" d="M155.473 273.852C154.727 275.085 154.122 276.398 153.671 277.765C153.601 277.977 153.463 278.159 153.279 278.286C153.095 278.412 152.875 278.475 152.651 278.464L148.494 278.275C148.224 278.264 147.96 278.36 147.76 278.542C147.561 278.724 147.442 278.977 147.43 279.246L147.121 286.027C147.109 286.297 147.205 286.56 147.387 286.759C147.57 286.958 147.825 287.077 148.096 287.089L152.228 287.275C152.452 287.285 152.666 287.369 152.838 287.512C153.009 287.655 153.129 287.851 153.178 288.068C153.496 289.472 153.971 290.836 154.595 292.134C154.693 292.333 154.722 292.559 154.678 292.777C154.633 292.995 154.518 293.192 154.35 293.338L152.102 295.3H191.687L189.709 293.532C189.542 293.383 189.429 293.184 189.387 292.965C189.344 292.746 189.375 292.519 189.475 292.32C190.116 291.03 190.608 289.673 190.943 288.273C190.994 288.057 191.115 287.863 191.288 287.722C191.46 287.58 191.675 287.499 191.898 287.491L196.053 287.333C196.323 287.322 196.579 287.205 196.763 287.007C196.946 286.809 197.044 286.546 197.033 286.277L196.774 279.496C196.764 279.226 196.647 278.972 196.448 278.788C196.25 278.605 195.987 278.507 195.716 278.517L191.58 278.675C191.357 278.683 191.137 278.617 190.954 278.488C190.772 278.36 190.636 278.175 190.57 277.962C190.134 276.59 189.545 275.271 188.815 274.029C188.701 273.839 188.653 273.616 188.679 273.395C188.705 273.175 188.802 272.969 188.957 272.809L191.851 269.828C192.038 269.634 192.141 269.374 192.136 269.104C192.131 268.835 192.02 268.579 191.825 268.391L186.921 263.677C186.825 263.584 186.712 263.51 186.587 263.461C186.463 263.412 186.33 263.388 186.196 263.39C186.062 263.392 185.929 263.42 185.806 263.473C185.683 263.526 185.572 263.603 185.479 263.699L182.602 266.663C182.446 266.824 182.242 266.929 182.021 266.962C181.799 266.995 181.573 266.954 181.377 266.846C180.11 266.155 178.768 265.609 177.378 265.218C177.163 265.158 176.974 265.03 176.84 264.853C176.706 264.675 176.633 264.459 176.634 264.237V260.093C176.635 259.96 176.609 259.828 176.558 259.705C176.507 259.581 176.432 259.469 176.338 259.375C176.243 259.28 176.131 259.205 176.008 259.154C175.884 259.102 175.752 259.076 175.618 259.076L168.801 259.051C168.667 259.05 168.534 259.076 168.41 259.127C168.287 259.177 168.174 259.252 168.079 259.346C167.984 259.44 167.909 259.552 167.857 259.675C167.806 259.798 167.779 259.93 167.779 260.063L167.762 264.184C167.761 264.407 167.686 264.624 167.549 264.801C167.413 264.978 167.221 265.105 167.004 265.163C165.61 265.538 164.262 266.067 162.986 266.741C162.79 266.847 162.564 266.885 162.344 266.85C162.124 266.815 161.922 266.708 161.769 266.547L158.898 263.557C158.806 263.46 158.695 263.383 158.573 263.328C158.45 263.274 158.318 263.245 158.184 263.241C158.05 263.238 157.917 263.261 157.792 263.309C157.667 263.357 157.552 263.429 157.455 263.521L152.521 268.203C152.325 268.389 152.211 268.645 152.204 268.915C152.197 269.185 152.298 269.446 152.484 269.642L155.342 272.626C155.496 272.788 155.592 272.995 155.616 273.217C155.64 273.439 155.589 273.662 155.473 273.852Z" fill="#606060"/>
<path d="M174.982 277.581C168.508 274.988 162.846 281.606 166.444 287.566C167.076 288.609 168.032 289.42 169.168 289.876C175.64 292.466 181.301 285.849 177.703 279.892C177.073 278.847 176.118 278.036 174.982 277.581Z" fill="white"/>
<path fill-rule="evenodd" clip-rule="evenodd" d="M414.974 288.505C415.645 289.611 416.188 290.79 416.593 292.018C416.651 292.207 416.77 292.372 416.932 292.488C417.093 292.603 417.288 292.663 417.487 292.659L421.224 292.49C421.465 292.48 421.7 292.564 421.879 292.725C422.058 292.885 422.166 293.11 422.181 293.349L422.469 299.436C422.48 299.676 422.395 299.91 422.234 300.089C422.072 300.267 421.847 300.375 421.606 300.389L417.895 300.555C417.692 300.562 417.497 300.635 417.341 300.764C417.185 300.893 417.076 301.071 417.032 301.268C416.747 302.529 416.319 303.753 415.756 304.918C415.67 305.098 415.645 305.301 415.685 305.496C415.724 305.692 415.827 305.869 415.977 306L418.054 307.812H382.391L384.248 306.169C384.398 306.036 384.5 305.857 384.538 305.661C384.576 305.464 384.548 305.261 384.458 305.081C383.884 303.923 383.441 302.704 383.139 301.448C383.093 301.253 382.984 301.077 382.828 300.95C382.672 300.823 382.478 300.75 382.276 300.744L378.539 300.604C378.419 300.599 378.3 300.571 378.191 300.521C378.081 300.471 377.982 300.4 377.9 300.312C377.818 300.224 377.755 300.121 377.713 300.008C377.671 299.896 377.652 299.776 377.656 299.656L377.889 293.567C377.899 293.325 378.005 293.097 378.183 292.932C378.361 292.768 378.598 292.681 378.841 292.691L382.552 292.831C382.753 292.838 382.951 292.78 383.115 292.664C383.279 292.549 383.4 292.383 383.461 292.192C383.851 290.96 384.379 289.776 385.036 288.662C385.138 288.49 385.181 288.29 385.158 288.091C385.134 287.892 385.046 287.707 384.907 287.563L382.319 284.889C382.151 284.714 382.059 284.481 382.064 284.239C382.068 283.997 382.168 283.766 382.342 283.598L386.744 279.363C386.919 279.195 387.154 279.103 387.397 279.108C387.64 279.112 387.871 279.212 388.04 279.386L390.627 282.049C390.768 282.192 390.952 282.286 391.15 282.315C391.349 282.345 391.552 282.308 391.729 282.212C392.866 281.592 394.071 281.101 395.319 280.749C395.511 280.695 395.681 280.58 395.801 280.422C395.922 280.263 395.987 280.069 395.986 279.87V276.148C395.985 276.029 396.008 275.91 396.054 275.799C396.099 275.688 396.166 275.587 396.251 275.502C396.335 275.417 396.436 275.349 396.547 275.303C396.658 275.257 396.777 275.233 396.897 275.232L403.018 275.212C403.138 275.212 403.258 275.235 403.369 275.281C403.48 275.326 403.582 275.393 403.667 275.478C403.753 275.562 403.82 275.663 403.867 275.773C403.913 275.884 403.937 276.003 403.938 276.123V279.822C403.939 280.022 404.007 280.216 404.13 280.374C404.253 280.533 404.425 280.646 404.619 280.698C405.871 281.04 407.081 281.52 408.227 282.129C408.404 282.223 408.606 282.257 408.804 282.225C409.002 282.194 409.184 282.099 409.322 281.954L411.91 279.263C411.992 279.176 412.092 279.106 412.202 279.057C412.312 279.008 412.431 278.982 412.551 278.979C412.672 278.976 412.792 278.997 412.904 279.04C413.016 279.084 413.119 279.149 413.206 279.232L417.625 283.435C417.712 283.517 417.782 283.616 417.831 283.725C417.88 283.834 417.907 283.952 417.91 284.072C417.913 284.192 417.892 284.311 417.848 284.423C417.805 284.534 417.74 284.637 417.656 284.723L415.095 287.406C414.956 287.55 414.869 287.736 414.848 287.935C414.826 288.134 414.87 288.334 414.974 288.505Z" fill="#FFA912"/>
<path d="M397.475 291.915C403.288 289.591 408.368 295.531 405.14 300.873C404.572 301.811 403.715 302.539 402.696 302.949C396.883 305.274 391.804 299.333 395.032 293.991C395.599 293.054 396.457 292.325 397.475 291.915Z" fill="white"/>
<path fill-rule="evenodd" clip-rule="evenodd" d="M104.958 289.891C104.308 290.963 103.782 292.104 103.39 293.294C103.333 293.477 103.218 293.637 103.061 293.749C102.905 293.861 102.716 293.92 102.524 293.915L98.9036 293.752C98.6704 293.742 98.4426 293.823 98.2692 293.979C98.0958 294.135 97.9906 294.352 97.9763 294.584L97.6978 300.48C97.6871 300.712 97.7688 300.939 97.9252 301.112C98.0815 301.285 98.3 301.39 98.5332 301.403L102.128 301.564C102.325 301.571 102.514 301.642 102.665 301.767C102.816 301.892 102.921 302.064 102.964 302.255C103.241 303.476 103.655 304.662 104.2 305.791C104.284 305.965 104.308 306.161 104.27 306.351C104.231 306.54 104.131 306.711 103.986 306.839L101.974 308.595H136.522L134.722 307.003C134.577 306.873 134.478 306.7 134.441 306.51C134.405 306.32 134.432 306.122 134.519 305.949C135.075 304.827 135.504 303.646 135.797 302.429C135.841 302.24 135.947 302.07 136.098 301.947C136.249 301.823 136.437 301.753 136.632 301.747L140.253 301.611C140.369 301.607 140.484 301.58 140.59 301.531C140.696 301.483 140.792 301.414 140.871 301.329C140.951 301.244 141.012 301.144 141.053 301.034C141.093 300.925 141.112 300.81 141.107 300.693L140.882 294.794C140.873 294.56 140.77 294.339 140.597 294.18C140.424 294.021 140.195 293.937 139.96 293.946L136.365 294.082C136.171 294.089 135.979 294.032 135.82 293.92C135.661 293.809 135.543 293.648 135.485 293.463C135.107 292.27 134.595 291.123 133.959 290.044C133.86 289.877 133.818 289.682 133.841 289.49C133.864 289.298 133.949 289.118 134.084 288.979L136.591 286.388C136.753 286.219 136.842 285.993 136.838 285.758C136.834 285.524 136.737 285.301 136.568 285.138L132.305 281.036C132.135 280.873 131.908 280.784 131.672 280.788C131.437 280.792 131.212 280.889 131.049 281.058L128.542 283.637C128.406 283.776 128.228 283.867 128.036 283.895C127.843 283.924 127.647 283.889 127.476 283.795C126.373 283.194 125.207 282.719 123.998 282.378C123.811 282.326 123.647 282.215 123.531 282.061C123.414 281.907 123.351 281.719 123.352 281.527V277.921C123.352 277.805 123.33 277.69 123.286 277.583C123.242 277.475 123.177 277.378 123.095 277.295C123.013 277.213 122.916 277.147 122.808 277.102C122.701 277.057 122.585 277.034 122.469 277.034L116.54 277.014C116.423 277.014 116.308 277.037 116.2 277.081C116.092 277.125 115.994 277.19 115.911 277.272C115.828 277.353 115.762 277.451 115.717 277.558C115.672 277.665 115.649 277.78 115.649 277.896V281.48C115.647 281.673 115.582 281.862 115.463 282.015C115.343 282.168 115.177 282.278 114.989 282.328C113.776 282.66 112.603 283.125 111.494 283.715C111.323 283.806 111.126 283.839 110.935 283.808C110.743 283.778 110.567 283.685 110.433 283.546L107.926 280.939C107.846 280.854 107.75 280.786 107.643 280.739C107.537 280.692 107.422 280.666 107.305 280.663C107.188 280.66 107.072 280.681 106.963 280.723C106.854 280.765 106.755 280.828 106.67 280.908L102.39 284.98C102.305 285.059 102.237 285.155 102.19 285.261C102.143 285.367 102.117 285.481 102.114 285.597C102.111 285.713 102.131 285.829 102.173 285.937C102.216 286.045 102.279 286.144 102.36 286.228L104.841 288.826C104.975 288.966 105.059 289.146 105.08 289.339C105.101 289.531 105.058 289.725 104.958 289.891Z" fill="#FFA912"/>
<path d="M121.909 293.194C116.278 290.942 111.357 296.697 114.484 301.872C115.034 302.78 115.865 303.485 116.851 303.882C122.482 306.134 127.403 300.38 124.276 295.205C123.726 294.297 122.895 293.591 121.909 293.194Z" fill="white"/>
<path fill-rule="evenodd" clip-rule="evenodd" d="M480.111 280.163C480.711 281.156 481.199 282.212 481.565 283.312C481.616 283.486 481.722 283.637 481.869 283.744C482.015 283.851 482.192 283.906 482.373 283.902L485.728 283.75C485.836 283.745 485.945 283.761 486.047 283.798C486.149 283.834 486.243 283.891 486.323 283.964C486.403 284.037 486.468 284.125 486.514 284.223C486.56 284.321 486.586 284.427 486.59 284.535L486.838 290.009C486.843 290.117 486.827 290.224 486.79 290.326C486.754 290.428 486.697 290.521 486.625 290.601C486.552 290.681 486.464 290.745 486.365 290.791C486.267 290.837 486.161 290.863 486.053 290.868L482.715 291.017C482.535 291.025 482.362 291.092 482.224 291.208C482.085 291.324 481.989 291.482 481.95 291.658C481.692 292.791 481.306 293.892 480.801 294.939C480.723 295.1 480.7 295.283 480.736 295.459C480.772 295.634 480.864 295.793 480.999 295.912L482.84 297.518H450.853L452.498 296.075C452.633 295.955 452.725 295.795 452.759 295.618C452.794 295.441 452.769 295.258 452.688 295.096C452.172 294.055 451.775 292.959 451.504 291.83C451.462 291.655 451.364 291.499 451.225 291.385C451.086 291.271 450.913 291.206 450.733 291.2L447.378 291.071C447.269 291.067 447.162 291.041 447.063 290.996C446.964 290.951 446.876 290.886 446.802 290.806C446.728 290.726 446.671 290.633 446.634 290.531C446.596 290.429 446.58 290.32 446.585 290.212L446.795 284.735C446.799 284.627 446.824 284.52 446.87 284.422C446.916 284.323 446.98 284.235 447.061 284.161C447.141 284.088 447.235 284.031 447.337 283.994C447.44 283.957 447.548 283.94 447.657 283.945L450.995 284.074C451.175 284.08 451.352 284.028 451.5 283.925C451.647 283.821 451.757 283.673 451.811 283.501C452.16 282.393 452.635 281.328 453.226 280.326C453.318 280.173 453.357 279.993 453.336 279.814C453.315 279.636 453.236 279.47 453.111 279.341L450.776 276.934C450.701 276.856 450.642 276.765 450.602 276.665C450.562 276.565 450.543 276.458 450.545 276.35C450.547 276.242 450.57 276.136 450.613 276.037C450.656 275.938 450.718 275.849 450.796 275.774L454.755 271.966C454.911 271.819 455.119 271.739 455.334 271.743C455.549 271.747 455.754 271.834 455.905 271.987L458.228 274.38C458.353 274.509 458.518 274.594 458.697 274.621C458.876 274.647 459.058 274.615 459.217 274.529C460.24 273.972 461.323 273.53 462.445 273.212C462.618 273.163 462.77 273.06 462.879 272.917C462.987 272.775 463.046 272.601 463.046 272.422V269.075C463.045 268.967 463.066 268.86 463.108 268.761C463.149 268.661 463.209 268.57 463.286 268.494C463.362 268.418 463.453 268.357 463.553 268.316C463.653 268.274 463.76 268.253 463.868 268.253L469.37 268.233C469.479 268.233 469.586 268.254 469.686 268.295C469.786 268.336 469.877 268.396 469.954 268.472C470.03 268.548 470.091 268.638 470.133 268.738C470.174 268.838 470.195 268.944 470.195 269.052V272.379C470.197 272.559 470.258 272.733 470.368 272.875C470.479 273.018 470.633 273.12 470.808 273.166C471.934 273.469 473.023 273.897 474.053 274.443C474.212 274.527 474.394 274.557 474.572 274.529C474.749 274.5 474.912 274.415 475.037 274.285L477.354 271.863C477.504 271.71 477.708 271.622 477.923 271.617C478.138 271.612 478.347 271.691 478.504 271.838L482.488 275.617C482.642 275.766 482.73 275.97 482.736 276.184C482.741 276.397 482.663 276.605 482.517 276.762L480.217 279.173C480.092 279.303 480.014 279.471 479.995 279.65C479.976 279.829 480.016 280.009 480.111 280.163Z" fill="#FFCD76"/>
<path d="M464.367 283.223C469.591 281.131 474.161 286.473 471.267 291.277C470.757 292.12 469.985 292.776 469.067 293.143C463.844 295.233 459.273 289.894 462.168 285.087C462.678 284.244 463.45 283.59 464.367 283.223Z" fill="white"/>
<path fill-rule="evenodd" clip-rule="evenodd" d="M47.2449 284.117C46.6629 285.079 46.1903 286.102 45.8358 287.168C45.7868 287.336 45.6835 287.483 45.542 287.586C45.4005 287.689 45.2287 287.743 45.0533 287.739L41.8034 287.592C41.6983 287.587 41.5933 287.603 41.4943 287.638C41.3953 287.674 41.3043 287.728 41.2266 287.799C41.1489 287.87 41.0861 287.955 41.0417 288.05C40.9973 288.145 40.9722 288.248 40.9679 288.352L40.7284 293.655C40.7232 293.759 40.7387 293.864 40.7742 293.962C40.8096 294.061 40.8642 294.151 40.9348 294.228C41.0055 294.306 41.0908 294.368 41.1859 294.413C41.2809 294.457 41.3838 294.482 41.4887 294.487L44.7219 294.631C44.8968 294.639 45.064 294.704 45.1979 294.817C45.3318 294.929 45.4249 295.082 45.4626 295.252C45.7128 296.35 46.0865 297.416 46.5766 298.431C46.6518 298.587 46.6737 298.764 46.6391 298.934C46.6044 299.104 46.515 299.259 46.3844 299.374L44.6014 300.929H75.5863L73.9931 299.532C73.8623 299.416 73.7734 299.26 73.7402 299.088C73.707 298.917 73.7313 298.739 73.8093 298.583C74.3092 297.574 74.6941 296.513 74.9566 295.419C74.9968 295.25 75.0915 295.098 75.2264 294.988C75.3612 294.878 75.5286 294.815 75.703 294.809L78.9528 294.684C79.0583 294.68 79.162 294.655 79.2578 294.611C79.3536 294.567 79.4398 294.505 79.5113 294.427C79.5827 294.35 79.6381 294.259 79.6742 294.161C79.7102 294.062 79.7263 293.957 79.7214 293.852L79.5182 288.546C79.5142 288.441 79.4894 288.338 79.4452 288.243C79.401 288.147 79.3383 288.061 79.2606 287.99C79.1829 287.919 79.0919 287.864 78.9927 287.828C78.8935 287.792 78.7881 287.776 78.6827 287.781L75.4495 287.906C75.275 287.912 75.1031 287.861 74.9603 287.761C74.8174 287.661 74.7115 287.517 74.6587 287.351C74.3202 286.278 73.8606 285.246 73.2885 284.275C73.1989 284.126 73.1612 283.952 73.1813 283.78C73.2015 283.607 73.2783 283.446 73.3999 283.321L75.6612 280.989C75.7341 280.914 75.7914 280.826 75.8299 280.728C75.8684 280.631 75.8873 280.528 75.8855 280.423C75.8837 280.319 75.8612 280.216 75.8194 280.12C75.7776 280.025 75.7172 279.938 75.6417 279.866L71.807 276.177C71.6557 276.035 71.4543 275.957 71.2461 275.961C71.0379 275.964 70.8394 276.049 70.6931 276.197L68.4429 278.515C68.3211 278.64 68.1615 278.722 67.9884 278.748C67.8153 278.774 67.6385 278.743 67.485 278.659C66.4933 278.12 65.4444 277.692 64.3576 277.384C64.1902 277.337 64.0427 277.236 63.9377 277.098C63.8326 276.96 63.7757 276.792 63.7756 276.618V273.376C63.7759 273.272 63.7556 273.168 63.7157 273.072C63.6759 272.975 63.6173 272.887 63.5433 272.814C63.4693 272.74 63.3814 272.681 63.2846 272.641C63.1878 272.601 63.084 272.58 62.9791 272.58L57.649 272.561C57.5442 272.56 57.4403 272.581 57.3433 272.62C57.2464 272.66 57.1583 272.718 57.084 272.792C57.0097 272.866 56.9508 272.953 56.9106 273.05C56.8704 273.146 56.8497 273.25 56.8497 273.354V276.577C56.8483 276.751 56.7896 276.92 56.6824 277.058C56.5753 277.195 56.4256 277.294 56.2566 277.339C55.1653 277.633 54.1106 278.048 53.1125 278.576C52.9588 278.658 52.7825 278.687 52.6106 278.659C52.4387 278.632 52.2805 278.549 52.1601 278.424L49.9155 276.077C49.77 275.929 49.5719 275.843 49.3637 275.839C49.1555 275.834 48.9537 275.911 48.8016 276.052L44.9419 279.713C44.7931 279.858 44.707 280.055 44.7018 280.262C44.6966 280.469 44.7728 280.67 44.914 280.823L47.1419 283.158C47.2626 283.284 47.3382 283.447 47.3568 283.62C47.3754 283.794 47.3361 283.968 47.2449 284.117Z" fill="#FFCD76"/>
<path d="M62.4951 287.08C57.4351 285.053 53.0072 290.228 55.8115 294.882C56.3056 295.699 57.0534 296.333 57.9419 296.69C63.0019 298.714 67.4298 293.542 64.6255 288.886C64.1313 288.069 63.3834 287.435 62.4951 287.08Z" fill="white"/>
<path fill-rule="evenodd" clip-rule="evenodd" d="M500.172 290.612C500.601 291.324 500.95 292.082 501.213 292.871C501.254 293.007 501.345 293.123 501.468 293.196C501.591 293.269 501.736 293.294 501.877 293.266L504.277 293.16C504.356 293.154 504.436 293.164 504.51 293.19C504.585 293.217 504.654 293.258 504.712 293.312C504.77 293.365 504.816 293.43 504.848 293.503C504.879 293.575 504.895 293.653 504.895 293.732L505.071 297.652C505.076 297.73 505.065 297.809 505.039 297.883C505.013 297.957 504.971 298.025 504.917 298.083C504.863 298.14 504.798 298.186 504.725 298.217C504.653 298.249 504.575 298.265 504.496 298.264L502.107 298.373C501.977 298.376 501.851 298.424 501.752 298.507C501.652 298.59 501.584 298.704 501.558 298.831C501.374 299.643 501.099 300.431 500.738 301.182C500.682 301.297 500.666 301.428 500.691 301.553C500.717 301.679 500.783 301.793 500.879 301.878L502.212 303.04H479.292L480.462 302.003C480.561 301.919 480.628 301.804 480.652 301.678C480.677 301.551 480.657 301.419 480.598 301.305C480.223 300.56 479.934 299.775 479.735 298.966C479.705 298.841 479.634 298.73 479.535 298.648C479.435 298.566 479.312 298.519 479.183 298.514L476.783 298.422C476.704 298.422 476.626 298.406 476.554 298.375C476.481 298.344 476.416 298.298 476.362 298.241C476.308 298.184 476.267 298.117 476.24 298.043C476.214 297.969 476.203 297.89 476.208 297.812L476.357 293.893C476.357 293.814 476.373 293.737 476.404 293.665C476.435 293.593 476.481 293.528 476.539 293.474C476.596 293.42 476.664 293.379 476.738 293.353C476.812 293.326 476.891 293.315 476.97 293.32L479.358 293.412C479.486 293.414 479.611 293.375 479.715 293.301C479.818 293.226 479.895 293.121 479.933 292.999C480.186 292.207 480.527 291.444 480.948 290.726C481.016 290.617 481.044 290.488 481.029 290.36C481.014 290.232 480.956 290.113 480.865 290.022L479.195 288.304C479.138 288.251 479.093 288.186 479.062 288.115C479.032 288.044 479.016 287.967 479.016 287.889C479.016 287.811 479.032 287.735 479.062 287.663C479.093 287.592 479.138 287.527 479.195 287.474L482.026 284.748C482.137 284.638 482.288 284.576 482.445 284.576C482.601 284.576 482.752 284.638 482.863 284.748L484.524 286.466C484.613 286.561 484.731 286.623 484.86 286.642C484.988 286.661 485.119 286.637 485.232 286.572C485.961 286.174 486.732 285.858 487.531 285.63C487.656 285.595 487.766 285.519 487.844 285.416C487.922 285.313 487.963 285.187 487.963 285.058V282.664C487.962 282.511 488.022 282.363 488.129 282.252C488.237 282.142 488.383 282.078 488.538 282.074H492.476C492.553 282.072 492.63 282.085 492.701 282.113C492.773 282.141 492.839 282.183 492.894 282.236C492.949 282.289 492.993 282.353 493.023 282.424C493.053 282.495 493.068 282.57 493.068 282.647V285.029C493.067 285.159 493.109 285.286 493.188 285.39C493.268 285.493 493.379 285.568 493.505 285.602C494.312 285.818 495.091 286.124 495.828 286.515C495.941 286.578 496.072 286.601 496.2 286.581C496.328 286.561 496.445 286.498 496.532 286.403L498.191 284.668C498.245 284.612 498.309 284.568 498.379 284.536C498.45 284.505 498.526 284.488 498.604 284.486C498.681 284.484 498.758 284.498 498.831 284.525C498.903 284.553 498.969 284.595 499.025 284.648L501.877 287.354C501.933 287.407 501.978 287.471 502.009 287.541C502.041 287.612 502.058 287.688 502.06 287.765C502.061 287.842 502.048 287.919 502.02 287.991C501.992 288.062 501.95 288.128 501.897 288.184L500.247 289.902C500.155 289.994 500.098 290.115 500.085 290.244C500.071 290.373 500.102 290.503 500.172 290.612Z" fill="#484949"/>
<path d="M488.899 292.804C492.636 291.306 495.911 295.131 493.832 298.573C493.466 299.174 492.914 299.642 492.26 299.907C488.522 301.404 485.245 297.579 487.327 294.141C487.69 293.536 488.243 293.067 488.899 292.804Z" fill="white"/>
<path fill-rule="evenodd" clip-rule="evenodd" d="M86.5781 303.383C86.1623 304.074 85.8242 304.808 85.57 305.572C85.5298 305.704 85.4416 305.816 85.3226 305.887C85.2037 305.958 85.0625 305.982 84.9267 305.954L82.6014 305.852C82.5248 305.846 82.4479 305.856 82.3754 305.881C82.3029 305.907 82.2365 305.947 82.1803 305.999C82.124 306.051 82.0792 306.114 82.0486 306.184C82.0181 306.254 82.0024 306.33 82.0027 306.406L81.8328 310.203C81.8274 310.279 81.8379 310.355 81.8634 310.427C81.889 310.499 81.9292 310.565 81.9814 310.621C82.0337 310.676 82.0969 310.721 82.1672 310.751C82.2374 310.781 82.3132 310.797 82.3897 310.797L84.7039 310.902C84.8299 310.905 84.9511 310.951 85.0477 311.031C85.1443 311.112 85.2107 311.223 85.2358 311.346C85.4137 312.132 85.6799 312.896 86.0295 313.623C86.0837 313.734 86.0998 313.861 86.0751 313.982C86.0505 314.104 85.9865 314.214 85.893 314.297L84.6021 315.423H106.805L105.671 314.419C105.576 314.337 105.511 314.226 105.487 314.103C105.463 313.98 105.482 313.853 105.54 313.742C105.902 313.02 106.183 312.26 106.375 311.476C106.405 311.355 106.473 311.247 106.569 311.168C106.666 311.089 106.785 311.043 106.91 311.038L109.235 310.949C109.312 310.949 109.387 310.934 109.457 310.904C109.527 310.874 109.59 310.83 109.643 310.774C109.695 310.719 109.735 310.653 109.761 310.582C109.787 310.51 109.797 310.434 109.792 310.358L109.648 306.562C109.648 306.486 109.632 306.41 109.602 306.341C109.572 306.271 109.527 306.208 109.472 306.156C109.416 306.104 109.35 306.064 109.279 306.038C109.207 306.013 109.13 306.002 109.054 306.007L106.74 306.096C106.617 306.098 106.495 306.06 106.395 305.988C106.295 305.916 106.22 305.814 106.183 305.696C105.938 304.928 105.608 304.19 105.2 303.494C105.135 303.388 105.107 303.263 105.122 303.139C105.136 303.016 105.192 302.9 105.281 302.812L106.899 301.148C106.954 301.096 106.997 301.034 107.027 300.965C107.057 300.896 107.072 300.821 107.072 300.746C107.072 300.671 107.057 300.596 107.027 300.527C106.997 300.458 106.954 300.396 106.899 300.344L104.156 297.704C104.048 297.597 103.903 297.537 103.751 297.537C103.599 297.537 103.453 297.597 103.345 297.704L101.736 299.368C101.65 299.459 101.536 299.519 101.411 299.538C101.287 299.557 101.16 299.533 101.051 299.47C100.344 299.085 99.5972 298.779 98.8229 298.558C98.7021 298.523 98.5959 298.45 98.5205 298.35C98.4451 298.25 98.4046 298.128 98.4052 298.003V295.685C98.406 295.536 98.3481 295.392 98.2439 295.286C98.1398 295.179 97.9977 295.117 97.8483 295.113H94.033C93.9585 295.111 93.8843 295.124 93.8148 295.151C93.7453 295.178 93.6819 295.218 93.6284 295.27C93.5749 295.321 93.5323 295.383 93.5033 295.452C93.4743 295.52 93.4594 295.594 93.4594 295.668V297.975C93.4606 298.101 93.4197 298.224 93.343 298.325C93.2664 298.425 93.1584 298.497 93.0361 298.53C92.255 298.74 91.5002 299.036 90.786 299.415C90.6766 299.476 90.5498 299.498 90.4259 299.479C90.3021 299.459 90.1886 299.398 90.1037 299.307L88.4968 297.626C88.4451 297.572 88.3832 297.528 88.3146 297.498C88.246 297.468 88.1721 297.451 88.0971 297.45C88.0221 297.448 87.9475 297.461 87.8775 297.488C87.8075 297.515 87.7435 297.555 87.6892 297.607L84.9267 300.227C84.8724 300.279 84.8287 300.341 84.7983 300.409C84.768 300.477 84.7514 300.551 84.7496 300.625C84.7478 300.7 84.7607 300.774 84.7878 300.844C84.8148 300.914 84.8554 300.978 84.9072 301.032L86.5057 302.696C86.5942 302.785 86.6495 302.902 86.6627 303.027C86.6758 303.152 86.646 303.278 86.5781 303.383Z" fill="#303030"/>
<path d="M97.5029 305.508C93.8826 304.058 90.7107 307.763 92.7241 311.096C93.079 311.679 93.6132 312.132 94.2474 312.389C97.8677 313.839 101.042 310.134 99.0262 306.803C98.6736 306.218 98.1387 305.763 97.5029 305.508Z" fill="white"/>
<path d="M414.508 194.81L412.915 195.591L414.09 197.97L415.683 197.19L414.508 194.81Z" fill="#FFB68E"/>
<path d="M397.663 197.823L397.612 200.474L399.387 200.508L399.438 197.857L397.663 197.823Z" fill="#FFB68E"/>
<path d="M415.431 196.419C415.29 196.497 414.865 196.951 414.509 197.084C414.104 197.235 413.58 196.991 413.429 197.104C413.278 197.217 412.217 199.206 412.217 199.206L410.88 200.335C410.799 200.402 410.744 200.495 410.724 200.598C410.704 200.7 410.72 200.807 410.769 200.899L410.918 201.183L411.132 201.587L413.784 200.202L415.152 199.098L415.313 199.402L417.046 198.496L416.67 197.787C416.391 197.252 415.572 196.344 415.431 196.419Z" fill="#303030"/>
<path d="M399.644 199.971C399.483 199.971 398.889 200.165 398.513 200.109C398.085 200.049 397.758 199.583 397.559 199.608C397.36 199.633 395.481 200.862 395.481 200.862L393.76 201.208C393.658 201.229 393.565 201.284 393.498 201.364C393.431 201.444 393.394 201.545 393.393 201.649V201.968V202.427L396.385 202.485L398.12 202.174V202.517L400.077 202.555L400.092 201.752C400.077 201.16 399.8 199.971 399.644 199.971Z" fill="#303030"/>
<path d="M412.988 196.335L415.175 195.565C415.175 195.565 411.931 180.908 409.837 176.814C407.744 172.721 407.485 172.174 406.979 170.273C406.472 168.371 406.475 153.777 406.475 153.777L399.057 158.501C399.057 158.501 400.445 170.96 401.735 174.497C403.024 178.034 412.988 196.335 412.988 196.335Z" fill="#484949"/>
<path d="M397.472 198.47L399.915 198.517C399.915 198.517 401.731 188.822 402.069 185.316C402.406 181.809 403.051 176.684 402.824 174.78C405.662 167.248 407.543 159.392 408.424 151.395L395.401 151.144C395.401 151.144 396.054 173.589 396.039 174.402C396.024 175.214 397.472 198.47 397.472 198.47Z" fill="#757575"/>
<path d="M385.172 114.577L383.736 115.338L384.755 117.247L386.192 116.487L385.172 114.577Z" fill="#FFC7AE"/>
<path d="M404.929 133.879C404.191 134.918 402.509 136.104 401.728 135.537C401.728 135.537 389.638 129.705 389.245 128.456C388.852 127.207 383.996 116.233 383.996 116.233L386.011 115.601C386.011 115.601 392.371 125.356 392.645 126.249C392.92 127.142 404.871 130.98 404.871 130.98C405.644 131.546 405.665 132.831 404.929 133.879Z" fill="#4167C1"/>
<path d="M382.519 115.021C382.174 114.848 382.705 113.998 382.823 113.611C382.942 113.225 384.987 112.879 385.191 113.11C385.395 113.34 385.423 114.913 385.075 115.305C384.728 115.696 383.022 115.272 382.519 115.021Z" fill="#FFC7AE"/>
<path d="M408.43 136.792C408.43 136.255 407.843 132.129 407.092 130.965C406.792 130.501 405.253 129.806 403.873 129.746C402.342 129.68 401.15 129.821 399.639 131.075C398.128 132.329 396.38 134.542 396.14 137.176C395.901 139.809 394.984 151.473 394.984 151.473C394.984 151.473 397.269 152.377 401.045 152.778C404.82 153.179 408.666 152.334 408.666 152.334C408.903 149.953 408.402 138.116 408.43 136.792Z" fill="#6F90DE"/>
<path d="M403.417 130.826C404.425 130.826 405.684 130.826 405.755 130.144L405.936 126.311L402.707 127.036L402.291 129.933C402.158 130.576 402.662 130.826 403.417 130.826Z" fill="#FFC7AE"/>
<path d="M402.405 129.148L405.785 129.527L405.937 126.311L402.901 126.994L402.705 127.064L402.405 129.148Z" fill="#F3937A"/>
<path d="M390.349 127.837L388.811 128.367L389.498 130.344L391.036 129.814L390.349 127.837Z" fill="#FFC7AE"/>
<path d="M405.487 133.193C405.739 134.447 405.422 136.472 404.48 136.64C404.48 136.64 397.771 140.419 394.207 141.234C392.698 141.58 392.344 140.769 391.878 140.303C390.946 139.371 389.141 129.503 389.141 129.503L390.821 128.819C390.821 128.819 393.275 135.644 393.741 136.11C393.741 136.11 394.207 137.252 395.605 136.64C398.125 135.535 403.344 131.229 403.344 131.229C404.296 131.061 405.248 131.944 405.487 133.193Z" fill="#6F90DE"/>
<path d="M384.68 112.764C384.229 112.776 383.787 112.641 383.421 112.378C382.917 111.959 383.002 112.88 383.564 113.181C384.126 113.482 384.803 113.853 385.038 113.683C385.113 113.609 385.166 113.516 385.189 113.413C385.211 113.31 385.203 113.203 385.165 113.105C385.127 113.007 385.06 112.923 384.974 112.862C384.888 112.801 384.785 112.767 384.68 112.764Z" fill="#FFC7AE"/>
<path d="M400.824 120.863C400.824 120.863 398.471 127.384 400.99 128.466C403.509 129.547 406.347 126.037 406.347 126.037L406.884 121.096L400.824 120.863Z" fill="#FFBA9F"/>
<path d="M406.952 125.093L405.96 124.93L405.68 121.669L406.537 120.071C406.537 120.071 406.194 119.128 407.071 119.068C407.947 119.008 408.897 120.275 408.93 121.464C408.99 123.776 406.952 125.093 406.952 125.093Z" fill="#303030"/>
<path d="M406.088 126.225L405.995 126.21L406.413 123.671L407.116 123.787C407.185 123.798 407.252 123.823 407.311 123.859C407.371 123.896 407.423 123.945 407.464 124.001C407.505 124.058 407.534 124.123 407.55 124.191C407.566 124.259 407.568 124.33 407.557 124.399L407.413 125.279C407.363 125.579 407.195 125.847 406.947 126.025C406.699 126.202 406.39 126.274 406.088 126.225Z" fill="#FFBA9F"/>
<path d="M407.611 120.976C407.419 122.215 405.762 122.983 401.369 121.551C398.78 120.703 398.216 118.375 398.944 117.352C399.926 115.972 401.621 116.996 404.316 117.409C407.011 117.823 407.802 119.737 407.611 120.976Z" fill="#303030"/>
<path d="M395.885 140.89L395.789 140.657C398.604 139.502 401.352 138.192 404.021 136.734L404.142 136.954C401.464 138.416 398.708 139.73 395.885 140.89Z" fill="#484949"/>
<path d="M383.897 114.04C386.55 116.561 391.141 122.558 388.275 126.379C385.409 130.2 384.428 131.686 384.295 131.951" stroke="#757575" stroke-width="1.59213"/>
<path d="M383.91 113.973C383.865 114.279 383.028 115.114 382.708 115.169C382.389 115.224 381.414 113.893 381.515 113.664C381.615 113.436 382.724 112.857 383.127 112.964C383.53 113.072 383.955 113.669 383.91 113.973Z" fill="#FFC7AE"/>
<path d="M389.24 128.94C388.999 128.963 388.755 128.928 388.529 128.838C388.304 128.748 388.104 128.605 387.946 128.421C387.565 127.989 387.15 126.8 387.15 126.8C387.15 126.8 387.22 125.584 388.069 125.724C388.918 125.865 390.53 127.024 390.48 127.924C390.457 128.318 389.603 128.88 389.24 128.94Z" fill="#FFC7AE"/>
<path opacity="0.83" d="M173.715 307.165L246.556 147.888L286.291 141.139L361.867 307.165H173.715Z" fill="#FFF9E1"/>
<path d="M269.823 5.83419L270.92 4.68064L385.498 114.437L384.304 115.233L269.823 5.83419Z" fill="#757575"/>
<rect x="267.681" y="6.56982" width="1.59213" height="100.304" fill="#757575"/>
<path d="M287.063 151.473C287.063 151.473 281.594 154.651 267.92 154.651C254.246 154.651 248.777 151.473 248.777 151.473L250.601 148.297L267.477 146.04L284.796 148.759L287.063 151.473Z" fill="#F7BC46"/>
<path d="M267.925 93.2771C269.343 93.2771 270.702 93.8378 271.705 94.836C272.708 95.8341 273.272 97.188 273.272 98.5999V105.957C273.272 108.897 270.877 110.302 267.925 110.302C264.973 110.302 262.58 108.897 262.58 105.957V98.5999C262.58 97.9009 262.718 97.2088 262.987 96.563C263.255 95.9172 263.649 95.3304 264.145 94.8361C264.642 94.3418 265.231 93.9498 265.879 93.6823C266.528 93.4148 267.223 93.2771 267.925 93.2771Z" fill="#303030"/>
<path d="M291.844 153.521C291.844 153.521 285.008 157.492 267.916 157.492C250.823 157.492 243.987 153.521 243.987 153.521L246.254 149.548L267.346 146.706L289.008 150.11L291.844 153.521Z" fill="#FFD012"/>
<path d="M267.93 107.324C269.474 107.324 270.928 107.698 270.928 109.348V115.853H264.933V109.348C264.933 107.698 266.389 107.324 267.93 107.324Z" fill="#484949"/>
<path d="M267.935 155.789C264.371 155.789 261.482 153.073 261.482 149.722V136.497H274.388V149.717C274.388 153.073 271.499 155.789 267.935 155.789Z" fill="#FFF666"/>
<path d="M291.844 153.521C291.844 150.114 243.987 150.114 243.987 153.521L258.231 113.8C258.231 110.775 277.331 110.775 277.331 113.8L291.844 153.521Z" fill="#303030"/>
<path d="M269.116 9.52636C271.481 9.52636 273.398 7.61718 273.398 5.26208C273.398 2.90699 271.481 0.997803 269.116 0.997803C266.751 0.997803 264.834 2.90699 264.834 5.26208C264.834 7.61718 266.751 9.52636 269.116 9.52636Z" fill="#5D5D5D"/>
<path d="M267.791 315.943C319.748 315.943 361.867 312.069 361.867 307.289C361.867 302.51 319.748 298.635 267.791 298.635C215.834 298.635 173.715 302.51 173.715 307.289C173.715 312.069 215.834 315.943 267.791 315.943Z" fill="#FFF5CF"/>
<path d="M455.357 315.937L456.848 315.945L417.037 198.416L415.546 198.411L455.357 315.937Z" fill="#757575"/>
<path d="M432.238 315.835L433.732 315.842L393.918 198.314L392.427 198.309L432.238 315.835Z" fill="#757575"/>
<path d="M398.964 215.417L422.084 215.52L421.58 214.035L398.461 213.93L398.964 215.417Z" fill="#757575"/>
<path d="M395.184 204.26L418.302 204.363L417.798 202.876L394.681 202.773L395.184 204.26Z" fill="#757575"/>
<path d="M402.744 226.575L425.864 226.681L425.36 225.193L402.241 225.088L402.744 226.575Z" fill="#757575"/>
<path d="M406.521 237.735L429.641 237.838L429.137 236.35L406.017 236.248L406.521 237.735Z" fill="#757575"/>
<path d="M410.304 248.893L433.424 248.996L432.92 247.509L409.801 247.406L410.304 248.893Z" fill="#757575"/>
<path d="M414.081 260.05L437.198 260.153L436.694 258.666L413.577 258.563L414.081 260.05Z" fill="#757575"/>
<path d="M417.861 271.208L440.981 271.311L440.477 269.824L417.357 269.721L417.861 271.208Z" fill="#757575"/>
<path d="M421.655 282.364L444.773 282.467L444.269 280.98L421.152 280.877L421.655 282.364Z" fill="#757575"/>
<path d="M425.172 292.779L448.292 292.882L447.788 291.395L424.668 291.292L425.172 292.779Z" fill="#757575"/>
<path d="M428.948 303.936L452.068 304.039L451.564 302.552L428.444 302.449L428.948 303.936Z" fill="#757575"/>
<path d="M414.751 198.05L413.24 202.512L391.611 202.608L393.122 198.145H391.629L351.827 315.694H353.318L357.348 303.791L378.977 303.696L374.947 315.596H376.438L416.262 198.05H414.751ZM412.736 204L409.462 213.67L387.836 213.765L391.11 204.095L412.736 204ZM365.154 280.712L368.428 271.042L390.055 270.946L386.78 280.616L365.154 280.712ZM386.279 282.104L383.256 291.029L361.63 291.127L364.653 282.199L386.279 282.104ZM368.935 269.562L372.209 259.892L393.838 259.797L390.563 269.466L368.935 269.562ZM372.713 258.404L375.987 248.735L397.613 248.637L394.339 258.309L372.713 258.404ZM376.491 247.247L379.765 237.577L401.394 237.479L398.12 247.149L376.491 247.247ZM380.269 236.09L383.544 226.42L405.172 226.322L401.898 235.992L380.269 236.09ZM384.047 224.932L387.322 215.262L408.948 215.165L405.673 224.835L384.047 224.932ZM357.852 302.291L361.127 292.622L382.753 292.524L379.478 302.194L357.852 302.291Z" fill="#484949"/>
</svg>
