<svg width="13" height="9" viewBox="0 0 13 9" fill="none" xmlns="http://www.w3.org/2000/svg">
<path d="M0.722222 9H3.61111C4.00833 9 4.33333 8.6625 4.33333 8.25C4.33333 7.8375 4.00833 7.5 3.61111 7.5H0.722222C0.325 7.5 0 7.8375 0 8.25C0 8.6625 0.325 9 0.722222 9ZM0 0.75C0 1.1625 0.325 1.5 0.722222 1.5H12.2778C12.675 1.5 13 1.1625 13 0.75C13 0.3375 12.675 0 12.2778 0H0.722222C0.325 0 0 0.3375 0 0.75ZM0.722222 5.25H7.94444C8.34167 5.25 8.66667 4.9125 8.66667 4.5C8.66667 4.0875 8.34167 3.75 7.94444 3.75H0.722222C0.325 3.75 0 4.0875 0 4.5C0 4.9125 0.325 5.25 0.722222 5.25Z" fill="#303030"/>
</svg>
