<svg width="17" height="17" viewBox="0 0 17 17" fill="none" xmlns="http://www.w3.org/2000/svg">
<g clip-path="url(#clip0_245_11330)">
<path d="M15.2411 4.79244L10.6043 0.155623C10.5047 0.0559805 10.3696 0 10.2287 0H3.30401C2.36622 0 1.60328 0.762941 1.60328 1.70073V15.2993C1.60328 16.2371 2.36622 17 3.30401 17H13.696C14.6337 17 15.3967 16.2371 15.3967 15.2993V5.16807C15.3967 5.02719 15.3407 4.89205 15.2411 4.79244ZM10.7599 1.81382L13.5829 4.63685H10.7599V1.81382ZM13.696 15.9375H3.30401C2.95209 15.9375 2.66578 15.6512 2.66578 15.2993V1.70073C2.66578 1.34881 2.95209 1.0625 3.30401 1.0625H9.6974V5.16807C9.6974 5.46145 9.93527 5.69932 10.2287 5.69932H14.3342V15.2993C14.3342 15.6512 14.0479 15.9375 13.696 15.9375ZM12.2984 8.82625C12.2984 9.11964 12.0606 9.3575 11.7672 9.3575H5.23281C4.93943 9.3575 4.70156 9.11964 4.70156 8.82625C4.70156 8.53287 4.93943 8.295 5.23281 8.295H11.7672C12.0606 8.295 12.2984 8.53284 12.2984 8.82625ZM12.2984 12.452C12.2984 12.7454 12.0606 12.9833 11.7672 12.9833H5.23281C4.93943 12.9833 4.70156 12.7454 4.70156 12.452C4.70156 12.1586 4.93943 11.9208 5.23281 11.9208H11.7672C12.0606 11.9208 12.2984 12.1586 12.2984 12.452Z" fill="#7389BF"/>
</g>
<defs>
<clipPath id="clip0_245_11330">
<rect width="17" height="17" fill="white"/>
</clipPath>
</defs>
</svg>
