<svg width="11" height="14" viewBox="0 0 11 14" fill="none" xmlns="http://www.w3.org/2000/svg">
<path d="M9.8052 7.52737C9.53864 7.2885 9.10803 7.2885 8.84146 7.52737L6.18265 9.90379V0.612479C6.18265 0.275616 5.87507 0 5.49915 0C5.12322 0 4.81564 0.275616 4.81564 0.612479V9.90992L2.16366 7.5335C1.8971 7.29463 1.46649 7.29463 1.19992 7.5335C0.933359 7.77236 0.933359 8.15823 1.19992 8.39709L5.0207 11.8209C5.28726 12.0597 5.71787 12.0597 5.98443 11.8209L9.8052 8.39709C10.0649 8.15823 10.0649 7.76624 9.8052 7.52737Z" fill="#7389BF"/>
<rect y="13" width="11" height="1" rx="0.5" fill="#7389BF"/>
</svg>
