<svg width="18" height="13" viewBox="0 0 18 13" fill="none" xmlns="http://www.w3.org/2000/svg">
<path d="M10.875 11.25H4.87499C4.66799 11.25 4.49999 11.082 4.49999 10.875C4.49999 10.668 4.66799 10.5 4.87499 10.5H10.5V0.749998H0.749998V10.5H1.875C2.08199 10.5 2.24999 10.668 2.24999 10.875C2.24999 11.082 2.08199 11.25 1.875 11.25H0.374999C0.168 11.25 0 11.082 0 10.875V0.374999C0 0.168 0.168 0 0.374999 0H10.875C11.082 0 11.25 0.168 11.25 0.374999V10.875C11.25 11.082 11.082 11.25 10.875 11.25Z" fill="#303030"/>
<path d="M10.8759 6.74999C10.6689 6.74999 10.5009 6.58199 10.5009 6.37499V2.625C10.5009 2.418 10.6689 2.25 10.8759 2.25H13.4543C14.3161 2.25 15.0638 2.8335 15.2738 3.6705L15.7396 5.53424C15.7891 5.73524 15.6668 5.93849 15.4666 5.98874C15.2633 6.03674 15.0616 5.91599 15.0121 5.71574L14.5463 3.852C14.4211 3.35025 13.9718 3 13.4543 3H11.2509V6.37499C11.2509 6.58199 11.0829 6.74999 10.8759 6.74999Z" fill="#303030"/>
<path d="M17.6258 11.25H15.7508C15.5438 11.25 15.3758 11.082 15.3758 10.875C15.3758 10.668 15.5438 10.5 15.7508 10.5H17.2508V7.32596L15.2626 5.99997H11.2509V10.5H12.7508C12.9578 10.5 13.1258 10.668 13.1258 10.875C13.1258 11.082 12.9578 11.25 12.7508 11.25H10.8759C10.6689 11.25 10.5009 11.082 10.5009 10.875V5.62497C10.5009 5.41797 10.6689 5.24997 10.8759 5.24997H15.3758C15.4501 5.24997 15.5221 5.27172 15.5836 5.31297L17.8336 6.81297C17.9378 6.88271 18.0008 6.99971 18.0008 7.12496V10.875C18.0008 11.082 17.8328 11.25 17.6258 11.25Z" fill="#303030"/>
<path d="M14.25 12.7499C13.2157 12.7499 12.375 11.9092 12.375 10.8749C12.375 9.84069 13.2157 8.99994 14.25 8.99994C15.2842 8.99994 16.125 9.84069 16.125 10.8749C16.125 11.9092 15.2842 12.7499 14.25 12.7499ZM14.25 9.74994C13.6297 9.74994 13.125 10.2547 13.125 10.8749C13.125 11.4952 13.6297 11.9999 14.25 11.9999C14.8702 11.9999 15.375 11.4952 15.375 10.8749C15.375 10.2547 14.8702 9.74994 14.25 9.74994Z" fill="#303030"/>
<path d="M3.37585 12.75C2.3416 12.75 1.50085 11.9092 1.50085 10.875C1.50085 9.84072 2.3416 8.99997 3.37585 8.99997C4.4101 8.99997 5.25085 9.84072 5.25085 10.875C5.25085 11.9092 4.4101 12.75 3.37585 12.75ZM3.37585 9.74997C2.7556 9.74997 2.25085 10.2547 2.25085 10.875C2.25085 11.4952 2.7556 12 3.37585 12C3.9961 12 4.50085 11.4952 4.50085 10.875C4.50085 10.2547 3.9961 9.74997 3.37585 9.74997Z" fill="#303030"/>
</svg>
