<svg width="162" height="29" viewBox="0 0 162 29" fill="none" xmlns="http://www.w3.org/2000/svg">
<circle cx="14.5" cy="14.5" r="14.5" fill="#232323"/>
<path d="M6.41526 23.3811C6.17532 23.3929 5.98047 23.197 5.98047 22.9568C5.98047 22.7166 6.17535 22.5231 6.41522 22.5101C7.32002 22.461 8.21106 22.2588 9.05015 21.9113C10.0234 21.5081 10.9076 20.9173 11.6525 20.1724C12.3974 19.4276 12.9882 18.5433 13.3913 17.5701C13.6388 16.9727 13.8125 16.3491 13.9098 15.7129H6.45198C6.19157 15.7129 5.98047 15.5017 5.98047 15.2413C5.98047 14.9809 6.19157 14.7698 6.45198 14.7698H13.9974C14.0004 14.6801 14.0019 14.5903 14.0019 14.5004C14.0019 14.3655 13.9985 14.2307 13.9918 14.0962H6.45198C6.19157 14.0962 5.98047 13.8851 5.98047 13.6247C5.98047 13.3643 6.19157 13.1532 6.45198 13.1532H13.888C13.7876 12.5637 13.6213 11.9858 13.3913 11.4307C12.9882 10.4575 12.3974 9.57322 11.6525 8.82835C10.9076 8.08349 10.0234 7.49264 9.05015 7.08952C8.21106 6.74195 7.32003 6.53982 6.41522 6.49071C6.17536 6.47769 5.98047 6.28418 5.98047 6.04396C5.98047 5.80374 6.17532 5.6079 6.41526 5.61964C7.43436 5.66954 8.4384 5.89453 9.38305 6.28582C10.4618 6.73266 11.442 7.38759 12.2676 8.21323C13.0933 9.03887 13.7482 10.0191 14.195 11.0978C14.3276 11.4178 14.441 11.7445 14.5351 12.0764C14.6291 11.7445 14.7425 11.4178 14.8751 11.0978C15.3219 10.0191 15.9768 9.03887 16.8025 8.21323C17.6281 7.38759 18.6083 6.73266 19.6871 6.28582C20.6317 5.89453 21.6358 5.66954 22.6549 5.61964C22.8948 5.6079 23.0896 5.80374 23.0896 6.04396C23.0896 6.28418 22.8948 6.47769 22.6549 6.49071C21.7501 6.53982 20.8591 6.74195 20.02 7.08952C19.0468 7.49264 18.1625 8.08349 17.4176 8.82835C16.6728 9.57322 16.0819 10.4575 15.6788 11.4307C15.4488 11.9858 15.2826 12.5637 15.1821 13.1532H22.6181C22.8785 13.1532 23.0896 13.3643 23.0896 13.6247C23.0896 13.8851 22.8785 14.0962 22.6181 14.0962H15.0784C15.0716 14.2307 15.0682 14.3655 15.0682 14.5004C15.0682 14.5903 15.0697 14.6801 15.0727 14.7698H22.6181C22.8785 14.7698 23.0896 14.9809 23.0896 15.2413C23.0896 15.5017 22.8785 15.7129 22.6181 15.7129H15.1603C15.2576 16.3491 15.4313 16.9727 15.6788 17.5701C16.0819 18.5433 16.6728 19.4276 17.4176 20.1724C18.1625 20.9173 19.0468 21.5081 20.02 21.9113C20.8591 22.2588 21.7501 22.461 22.6549 22.5101C22.8948 22.5231 23.0896 22.7166 23.0896 22.9568C23.0896 23.197 22.8948 23.3929 22.6549 23.3811C21.6358 23.3312 20.6317 23.1062 19.6871 22.715C18.6083 22.2681 17.6281 21.6132 16.8025 20.7875C15.9768 19.9619 15.3219 18.9817 14.8751 17.903C14.7425 17.583 14.6291 17.2562 14.5351 16.9244C14.441 17.2562 14.3276 17.583 14.195 17.903C13.7482 18.9817 13.0933 19.9619 12.2676 20.7875C11.442 21.6132 10.4618 22.2681 9.38305 22.715C8.4384 23.1062 7.43436 23.3312 6.41526 23.3811Z" fill="#FFD012"/>
<path d="M36.1709 19H38.1943L41.0859 11.8359C41.1543 11.6628 41.209 11.5124 41.25 11.3848C41.2956 11.2526 41.3411 11.1182 41.3867 10.9814H41.4277C41.4733 11.1136 41.5166 11.2458 41.5576 11.3779C41.6032 11.5101 41.6602 11.6628 41.7285 11.8359L44.6201 19H46.835L42.5283 9.01953H40.4502L36.1709 19ZM38.2559 16.7168H44.6611L44.1279 15.2334H38.7822L38.2559 16.7168ZM48.8242 9.04688L48.5098 14.9395C48.4596 15.8327 48.3434 16.4434 48.1611 16.7715C47.9834 17.0996 47.694 17.2637 47.293 17.2637C47.1836 17.2637 47.0833 17.2568 46.9922 17.2432C46.9056 17.2295 46.8122 17.2067 46.7119 17.1748V19.0342C46.8395 19.0798 46.9762 19.1117 47.1221 19.1299C47.2725 19.1527 47.4434 19.1641 47.6348 19.1641C48.5964 19.1641 49.264 18.82 49.6377 18.1318C50.016 17.4437 50.2393 16.4753 50.3076 15.2266L50.5605 10.6738H54.5322V19H56.542V9.04688H48.8242ZM58.75 9.04688H60.7598V12.4785H63.4736C64.6768 12.4785 65.5586 12.7793 66.1191 13.3809C66.6842 13.9779 66.9668 14.764 66.9668 15.7393C66.9668 16.7555 66.682 17.5531 66.1123 18.1318C65.5426 18.7106 64.6654 19 63.4805 19H58.75V9.04688ZM60.7598 14.0371V17.4414H63.2275C63.8428 17.4414 64.2848 17.2933 64.5537 16.9971C64.8226 16.7008 64.957 16.2839 64.957 15.7461C64.957 15.2402 64.8226 14.8301 64.5537 14.5156C64.2848 14.1966 63.8428 14.0371 63.2275 14.0371H60.7598ZM76.1885 19H74.1787V15.3633H71.0889L70.665 15.2266C69.7809 15.1172 69.1042 14.7891 68.6348 14.2422C68.1699 13.6908 67.9375 12.9958 67.9375 12.1572C67.9375 11.2093 68.2474 10.4551 68.8672 9.89453C69.487 9.32943 70.3506 9.04688 71.458 9.04688H76.1885V19ZM74.1787 13.8867V10.5781H71.7314C71.098 10.5781 70.6445 10.7285 70.3711 11.0293C70.0977 11.3255 69.9609 11.722 69.9609 12.2188C69.9609 12.7155 70.0977 13.1188 70.3711 13.4287C70.6445 13.734 71.098 13.8867 71.7314 13.8867H74.1787ZM69.667 19H67.5L70.2891 14.4814H72.374L69.667 19ZM78.3828 19H80.3926V14.6934H85.3486V19H87.3584V9.04688H85.3486V13.0254H80.3926V9.04688H78.3828V19ZM88.9717 14.2012C88.9717 15.8646 89.457 17.1133 90.4277 17.9473C91.403 18.7767 92.6722 19.1914 94.2354 19.1914C95.7529 19.1914 96.9128 18.8883 97.7148 18.2822C98.5169 17.6715 98.959 16.8011 99.041 15.6709L99.0547 15.3975H97.0449L97.0312 15.6436C96.972 16.2223 96.7282 16.7031 96.2998 17.0859C95.8714 17.4688 95.1901 17.6602 94.2559 17.6602C93.2852 17.6602 92.5127 17.3981 91.9385 16.874C91.3643 16.3499 91.0771 15.5091 91.0771 14.3516V13.6953C91.0771 12.638 91.3574 11.8245 91.918 11.2549C92.4831 10.6852 93.2578 10.4004 94.2422 10.4004C95.1035 10.4004 95.7507 10.585 96.1836 10.9541C96.6165 11.3232 96.8945 11.8063 97.0176 12.4033L97.0381 12.6631H99.0547L99.0342 12.417C98.8519 11.2184 98.3734 10.3252 97.5986 9.7373C96.8239 9.14941 95.7005 8.85547 94.2285 8.85547C92.6836 8.85547 91.4212 9.27018 90.4414 10.0996C89.4616 10.9245 88.9717 12.1732 88.9717 13.8457V14.2012ZM107.094 8.91016H105.091V10.1543H104.633C102.992 10.1543 101.762 10.487 100.941 11.1523C100.121 11.8132 99.7109 12.7451 99.7109 13.9482C99.7109 15.1514 100.117 16.0879 100.928 16.7578C101.743 17.4232 102.985 17.7559 104.653 17.7559H105.091V19.1367H107.094V17.7559H107.538C109.201 17.7559 110.441 17.4232 111.257 16.7578C112.073 16.0879 112.48 15.1514 112.48 13.9482C112.48 12.7451 112.07 11.8132 111.25 11.1523C110.43 10.487 109.197 10.1543 107.552 10.1543H107.094V8.91016ZM107.559 11.7061C108.625 11.7061 109.375 11.9043 109.808 12.3008C110.245 12.6927 110.464 13.2487 110.464 13.9688C110.464 14.6979 110.247 15.2607 109.814 15.6572C109.382 16.0537 108.63 16.252 107.559 16.252H107.094V11.7061H107.559ZM104.633 11.7061H105.098V16.252H104.633C103.562 16.252 102.808 16.0537 102.37 15.6572C101.937 15.2562 101.721 14.6956 101.721 13.9756C101.721 13.2464 101.937 12.6859 102.37 12.2939C102.808 11.902 103.562 11.7061 104.633 11.7061ZM113.998 19H121.538V17.4141H115.953V14.666H120.807V13.1553H115.953V10.6602H121.456V9.04688H113.998V19ZM123.09 19H125.1V15.6982H127.82C129.023 15.7028 129.921 15.4066 130.514 14.8096C131.111 14.208 131.409 13.3945 131.409 12.3691C131.409 11.3118 131.108 10.4938 130.507 9.91504C129.91 9.33626 129.021 9.04688 127.841 9.04688H123.09V19ZM125.1 14.1943V10.6055H127.533C128.203 10.6055 128.682 10.7627 128.969 11.0771C129.256 11.3916 129.399 11.8291 129.399 12.3896C129.399 12.9456 129.256 13.3854 128.969 13.709C128.682 14.0326 128.203 14.1943 127.533 14.1943H125.1ZM132.77 19H140.31V17.4141H134.725V14.666H139.578V13.1553H134.725V10.6602H140.228V9.04688H132.77V19ZM148.656 19H151.186L145.819 13.2031L144.22 14.1875L148.656 19ZM142.887 13.0596V14.7002H145.293L150.851 9.04688H148.526L144.671 13.0596H142.887ZM141.861 19H143.871V9.04688H141.861V19ZM151.274 14.2012C151.274 15.8646 151.76 17.1133 152.73 17.9473C153.706 18.7767 154.975 19.1914 156.538 19.1914C158.056 19.1914 159.215 18.8883 160.018 18.2822C160.82 17.6715 161.262 16.8011 161.344 15.6709L161.357 15.3975H159.348L159.334 15.6436C159.275 16.2223 159.031 16.7031 158.603 17.0859C158.174 17.4688 157.493 17.6602 156.559 17.6602C155.588 17.6602 154.815 17.3981 154.241 16.874C153.667 16.3499 153.38 15.5091 153.38 14.3516V13.6953C153.38 12.638 153.66 11.8245 154.221 11.2549C154.786 10.6852 155.561 10.4004 156.545 10.4004C157.406 10.4004 158.053 10.585 158.486 10.9541C158.919 11.3232 159.197 11.8063 159.32 12.4033L159.341 12.6631H161.357L161.337 12.417C161.155 11.2184 160.676 10.3252 159.901 9.7373C159.127 9.14941 158.003 8.85547 156.531 8.85547C154.986 8.85547 153.724 9.27018 152.744 10.0996C151.764 10.9245 151.274 12.1732 151.274 13.8457V14.2012Z" fill="#303030"/>
</svg>
