<svg width="13" height="17" viewBox="0 0 13 17" fill="none" xmlns="http://www.w3.org/2000/svg">
<path d="M6.77083 16.6667H5.72917C4.29271 16.6667 3.125 15.499 3.125 14.0625V12.4833C3.125 11.9948 2.8875 11.5365 2.47604 11.225C0.902083 10.0385 0 8.225 0 6.25C0 2.80313 2.80312 0 6.25 0C9.69687 0 12.5 2.80313 12.5 6.25C12.5 8.225 11.5979 10.0385 10.024 11.225C9.6125 11.5365 9.375 11.9958 9.375 12.4833V14.0625C9.375 15.499 8.20729 16.6667 6.77083 16.6667ZM6.25 1.04167C3.37812 1.04167 1.04167 3.37813 1.04167 6.25C1.04167 7.89479 1.79375 9.40521 3.10313 10.3938C3.77917 10.9042 4.16667 11.6646 4.16667 12.4833V14.0625C4.16667 14.924 4.86771 15.625 5.72917 15.625H6.77083C7.63229 15.625 8.33333 14.924 8.33333 14.0625V12.4833C8.33333 11.6646 8.72083 10.9031 9.39687 10.3927C10.7062 9.40521 11.4583 7.89479 11.4583 6.25C11.4583 3.37813 9.12187 1.04167 6.25 1.04167Z" fill="#303030"/>
<path d="M8.85417 13.5417H3.64583C3.35833 13.5417 3.125 13.3083 3.125 13.0208C3.125 12.7333 3.35833 12.5 3.64583 12.5H8.85417C9.14167 12.5 9.375 12.7333 9.375 13.0208C9.375 13.3083 9.14167 13.5417 8.85417 13.5417Z" fill="#303030"/>
</svg>
