<svg width="50" height="56" viewBox="0 0 50 56" fill="none" xmlns="http://www.w3.org/2000/svg">
<rect x="0.207031" width="49.7094" height="49.7094" rx="24.8547" fill="#FFB800"/>
<circle cx="25.065" cy="24.854" r="19.8838" fill="#232323"/>
<path d="M13.9778 37.0329C13.6488 37.049 13.3816 36.7804 13.3816 36.451C13.3816 36.1216 13.6488 35.8563 13.9778 35.8384C15.2185 35.7711 16.4404 35.4939 17.591 35.0173C18.9256 34.4645 20.1382 33.6542 21.1596 32.6328C22.181 31.6114 22.9913 30.3988 23.5441 29.0642C23.8834 28.2451 24.1216 27.3899 24.255 26.5174H14.0282C13.6711 26.5174 13.3816 26.2279 13.3816 25.8708C13.3816 25.5137 13.6711 25.2243 14.0282 25.2243H24.3752C24.3793 25.1012 24.3814 24.9781 24.3814 24.8548C24.3814 24.6697 24.3767 24.485 24.3674 24.3006H14.0282C13.6711 24.3006 13.3816 24.0111 13.3816 23.654C13.3816 23.2969 13.6711 23.0074 14.0282 23.0074H24.2251C24.0874 22.199 23.8594 21.4066 23.5441 20.6453C22.9913 19.3108 22.181 18.0982 21.1596 17.0767C20.1382 16.0553 18.9256 15.2451 17.591 14.6923C16.4404 14.2157 15.2185 13.9385 13.9778 13.8711C13.6488 13.8533 13.3816 13.5879 13.3816 13.2585C13.3816 12.9291 13.6488 12.6605 13.9778 12.6767C15.3753 12.7451 16.7521 13.0536 18.0475 13.5902C19.5268 14.2029 20.8709 15.101 22.0031 16.2332C23.1353 17.3654 24.0334 18.7095 24.6462 20.1888C24.8279 20.6276 24.9835 21.0757 25.1125 21.5308C25.2414 21.0757 25.397 20.6276 25.5787 20.1888C26.1915 18.7095 27.0896 17.3654 28.2218 16.2332C29.354 15.101 30.6981 14.2029 32.1774 13.5902C33.4728 13.0536 34.8496 12.7451 36.2471 12.6767C36.5761 12.6605 36.8433 12.9291 36.8433 13.2585C36.8433 13.5879 36.5761 13.8533 36.2471 13.8711C35.0064 13.9385 33.7845 14.2157 32.6339 14.6923C31.2993 15.2451 30.0867 16.0553 29.0653 17.0767C28.0439 18.0982 27.2336 19.3108 26.6808 20.6453C26.3655 21.4066 26.1375 22.199 25.9998 23.0074H36.1967C36.5538 23.0074 36.8433 23.2969 36.8433 23.654C36.8433 24.0111 36.5538 24.3006 36.1967 24.3006H25.8575C25.8482 24.485 25.8435 24.6697 25.8435 24.8548C25.8435 24.9781 25.8456 25.1012 25.8497 25.2243H36.1967C36.5538 25.2243 36.8433 25.5137 36.8433 25.8708C36.8433 26.2279 36.5538 26.5174 36.1967 26.5174H25.9699C26.1033 27.3899 26.3415 28.2451 26.6808 29.0642C27.2336 30.3988 28.0439 31.6114 29.0653 32.6328C30.0867 33.6542 31.2993 34.4645 32.6339 35.0173C33.7845 35.4939 35.0064 35.7711 36.2471 35.8384C36.5761 35.8563 36.8433 36.1216 36.8433 36.451C36.8433 36.7804 36.5761 37.049 36.2471 37.0329C34.8496 36.9645 33.4728 36.6559 32.1774 36.1194C30.6981 35.5066 29.354 34.6085 28.2218 33.4763C27.0896 32.3441 26.1915 31 25.5787 29.5207C25.397 29.082 25.2414 28.6339 25.1125 28.1788C24.9835 28.6339 24.8279 29.082 24.6462 29.5207C24.0334 31 23.1353 32.3441 22.0031 33.4763C20.8709 34.6085 19.5268 35.5066 18.0475 36.1194C16.7521 36.6559 15.3753 36.9645 13.9778 37.0329Z" fill="#FFD012"/>
<path d="M25.0603 55.5088L21.4728 49.2951L28.6478 49.2951L25.0603 55.5088Z" fill="#FFB800"/>
</svg>
