<svg width="18" height="18" viewBox="0 0 18 18" fill="none" xmlns="http://www.w3.org/2000/svg">
<path d="M17.3946 13.3919L13.2719 10.9182C12.6633 10.553 11.8774 10.7662 11.5349 11.3843L10.6988 12.8928C10.6504 12.9798 10.5403 13.0114 10.4543 12.9618C8.30277 11.7211 6.28914 9.7099 5.04521 7.55744C4.99587 7.47212 5.02645 7.36197 5.11327 7.31327L6.62388 6.46549C7.23922 6.12018 7.44712 5.33659 7.08416 4.73161L4.60858 0.605468C4.25987 0.0243182 3.49865 -0.173043 2.91161 0.165658C0.992448 1.27262 1.10756 1.19791 1.03821 1.26676C-1.30407 3.59125 0.475036 8.9022 4.78657 13.2139C9.09822 17.5257 14.4103 19.3032 16.7333 16.9624C16.8026 16.8925 16.7288 17.0058 17.8343 15.089C18.173 14.5019 17.9757 13.7407 17.3946 13.3919Z" fill="#FFB800"/>
</svg>
