<svg width="13" height="13" viewBox="0 0 13 13" fill="none" xmlns="http://www.w3.org/2000/svg">
<path d="M12.5628 9.67194L9.58526 7.88538C9.14573 7.62162 8.57815 7.77561 8.33077 8.22196L7.72689 9.31146C7.69201 9.37432 7.61245 9.3971 7.55034 9.36131C5.99646 8.46526 4.54217 7.01271 3.64377 5.45815C3.60813 5.39653 3.63022 5.31698 3.69292 5.28181L4.78392 4.66952C5.22834 4.42013 5.37849 3.85421 5.11635 3.41728L3.32842 0.437283C3.07658 0.0175632 2.52681 -0.124975 2.10283 0.119642C0.716769 0.919111 0.799908 0.865156 0.749823 0.914879C-0.941831 2.59368 0.343082 6.42937 3.45698 9.54338C6.57095 12.6575 10.4075 13.9412 12.0852 12.2506C12.1352 12.2002 12.0819 12.282 12.8804 10.8976C13.1249 10.4736 12.9825 9.9238 12.5628 9.67194Z" fill="#FFD012"/>
</svg>
