<svg width="18" height="21" viewBox="0 0 18 21" fill="none" xmlns="http://www.w3.org/2000/svg">
<path d="M4.97969 21C4.97531 21 4.97006 21 4.96481 21C4.80292 20.9947 4.65766 20.9011 4.58678 20.7558L3.32493 18.191L0.466064 18.3739C0.305925 18.3774 0.151913 18.3048 0.0661556 18.1682C-0.0187265 18.0309 -0.0222269 17.8585 0.0591549 17.7185L4.49243 10.0625C4.61319 9.85331 4.88096 9.78156 5.09011 9.90232C5.29925 10.0231 5.371 10.2908 5.25024 10.5L1.22563 17.4481L3.5612 17.2993C3.74496 17.2888 3.90423 17.3842 3.98123 17.5426L5.01119 19.6349L8.35572 13.8506C8.47648 13.6415 8.7425 13.568 8.9534 13.6914C9.16254 13.8121 9.23429 14.0799 9.11266 14.2891L5.3586 20.7821C5.27984 20.9169 5.13545 21 4.97969 21Z" fill="#303030"/>
<path d="M12.4884 21C12.3327 21 12.1883 20.9168 12.1095 20.7812L7.10847 12.0874C6.98946 11.8773 7.06296 11.6104 7.27298 11.4906C7.48387 11.3715 7.7499 11.4459 7.86978 11.6551L9.11501 13.8524L12.4587 19.6357L13.4965 17.5399C13.5744 17.3824 13.7328 17.2879 13.9165 17.2975L16.2521 17.4463L12.2985 10.6602C12.1778 10.451 12.2495 10.1833 12.4587 10.0625C12.6687 9.94086 12.9347 10.0126 13.0563 10.2226L17.4177 17.7167C17.4982 17.8567 17.4956 18.0291 17.4107 18.1665C17.3249 18.3039 17.1674 18.3774 17.0108 18.3721L14.1511 18.191L12.8804 20.7567C12.8087 20.9011 12.6634 20.9938 12.5024 20.9991C12.498 21 12.4928 21 12.4884 21Z" fill="#303030"/>
<path d="M8.80351 9.62403C6.8731 9.62403 5.30322 8.05415 5.30322 6.12374C5.30322 4.19332 6.8731 2.62344 8.80351 2.62344C10.7339 2.62344 12.3038 4.19332 12.3038 6.12374C12.3038 8.05415 10.7339 9.62403 8.80351 9.62403ZM8.80351 3.49852C7.35614 3.49852 6.1783 4.67636 6.1783 6.12374C6.1783 7.57111 7.35614 8.74895 8.80351 8.74895C10.2509 8.74895 11.4287 7.57111 11.4287 6.12374C11.4287 4.67636 10.2509 3.49852 8.80351 3.49852Z" fill="#303030"/>
<circle cx="8.75024" cy="6.125" r="5.6875" stroke="#303030" stroke-width="0.875"/>
</svg>
