<svg width="35" height="70" viewBox="0 0 35 70" fill="none" xmlns="http://www.w3.org/2000/svg">
<path d="M-3.0598e-06 70C9.28257 70 18.185 66.3125 24.7487 59.7487C31.3125 53.185 35 44.2826 35 35C35 25.7174 31.3125 16.815 24.7487 10.2513C18.185 3.68749 9.28258 4.09218e-06 3.8147e-06 2.2848e-06L-1.5299e-06 35L-3.0598e-06 70Z" fill="#FFB800"/>
<path d="M22.375 40.75H11.875M6.625 28.9375H10.125H6.625ZM22.375 28.9375H13.625H22.375ZM6.625 34.8438H17.125H6.625ZM22.375 34.8438H20.625H22.375ZM6.625 40.75H8.375H6.625Z" stroke="#303030" stroke-width="1.3125" stroke-linecap="round"/>
<path d="M12.5312 31.5625C13.6186 31.5625 14.5 30.6811 14.5 29.5938C14.5 28.5064 13.6186 27.625 12.5312 27.625C11.4439 27.625 10.5625 28.5064 10.5625 29.5938C10.5625 30.6811 11.4439 31.5625 12.5312 31.5625Z" stroke="#303030" stroke-width="1.3125" stroke-linecap="round"/>
<path d="M19.0938 38.125C20.1811 38.125 21.0625 37.2436 21.0625 36.1563C21.0625 35.0689 20.1811 34.1875 19.0938 34.1875C18.0064 34.1875 17.125 35.0689 17.125 36.1563C17.125 37.2436 18.0064 38.125 19.0938 38.125Z" stroke="#303030" stroke-width="1.3125" stroke-linecap="round"/>
<path d="M9.90625 43.375C10.9936 43.375 11.875 42.4936 11.875 41.4063C11.875 40.3189 10.9936 39.4375 9.90625 39.4375C8.81894 39.4375 7.9375 40.3189 7.9375 41.4063C7.9375 42.4936 8.81894 43.375 9.90625 43.375Z" stroke="#303030" stroke-width="1.3125" stroke-linecap="round"/>
</svg>
