<svg width="18" height="12" viewBox="0 0 18 12" fill="none" xmlns="http://www.w3.org/2000/svg">
<path d="M9.80387 12C3.65397 12 0.146159 7.49549 0 0H3.08057C3.18176 5.5015 5.45284 7.83183 7.25172 8.31231V0H10.1524V4.74474C11.9288 4.54054 13.7951 2.37838 14.4247 0H17.3254C17.0882 1.23349 16.6152 2.40142 15.9362 3.43072C15.2572 4.46001 14.3867 5.32854 13.3791 5.98198C14.5038 6.57905 15.4972 7.42414 16.2937 8.4615C17.0902 9.49885 17.6718 10.7049 18 12H14.807C14.5124 10.8751 13.9135 9.86812 13.0855 9.10528C12.2575 8.34244 11.2372 7.85766 10.1524 7.71171V12H9.80387Z" fill="#484949"/>
</svg>
