<svg width="71" height="13" viewBox="0 0 71 13" fill="none" xmlns="http://www.w3.org/2000/svg">
<path d="M0 0.558676H1.31707L4.14356 8.77863L7.50004 0L10.68 8.77863L13.8117 0.558676H15.1288L10.6318 12.0991L7.48423 3.32049L4.11157 12.0991L0 0.558676ZM22.1952 0.558676V1.70956H17.8269V4.96456H22.0669V6.11545H17.8269V10.373H22.1952V11.5239H16.6386V0.558676H22.1952ZM24.3795 0.558676H26.3068C27.3776 0.558676 28.1966 0.78909 28.764 1.24913C29.4066 1.75336 29.7276 2.5097 29.7276 3.51776C29.7276 4.46033 29.3742 5.1784 28.6677 5.67159C29.353 5.84676 29.8641 6.20028 30.2013 6.73173C30.5386 7.26318 30.7074 7.83054 30.7074 8.4334C30.7074 8.92658 30.603 9.3811 30.3941 9.79774C30.1852 10.2144 29.9258 10.5486 29.6151 10.8007C29.0157 11.2828 28.1592 11.5239 27.0457 11.5239H24.3795V0.558676ZM25.5679 1.70956V5.37568H26.4675C26.6279 5.37568 26.7832 5.36739 26.9331 5.35082C27.0831 5.33464 27.2623 5.29046 27.4712 5.21944C27.6801 5.14803 27.8621 5.05215 28.017 4.93181C28.1723 4.81108 28.3038 4.63038 28.4106 4.38931C28.5177 4.14825 28.5713 3.86852 28.5713 3.55091C28.5713 3.2112 28.5069 2.91806 28.3786 2.67146C28.2502 2.42448 28.1057 2.24102 27.9449 2.12068C27.7842 1.99995 27.5915 1.90684 27.3668 1.84095C27.142 1.77545 26.9705 1.73679 26.853 1.72613C26.735 1.71509 26.6175 1.70956 26.4995 1.70956H25.5679ZM25.5679 6.46068V10.373H26.9331C27.8004 10.373 28.4267 10.2199 28.8122 9.91295C29.2832 9.5622 29.5187 9.05797 29.5187 8.40026C29.5187 7.66601 29.2138 7.12904 28.6033 6.78933C28.2178 6.56997 27.6131 6.46068 26.7886 6.46068H25.5679ZM38.6249 2.08754L37.6775 2.72867C37.5063 2.38897 37.2974 2.11516 37.0511 1.90684C36.7301 1.65472 36.3284 1.52886 35.8466 1.52886C35.3112 1.52886 34.8776 1.68471 34.5457 1.99719C34.2139 2.30967 34.0477 2.71802 34.0477 3.22186C34.0477 3.5947 34.1819 3.91231 34.4494 4.17547C34.6637 4.39484 35.0383 4.62486 35.5737 4.86593L36.6013 5.32636C37.3618 5.66606 37.913 6.01129 38.2557 6.36204C38.7695 6.88797 39.0266 7.5512 39.0266 8.35094C39.0266 9.34835 38.7055 10.1595 38.0629 10.7841C37.4204 11.4087 36.6121 11.7211 35.6377 11.7211C34.6741 11.7211 33.8978 11.4252 33.3092 10.8334C32.8274 10.3513 32.4955 9.70463 32.3132 8.89344L33.4696 8.56479C33.5447 9.11281 33.7586 9.57877 34.1121 9.96226C34.5083 10.3679 35.0221 10.5703 35.6539 10.5703C36.3392 10.5703 36.8692 10.3596 37.2439 9.93741C37.6185 9.51564 37.8058 9.00313 37.8058 8.40026C37.8058 7.87433 37.6293 7.44704 37.2758 7.11799C37.0727 6.92072 36.6441 6.669 35.9911 6.36204L35.0275 5.90161C34.3746 5.59465 33.8978 5.29322 33.5983 4.99731C33.1057 4.51517 32.8594 3.91783 32.8594 3.20568C32.8594 2.36175 33.1404 1.67958 33.7024 1.15878C34.2647 0.638374 34.9847 0.377974 35.8628 0.377974C36.5265 0.377974 37.0993 0.5425 37.5811 0.871156C38.0201 1.16706 38.3682 1.57266 38.6249 2.08754ZM42.3992 0.558676V5.01388H47.8918V0.558676H49.0802V11.5239H47.8918V6.16477H42.3992V11.5239H41.2109V0.558676H42.3992ZM60.7962 10.0936C59.7205 11.1786 58.4007 11.7211 56.8373 11.7211C55.2743 11.7211 53.9545 11.1786 52.8788 10.0936C51.8026 9.00865 51.2645 7.66049 51.2645 6.04956C51.2645 4.42759 51.8053 3.07666 52.8865 1.99719C53.968 0.917712 55.2851 0.377974 56.8373 0.377974C58.3899 0.377974 59.707 0.917712 60.7881 1.99719C61.8697 3.07666 62.4105 4.42759 62.4105 6.04956C62.4105 7.66049 61.8724 9.00865 60.7962 10.0936ZM59.9209 2.84388C59.0752 1.9672 58.0472 1.52886 56.8373 1.52886C55.6274 1.52886 54.5998 1.9672 53.7537 2.84388C52.9081 3.72056 52.4852 4.78938 52.4852 6.04956C52.4852 7.30974 52.9081 8.37856 53.7537 9.25524C54.5998 10.1319 55.6274 10.5703 56.8373 10.5703C58.0472 10.5703 59.0752 10.1319 59.9209 9.25524C60.7669 8.37856 61.1898 7.30974 61.1898 6.04956C61.1898 4.78938 60.7669 3.72056 59.9209 2.84388ZM64.5944 0.558676H66.5379C67.7586 0.558676 68.6578 0.816314 69.236 1.33159C69.8893 1.90131 70.2158 2.68488 70.2158 3.68229C70.2158 4.53727 69.9348 5.26323 69.3724 5.86057C68.8105 6.45791 67.9621 6.75659 66.8269 6.75659H65.7832V11.5239H64.5944V0.558676ZM65.7832 1.70956V5.6057H66.7626C67.4695 5.6057 68.0234 5.43052 68.425 5.07977C68.8266 4.72902 69.0271 4.24136 69.0271 3.6164C69.0271 2.34518 68.2404 1.70956 66.6662 1.70956H65.7832Z" fill="#757575"/>
</svg>
