<svg width="18" height="18" viewBox="0 0 18 18" fill="none" xmlns="http://www.w3.org/2000/svg" style="display:block; width:18px;height:18px">
<path fill-rule="evenodd" clip-rule="evenodd" d="M0.000671387 8.18013C0.000671387 3.66225 3.66345 -0.000244141 8.18167 -0.000244141C12.6999 -0.000244141 16.3627 3.66225 16.3627 8.18013C16.3627 12.698 12.6999 16.3605 8.18167 16.3605C3.66345 16.3605 0.000671387 12.698 0.000671387 8.18013ZM8.18167 1.3263C4.39614 1.3263 1.32732 4.39488 1.32732 8.18013C1.32732 11.9654 4.39614 15.034 8.18167 15.034C11.9672 15.034 15.036 11.9654 15.036 8.18013C15.036 4.39488 11.9672 1.3263 8.18167 1.3263Z" fill="#303030"/>
<path fill-rule="evenodd" clip-rule="evenodd" d="M13.1159 13.1154C13.375 12.8564 13.795 12.8564 14.054 13.1154L17.8063 16.8675C18.0654 17.1265 18.0654 17.5464 17.8063 17.8055C17.5473 18.0645 17.1273 18.0645 16.8683 17.8055L13.1159 14.0534C12.8569 13.7944 12.8569 13.3744 13.1159 13.1154Z" fill="#303030"/>
</svg>
