<svg width="304" height="274" viewBox="0 0 304 274" fill="none" xmlns="http://www.w3.org/2000/svg">
<g opacity="0.15">
<path d="M44.9742 204.732L50.1721 203.879L47.7637 188.003L52.0244 187.303L70.6799 184.236L71.1731 184.154L87.6812 181.442L87.9142 181.399L97.5658 179.809L99.9736 195.68L126.121 191.383L125.716 188.707L102.48 192.567L100.072 176.696L53.0753 184.491L44.8839 185.848L47.2917 201.719L46.1622 201.907L34.4292 203.859L14.1421 70.1334L70.6919 62.199L73.1591 61.8527L91.9236 59.2187L93.0014 59.068L93.4988 58.9963L107.861 56.9844L108.331 56.9169L123.27 54.8224L122.86 52.1179L90.9827 56.6354L90.5089 56.7034L74.1139 59.0276L73.6414 59.0955L72.5408 59.2548L11.2572 67.9443L32.3248 206.815L44.9737 204.737L44.9742 204.732ZM188.713 181.081L213.693 176.969L193.24 42.1465L162.838 46.4402L163.257 49.2009L191.165 45.2969L210.777 174.575L187.956 178.367L188.377 181.139L188.713 181.08L188.713 181.081Z" fill="#8A8A8A"/>
<path d="M188.918 181.085L188.922 181.051L188.312 178.332L187.859 178.405L125.716 188.705L126.122 191.381L188.919 181.083L188.918 181.085ZM188.082 179.684L188.144 179.675L188.513 181.156L188.273 180.978L126.476 190.909L126.193 189.046L188.082 179.684Z" fill="#8A8A8A"/>
<path d="M72.8923 59.199L11.2613 67.9412L18.4972 115.638L19.9466 115.434L20.3911 115.367L21.3259 115.223L77.6286 106.777L78.5649 106.542L79.0406 106.47L80.0701 106.504L72.8935 59.1988L72.8923 59.199ZM14.1464 70.1315L70.3774 62.2455L76.7521 104.265L76.9787 104.231L63.2176 106.308L62.7708 106.386L62.3039 106.457L20.6078 112.723L14.1464 70.1315Z" fill="#8A8A8A"/>
<path d="M192.912 42.7644L162.928 47.0075L163.347 49.7681L190.839 45.9196L199.519 103.138L140.749 112.267L136.818 113.019L116.833 116.051L103.898 117.756L95.0388 59.3563L108.23 57.5105L108.562 57.464L123.363 55.3906L122.952 52.6822L92.1364 57.0515L101.806 120.791L140.208 115.431L200.801 106.716L202.573 106.447L192.912 42.7669L192.912 42.7644Z" fill="#8A8A8A"/>
<path d="M28.7616 167.005L42.5516 164.824L37.1437 129.177L80.0139 122.489L81.1932 122.31L78.5847 105.116L77.482 105.161L62.9001 107.219L62.8802 107.222L20.7701 113.622L19.0996 113.989L27.1803 167.254L28.7618 167.006L28.7616 167.005ZM19.5928 114.435L20.8497 114.248L77.2286 105.85L78.2465 105.7L80.7125 121.955L79.9492 122.071L36.6482 128.724L42.0568 164.375L28.6867 166.494L27.5173 166.679L19.5915 114.435L19.5928 114.435Z" fill="#8A8A8A"/>
<path d="M73.5609 203.05C82.7113 201.531 89.0683 191.928 87.9518 181.394C87.916 181.049 87.9231 180.693 87.8704 180.345L87.8292 180.074L69.977 182.969L73.0358 203.132L73.5607 203.048L73.5609 203.05ZM70.4717 183.425L87.3008 180.697C87.3369 180.96 87.2163 181.248 87.2432 181.509C88.2967 191.661 82.0629 200.943 73.3714 202.539L70.4717 183.425Z" fill="#8A8A8A"/>
<path d="M91.8329 57.8739C91.7646 57.4232 91.3966 57.0217 91.3022 56.5838C89.1383 46.3924 80.5165 39.2623 71.4837 40.5065L71.335 40.5253L74.383 60.6167L91.8749 58.1504L91.8331 57.8752L91.8329 57.8739ZM74.7194 60.0294L71.8317 40.9951C80.1897 40.0048 88.6372 46.8595 90.7423 56.6636C90.8167 57.0192 90.9951 57.3641 91.0538 57.7259L74.7192 60.0282L74.7194 60.0294Z" fill="#8A8A8A"/>
<path d="M137.012 114.548L136.971 114.277C136.892 113.759 136.853 113.316 136.738 112.815C134.521 102.795 126.016 95.9415 117.161 97.2848L117.788 97.1898L120.795 117.012L137.011 114.548L137.012 114.548ZM118.263 97.5126C126.191 96.4895 134.517 103.122 136.666 112.749C136.757 113.163 137.039 113.553 137.109 113.979L121.13 116.411L118.263 97.5126Z" fill="#8A8A8A"/>
<path d="M75.4318 84.1112C75.4719 84.0567 75.3394 83.729 75.3284 83.6568L72.3584 64.0796C72.3373 63.9401 72.3259 63.8233 72.1977 63.8428L71.0851 63.9989L55.2416 66.247C55.1756 66.257 55.1349 66.2912 55.0987 66.3464C55.0606 66.4057 55.0496 66.4761 55.0606 66.5484C56.6563 77.0667 65.0999 84.9461 74.2192 84.3219C74.6014 84.297 75.0353 84.5293 75.4213 84.4707L75.4288 84.4696C75.4911 84.4601 75.3959 84.1688 75.4316 84.1099L75.4318 84.1112ZM55.5739 66.7329L71.1415 64.5304L71.9844 64.4102L74.8737 83.4557C74.4567 83.5113 74.3322 83.5137 74.024 83.5311C65.2417 84.117 57.229 76.8282 55.5737 66.7317L55.5739 66.7329Z" fill="#8A8A8A"/>
<path d="M117.398 117.066L108.144 56.0701L93.5668 58.1224L102.844 119.277L117.398 117.066ZM94.0644 58.5985L107.809 56.6649L116.9 116.591L103.179 118.68L94.0644 58.5985Z" fill="#8A8A8A"/>
<path d="M82.4596 122.301L79.9651 122.677L77.3704 105.574L79.8616 105.176L82.4596 122.301Z" fill="#8A8A8A"/>
<path d="M160.603 48.2326C162.22 41.5407 168.957 37.4266 175.649 39.0444L278.694 63.954C284.379 65.3283 287.989 70.9163 286.906 76.664L258.398 227.898C257.551 232.395 253.147 235.298 248.68 234.303L130.059 207.9C125.861 206.966 123.246 202.77 124.257 198.59L160.603 48.2328L160.603 48.2326Z" fill="#B5B5B5"/>
<path d="M135.232 170.329C135.076 170.291 134.981 170.134 135.019 169.979L135.8 166.749C135.837 166.592 135.994 166.497 136.15 166.535C136.305 166.572 136.401 166.73 136.363 166.885L135.582 170.115C135.545 170.271 135.388 170.367 135.232 170.329Z" fill="#A3A3A3"/>
<path d="M171.421 40.4573C171.927 38.3135 174.21 37.1111 176.262 37.9117C189.873 43.2215 236.835 60.8209 277.584 67.421C279.442 67.7223 280.692 69.4874 280.347 71.3377L252.048 223.326C251.66 225.411 249.663 226.79 247.577 226.415C230.51 223.343 160.283 210.441 136.192 201.878C134.725 201.356 133.89 199.814 134.247 198.299L171.421 40.4573Z" fill="#929292"/>
<path d="M172.169 44.6177C172.654 42.5545 174.852 41.3975 176.827 42.1681C189.925 47.2782 235.119 64.2145 274.334 70.5656C276.122 70.8551 277.325 72.5541 276.993 74.3352L249.759 220.601C249.386 222.606 247.464 223.934 245.456 223.573C229.032 220.617 161.449 208.201 138.266 199.959C136.854 199.458 136.05 197.973 136.394 196.516L172.169 44.6177Z" fill="white"/>
<g opacity="0.6">
<path d="M249.911 77.0416C250.577 77.2025 251.235 76.7858 251.374 76.1158L251.431 75.8391C251.571 75.1691 251.142 74.4802 250.48 74.3088L196.579 60.3527C195.916 60.1811 195.449 60.5961 195.54 61.2747L195.737 62.7525C195.828 63.4311 196.447 64.1174 197.112 64.2783L249.912 77.0418L249.911 77.0416Z" fill="#A3A3A3"/>
</g>
<g opacity="0.6">
<path d="M194.771 67.8351C194.108 67.6635 193.64 68.0785 193.731 68.7571L193.929 70.2349C194.019 70.9136 194.638 71.5998 195.304 71.7607L248.103 84.5242C248.769 84.6851 249.427 84.2684 249.566 83.5984L249.624 83.3218C249.763 82.6518 249.335 81.9628 248.672 81.7914L194.771 67.8353L194.771 67.8351Z" fill="#A3A3A3"/>
</g>
<g opacity="0.6">
<path d="M261.651 101.961C262.316 102.122 262.964 101.702 263.091 101.03L263.144 100.751C263.271 100.078 262.831 99.3905 262.167 99.223L175.322 77.2881C174.657 77.1206 174.288 77.5158 174.499 78.1671L175.075 79.9415C175.286 80.5928 176.004 81.2567 176.669 81.4176L261.652 101.961L261.651 101.961Z" fill="#A3A3A3"/>
</g>
<g opacity="0.6">
<path d="M173.454 85.0235C172.79 84.856 172.421 85.2512 172.632 85.9024L173.208 87.6769C173.419 88.3281 174.136 88.992 174.802 89.153L259.784 109.696C260.45 109.857 261.098 109.438 261.224 108.766L261.277 108.486C261.404 107.813 260.965 107.126 260.301 106.959L173.455 85.0237L173.454 85.0235Z" fill="#A3A3A3"/>
</g>
<g opacity="0.6">
<path d="M171.943 93.5079C171.279 93.3404 170.909 93.7355 171.12 94.3868L171.696 96.1612C171.907 96.8125 172.625 97.4764 173.29 97.6373L258.273 118.181C258.938 118.342 259.586 117.922 259.713 117.25L259.765 116.971C259.892 116.298 259.453 115.61 258.789 115.443L171.943 93.5081L171.943 93.5079Z" fill="#A3A3A3"/>
</g>
<g opacity="0.6">
<path d="M244.567 191.971C245.233 192.132 245.88 191.714 246.005 191.04L246.057 190.761C246.182 190.087 245.742 189.4 245.078 189.232L154.961 166.506C154.297 166.338 153.936 166.731 154.158 167.379L154.776 169.186C154.998 169.834 155.723 170.495 156.389 170.656L244.566 191.972L244.567 191.971Z" fill="#A3A3A3"/>
</g>
<g opacity="0.6">
<path d="M153.094 174.242C152.43 174.075 152.069 174.467 152.291 175.115L152.909 176.922C153.131 177.57 153.856 178.232 154.522 178.393L242.699 199.708C243.365 199.869 244.011 199.451 244.137 198.777L244.189 198.497C244.314 197.825 243.874 197.137 243.21 196.969L153.093 174.243L153.094 174.242Z" fill="#A3A3A3"/>
</g>
<g opacity="0.6">
<path d="M151.594 182.73C150.93 182.563 150.569 182.956 150.791 183.603L151.409 185.411C151.631 186.058 152.356 186.72 153.022 186.881L241.199 208.197C241.865 208.357 242.512 207.938 242.637 207.265L242.689 206.986C242.814 206.313 242.374 205.625 241.71 205.457L151.593 182.731L151.594 182.73Z" fill="#A3A3A3"/>
</g>
<g opacity="0.6">
<path d="M255.195 131.245C255.861 131.405 256.513 130.987 256.645 130.316L256.7 130.038C256.832 129.366 256.398 128.678 255.735 128.509L183.229 110.045C182.565 109.876 182.156 110.282 182.318 110.947L182.717 112.585C182.879 113.25 183.556 113.925 184.222 114.086L255.196 131.243L255.195 131.245Z" fill="#A3A3A3"/>
</g>
<g opacity="0.6">
<path d="M181.299 118.034C180.635 117.865 180.226 118.271 180.388 118.936L180.787 120.573C180.949 121.239 181.626 121.914 182.291 122.075L253.265 139.232C253.931 139.393 254.584 138.975 254.716 138.303L254.771 138.025C254.903 137.353 254.469 136.665 253.805 136.496L181.299 118.032L181.299 118.034Z" fill="#A3A3A3"/>
</g>
<g opacity="0.6">
<path d="M179.701 126.5C179.038 126.331 178.628 126.737 178.79 127.401L179.189 129.039C179.351 129.705 180.028 130.38 180.694 130.541L251.668 147.698C252.333 147.859 252.986 147.44 253.118 146.769L253.173 146.491C253.305 145.819 252.871 145.131 252.207 144.962L179.702 126.498L179.701 126.5Z" fill="#A3A3A3"/>
</g>
<path opacity="0.6" d="M174.295 111.89C175.524 111.139 175.912 109.534 175.162 108.305C174.411 107.076 172.806 106.688 171.577 107.439C170.348 108.189 169.961 109.794 170.711 111.023C171.462 112.252 173.066 112.64 174.295 111.89Z" fill="#A3A3A3"/>
<g opacity="0.6">
<path d="M247.504 161.932C248.169 162.093 248.822 161.675 248.954 161.003L249.009 160.725C249.141 160.053 248.707 159.366 248.043 159.196L175.538 140.732C174.874 140.563 174.464 140.97 174.626 141.634L175.026 143.272C175.187 143.937 175.864 144.613 176.53 144.773L247.504 161.93L247.504 161.932Z" fill="#A3A3A3"/>
</g>
<g opacity="0.6">
<path d="M173.604 148.72C172.94 148.551 172.53 148.958 172.692 149.622L173.092 151.26C173.253 151.925 173.93 152.6 174.596 152.761L245.57 169.918C246.236 170.079 246.888 169.661 247.02 168.989L247.075 168.711C247.207 168.039 246.773 167.352 246.11 167.183L173.604 148.719L173.604 148.72Z" fill="#A3A3A3"/>
</g>
<g opacity="0.6">
<path d="M172.01 157.187C171.346 157.018 170.937 157.424 171.099 158.089L171.498 159.727C171.66 160.392 172.337 161.067 173.002 161.228L243.976 178.385C244.642 178.546 245.295 178.128 245.427 177.456L245.482 177.178C245.614 176.506 245.18 175.819 244.516 175.649L172.01 157.185L172.01 157.187Z" fill="#A3A3A3"/>
</g>
<path opacity="0.6" d="M166.6 142.577C167.829 141.827 168.217 140.222 167.466 138.993C166.716 137.764 165.111 137.376 163.882 138.126C162.653 138.877 162.265 140.482 163.016 141.711C163.766 142.94 165.371 143.328 166.6 142.577Z" fill="#A3A3A3"/>
<path d="M238.49 32.6772C235.394 29.1881 232.145 28.4565 229.704 28.5789C227.477 28.6895 225.645 30.3708 225.321 32.5765L223.711 43.5384L235.152 47.4026C235.152 47.4026 244.561 39.5212 238.49 32.6781L238.49 32.6772ZM231.256 40.0861C229.647 39.6969 228.657 38.0764 229.046 36.4665C229.435 34.8567 231.056 33.8663 232.666 34.2555C234.276 34.6446 235.265 36.2651 234.876 37.8758C234.487 39.4865 232.866 40.4752 231.256 40.0861Z" fill="#B5B5B5"/>
<path d="M225.962 39.3061C225.818 39.2711 225.722 39.1314 225.744 38.9819L226.001 37.2365C226.024 37.0778 226.172 36.9682 226.329 36.9916C226.492 37.0151 226.598 37.1625 226.574 37.3212L226.318 39.0667C226.294 39.2254 226.147 39.335 225.989 39.3116C225.979 39.3103 225.971 39.3083 225.962 39.3061ZM226.465 35.8848C226.321 35.8501 226.224 35.7101 226.247 35.5607L226.441 34.2351C226.75 32.1343 228.506 30.533 230.616 30.4274C232.111 30.353 233.564 30.6415 234.932 31.2845C235.077 31.3527 235.139 31.5259 235.071 31.6704C235.003 31.8149 234.831 31.8769 234.685 31.8094C233.403 31.2072 232.044 30.9369 230.645 31.0058C228.81 31.0972 227.284 32.4904 227.015 34.3182L226.821 35.6438C226.797 35.8025 226.65 35.9121 226.492 35.8887C226.483 35.8865 226.474 35.8854 226.465 35.8832L226.465 35.8848Z" fill="white"/>
<path d="M206.074 46.6095L207.377 41.2177C207.827 39.3564 209.73 38.2385 211.575 38.7524L248.442 49.0126C250.078 49.4682 251.099 51.0927 250.8 52.7644L249.858 58.0201L206.075 46.6097L206.074 46.6095Z" fill="#929292"/>
<path d="M221.545 43.312L219.947 42.9257C219.791 42.8879 219.696 42.731 219.733 42.5757C219.771 42.4205 219.928 42.3245 220.083 42.3621L221.681 42.7484C221.837 42.7861 221.932 42.943 221.895 43.0983C221.857 43.2536 221.7 43.3495 221.545 43.312Z" fill="white"/>
<path d="M208.495 45.4027C208.339 45.365 208.244 45.208 208.281 45.0527L208.809 42.8717C209.216 41.1862 210.918 40.1468 212.604 40.5542L218.481 41.975C218.637 42.0128 218.732 42.1697 218.695 42.325C218.657 42.4804 218.5 42.5763 218.345 42.5388L212.467 41.118C211.093 40.7858 209.705 41.6331 209.373 43.0071L208.845 45.1882C208.808 45.3443 208.651 45.4394 208.495 45.4019L208.495 45.4027Z" fill="white"/>
<path d="M190.599 44.3105C191.14 42.465 193.035 41.3696 194.904 41.8215L259.911 57.5342C262.248 58.0992 263.84 60.2645 263.682 62.6635L263.66 62.9949C263.486 65.6233 260.987 67.4614 258.426 66.8424L191.734 50.7204C190.202 50.3501 189.29 48.7738 189.733 47.2613L190.599 44.3113L190.599 44.3105Z" fill="#C7C7C7"/>
<g opacity="0.6">
<path d="M222.771 209.515C222.114 209.319 221.512 209.716 221.433 210.396L221.287 211.636C221.207 212.316 221.687 213.003 222.352 213.164L237.125 216.735C237.79 216.896 238.46 216.482 238.615 215.815L238.678 215.541C238.833 214.873 238.422 214.169 237.765 213.973L222.772 209.514L222.771 209.515Z" fill="#A3A3A3"/>
</g>
</g>
<path d="M138.915 260.692C138.915 260.692 139.675 264.997 140.048 269.259C140.193 270.924 138.91 272.37 137.239 272.44C131.565 272.676 119.425 273.136 115.07 272.941C114.416 272.911 113.987 272.242 114.229 271.633C114.432 271.123 114.824 270.71 115.324 270.48L135.375 261.264L138.916 260.692H138.915Z" fill="#303030"/>
<path d="M138.044 161.429C138.307 162.831 139.46 231.444 132.431 262.191C132.317 262.692 132.56 263.209 133.018 263.405C134.096 263.863 136.209 264.53 138.743 264.618C139.527 264.646 140.23 264.113 140.451 263.329C142.461 256.195 152.088 220.452 153.344 186.308C154.747 148.155 153.344 185.008 153.344 185.008L152.521 161.425L138.044 161.427V161.429Z" fill="#484949"/>
<path d="M160.946 262.939C160.946 262.939 162.156 265.113 163.329 270.888C163.541 271.931 162.812 272.928 161.753 273.033C159.879 273.217 156.995 273.455 154.684 273.438C153.619 273.431 152.788 272.503 152.916 271.446C153.172 269.338 153.969 265.879 156.433 263.184L160.948 262.939H160.946Z" fill="#303030"/>
<path d="M165.867 163.534C171.615 199.735 164.619 253.007 162.26 263.432C162.116 264.07 161.622 264.56 161.001 264.667C159.948 264.85 158.214 264.998 156.504 264.479C155.915 264.301 155.502 263.747 155.477 263.107C155.16 254.678 155.731 202.928 150.373 182.478C150.102 181.442 149.495 180.537 148.656 179.914L138.259 172.202L137.462 159.737L165.864 163.534H165.867Z" fill="#757575"/>
<path d="M129.239 97.6352C146.467 97.3504 165.476 102.158 165.476 102.158C170.611 132.123 166.374 166.684 166.374 166.684C153.037 170.181 137.991 164.546 137.991 164.546C135.775 152.022 125.432 116.774 125.432 116.774C117.015 115.729 123.926 97.7223 129.239 97.6352Z" fill="#6F90DE"/>
<path d="M158.868 118.842L165.475 102.159C165.475 102.159 181.567 113.093 184.214 126.956C181.173 127.18 175.64 127.971 170.225 130.706C169.035 124.161 158.868 118.842 158.868 118.842Z" fill="#6F90DE"/>
<path d="M146.689 83.6484L152.171 99.5013C152.262 99.7637 152.153 100.055 151.911 100.189C150.417 101.015 145.033 103.403 138.545 99.2899C137.87 98.8621 137.41 98.1631 137.307 97.3684L135.532 83.6484H146.69H146.689Z" fill="#FFBA9F"/>
<path d="M145.622 79.5967L150.816 95.4944C150.902 95.7576 150.799 96.0494 150.569 96.1841C149.154 97.0122 144.053 99.4068 137.906 95.2824C137.267 94.8534 136.831 94.1524 136.733 93.3555L135.051 79.5967H145.623H145.622Z" fill="#F3937A"/>
<path d="M135.415 71.8294C135.415 71.8294 129.395 83.1603 130.166 87.737C130.938 92.3136 138.398 91.9853 144.913 88.268L149.464 76.0329L135.413 71.8281L135.415 71.8294Z" fill="#FFBA9F"/>
<path d="M144.625 82.2603C144.36 82.1434 144.263 81.8188 144.421 81.5763C144.904 80.8401 145.808 79.3365 146.095 78.0207C146.095 78.0207 147.177 77.328 143.341 76.4089C139.504 75.4911 133.783 74.0659 132.58 70.8C131.408 67.6163 136.183 62.5136 139.403 65.9896C139.611 66.2147 139.957 66.2371 140.143 65.9946C140.949 64.9462 143.067 62.7698 146.008 64.0893C148.76 65.3242 149.07 67.3402 149.033 68.3575C149.022 68.656 149.289 68.8885 149.582 68.8326C150.974 68.5677 154.313 68.3388 155.872 71.7651C157.155 74.5857 156.321 76.1838 155.561 76.9648C155.314 77.2173 155.423 77.6352 155.76 77.7384C156.674 78.0182 157.855 78.7943 157.737 80.9358C157.574 83.897 154.262 83.6371 153.32 83.5015C153.165 83.4791 153.01 83.5326 152.906 83.6483C152.097 84.5424 148.454 88.3418 144.513 88.7995C144.173 88.8393 143.908 88.5022 144.02 88.1777L145.726 83.2192C145.805 82.9891 145.695 82.7367 145.472 82.6372L144.626 82.2628L144.625 82.2603Z" fill="#303030"/>
<path d="M143.937 82.9646C143.937 82.9646 148.223 80.0246 148.536 82.5007C148.849 84.9768 144.677 86.0874 142.61 85.1646L143.937 82.9646Z" fill="#FFBA9F"/>
<path d="M133.032 66.7312C133.032 66.7312 139.862 54.9376 152.065 61.9842C164.268 69.0307 157.667 77.6878 157.667 77.6878L133.032 66.7312Z" fill="#FFB800"/>
<path d="M158.052 67.3517C158.052 67.3517 143.348 55.6141 136.401 68.2298C133.56 66.9799 133.032 66.7312 133.032 66.7312C133.032 66.7312 139.202 55.4325 147.616 59.2369C156.031 63.0412 158.067 64.8669 158.052 67.3517Z" fill="#FFCD76"/>
<path opacity="0.6" d="M141.222 70.7426C141.264 70.7625 141.314 70.7625 141.357 70.7401L141.452 70.6879C143.641 69.5176 147.304 67.5576 149.736 68.5637C150.909 69.0475 152.049 69.7788 153.152 70.4839C153.931 70.9814 154.737 71.4975 155.544 71.9203C156.643 72.4974 157.853 73.1155 159.244 73.8095H159.247C159.321 73.8455 159.41 73.8157 159.448 73.7411C159.485 73.6664 159.455 73.5757 159.379 73.5383C157.99 72.8456 156.782 72.2288 155.685 71.653C154.888 71.2363 154.089 70.724 153.316 70.2302C152.2 69.5164 151.038 68.7801 149.851 68.2851C147.288 67.2243 143.545 69.2278 141.309 70.423L141.213 70.474C141.14 70.5138 141.112 70.6058 141.151 70.6792C141.167 70.709 141.192 70.7314 141.221 70.7451L141.222 70.7426Z" fill="white"/>
<path d="M157.629 79.596L128.633 68.4429C128.45 68.3732 128.332 68.1954 128.337 67.9989C128.342 67.8036 128.47 67.632 128.656 67.5723C130.152 67.0898 132.627 66.4157 133.619 66.8597C136.797 68.2824 157.668 77.6882 157.668 77.6882C157.668 77.6882 158.188 77.932 157.629 79.596Z" fill="#FFD012"/>
<path d="M142.308 132.704C142.308 132.704 124.019 137.941 121.3 128.045C120.735 125.99 120.988 124.189 121.741 122.622C117.903 118.634 113.415 116.482 110.888 115.5C109.022 119.306 108.121 123.675 108.938 128.602C112.492 150.025 143.082 137.579 143.082 137.579L142.308 132.704Z" fill="#FFBA9F"/>
<path d="M144.802 134.538C144.802 134.538 162.87 144.748 168.965 136.03C170.231 134.219 170.534 132.421 170.221 130.705C175.638 127.97 181.169 127.179 184.21 126.955C185.008 131.134 184.586 135.579 182.131 140.072C171.453 159.606 142.411 138.992 142.411 138.992L144.802 134.538Z" fill="#FFBA9F"/>
<path d="M105.927 100.591C105.933 100.581 105.94 100.565 105.945 100.555L105.993 100.532L106.238 100.401L109.708 98.5888C110.199 98.3326 110.783 98.3229 111.282 98.5647C111.781 98.8063 112.136 99.2693 112.24 99.8141L113.138 104.514L114.854 113.486C114.854 113.486 101.003 111.495 105.925 100.592L105.927 100.591Z" fill="#EBEBEB"/>
<path d="M105.92 100.589C105.943 100.565 105.965 100.546 105.988 100.53L106.233 100.4C104.878 101.869 106.737 102.462 113.135 104.513C114.151 104.837 115.283 105.198 116.532 105.607C123.419 107.849 130.426 105.431 133.684 103.975C134.157 103.764 134.699 103.772 135.164 103.999C135.63 104.226 135.972 104.645 136.098 105.148C137.728 111.587 142.547 130.606 142.818 131.336L147.582 149.581C147.582 149.581 147.253 152.418 142.722 154.503C138.187 156.588 136.77 157.424 131.062 155.497C128.13 154.51 124.522 152.776 121.707 151.33L121.704 151.326C121.704 151.326 121.66 151.54 121.656 151.54C119.21 150.283 117.357 149.341 117.064 149.298L117.06 149.297C117.037 149.294 116.88 149.029 116.88 149.029L111.357 128.099L111.358 128.095L111.359 127.431C108.726 121.887 107.108 117.478 106.048 113.946C106.033 113.896 106.064 113.853 106.046 113.799C105.8 112.979 105.613 112.208 105.433 111.483C103.605 104.028 105.097 101.417 105.917 100.59L105.92 100.589Z" fill="white"/>
<path d="M121.661 151.541C119.216 150.284 117.362 149.342 117.069 149.299L117.065 149.298L111.577 128.489C111.554 128.441 111.356 128.142 111.362 128.099L111.363 128.096C108.881 122.222 106.992 117.565 105.962 113.931C105.947 113.881 106.024 113.846 106.006 113.79C105.864 113.277 105.78 112.791 105.663 112.314L105.672 112.253C105.829 112.534 110.819 121.75 112.574 124.891C114.156 127.724 120.305 147.23 121.661 151.541Z" fill="#EBEBEB"/>
<path d="M144.131 140.877C145.094 140.97 145.963 140.295 146.16 139.348C146.609 137.189 147.305 133.246 146.829 131.521C146.155 129.083 144.849 125.949 140.496 126.646C136.143 127.342 131.008 129.175 131.008 129.175C131.008 129.175 131.268 132.35 134.576 131.326L132.526 132.912C132.526 132.912 132.819 135.455 135.614 134.096L133.706 136.202C133.706 136.202 134.906 138.29 136.962 136.951C138.8 135.753 139.782 140.455 144.134 140.876L144.131 140.877Z" fill="#FFBA9F"/>
<ellipse cx="103.642" cy="34.5667" rx="37.5861" ry="26.9784" transform="rotate(-7.35795 103.642 34.5667)" fill="#D8D8D8"/>
<path d="M135.256 59.2042V43.4668L127.762 50.2114L135.256 59.2042Z" fill="#D8D8D8"/>
<ellipse cx="103.24" cy="31.5696" rx="37.5861" ry="26.9784" transform="rotate(-7.35795 103.24 31.5696)" fill="white"/>
<path d="M134.854 56.2071V40.4697L127.36 47.2143L134.854 56.2071Z" fill="white"/>
<path d="M108.532 40.643C108.489 40.4801 108.296 40.3664 107.99 40.3018C108.27 40.0764 108.41 39.8626 108.364 39.6848C108.225 39.1475 106.446 39.1439 104.39 39.6769C102.334 40.2099 100.781 41.0771 100.92 41.6145C100.962 41.7774 101.156 41.8911 101.462 41.9557C101.182 42.1815 101.042 42.3952 101.088 42.5727C101.13 42.7356 101.324 42.8493 101.63 42.9139C101.349 43.1394 101.209 43.3535 101.255 43.531C101.297 43.6939 101.491 43.8076 101.797 43.8721C101.517 44.098 101.377 44.3117 101.423 44.4892C101.484 44.7269 101.867 44.8598 102.452 44.8883C102.476 45.0676 102.515 45.2622 102.57 45.4748C102.827 46.4648 104.094 47.0545 105.588 46.7932C107.082 46.5318 108.187 45.2319 108.026 44.222C107.986 43.9746 107.937 43.759 107.882 43.5698C108.555 43.2061 108.939 42.8383 108.867 42.5595C108.824 42.3966 108.631 42.2829 108.325 42.2183C108.605 41.9925 108.745 41.7787 108.699 41.6013C108.657 41.4384 108.463 41.3246 108.157 41.2601C108.438 41.0343 108.578 40.8205 108.532 40.643Z" fill="#494949"/>
<path d="M104.29 44.7895C103.671 44.8977 103.096 44.9515 102.612 44.9437C102.584 44.9433 102.562 44.9203 102.562 44.8919C102.563 44.864 102.586 44.8413 102.614 44.8419C103.371 44.854 104.355 44.7139 105.384 44.4468C106.226 44.2286 107.001 43.951 107.625 43.6441C107.65 43.6318 107.68 43.6421 107.693 43.6673C107.705 43.6925 107.695 43.7228 107.67 43.7352C107.04 44.0448 106.258 44.3249 105.41 44.5451C105.027 44.6443 104.651 44.7258 104.29 44.7891L104.29 44.7895Z" fill="#757575"/>
<path d="M104.132 43.831C103.327 43.9717 102.595 44.0218 102.063 43.9663C102.035 43.9633 102.015 43.9383 102.017 43.9104C102.02 43.8826 102.045 43.8623 102.073 43.8653C102.832 43.9446 104.007 43.805 105.216 43.4916C106.412 43.1815 107.5 42.7375 108.127 42.3038C108.15 42.288 108.182 42.2936 108.198 42.3168C108.214 42.34 108.208 42.3714 108.185 42.3876C107.549 42.828 106.448 43.2775 105.241 43.5903C104.864 43.6878 104.491 43.769 104.132 43.8318L104.132 43.831Z" fill="#757575"/>
<path d="M103.955 42.8736C103.086 43.0257 102.31 43.0695 101.769 42.9904C101.741 42.9864 101.722 42.9604 101.726 42.9326C101.73 42.9049 101.756 42.8855 101.784 42.8895C102.537 42.9999 103.757 42.8656 105.049 42.531C106.244 42.2209 107.333 41.777 107.96 41.3432C107.983 41.3274 108.014 41.3331 108.031 41.3562C108.046 41.3795 108.041 41.4109 108.018 41.427C107.381 41.8675 106.281 42.3169 105.074 42.6297C104.691 42.729 104.315 42.8105 103.954 42.8737L103.955 42.8736Z" fill="#757575"/>
<path d="M103.796 41.914C103.107 42.0347 102.47 42.0885 101.964 42.0655C101.936 42.0641 101.914 42.0405 101.916 42.0123C101.917 41.9841 101.941 41.9624 101.969 41.9638C102.73 41.9983 103.793 41.8559 104.883 41.5734C106.069 41.2662 107.152 40.8258 107.78 40.3952C107.804 40.3794 107.835 40.3854 107.851 40.4086C107.867 40.4319 107.861 40.4634 107.838 40.4792C107.2 40.916 106.105 41.3619 104.909 41.6717C104.531 41.7698 104.156 41.851 103.796 41.9141L103.796 41.914Z" fill="#757575"/>
<path d="M98.7369 37.3735C98.3265 36.5208 97.7502 35.758 97.0429 35.1293C95.5281 33.7819 92.9464 30.9552 91.9379 26.6566C90.4706 20.4043 95.5187 16.2626 100.705 15.7976C105.892 15.3326 111.601 18.2563 112.076 24.2282C112.369 27.9028 110.825 30.999 109.594 32.8375C108.813 34.0048 108.344 35.3491 108.208 36.7475C108.041 38.459 107.321 40.6814 104.786 41.253C101.504 41.9924 99.5905 39.1482 98.737 37.3738L98.7369 37.3735Z" fill="#FCBC4E"/>
<path d="M105.407 39.8444L105.161 27.8993C105.156 27.6525 105.246 27.4705 105.362 27.4926C105.478 27.5148 105.576 27.7329 105.582 27.9794C105.582 27.9859 105.582 27.9942 105.582 28.0007L105.561 39.8812C105.56 39.9706 105.526 40.033 105.484 40.0205C105.443 40.0085 105.409 39.9303 105.408 39.8443L105.407 39.8444Z" fill="#D9AD39"/>
<path d="M103.575 40.2624L99.752 28.943C99.6729 28.7092 99.5267 28.5686 99.4249 28.6286C99.3233 28.689 99.3047 28.9272 99.3839 29.1613C99.3861 29.1677 99.3887 29.1753 99.3909 29.1813L103.444 40.3489C103.474 40.4329 103.528 40.4798 103.564 40.454C103.598 40.4289 103.603 40.3438 103.576 40.2623L103.575 40.2624Z" fill="#D19D17"/>
<path d="M104.976 26.9035C104.918 26.8386 104.808 26.8293 104.73 26.8834L103.816 27.523L103.298 26.5987C103.271 26.5505 103.22 26.5125 103.156 26.498C103.033 26.471 102.903 26.5371 102.866 26.6457L102.865 26.6493L102.307 28.2857L101.175 26.2931L101.174 26.2899C101.146 26.2414 101.098 26.2017 101.036 26.1805C100.896 26.1333 100.734 26.1957 100.673 26.3202L99.8038 28.0967C99.7685 28.1694 99.7996 28.2533 99.8791 28.2884C99.9636 28.3262 100.071 28.2952 100.118 28.2193L100.929 26.9185L102.191 28.782L102.192 28.7835C102.212 28.8133 102.244 28.8368 102.285 28.8481C102.378 28.8732 102.479 28.8269 102.512 28.745L103.142 27.1864L103.596 27.8396L103.6 27.8455C103.603 27.8501 103.607 27.8546 103.611 27.8591C103.669 27.924 103.779 27.9329 103.856 27.8788L104.942 27.1198C105.019 27.0657 105.035 26.969 104.976 26.9041L104.976 26.9035Z" fill="white"/>
<path opacity="0.69" d="M109.39 31.425C109.324 31.4366 109.253 31.4279 109.188 31.3953C109.028 31.3146 108.963 31.1193 109.044 30.9585C109.275 30.4981 109.478 30.0286 109.648 29.5633C109.71 29.3945 109.897 29.3078 110.066 29.3694C110.234 29.4311 110.321 29.6178 110.26 29.7866C110.081 30.2754 109.867 30.7679 109.625 31.2505C109.577 31.3462 109.488 31.4078 109.39 31.425Z" fill="white"/>
<path opacity="0.69" d="M110.42 28.6414C110.377 28.649 110.333 28.6481 110.288 28.637C110.113 28.5948 110.006 28.419 110.048 28.2444C111.167 23.6022 108.921 20.2693 108.899 20.2363C108.797 20.0884 108.834 19.8858 108.982 19.7839C109.13 19.6821 109.333 19.7196 109.434 19.8675C109.534 20.0127 111.866 23.4757 110.68 28.397C110.649 28.527 110.544 28.6198 110.42 28.6414Z" fill="white"/>
</svg>
