<svg width="143" height="43" viewBox="0 0 143 43" fill="none" xmlns="http://www.w3.org/2000/svg">
<path d="M143 42.9981H0V-0.00183105H143V42.9981Z" fill="#F8AC00"/>
<path fill-rule="evenodd" clip-rule="evenodd" d="M56.5724 11.0457C58.0397 10.5728 60.1791 11.03 61.0744 11.8246C63.0029 13.5363 63.202 22.416 56.5712 21.049L56.5724 11.0457ZM51.1785 35.0512L56.5671 35.0071L56.5626 22.9029C57.4262 23.3859 62.7923 33.8598 63.469 35.0385L69.8807 35.0323C69.1937 32.8953 63.2408 24.8797 62.326 21.8782C68.5582 20.9563 72.0673 9.05677 59.9527 8.82076C57.4745 8.77246 53.5371 8.61641 51.1856 8.89802L51.1785 35.0512Z" fill="#010101"/>
<path fill-rule="evenodd" clip-rule="evenodd" d="M101.266 19.7149C102.092 18.6502 102.892 17.887 103.587 16.8893L108.31 11.5708C109.276 10.5814 109.807 10.1114 110.508 8.91906L106.67 8.85986L99.6637 17.733C98.9612 18.6168 98.3101 19.9752 97.2003 20.4855L97.173 8.91524L91.8093 8.86663L91.8191 35.037L97.1878 35.0891L97.2196 23.2772C98.4768 24.0564 103.637 33.0694 105.414 35.0406L110.872 34.9971C110.503 33.1455 101.971 21.8176 101.266 19.7149Z" fill="#010101"/>
<path fill-rule="evenodd" clip-rule="evenodd" d="M79.0222 11.5075L87.3144 12.143L87.415 8.82256C85.0614 8.80154 75.1663 8.51784 73.638 8.99907L73.6587 34.9696L87.3227 34.9684L87.3999 31.7149L79.0397 32.1345L79.0839 22.4534L87.1696 22.765L87.2159 19.6391L79.0234 19.7866L79.0222 11.5075Z" fill="#010101"/>
<path fill-rule="evenodd" clip-rule="evenodd" d="M32.8956 34.9237L46.6548 34.9848L46.5919 31.6759L38.3504 32.2001L38.3486 22.5216L46.5364 22.6742L46.4572 19.5664L38.3397 19.869L38.3421 11.6186L46.6735 12.0451L46.6011 8.85495L32.8879 8.82507L32.8956 34.9237Z" fill="#010101"/>
<path fill-rule="evenodd" clip-rule="evenodd" d="M113.206 34.0079C117.905 37.5185 127.919 35.3848 128.426 27.9831C128.62 25.1454 128.028 23.5592 126.508 21.9804C125.102 20.5208 123.596 19.6705 121.62 18.5907C119.827 17.6105 117.7 16.8307 117.489 14.6759C117.228 12.0124 118.697 10.5082 121.25 10.4792C123.108 10.4582 124.216 11.2086 125.046 12.6559C125.603 13.6282 125.154 13.4239 126.013 13.7715C126.542 12.8718 127.27 10.9844 127.153 9.81466C122.816 6.47324 112.365 7.56306 113.299 17.4547C114.042 25.3192 126.183 23.7182 123.787 30.774C123.132 32.7013 120.722 33.7832 118.183 33.0345C115.032 32.1055 115.57 29.3927 114.166 29.0637L113.206 34.0079Z" fill="#010101"/>
<path fill-rule="evenodd" clip-rule="evenodd" d="M14.5292 9.93574L14.5449 35.0823L19.9849 35.0444L19.9959 22.5008L28.1798 22.7078L28.0959 19.5304L19.97 19.8736L19.9748 11.6105L28.2706 12.0556L28.2599 8.84119L14.5343 8.8619L14.5292 9.93574Z" fill="#010101"/>
</svg>
