<svg width="149" height="37" viewBox="0 0 149 37" fill="none" xmlns="http://www.w3.org/2000/svg">
<path fill-rule="evenodd" clip-rule="evenodd" d="M149.002 8.98206H81.9945V-0.000976562H149.002V8.98206Z" fill="#FFED00"/>
<path fill-rule="evenodd" clip-rule="evenodd" d="M132.248 8.98206H115.496V-0.000976562H132.248V8.98206Z" fill="#FFD800"/>
<path fill-rule="evenodd" clip-rule="evenodd" d="M115.498 8.98206H81.9945V-0.000976562H115.498V8.98206Z" fill="#FCC300"/>
<path fill-rule="evenodd" clip-rule="evenodd" d="M32.9402 8.98292H11.9796V-0.00012207H32.9402V8.98292Z" fill="#FECD27"/>
<path fill-rule="evenodd" clip-rule="evenodd" d="M8.98186 8.98238H0V-0.000976562H8.98186V8.98238ZM8.98186 32.9391H0V12.0991H8.98186V32.9391ZM32.937 20.9597V11.9772H11.9767C11.9767 18.9641 11.9767 25.9522 11.9767 32.9391H20.9585H32.937V23.9548H20.9585V20.9597H32.937ZM67.0069 -0.000976562C63.4724 -0.000976562 59.938 -0.000976562 56.4035 -0.000976562L48.0496 11.9772H44.9173V-0.000976562H35.9325V32.9391H44.9173V20.9597H48.0493L56.4035 32.9391C59.9113 32.9391 63.4192 32.9391 66.9269 32.9391L55.3938 16.4688L67.0069 -0.000976562Z" fill="#3D4C4D"/>
<path d="M81.9945 33.0145H90.3307V31.5723H83.6241V19.902H81.9945V33.0145Z" fill="#3D4C4D"/>
<path d="M92.3136 33.015H93.8124V23.3863H92.3136V33.015ZM92.3136 21.8693H93.8124V19.8087H92.3136V21.8693Z" fill="#3D4C4D"/>
<path d="M100.762 36.237C103.104 36.237 104.64 35.0377 104.64 32.5089V23.386H103.741L103.197 24.6601C102.561 23.9106 101.493 23.1614 100.032 23.1614C98.0836 23.1614 96.6412 24.3975 96.6412 26.7018V28.7624C96.6412 31.0663 98.0648 32.3028 100.088 32.3028C101.512 32.3028 102.561 31.591 103.141 30.8978V32.5465C103.141 34.0265 102.373 34.8692 100.762 34.8692C99.1887 34.8692 98.402 34.0265 98.3645 33.0898H96.8658C96.9035 35.0569 98.4583 36.237 100.762 36.237ZM100.35 30.9352C99.0015 30.9352 98.1396 30.0365 98.1396 28.6686V26.7952C98.1396 25.4279 99.0015 24.5287 100.35 24.5287C101.53 24.5287 102.486 25.2971 103.141 26.0274V29.437C102.486 30.1674 101.53 30.9352 100.35 30.9352Z" fill="#3D4C4D"/>
<path d="M107.751 33.015H109.25V26.0464C109.831 25.3537 110.861 24.529 112.041 24.529C113.24 24.529 114.177 25.2783 114.177 26.9459V33.015H115.675V26.7773C115.675 24.4356 114.233 23.1617 112.359 23.1617C110.954 23.1617 109.905 23.8546 109.25 24.5665V19.8087H107.751V33.015Z" fill="#3D4C4D"/>
<path d="M122.195 33.0136H123.094V31.646H122.195C121.221 31.646 120.622 31.1405 120.622 29.8477V24.6965H123.094V23.3849H120.622V21.381H119.123V23.3849H117.55V24.6965H119.123V29.8855C119.123 31.44 119.779 33.0136 122.195 33.0136Z" fill="#3D4C4D"/>
<path d="M125.544 33.015H127.043V23.3863H125.544V33.015ZM125.544 21.8693H127.043V19.8087H125.544V21.8693Z" fill="#3D4C4D"/>
<path d="M130.156 33.0146H131.655V26.046C132.235 25.3534 133.247 24.5287 134.446 24.5287C135.645 24.5287 136.581 25.2779 136.581 26.9456V33.0146H138.08V26.777C138.08 24.4352 136.675 23.1614 134.745 23.1614C133.322 23.1614 132.254 23.892 131.579 24.6601L131.055 23.386H130.156V33.0146Z" fill="#3D4C4D"/>
<path d="M144.918 36.237C147.26 36.237 148.795 35.0377 148.795 32.5089V23.386H147.897L147.353 24.6601C146.716 23.9106 145.648 23.1614 144.187 23.1614C142.239 23.1614 140.797 24.3975 140.797 26.7018V28.7624C140.797 31.0663 142.22 32.3028 144.243 32.3028C145.667 32.3028 146.716 31.591 147.297 30.8978V32.5465C147.297 34.0265 146.529 34.8692 144.918 34.8692C143.344 34.8692 142.558 34.0265 142.52 33.0898H141.021C141.059 35.0569 142.614 36.237 144.918 36.237ZM144.506 30.9352C143.157 30.9352 142.295 30.0365 142.295 28.6686V26.7952C142.295 25.4279 143.157 24.5287 144.506 24.5287C145.686 24.5287 146.641 25.2971 147.297 26.0274V29.437C146.641 30.1674 145.686 30.9352 144.506 30.9352Z" fill="#3D4C4D"/>
</svg>
