<svg width="111" height="55" viewBox="0 0 111 55" fill="none" xmlns="http://www.w3.org/2000/svg">
<g clip-path="url(#clip0_245_9137)">
<mask id="mask0_245_9137" style="mask-type:luminance" maskUnits="userSpaceOnUse" x="-1" y="0" width="112" height="55">
<path d="M111 0H-0.000320435V54.6506H111V0Z" fill="white"/>
</mask>
<g mask="url(#mask0_245_9137)">
<path d="M111 44H-0.000320435L8.88077 0L105.452 4.57692L111 44Z" fill="#DD1F28"/>
<path d="M34.738 54.6503L-0.000320435 43.9998H33.6124L34.738 54.6503Z" fill="#DC2228"/>
<path d="M24.1758 14.593V28.1512H31.8011V30.8302H21.1221V14.593H24.1758Z" fill="white"/>
<path d="M45.689 14.593V17.2447H37.0247V20.9953H43.2135V23.6288H37.0247V28.1694H45.689V30.8302H33.962V14.593H45.689Z" fill="white"/>
<path d="M54.7761 17.2538H51.9753V28.1512H54.7761C58.3448 28.1512 59.4379 27.2431 59.4379 22.6571C59.4379 17.8804 58.3448 17.2084 54.7761 17.2084V17.2538ZM55.1104 14.593C60.224 14.593 62.7266 16.3366 62.7266 22.648C62.7266 28.9594 60.1969 30.8755 55.1104 30.8755H48.9126V14.593H55.1104Z" fill="white"/>
<path d="M77.6436 14.593V17.2447H68.9703V20.9953H75.1681V23.6288H68.9703V28.1694H77.6436V30.8302H65.9166V14.593H77.6436Z" fill="white"/>
<path d="M83.9213 14.593V28.1512H91.5459V30.8302H80.8672V14.593H83.9213Z" fill="white"/>
</g>
</g>
<defs>
<clipPath id="clip0_245_9137">
<rect width="111" height="55" fill="white"/>
</clipPath>
</defs>
</svg>
