<svg width="170" height="194" viewBox="0 0 170 194" fill="none" xmlns="http://www.w3.org/2000/svg">
<g opacity="0.07">
<path fill-rule="evenodd" clip-rule="evenodd" d="M100.627 170.532C102.253 173.227 103.571 176.096 104.556 179.085C104.708 179.548 105.008 179.947 105.41 180.223C105.811 180.499 106.292 180.636 106.779 180.613L115.845 180.201C116.434 180.176 117.009 180.386 117.444 180.783C117.879 181.181 118.138 181.735 118.165 182.323L118.839 197.145C118.865 197.734 118.656 198.309 118.257 198.745C117.859 199.18 117.303 199.44 116.713 199.466L107.702 199.873C107.214 199.895 106.747 200.077 106.373 200.39C105.999 200.704 105.738 201.131 105.631 201.606C104.937 204.675 103.901 207.656 102.54 210.494C102.327 210.93 102.264 211.424 102.361 211.899C102.457 212.375 102.708 212.806 103.075 213.124L109.9 219.096C110.121 219.288 110.301 219.522 110.431 219.784C110.561 220.045 110.638 220.33 110.658 220.622C110.678 220.914 110.64 221.206 110.546 221.483C110.453 221.76 110.305 222.016 110.113 222.236L100.318 233.396C99.9271 233.839 99.377 234.109 98.7876 234.147C98.1981 234.186 97.6173 233.99 97.1722 233.602L90.3832 227.662C90.0151 227.342 89.5519 227.151 89.0648 227.119C88.5778 227.087 88.0937 227.216 87.687 227.486C83.6821 230.128 79.2543 232.068 74.5948 233.221C74.1225 233.337 73.7012 233.604 73.3953 233.982C73.0894 234.359 72.9157 234.827 72.9007 235.312L72.6334 244.363C72.6144 244.952 72.362 245.509 71.9317 245.913C71.5013 246.316 70.9282 246.533 70.338 246.515L55.4849 246.072C54.8948 246.055 54.3358 245.804 53.9305 245.376C53.5252 244.948 53.3067 244.376 53.3231 243.787L53.5964 234.785C53.6095 234.298 53.4622 233.82 53.177 233.424C52.8917 233.029 52.4844 232.738 52.0175 232.596C48.3291 231.467 44.8144 229.835 41.5729 227.746C41.1659 227.48 40.6822 227.355 40.1969 227.392C39.7116 227.428 39.2519 227.623 38.8889 227.947L32.106 233.96C31.6646 234.352 31.0854 234.553 30.4955 234.519C29.9057 234.485 29.3535 234.219 28.9604 233.778L19.0866 222.685C18.6965 222.243 18.4973 221.666 18.5326 221.079C18.5678 220.491 18.8348 219.942 19.2749 219.55L25.9728 213.549C26.3368 213.224 26.5838 212.789 26.6759 212.31C26.7681 211.832 26.7003 211.336 26.4829 210.9C25.0856 208.081 24.0121 205.114 23.2827 202.055C23.1712 201.581 22.907 201.158 22.5306 200.849C22.1543 200.54 21.6868 200.363 21.1999 200.345L12.1398 200C11.5497 199.976 10.9931 199.72 10.5923 199.287C10.1915 198.854 9.9793 198.279 10.0023 197.69L10.5671 182.868C10.5892 182.279 10.8446 181.723 11.2773 181.322C11.7099 180.92 12.2844 180.707 12.8746 180.728L21.8922 181.074C22.3798 181.091 22.8595 180.948 23.2577 180.666C23.6559 180.385 23.9505 179.981 24.0964 179.516C25.0462 176.517 26.3294 173.633 27.9221 170.92C28.1705 170.503 28.2748 170.016 28.2189 169.534C28.1629 169.052 27.9498 168.601 27.6124 168.252L21.3031 161.735C20.8942 161.311 20.6704 160.743 20.6807 160.154C20.6909 159.566 20.9344 159.005 21.3578 158.595L32.0514 148.29C32.261 148.086 32.5086 147.926 32.7802 147.819C33.0518 147.711 33.342 147.658 33.6342 147.663C33.9263 147.667 34.2147 147.729 34.4829 147.845C34.751 147.961 34.9936 148.128 35.1968 148.338L41.4697 154.819C41.8092 155.169 42.2548 155.398 42.7377 155.47C43.2207 155.543 43.714 155.454 44.1415 155.219C46.9047 153.708 49.83 152.515 52.8616 151.66C53.3298 151.529 53.742 151.248 54.0348 150.86C54.3277 150.473 54.4851 150 54.4829 149.514V140.457C54.4821 140.166 54.5388 139.877 54.6498 139.608C54.7607 139.338 54.9238 139.093 55.1296 138.887C55.3354 138.68 55.5799 138.516 55.8493 138.404C56.1186 138.291 56.4075 138.233 56.6994 138.232L71.5647 138.178C71.8565 138.177 72.1457 138.234 72.4157 138.344C72.6856 138.455 72.9311 138.618 73.138 138.823C73.345 139.029 73.5093 139.273 73.6218 139.542C73.7342 139.811 73.7925 140.099 73.7933 140.391L73.8297 149.399C73.8317 149.887 73.9945 150.361 74.293 150.748C74.5915 151.135 75.0091 151.413 75.4815 151.539C78.522 152.359 81.461 153.516 84.2439 154.988C84.6712 155.219 85.1632 155.303 85.6431 155.227C86.123 155.15 86.564 154.917 86.8976 154.564L93.1583 148.029C93.3595 147.817 93.6005 147.647 93.8676 147.529C94.1346 147.41 94.4225 147.345 94.7147 147.338C95.0069 147.331 95.2976 147.381 95.5703 147.486C95.843 147.591 96.0922 147.749 96.3038 147.95L107.064 158.183C107.491 158.591 107.739 159.15 107.754 159.74C107.769 160.33 107.549 160.901 107.143 161.329L100.913 167.852C100.576 168.205 100.366 168.659 100.314 169.144C100.263 169.628 100.373 170.116 100.627 170.532ZM76.7007 200.509C84.5463 187.481 72.201 173.017 58.0826 178.685C55.607 179.678 53.524 181.451 52.1498 183.735C44.3042 196.756 56.6495 211.22 70.7618 205.558C73.2377 204.563 75.3222 202.79 76.7007 200.509Z" fill="#757575"/>
<path fill-rule="evenodd" clip-rule="evenodd" d="M173.213 130.716C174.355 132.609 175.28 134.624 175.972 136.722C176.079 137.047 176.289 137.327 176.571 137.521C176.853 137.715 177.19 137.811 177.532 137.795L183.898 137.505C184.312 137.488 184.715 137.635 185.02 137.914C185.326 138.194 185.508 138.582 185.527 138.995L186 149.402C186.018 149.816 185.871 150.22 185.592 150.526C185.312 150.831 184.922 151.014 184.507 151.032L178.18 151.318C177.838 151.333 177.51 151.461 177.247 151.681C176.985 151.901 176.802 152.201 176.726 152.535C176.239 154.689 175.511 156.783 174.556 158.775C174.407 159.081 174.362 159.428 174.43 159.762C174.498 160.096 174.674 160.398 174.931 160.622L179.724 164.815C179.879 164.95 180.005 165.114 180.097 165.298C180.188 165.481 180.242 165.681 180.256 165.886C180.27 166.091 180.243 166.296 180.177 166.491C180.112 166.685 180.008 166.865 179.873 167.019L172.996 174.856C172.721 175.166 172.335 175.356 171.921 175.383C171.508 175.41 171.1 175.272 170.787 175L166.02 170.829C165.762 170.604 165.437 170.47 165.095 170.448C164.753 170.426 164.413 170.516 164.127 170.706C161.315 172.561 158.207 173.922 154.935 174.732C154.603 174.814 154.308 175.001 154.093 175.267C153.878 175.532 153.756 175.86 153.745 176.201L153.558 182.555C153.545 182.969 153.367 183.36 153.065 183.644C152.763 183.927 152.361 184.079 151.946 184.066L141.517 183.756C141.103 183.743 140.711 183.568 140.426 183.267C140.141 182.966 139.988 182.565 140 182.151L140.191 175.83C140.201 175.488 140.097 175.153 139.897 174.875C139.697 174.598 139.411 174.393 139.083 174.294C136.493 173.501 134.025 172.355 131.749 170.889C131.464 170.702 131.124 170.614 130.783 170.639C130.443 170.665 130.12 170.802 129.865 171.029L125.102 175.251C124.793 175.527 124.386 175.668 123.972 175.644C123.558 175.62 123.17 175.433 122.894 175.124L115.961 167.334C115.687 167.025 115.547 166.619 115.572 166.207C115.597 165.794 115.784 165.409 116.093 165.134L120.796 160.92C121.052 160.692 121.225 160.386 121.29 160.05C121.355 159.714 121.307 159.366 121.154 159.06C120.173 157.081 119.42 154.998 118.907 152.85C118.829 152.517 118.644 152.22 118.379 152.003C118.115 151.786 117.787 151.662 117.445 151.65L111.084 151.407C110.669 151.39 110.278 151.21 109.997 150.906C109.716 150.602 109.567 150.199 109.583 149.785L109.979 139.378C109.995 138.965 110.174 138.574 110.478 138.292C110.782 138.011 111.185 137.861 111.6 137.876L117.931 138.118C118.273 138.13 118.61 138.03 118.89 137.832C119.169 137.635 119.376 137.351 119.479 137.025C120.146 134.919 121.047 132.894 122.165 130.989C122.339 130.696 122.412 130.354 122.373 130.016C122.334 129.677 122.184 129.361 121.947 129.116L117.517 124.54C117.23 124.243 117.073 123.843 117.08 123.43C117.088 123.017 117.259 122.623 117.556 122.336L125.064 115.1C125.211 114.957 125.385 114.845 125.576 114.769C125.767 114.694 125.97 114.656 126.175 114.66C126.381 114.663 126.583 114.706 126.771 114.788C126.96 114.869 127.13 114.987 127.273 115.134L131.677 119.684C131.915 119.93 132.228 120.091 132.567 120.142C132.906 120.192 133.253 120.13 133.553 119.965C135.493 118.904 137.547 118.066 139.676 117.466C140.004 117.374 140.294 117.177 140.499 116.905C140.705 116.632 140.815 116.3 140.814 115.96V109.6C140.813 109.396 140.853 109.193 140.931 109.004C141.009 108.815 141.123 108.643 141.268 108.498C141.412 108.353 141.584 108.237 141.773 108.159C141.962 108.08 142.165 108.039 142.37 108.038L152.807 108C153.012 107.999 153.215 108.039 153.405 108.117C153.595 108.195 153.767 108.309 153.912 108.453C154.057 108.598 154.173 108.769 154.252 108.958C154.331 109.147 154.372 109.349 154.372 109.554L154.398 115.879C154.399 116.221 154.514 116.554 154.723 116.826C154.933 117.097 155.226 117.292 155.558 117.381C157.692 117.957 159.756 118.769 161.71 119.803C162.01 119.965 162.355 120.024 162.692 119.97C163.029 119.916 163.339 119.753 163.573 119.505L167.969 114.917C168.11 114.768 168.279 114.649 168.467 114.566C168.654 114.482 168.857 114.437 169.062 114.432C169.267 114.427 169.471 114.462 169.662 114.536C169.854 114.609 170.029 114.72 170.177 114.861L177.733 122.046C178.032 122.332 178.207 122.725 178.217 123.139C178.227 123.553 178.073 123.955 177.788 124.255L173.414 128.835C173.177 129.083 173.03 129.402 172.993 129.742C172.957 130.082 173.034 130.425 173.213 130.716ZM156.414 151.764C161.922 142.617 153.254 132.461 143.342 136.441C141.603 137.138 140.141 138.383 139.176 139.986C133.667 149.129 142.335 159.285 152.244 155.309C153.982 154.61 155.446 153.366 156.414 151.764Z" fill="#6F90DE"/>
</g>
<path d="M116.971 7.80741C111.615 6.86173 106.062 6.80231 100.942 7.98522C89.0209 10.7389 77.502 21.3983 79.0942 34.5363C79.6115 38.804 78.2243 43.1829 81.9699 45.6306C83.9964 46.9549 89.858 48.5277 92.2501 48.1556C98.6077 47.1675 103.488 42.3541 101.237 35.7258C100.517 33.6032 99.4587 31.5966 98.8931 29.4275C98.3277 27.258 98.318 24.7947 99.5793 22.9412C102.056 19.303 108.286 19.0634 112.17 19.8393C116.754 20.755 120.544 23.7408 122.364 28.0748C124.632 33.476 124.414 39.5442 123.008 45.1333C121.503 51.1138 118.171 55.3134 113.564 59.3194C109.597 62.7687 105.324 66.0008 102.344 70.3336C99.6083 74.3113 98.1462 78.9829 97.2601 83.6892C97.0882 84.6015 91.092 92.4607 90.6675 95.0988C90.6078 95.4715 95.5502 97.5723 95.9211 97.6392C97.8567 97.9874 103.338 98.9743 105.356 99.3372C105.771 99.4119 106.17 99.1368 106.245 98.721C108.548 85.9264 114.543 74.3679 125.958 67.4371C130.111 64.9151 134.445 63.0217 137.931 59.5426C142.898 54.5838 145.815 49.3713 146.414 42.3198C146.962 35.8792 145.944 29.172 142.641 23.5469C139.091 17.5012 133.145 13.0976 126.628 10.5318C123.588 9.33519 120.318 8.3977 116.971 7.80691L116.971 7.80741Z" fill="#FFC737"/>
<path d="M109.126 114.75C108.133 120.645 103.992 125.311 98.1079 124.319C96.8366 124.105 92.5112 123.389 91.4498 122.789C87.5976 120.614 88.1146 117.454 88.893 112.833C89.886 106.938 92.8495 101.476 98.7344 102.467C104.619 103.458 110.119 108.856 109.126 114.75L109.126 114.75Z" fill="#FFC737"/>
<path d="M112.101 5.60563C106.745 4.65995 101.193 4.60053 96.0716 5.78344C84.1511 8.53714 72.6321 19.1965 74.2243 32.3345C74.7416 36.6023 76.6586 42.1879 80.4042 44.6356C82.4307 45.9599 84.9881 46.3255 87.3802 45.9538C93.7379 44.9657 98.618 40.1523 96.3673 33.524C95.6467 31.4015 94.5888 29.3948 94.0233 27.2257C93.4577 25.0567 93.4481 22.5929 94.7095 20.7394C97.1859 17.1012 103.417 16.8616 107.3 17.6375C111.884 18.5532 115.674 21.539 117.494 25.873C119.762 31.2743 119.545 37.3425 118.138 42.9315C116.633 48.912 113.301 53.1116 108.694 57.1176C104.727 60.567 100.454 63.7991 97.4744 68.1319C94.7385 72.1095 93.2764 76.7811 92.3902 81.4875C92.2183 82.3997 90.9163 92.0083 90.4919 94.6464C90.4322 95.0191 90.6804 95.3702 91.0513 95.437C92.9869 95.7852 98.4687 96.7721 100.486 97.1351C100.902 97.2098 101.3 96.9346 101.375 96.5188C103.678 83.7242 109.673 72.1657 121.088 65.2349C125.241 62.7129 129.575 60.8195 133.061 57.3404C138.029 52.3816 140.945 47.1691 141.545 40.1176C142.092 33.677 141.075 26.9698 137.771 21.3446C134.221 15.299 128.275 10.8954 121.758 8.32961C118.719 7.13391 115.448 6.19641 112.101 5.60563Z" fill="#FFEDA4"/>
<path d="M92.8813 123.099C98.7659 124.09 104.341 120.115 105.334 114.221C106.327 108.326 102.362 102.744 96.4771 101.753C90.5924 100.761 85.0171 104.736 84.0241 110.631C83.0312 116.526 86.9967 122.108 92.8813 123.099Z" fill="#FFEDA4"/>
<path d="M30.3277 135.448C30.1594 136.307 29.4246 178.293 33.9053 197.109C33.9785 197.415 33.823 197.732 33.5311 197.851C32.8438 198.133 31.4971 198.54 29.8826 198.594C29.3824 198.611 28.9342 198.286 28.7931 197.805C27.5121 193.439 21.3754 171.567 20.5749 150.673C19.6801 127.326 20.5749 149.878 20.5749 149.878L21.0993 135.447L30.3277 135.448Z" fill="#484949"/>
<path d="M12.5965 136.736C8.93214 158.888 13.3917 191.487 14.8953 197.868C14.9873 198.259 15.3019 198.558 15.6973 198.624C16.3687 198.735 17.474 198.826 18.5634 198.509C18.9391 198.4 19.2024 198.061 19.2175 197.669C19.419 192.51 19.0561 160.844 22.4707 148.329C22.6435 147.695 23.0305 147.141 23.5654 146.76L30.1925 142.041L30.7002 134.412L12.5965 136.736Z" fill="#757575"/>
<path d="M35.943 94.7622C24.962 94.5809 12.8448 97.6507 12.8448 97.6507C9.57122 116.783 12.2721 138.85 12.2721 138.85C20.7733 141.084 30.3638 137.485 30.3638 137.485C31.7769 129.488 38.3693 106.983 38.3693 106.983C43.7349 106.315 48.1545 104.765 51.7947 102.715C49.0183 99.4909 47.7094 95.3888 47.1413 92.9644C43.2589 94.1728 39.3297 94.8189 35.943 94.7622Z" fill="url(#paint0_linear_245_6427)"/>
<path d="M68.3801 78.5592C67.3012 77.2541 65.9357 77.8715 65.9357 77.8715C64.3196 84.7094 55.8464 90.2535 47.1416 92.9636C47.7105 95.3887 49.0187 99.4909 51.795 102.714C66.242 94.5771 68.3793 78.5592 68.3793 78.5592H68.3801Z" fill="#FFBA9F"/>
<path d="M68.1219 78.8909C68.235 79.2506 66.9276 79.7978 66.158 78.3279C66.1309 77.6235 65.7031 74.6051 66.1233 74.0308C68.3618 70.9738 72.7014 67.1415 72.7014 67.1415C73.4347 67.8662 72.8304 68.5789 72.8304 68.5789L70.7247 70.7758C71.1653 71.5731 71.7025 72.2457 71.9537 73.21C72.1446 73.9401 72.0276 74.7208 71.6595 75.385C71.2898 76.0516 70.7858 76.9192 70.309 77.5971C69.4067 78.8811 68.1204 78.8909 68.1204 78.8909H68.1219Z" fill="#FFBA9F"/>
<path d="M69.8053 72.201L67.8867 73.8304L67.2847 75.4522L68.995 77.3529C68.995 77.3529 69.5699 74.1342 69.9977 73.4382C70.4254 72.7414 70.2036 72.4051 69.8053 72.201Z" fill="#F3937A"/>
<path d="M17.0587 108.301L12.8466 97.6498C12.8466 97.6498 2.58915 104.631 0.902954 113.482C2.84113 113.625 6.36743 114.13 9.81978 115.877C10.578 111.697 17.0587 108.301 17.0587 108.301Z" fill="url(#paint1_linear_245_6427)"/>
<path d="M26.0225 118.324C26.0225 118.324 14.5066 124.844 10.6204 119.277C9.81394 118.12 9.6208 116.972 9.81922 115.877C6.36687 114.131 2.84057 113.625 0.902397 113.483C0.393899 116.151 0.662483 118.989 2.22796 121.858C9.0346 134.33 27.5457 121.168 27.5457 121.168L26.0225 118.324Z" fill="#FFC7AE"/>
<path d="M24.6386 126.572L30.9239 104.585C30.9948 104.336 31.2076 104.154 31.4656 104.124C32.6041 103.991 35.904 103.617 39.714 103.294C44.3033 102.905 49.632 102.59 52.8165 102.858C53.2692 102.896 53.543 103.375 53.3416 103.784C51.5309 107.453 44.0815 122.382 40.3515 127.273C40.2278 127.434 40.0369 127.53 39.8332 127.527L25.2505 127.391C24.8265 127.387 24.5224 126.979 24.6394 126.57L24.6386 126.572Z" fill="#303030"/>
<path d="M40.3642 101.388L44.9211 100.628C45.164 100.587 45.3624 100.82 45.2855 101.053L44.8343 102.422C44.7951 102.542 44.691 102.628 44.5673 102.645L40.1824 103.231C39.9553 103.261 39.7682 103.055 39.821 102.832L40.1002 101.637C40.1303 101.508 40.2345 101.41 40.365 101.388H40.3642Z" fill="#F6F7F8"/>
<path d="M36.9516 105.253L37.3273 103.294C37.3651 103.097 37.5273 102.949 37.7257 102.929L46.9292 101.993C47.2393 101.961 47.4867 102.246 47.4143 102.549L46.8289 104.99C46.7821 105.185 46.6123 105.327 46.4124 105.337L37.4186 105.79C37.1259 105.805 36.8966 105.541 36.9524 105.253H36.9516Z" fill="#F6F7F8"/>
<path d="M26.1576 121.26C26.1576 121.26 25.2825 117.654 25.6356 116.374C25.9886 115.095 26.6729 113.449 28.9536 113.815C31.2343 114.181 33.9247 115.143 33.9247 115.143C33.9247 115.143 33.7889 116.809 32.0552 116.272L33.1303 117.105C33.1303 117.105 32.9763 118.44 31.5127 117.726L32.5124 118.831C32.5124 118.831 31.8839 119.927 30.8066 119.224C29.7292 118.521 29.2132 121.694 26.1576 121.259V121.26Z" fill="#FFC7AE"/>
<path d="M24.8218 85.8317L21.328 95.9533C21.2699 96.121 21.3385 96.3069 21.494 96.3923C22.4461 96.9198 25.8781 98.4449 30.0132 95.818C30.444 95.5444 30.7375 95.0985 30.8023 94.5914L31.934 85.8309L24.8218 85.8317Z" fill="#FFBA9F"/>
<path d="M24.8218 85.8316L23.2092 90.5634C23.1511 90.7312 23.4403 90.8656 23.5957 90.951C24.5478 91.4785 26.6672 93.1904 30.8023 90.5634C31.2331 90.2899 31.328 90.1759 31.328 90.1759L31.934 85.8308L24.8218 85.8316Z" fill="#F3937A"/>
<path d="M9.60217 115.8C10.9355 112.967 14.4025 107 16.0025 107" stroke="black" stroke-width="0.22"/>
<path d="M32.0326 77.9951C32.0326 77.9951 35.8697 85.2298 35.3778 88.1522C34.8859 91.0746 30.1306 90.8645 25.9781 88.4915L23.0765 80.6795L32.0326 77.9951Z" fill="#FFBA9F"/>
<path d="M26.16 84.6555C26.329 84.5807 26.3909 84.3736 26.2898 84.2194C25.982 83.7494 25.4063 82.7896 25.2222 81.9492C25.2222 81.9492 24.5327 81.5063 26.9779 80.9206C29.423 80.3342 33.07 79.4243 33.8365 77.3392C34.5842 75.3063 32.6204 70.1945 29.4879 74.2679C29.3687 74.4228 29.1356 74.4266 29.0164 74.2709C28.5026 73.6013 27.1529 72.2115 25.2781 73.0542C23.524 73.8424 23.3263 75.1302 23.3505 75.7794C23.3573 75.9706 23.1868 76.1187 22.9996 76.0832C22.1132 75.9139 19.9849 75.768 18.9913 77.9551C18.1727 79.7568 18.7046 80.7763 19.1889 81.2751C19.3459 81.4368 19.2772 81.7028 19.0622 81.7686C18.479 81.9477 17.7268 82.4427 17.8023 83.8106C17.9064 85.7014 20.0173 85.5352 20.6179 85.449C20.7167 85.4347 20.8155 85.4687 20.8819 85.5427C21.3972 86.1141 23.7186 88.5392 26.2309 88.8317C26.4482 88.8566 26.6172 88.642 26.5456 88.4342L25.4584 85.2676C25.4078 85.1203 25.478 84.9593 25.6198 84.8966L26.1593 84.657L26.16 84.6555Z" fill="#303030"/>
<path d="M26.5954 85.1042C26.5954 85.1042 23.8636 83.227 23.6636 84.808C23.4637 86.389 26.1239 87.0979 27.4411 86.5084L26.5954 85.1042Z" fill="#FFBA9F"/>
<defs>
<linearGradient id="paint0_linear_245_6427" x1="27.7316" y1="108.101" x2="91.3835" y2="-1.37742" gradientUnits="userSpaceOnUse">
<stop stop-color="#6F90DE"/>
<stop offset="1" stop-color="#4042E2"/>
</linearGradient>
<linearGradient id="paint1_linear_245_6427" x1="14.5275" y1="100.423" x2="78.1795" y2="-9.05582" gradientUnits="userSpaceOnUse">
<stop stop-color="#6F90DE"/>
<stop offset="1" stop-color="#4042E2"/>
</linearGradient>
</defs>
</svg>
