<svg width="203" height="176" viewBox="0 0 203 176" fill="none" xmlns="http://www.w3.org/2000/svg">
<g opacity="0.15">
<path d="M30.3058 136.596L33.7738 136.027L32.1669 125.435L35.0096 124.968L47.4566 122.922L47.7857 122.867L58.7999 121.057L58.9553 121.029L65.3949 119.967L67.0014 130.557L84.4473 127.69L84.1764 125.905L68.6735 128.48L67.067 117.891L35.7108 123.091L30.2455 123.997L31.852 134.586L31.0984 134.712L23.2701 136.014L9.73456 46.7921L47.4646 41.4983L49.1107 41.2673L61.6304 39.5099L62.3495 39.4093L62.6814 39.3615L72.2638 38.0191L72.5774 37.9741L82.545 36.5767L82.2712 34.7722L61.0026 37.7863L60.6865 37.8317L49.7478 39.3824L49.4325 39.4276L48.6982 39.5339L7.80972 45.3316L21.8661 137.986L30.3055 136.6L30.3058 136.596ZM126.209 120.817L142.875 118.073L129.228 28.1193L108.944 30.984L109.224 32.8259L127.844 30.2213L140.929 116.476L125.703 119.006L125.984 120.855L126.208 120.816L126.209 120.817Z" fill="#8A8A8A"/>
<path d="M126.346 120.819L126.348 120.796L125.941 118.982L125.639 119.031L84.1768 125.903L84.4476 127.688L126.346 120.818L126.346 120.819ZM125.787 119.884L125.829 119.878L126.075 120.867L125.915 120.747L84.6838 127.374L84.4952 126.131L125.787 119.884Z" fill="#8A8A8A"/>
<path d="M48.9305 39.4964L7.81023 45.3292L12.638 77.1524L13.6051 77.0168L13.9017 76.9718L14.5253 76.8755L52.0906 71.2403L52.7153 71.0835L53.0327 71.0353L53.7195 71.0586L48.9313 39.4963L48.9305 39.4964ZM9.73519 46.7906L47.2526 41.529L51.5057 69.5646L51.6569 69.5416L42.4755 70.9277L42.1774 70.9797L41.8659 71.027L14.0462 75.2075L9.73519 46.7906Z" fill="#8A8A8A"/>
<path d="M129.007 28.5317L109.001 31.3627L109.281 33.2046L127.624 30.6369L133.415 68.8133L94.2039 74.9038L91.5806 75.4055L78.247 77.4283L69.6169 78.5659L63.7058 39.6019L72.507 38.3703L72.7283 38.3393L82.6037 36.9559L82.3296 35.1489L61.7693 38.0641L68.2209 80.5914L93.8425 77.0146L134.27 71.2002L135.453 71.0208L129.007 28.5334L129.007 28.5317Z" fill="#8A8A8A"/>
<path d="M19.487 111.425L28.6876 109.97L25.0795 86.1861L53.6825 81.7236L54.4693 81.6043L52.729 70.1325L51.9932 70.1625L42.2642 71.5356L42.2509 71.5376L14.155 75.8076L13.0404 76.0524L18.4319 111.591L19.4871 111.426L19.487 111.425ZM13.3695 76.3501L14.2081 76.2254L51.8242 70.6225L52.5033 70.522L54.1486 81.3673L53.6393 81.4446L24.7489 85.8836L28.3575 109.67L19.4369 111.084L18.6567 111.208L13.3686 76.3502L13.3695 76.3501Z" fill="#8A8A8A"/>
<path d="M49.3755 135.473C55.4807 134.46 59.7221 128.053 58.9771 121.025C58.9533 120.795 58.958 120.557 58.9228 120.325L58.8953 120.144L46.9843 122.076L49.0251 135.528L49.3754 135.473L49.3755 135.473ZM47.3144 122.38L58.5428 120.559C58.5669 120.735 58.4864 120.927 58.5043 121.102C59.2073 127.875 55.048 134.068 49.2491 135.133L47.3144 122.38Z" fill="#8A8A8A"/>
<path d="M61.5671 38.6124C61.5214 38.3116 61.276 38.0437 61.213 37.7516C59.7692 30.9519 54.0168 26.1947 47.9901 27.0248L47.8908 27.0373L49.9245 40.4424L61.5951 38.7968L61.5672 38.6132L61.5671 38.6124ZM50.1489 40.0505L48.2223 27.3508C53.7987 26.6901 59.4348 31.2636 60.8394 37.8048C60.889 38.0421 61.0081 38.2722 61.0472 38.5136L50.1488 40.0497L50.1489 40.0505Z" fill="#8A8A8A"/>
<path d="M91.7134 76.4247L91.6859 76.2436C91.6335 75.898 91.6074 75.6028 91.5304 75.2685C90.0512 68.583 84.3769 64.0103 78.469 64.9065L78.8869 64.8431L80.8934 78.0687L91.7126 76.4248L91.7134 76.4247ZM79.2043 65.0585C84.4936 64.3759 90.0486 68.801 91.4828 75.2239C91.5434 75.5003 91.7317 75.7607 91.7782 76.0452L81.1172 77.6676L79.2043 65.0585Z" fill="#8A8A8A"/>
<path d="M50.6251 56.1179C50.6519 56.0816 50.5635 55.863 50.5562 55.8148L48.5746 42.7528C48.5605 42.6598 48.5529 42.5819 48.4673 42.5949L47.725 42.699L37.1542 44.199C37.1102 44.2056 37.083 44.2284 37.0589 44.2653C37.0334 44.3048 37.0261 44.3518 37.0334 44.4C38.0981 51.4178 43.7317 56.675 49.816 56.2585C50.0711 56.2419 50.3606 56.3969 50.6181 56.3578L50.6231 56.3571C50.6647 56.3508 50.6012 56.1564 50.625 56.1171L50.6251 56.1179ZM37.3759 44.5231L47.7626 43.0537L48.325 42.9734L50.2528 55.6806C49.9745 55.7177 49.8915 55.7193 49.6859 55.7309C43.8263 56.1218 38.4802 51.2587 37.3758 44.5223L37.3759 44.5231Z" fill="#8A8A8A"/>
<path d="M78.627 78.1052L72.4531 37.409L62.7268 38.7783L68.9169 79.5809L78.627 78.1052ZM63.0589 39.0959L72.2294 37.8059L78.295 77.7884L69.1403 79.1824L63.0589 39.0959Z" fill="#8A8A8A"/>
<path d="M55.3162 81.5978L53.6518 81.8486L51.9207 70.4375L53.5828 70.1717L55.3162 81.5978Z" fill="#8A8A8A"/>
<path d="M107.454 32.1804C108.533 27.7156 113.028 24.9707 117.493 26.0501L186.244 42.6698C190.038 43.5867 192.447 47.3151 191.724 51.1499L172.704 152.053C172.138 155.054 169.2 156.991 166.219 156.327L87.0753 138.711C84.2744 138.087 82.5299 135.288 83.204 132.499L107.455 32.1806L107.454 32.1804Z" fill="#B5B5B5"/>
<path d="M90.5293 113.643C90.4252 113.618 90.3617 113.513 90.3868 113.409L90.9078 111.254C90.933 111.15 91.0377 111.086 91.1413 111.111C91.2449 111.136 91.3089 111.241 91.2838 111.345L90.7628 113.5C90.7376 113.604 90.6329 113.668 90.5293 113.643Z" fill="#A3A3A3"/>
<path d="M114.672 26.9925C115.009 25.5622 116.533 24.7599 117.902 25.294C126.983 28.8367 158.316 40.579 185.504 44.9827C186.744 45.1837 187.578 46.3614 187.348 47.5959L168.466 149.003C168.207 150.393 166.875 151.314 165.483 151.063C154.096 149.014 107.241 140.406 91.1672 134.692C90.1887 134.344 89.6314 133.315 89.8692 132.305L114.672 26.9925Z" fill="#929292"/>
<path d="M115.17 29.7685C115.494 28.3919 116.96 27.6199 118.278 28.1341C127.017 31.5436 157.17 42.8435 183.335 47.0809C184.528 47.2741 185.33 48.4077 185.108 49.596L166.938 147.185C166.689 148.522 165.407 149.409 164.067 149.168C153.109 147.195 108.018 138.911 92.5499 133.413C91.6082 133.078 91.0718 132.087 91.301 131.115L115.17 29.7685Z" fill="white"/>
<g opacity="0.6">
<path d="M167.04 51.4023C167.484 51.5096 167.923 51.2316 168.016 50.7846L168.054 50.6C168.147 50.153 167.862 49.6933 167.42 49.5789L131.457 40.2674C131.015 40.1529 130.703 40.4298 130.763 40.8826L130.895 41.8686C130.956 42.3214 131.369 42.7792 131.813 42.8866L167.04 51.4024L167.04 51.4023Z" fill="#A3A3A3"/>
</g>
<g opacity="0.6">
<path d="M130.25 45.2592C129.808 45.1447 129.496 45.4216 129.557 45.8744L129.689 46.8603C129.749 47.3131 130.162 47.771 130.606 47.8783L165.834 56.3941C166.278 56.5015 166.717 56.2235 166.81 55.7765L166.848 55.5919C166.941 55.1449 166.655 54.6852 166.214 54.5708L130.251 45.2593L130.25 45.2592Z" fill="#A3A3A3"/>
</g>
<g opacity="0.6">
<path d="M174.874 68.0271C175.318 68.1345 175.75 67.8548 175.835 67.4063L175.87 67.2198C175.955 66.7708 175.662 66.3123 175.219 66.2005L117.275 51.5656C116.832 51.4539 116.585 51.7175 116.726 52.152L117.111 53.3359C117.252 53.7704 117.73 54.2134 118.174 54.3208L174.874 68.0273L174.874 68.0271Z" fill="#A3A3A3"/>
</g>
<g opacity="0.6">
<path d="M116.029 56.7262C115.586 56.6145 115.339 56.8781 115.48 57.3127L115.864 58.4966C116.005 58.9311 116.484 59.3741 116.928 59.4814L173.628 73.1879C174.072 73.2953 174.504 73.0155 174.589 72.5671L174.624 72.3806C174.709 71.9316 174.416 71.4731 173.973 71.3613L116.029 56.7264L116.029 56.7262Z" fill="#A3A3A3"/>
</g>
<g opacity="0.6">
<path d="M115.02 62.3875C114.577 62.2758 114.33 62.5394 114.471 62.9739L114.855 64.1578C114.996 64.5923 115.475 65.0353 115.919 65.1427L172.619 78.8492C173.063 78.9565 173.495 78.6768 173.58 78.2283L173.615 78.0418C173.7 77.5928 173.407 77.1343 172.964 77.0226L115.02 62.3876L115.02 62.3875Z" fill="#A3A3A3"/>
</g>
<g opacity="0.6">
<path d="M163.474 128.083C163.918 128.191 164.35 127.911 164.433 127.462L164.468 127.275C164.552 126.826 164.258 126.367 163.815 126.256L103.689 111.093C103.246 110.981 103.005 111.243 103.153 111.675L103.565 112.881C103.713 113.313 104.197 113.754 104.641 113.862L163.473 128.084L163.474 128.083Z" fill="#A3A3A3"/>
</g>
<g opacity="0.6">
<path d="M102.442 116.253C101.999 116.142 101.758 116.404 101.906 116.836L102.319 118.042C102.467 118.474 102.951 118.915 103.395 119.023L162.227 133.245C162.671 133.352 163.102 133.073 163.186 132.623L163.221 132.437C163.304 131.988 163.011 131.529 162.568 131.417L102.442 116.254L102.442 116.253Z" fill="#A3A3A3"/>
</g>
<g opacity="0.6">
<path d="M101.442 121.918C100.999 121.806 100.758 122.068 100.906 122.501L101.319 123.706C101.467 124.139 101.951 124.58 102.395 124.687L161.227 138.909C161.671 139.017 162.103 138.737 162.186 138.288L162.221 138.101C162.304 137.653 162.011 137.193 161.568 137.082L101.442 121.919L101.442 121.918Z" fill="#A3A3A3"/>
</g>
<g opacity="0.6">
<path d="M170.565 87.5659C171.009 87.6733 171.444 87.3943 171.533 86.9461L171.569 86.7606C171.657 86.3124 171.368 85.8535 170.925 85.7407L122.549 73.4215C122.106 73.3087 121.833 73.5798 121.941 74.0232L122.207 75.1159C122.315 75.5599 122.767 76.0103 123.211 76.1177L170.565 87.5648L170.565 87.5659Z" fill="#A3A3A3"/>
</g>
<g opacity="0.6">
<path d="M121.261 78.7513C120.818 78.6384 120.545 78.9095 120.653 79.353L120.919 80.4457C121.027 80.8896 121.479 81.3401 121.923 81.4474L169.277 92.8946C169.721 93.0019 170.157 92.723 170.245 92.2748L170.281 92.0892C170.369 91.641 170.08 91.1822 169.637 91.0694L121.261 78.7502L121.261 78.7513Z" fill="#A3A3A3"/>
</g>
<g opacity="0.6">
<path d="M120.195 84.4C119.752 84.2871 119.479 84.5582 119.587 85.0016L119.853 86.0944C119.961 86.5383 120.413 86.9888 120.857 87.0961L168.211 98.5433C168.655 98.6506 169.091 98.3717 169.179 97.9235L169.215 97.7379C169.303 97.2897 169.014 96.8309 168.571 96.718L120.195 84.3989L120.195 84.4Z" fill="#A3A3A3"/>
</g>
<path opacity="0.6" d="M116.588 74.652C117.408 74.1513 117.667 73.0807 117.167 72.2607C116.666 71.4407 115.595 71.1819 114.775 71.6826C113.955 72.1833 113.696 73.254 114.197 74.074C114.698 74.894 115.768 75.1528 116.588 74.652Z" fill="#A3A3A3"/>
<g opacity="0.6">
<path d="M165.436 108.04C165.88 108.148 166.315 107.869 166.403 107.421L166.44 107.235C166.528 106.787 166.238 106.328 165.796 106.215L117.42 93.896C116.977 93.7832 116.704 94.0543 116.812 94.4977L117.078 95.5904C117.186 96.0344 117.638 96.4848 118.082 96.5922L165.436 108.039L165.436 108.04Z" fill="#A3A3A3"/>
</g>
<g opacity="0.6">
<path d="M116.13 99.2259C115.687 99.113 115.414 99.3842 115.522 99.8276L115.789 100.92C115.897 101.364 116.348 101.815 116.792 101.922L164.146 113.369C164.59 113.477 165.026 113.198 165.114 112.749L165.151 112.564C165.239 112.116 164.949 111.657 164.506 111.544L116.131 99.2248L116.13 99.2259Z" fill="#A3A3A3"/>
</g>
<g opacity="0.6">
<path d="M115.067 104.875C114.624 104.762 114.351 105.033 114.459 105.476L114.725 106.569C114.833 107.013 115.285 107.464 115.729 107.571L163.083 119.018C163.527 119.125 163.963 118.846 164.051 118.398L164.087 118.213C164.175 117.764 163.886 117.306 163.443 117.193L115.067 104.874L115.067 104.875Z" fill="#A3A3A3"/>
</g>
<path opacity="0.6" d="M111.457 95.1266C112.277 94.6259 112.536 93.5553 112.035 92.7353C111.535 91.9153 110.464 91.6565 109.644 92.1572C108.824 92.6579 108.565 93.7286 109.066 94.5486C109.567 95.3686 110.637 95.6274 111.457 95.1266Z" fill="#A3A3A3"/>
<path d="M159.42 21.8013C157.354 19.4733 155.186 18.9852 153.558 19.0668C152.072 19.1407 150.85 20.2624 150.634 21.734L149.56 29.0479L157.193 31.6261C157.193 31.6261 163.471 26.3676 159.42 21.8018L159.42 21.8013ZM154.594 26.7445C153.52 26.4848 152.859 25.4036 153.119 24.3295C153.379 23.2554 154.46 22.5946 155.534 22.8543C156.608 23.1139 157.269 24.1951 157.009 25.2698C156.749 26.3444 155.668 27.0041 154.594 26.7445Z" fill="#B5B5B5"/>
<path d="M151.064 26.2249C150.968 26.2016 150.904 26.1084 150.919 26.0087L151.09 24.8441C151.106 24.7382 151.204 24.6651 151.309 24.6807C151.418 24.6964 151.488 24.7948 151.473 24.9006L151.302 26.0652C151.286 26.1711 151.187 26.2442 151.082 26.2286C151.076 26.2277 151.07 26.2264 151.064 26.2249ZM151.4 23.9423C151.304 23.9191 151.239 23.8257 151.254 23.726L151.384 22.8416C151.59 21.4399 152.761 20.3715 154.17 20.3011C155.167 20.2514 156.136 20.4439 157.049 20.8729C157.146 20.9184 157.187 21.034 157.142 21.1304C157.096 21.2268 156.982 21.2682 156.884 21.2231C156.029 20.8214 155.122 20.641 154.189 20.687C152.965 20.748 151.946 21.6775 151.767 22.897L151.637 23.7814C151.621 23.8873 151.523 23.9605 151.418 23.9449C151.412 23.9434 151.406 23.9426 151.4 23.9412L151.4 23.9423Z" fill="white"/>
<path d="M137.794 31.0972L138.664 27.4998C138.964 26.2579 140.234 25.5121 141.465 25.8549L166.062 32.7006C167.154 33.0045 167.835 34.0884 167.636 35.2038L167.007 38.7104L137.795 31.0974L137.794 31.0972Z" fill="#929292"/>
<path d="M148.115 28.8971L147.049 28.6393C146.945 28.6142 146.881 28.5095 146.906 28.4059C146.931 28.3023 147.036 28.2382 147.14 28.2633L148.206 28.521C148.31 28.5462 148.374 28.6509 148.349 28.7545C148.324 28.8581 148.219 28.9221 148.115 28.8971Z" fill="white"/>
<path d="M139.408 30.2919C139.304 30.2667 139.241 30.162 139.266 30.0584L139.618 28.6032C139.889 27.4787 141.025 26.7852 142.15 27.057L146.071 28.005C146.175 28.0302 146.239 28.1349 146.214 28.2385C146.189 28.3421 146.084 28.4062 145.98 28.3811L142.059 27.4332C141.142 27.2115 140.215 27.7768 139.994 28.6936L139.642 30.1488C139.617 30.253 139.512 30.3164 139.409 30.2914L139.408 30.2919Z" fill="white"/>
<path d="M127.471 29.563C127.832 28.3317 129.096 27.6008 130.343 27.9023L173.716 38.3858C175.275 38.7628 176.337 40.2075 176.232 41.8081L176.217 42.0292C176.101 43.7829 174.434 45.0093 172.725 44.5963L128.228 33.8397C127.206 33.5926 126.598 32.5409 126.893 31.5317L127.471 29.5635L127.471 29.563Z" fill="#C7C7C7"/>
<g opacity="0.6">
<path d="M148.931 139.787C148.493 139.657 148.091 139.921 148.039 140.375L147.941 141.202C147.888 141.656 148.208 142.115 148.652 142.222L158.508 144.605C158.952 144.712 159.399 144.436 159.502 143.991L159.545 143.808C159.648 143.362 159.374 142.892 158.936 142.762L148.932 139.787L148.931 139.787Z" fill="#A3A3A3"/>
</g>
</g>
<path d="M92.9797 173.934C92.9797 173.934 93.4867 176.806 93.7356 179.649C93.8327 180.76 92.9764 181.725 91.862 181.772C88.0758 181.929 79.9764 182.236 77.0705 182.106C76.6341 182.086 76.3478 181.64 76.5096 181.233C76.6449 180.893 76.9062 180.618 77.2398 180.464L90.6181 174.316L92.9805 173.934H92.9797Z" fill="#303030"/>
<path d="M92.4021 107.704C92.578 108.64 93.3472 154.419 88.6574 174.933C88.581 175.267 88.7437 175.612 89.049 175.743C89.7684 176.049 91.1782 176.494 92.8684 176.553C93.392 176.571 93.8608 176.216 94.0085 175.692C95.3494 170.933 101.773 147.085 102.611 124.304C103.547 98.8482 102.611 123.437 102.611 123.437L102.061 107.702L92.4021 107.703V107.704Z" fill="#484949"/>
<path d="M107.681 175.432C107.681 175.432 108.489 176.883 109.271 180.735C109.412 181.432 108.926 182.097 108.22 182.167C106.969 182.29 105.045 182.448 103.503 182.437C102.792 182.432 102.238 181.813 102.324 181.108C102.494 179.702 103.026 177.394 104.67 175.596L107.682 175.432H107.681Z" fill="#303030"/>
<path d="M110.963 109.109C114.798 133.262 110.131 168.805 108.556 175.761C108.46 176.187 108.131 176.514 107.717 176.585C107.014 176.707 105.857 176.806 104.716 176.46C104.323 176.341 104.047 175.971 104.031 175.544C103.819 169.92 104.2 135.393 100.626 121.748C100.445 121.057 100.04 120.454 99.4796 120.038L92.5428 114.893L92.0109 106.576L110.961 109.109H110.963Z" fill="#757575"/>
<path d="M86.5244 65.1422C98.0192 64.9522 110.702 68.1601 110.702 68.1601C114.128 88.1525 111.301 111.212 111.301 111.212C102.403 113.545 92.3643 109.785 92.3643 109.785C90.8857 101.429 83.9845 77.9115 83.9845 77.9115C78.3686 77.2145 82.9797 65.2003 86.5244 65.1422Z" fill="#6F90DE"/>
<path d="M106.293 79.2905L110.701 68.16C110.701 68.16 121.438 75.4554 123.203 84.7048C121.174 84.8541 117.483 85.3819 113.87 87.2065C113.076 82.8395 106.293 79.2905 106.293 79.2905Z" fill="#6F90DE"/>
<path d="M98.166 55.8097L101.824 66.3867C101.884 66.5618 101.812 66.756 101.65 66.8456C100.654 67.3966 97.0616 68.9897 92.7327 66.2457C92.2822 65.9602 91.9751 65.4939 91.9062 64.9637L90.7222 55.8097H98.1669H98.166Z" fill="#FFBA9F"/>
<path d="M97.4539 53.106L100.919 63.7129C100.977 63.8885 100.908 64.0832 100.755 64.1731C99.8108 64.7256 96.4076 66.3233 92.3062 63.5715C91.8793 63.2852 91.5885 62.8176 91.5232 62.2858L90.4014 53.106H97.4547H97.4539Z" fill="#F3937A"/>
<path d="M90.6472 47.9244C90.6472 47.9244 86.6312 55.4844 87.1456 58.5379C87.6601 61.5915 92.6379 61.3724 96.9842 58.8922L100.021 50.729L90.6464 47.9235L90.6472 47.9244Z" fill="#FFBA9F"/>
<path d="M96.7931 54.8837C96.6163 54.8057 96.5516 54.5891 96.657 54.4273C96.9789 53.9361 97.5822 52.9329 97.7739 52.055C97.7739 52.055 98.4957 51.5929 95.9359 50.9797C93.3761 50.3673 89.5591 49.4164 88.7568 47.2374C87.9743 45.1132 91.1606 41.7087 93.3089 44.0279C93.4474 44.178 93.6781 44.193 93.8026 44.0312C94.3403 43.3317 95.7534 41.8796 97.7158 42.76C99.552 43.5839 99.7586 44.929 99.7338 45.6077C99.7263 45.8069 99.9047 45.962 100.101 45.9247C101.029 45.748 103.257 45.5953 104.297 47.8813C105.153 49.7632 104.596 50.8295 104.089 51.3506C103.925 51.519 103.997 51.7978 104.222 51.8667C104.832 52.0534 105.62 52.5711 105.541 54C105.433 55.9757 103.223 55.8023 102.594 55.7118C102.491 55.6969 102.387 55.7326 102.318 55.8097C101.778 56.4063 99.3479 58.9413 96.7184 59.2466C96.491 59.2732 96.3143 59.0483 96.389 58.8318L97.5274 55.5235C97.5805 55.3699 97.5067 55.2015 97.3581 55.1351L96.7939 54.8854L96.7931 54.8837Z" fill="#303030"/>
<path d="M96.3338 55.3533C96.3338 55.3533 99.1932 53.3917 99.4023 55.0438C99.6114 56.6959 96.8276 57.4369 95.4485 56.8212L96.3338 55.3533Z" fill="#FFBA9F"/>
<path d="M89.0563 44.5225C89.0563 44.5225 93.6134 36.6538 101.755 41.3552C109.897 46.0567 105.493 51.8327 105.493 51.8327L89.0563 44.5225Z" fill="#FFB800"/>
<path d="M105.75 44.9364C105.75 44.9364 95.9392 37.1051 91.3041 45.5223C89.4089 44.6884 89.0563 44.5224 89.0563 44.5224C89.0563 44.5224 93.1728 36.984 98.787 39.5222C104.401 42.0605 105.759 43.2786 105.75 44.9364Z" fill="#FFCD76"/>
<path opacity="0.6" d="M94.5205 47.1991C94.5487 47.2124 94.5819 47.2124 94.6109 47.1975L94.674 47.1626C96.1344 46.3818 98.5789 45.0741 100.201 45.7454C100.984 46.0682 101.744 46.5561 102.48 47.0266C103 47.3585 103.538 47.7028 104.076 47.9849C104.81 48.3699 105.617 48.7823 106.545 49.2454H106.547C106.596 49.2694 106.656 49.2495 106.681 49.1997C106.706 49.1499 106.686 49.0894 106.635 49.0645C105.708 48.6023 104.903 48.1907 104.171 47.8065C103.639 47.5286 103.105 47.1867 102.59 46.8573C101.845 46.381 101.07 45.8898 100.278 45.5595C98.5681 44.8517 96.0705 46.1885 94.5786 46.9859L94.5147 47.0199C94.4657 47.0465 94.4475 47.1079 94.4732 47.1568C94.484 47.1767 94.5006 47.1917 94.5197 47.2008L94.5205 47.1991Z" fill="white"/>
<path d="M105.466 53.1056L86.1196 45.6642C85.9976 45.6178 85.9188 45.4991 85.9221 45.368C85.9254 45.2377 86.0109 45.1232 86.1354 45.0834C87.1336 44.7614 88.7848 44.3117 89.4461 44.6079C91.567 45.5572 105.492 51.8327 105.492 51.8327C105.492 51.8327 105.839 51.9954 105.466 53.1056Z" fill="#FFD012"/>
<path d="M95.2461 88.54C95.2461 88.54 83.0438 92.034 81.2296 85.4313C80.8528 84.0599 81.0214 82.8585 81.5237 81.813C78.963 79.1525 75.9685 77.7162 74.2826 77.0616C73.0377 79.6007 72.4367 82.5156 72.9815 85.8032C75.353 100.097 95.7622 91.7923 95.7622 91.7923L95.2461 88.54Z" fill="#FFBA9F"/>
<path d="M96.9102 89.763C96.9102 89.763 108.965 96.5754 113.032 90.7587C113.876 89.5506 114.078 88.3507 113.87 87.2057C117.483 85.381 121.174 84.8533 123.203 84.7039C123.736 87.4919 123.454 90.4575 121.816 93.4555C114.691 106.489 95.3146 92.7352 95.3146 92.7352L96.9102 89.763Z" fill="#FFBA9F"/>
<path d="M70.9704 67.1139C70.974 67.1069 70.9789 67.0967 70.9824 67.0897L71.0141 67.0743L71.1773 66.9871L73.4928 65.778C73.8203 65.6071 74.2098 65.6006 74.5431 65.7619C74.8756 65.9231 75.1131 66.232 75.1821 66.5955L75.7814 69.7312L76.9259 75.7176C76.9259 75.7176 67.6851 74.389 70.9686 67.1145L70.9704 67.1139Z" fill="#EBEBEB"/>
<path d="M70.9685 67.1133C70.9844 67.0972 70.9989 67.0843 71.0138 67.074L71.1779 66.9868C70.2732 67.9668 71.5137 68.3625 75.7828 69.7311C76.4603 69.9471 77.2155 70.1882 78.0489 70.4611C82.6438 71.9571 87.3193 70.3435 89.4928 69.3725C89.8083 69.2316 90.1699 69.2369 90.4804 69.3881C90.7909 69.5393 91.0193 69.8192 91.1035 70.1548C92.1907 74.4506 95.4064 87.1405 95.5871 87.6272L98.7657 99.8008C98.7657 99.8008 98.5462 101.693 95.5231 103.085C92.4975 104.476 91.5518 105.033 87.7435 103.748C85.7872 103.089 83.38 101.932 81.5021 100.967L81.5 100.964C81.5 100.964 81.4703 101.108 81.4678 101.107C79.8361 100.269 78.5993 99.6407 78.404 99.6115L78.4015 99.6111C78.3859 99.6088 78.2814 99.4321 78.2814 99.4321L74.5966 85.4674L74.5969 85.4649L74.5976 85.0221C72.8408 81.3227 71.7612 78.3813 71.0541 76.0249C71.044 75.9915 71.065 75.9628 71.0528 75.9265C70.8886 75.3794 70.7641 74.865 70.6441 74.3815C69.424 69.4073 70.4197 67.6657 70.9668 67.1139L70.9685 67.1133Z" fill="white"/>
<path d="M81.4693 101.108C79.8377 100.269 78.6009 99.6411 78.4055 99.612L78.4031 99.6116L74.7414 85.7275C74.726 85.6959 74.5938 85.4966 74.5981 85.4679L74.5985 85.4654C72.9425 81.5462 71.682 78.4394 70.9951 76.0147C70.985 75.9813 71.0363 75.9579 71.0242 75.9208C70.9293 75.5786 70.8737 75.2541 70.7953 74.9361L70.8014 74.8951C70.906 75.0827 74.2353 81.2315 75.4066 83.3275C76.4619 85.2174 80.5645 98.2319 81.4693 101.108Z" fill="#EBEBEB"/>
<path d="M96.4619 93.9932C97.1041 94.0555 97.6841 93.6049 97.8152 92.9735C98.1148 91.533 98.5794 88.9018 98.2616 87.7509C97.8119 86.1246 96.9407 84.0335 94.0365 84.4982C91.1323 84.9629 87.7062 86.186 87.7062 86.186C87.7062 86.186 87.8796 88.3044 90.0868 87.6206L88.7185 88.6794C88.7185 88.6794 88.9143 90.3755 90.7788 89.4694L89.5059 90.8741C89.5059 90.8741 90.3067 92.2673 91.6783 91.3737C92.9047 90.5746 93.5602 93.712 96.4635 93.9924L96.4619 93.9932Z" fill="#FFBA9F"/>
<ellipse cx="69.4457" cy="23.0633" rx="25.0775" ry="18" transform="rotate(-7.35795 69.4457 23.0633)" fill="#D8D8D8"/>
<path d="M90.5388 39.5013V29.0013L85.5388 33.5013L90.5388 39.5013Z" fill="#D8D8D8"/>
<ellipse cx="69.1762" cy="21.0633" rx="25.0775" ry="18" transform="rotate(-7.35795 69.1762 21.0633)" fill="white"/>
<path d="M90.2693 37.5013V27.0013L85.2693 31.5013L90.2693 37.5013Z" fill="white"/>
<path d="M72.7069 27.1164C72.6788 27.0077 72.5494 26.9318 72.3453 26.8887C72.5326 26.7383 72.626 26.5957 72.5952 26.477C72.5021 26.1186 71.3152 26.1161 69.9437 26.4718C68.5722 26.8274 67.5358 27.406 67.6286 27.7645C67.6568 27.8732 67.7861 27.9491 67.9903 27.9922C67.803 28.1428 67.7097 28.2854 67.7404 28.4039C67.7685 28.5126 67.8979 28.5884 68.102 28.6315C67.9147 28.7819 67.8214 28.9248 67.8522 29.0432C67.8803 29.1519 68.0097 29.2278 68.2138 29.2708C68.0266 29.4215 67.9332 29.5641 67.9639 29.6825C68.005 29.8411 68.2604 29.9298 68.6509 29.9488C68.6667 30.0685 68.6923 30.1983 68.7291 30.3401C68.9008 31.0007 69.7462 31.3941 70.743 31.2198C71.7398 31.0454 72.4773 30.1781 72.3694 29.5043C72.3428 29.3392 72.3104 29.1954 72.2732 29.0691C72.7223 28.8264 72.9787 28.5811 72.9304 28.395C72.9023 28.2863 72.7729 28.2105 72.5688 28.1674C72.756 28.0167 72.8494 27.8741 72.8187 27.7557C72.7906 27.647 72.6612 27.5711 72.4571 27.5281C72.6443 27.3774 72.7377 27.2348 72.7069 27.1164Z" fill="#494949"/>
<path d="M69.8772 29.8833C69.4642 29.9555 69.0809 29.9914 68.7579 29.9861C68.7393 29.9859 68.7242 29.9705 68.7246 29.9516C68.7248 29.933 68.7402 29.9179 68.7591 29.9183C69.2642 29.9263 69.9206 29.8328 70.6074 29.6547C71.1694 29.509 71.6862 29.3238 72.1024 29.1191C72.1192 29.1109 72.1395 29.1177 72.1477 29.1345C72.1559 29.1514 72.1491 29.1716 72.1323 29.1798C71.7122 29.3865 71.1907 29.5733 70.6244 29.7202C70.3694 29.7864 70.1183 29.8408 69.8774 29.883L69.8772 29.8833Z" fill="#757575"/>
<path d="M69.7721 29.2424C69.2353 29.3362 68.7469 29.3697 68.3915 29.3326C68.3729 29.3307 68.3594 29.314 68.3613 29.2954C68.3633 29.2768 68.38 29.2633 68.3986 29.2652C68.9048 29.3182 69.6885 29.225 70.4953 29.016C71.2932 28.809 72.0195 28.5128 72.4377 28.2234C72.4532 28.2129 72.4741 28.2167 72.4849 28.2321C72.4955 28.2476 72.4917 28.2686 72.4763 28.2794C72.0517 28.5732 71.3174 28.8731 70.5122 29.0818C70.2608 29.1469 70.0115 29.201 69.772 29.2429L69.7721 29.2424Z" fill="#757575"/>
<path d="M69.6538 28.6047C69.0742 28.7061 68.5567 28.7353 68.1956 28.6826C68.1771 28.6799 68.1641 28.6625 68.1668 28.644C68.1695 28.6255 68.1866 28.6126 68.2054 28.6152C68.7078 28.6889 69.5222 28.5993 70.3837 28.3761C71.1816 28.1692 71.9077 27.873 72.3261 27.5836C72.3416 27.573 72.3626 27.5768 72.3733 27.5922C72.3839 27.6077 72.3801 27.6287 72.3647 27.6395C71.9401 27.9333 71.2058 28.2332 70.4006 28.4419C70.1453 28.5082 69.8942 28.5626 69.6536 28.6047L69.6538 28.6047Z" fill="#757575"/>
<path d="M69.5474 27.9644C69.0876 28.0449 68.663 28.0808 68.3253 28.0654C68.3065 28.0645 68.292 28.0487 68.2929 28.0299C68.2939 28.0111 68.3096 27.9966 68.3284 27.9976C68.8363 28.0206 69.5451 27.9256 70.273 27.7371C71.0639 27.5322 71.7865 27.2383 72.2059 26.951C72.2214 26.9405 72.2424 26.9445 72.253 26.96C72.2635 26.9755 72.2595 26.9965 72.244 27.0071C71.8184 27.2985 71.0878 27.596 70.2898 27.8027C70.0378 27.8682 69.7876 27.9224 69.5472 27.9645L69.5474 27.9644Z" fill="#757575"/>
<path d="M66.1713 24.9345C65.8976 24.3656 65.513 23.8567 65.0411 23.4372C64.0305 22.5383 62.308 20.6522 61.6351 17.7842C60.6561 13.6127 64.0242 10.8494 67.4846 10.5391C70.9449 10.2288 74.7541 12.1796 75.0715 16.164C75.2668 18.6157 74.2367 20.6815 73.4154 21.9081C72.8939 22.6869 72.5814 23.5839 72.4906 24.5169C72.3794 25.6588 71.8989 27.1416 70.2072 27.523C68.0178 28.0163 66.7409 26.1187 66.1714 24.9348L66.1713 24.9345Z" fill="#FCBC4E"/>
<path d="M70.6245 26.5837L70.4602 18.614C70.4567 18.4493 70.5169 18.3278 70.5944 18.3426C70.6718 18.3574 70.7375 18.503 70.7409 18.6674C70.741 18.6717 70.7412 18.6773 70.741 18.6816L70.7269 26.6083C70.7268 26.6679 70.7037 26.7096 70.6756 26.7012C70.6483 26.6932 70.6258 26.6411 70.6248 26.5836L70.6245 26.5837Z" fill="#D9AD39"/>
<path d="M69.398 26.8616L66.8471 19.3093C66.7944 19.1534 66.6968 19.0595 66.6289 19.0996C66.5611 19.1399 66.5487 19.2988 66.6015 19.455C66.603 19.4592 66.6048 19.4644 66.6062 19.4684L69.3104 26.9194C69.3306 26.9754 69.3665 27.0067 69.3903 26.9895C69.4135 26.9727 69.4167 26.916 69.3983 26.8616L69.398 26.8616Z" fill="#D19D17"/>
<path d="M70.3344 17.9491C70.2956 17.9058 70.2224 17.8996 70.1707 17.9357L69.5606 18.3624L69.215 17.7457C69.1967 17.7135 69.1633 17.6882 69.1201 17.6785C69.0382 17.6605 68.9518 17.7046 68.9269 17.7771L68.926 17.7795L68.5539 18.8713L67.7989 17.5418L67.7976 17.5397C67.7791 17.5073 67.7475 17.4808 67.7059 17.4667C67.6127 17.4352 67.5042 17.4768 67.4635 17.5599L66.8837 18.7452C66.8601 18.7937 66.8809 18.8496 66.9339 18.8731C66.9903 18.8983 67.0617 18.8777 67.0932 18.827L67.6346 17.9591L68.4762 19.2024L68.4769 19.2034C68.4904 19.2233 68.5119 19.239 68.5393 19.2465C68.6009 19.2633 68.6686 19.2324 68.6907 19.1778L69.1109 18.1378L69.4138 18.5737L69.4165 18.5776C69.4187 18.5807 69.4211 18.5837 69.4238 18.5867C69.4626 18.63 69.5358 18.6359 69.5875 18.5998L70.3117 18.0934C70.3634 18.0573 70.3736 17.9928 70.3348 17.9495L70.3344 17.9491Z" fill="white"/>
<path opacity="0.69" d="M73.2772 20.9654C73.2327 20.9732 73.1857 20.9674 73.1425 20.9456C73.0354 20.8918 72.9921 20.7615 73.0458 20.6542C73.2002 20.347 73.3359 20.0337 73.4494 19.7233C73.4906 19.6107 73.6151 19.5528 73.7278 19.594C73.8404 19.6351 73.8983 19.7597 73.8571 19.8723C73.7378 20.1984 73.5955 20.527 73.4339 20.849C73.4018 20.9129 73.3426 20.9539 73.2772 20.9654Z" fill="white"/>
<path opacity="0.69" d="M73.9644 19.1085C73.936 19.1136 73.9061 19.1129 73.8763 19.1055C73.7599 19.0774 73.6881 18.9601 73.7163 18.8436C74.4625 15.7464 72.9646 13.5227 72.9493 13.5006C72.8814 13.4019 72.9062 13.2667 73.0051 13.1988C73.104 13.1308 73.239 13.1559 73.3069 13.2545C73.3734 13.3514 74.9295 15.6619 74.1382 18.9455C74.1173 19.0322 74.047 19.0941 73.9644 19.1085Z" fill="white"/>
</svg>
