<svg width="161" height="143" viewBox="0 0 161 143" fill="none" xmlns="http://www.w3.org/2000/svg">
<g opacity="0.08">
<path d="M2.27094 93.9149L3.64911 136.749C3.88941 144.218 10.0217 150.162 17.5335 150.206L120.155 150.81C125.175 150.839 129.452 147.193 130.185 142.252C131.79 131.436 133.834 112.081 131.531 93.9142H2.27094V93.9149Z" fill="#252525"/>
<path d="M116.519 148.179H116.519L115.771 148.174C115.702 148.174 115.647 148.118 115.647 148.049C115.647 147.981 115.703 147.925 115.772 147.925H115.772L116.52 147.929C116.588 147.929 116.644 147.986 116.644 148.055C116.644 148.123 116.588 148.179 116.519 148.179ZM118.263 148.167C118.198 148.167 118.143 148.116 118.139 148.05C118.135 147.981 118.187 147.922 118.255 147.918C118.5 147.903 118.746 147.878 118.989 147.844C119.056 147.833 119.12 147.882 119.13 147.95C119.139 148.018 119.092 148.081 119.024 148.09C118.774 148.125 118.521 148.15 118.27 148.166C118.268 148.166 118.265 148.166 118.263 148.166V148.167ZM114.028 148.164H114.027L113.279 148.159C113.21 148.159 113.156 148.103 113.156 148.034C113.156 147.966 113.212 147.91 113.28 147.91H113.281L114.028 147.915C114.098 147.915 114.152 147.972 114.152 148.04C114.152 148.109 114.096 148.164 114.028 148.164ZM111.536 148.15H111.536L110.788 148.146C110.719 148.146 110.664 148.089 110.664 148.02C110.664 147.952 110.72 147.897 110.789 147.897H110.789L111.537 147.901C111.606 147.901 111.661 147.957 111.661 148.026C111.661 148.094 111.605 148.15 111.536 148.15ZM109.045 148.135H109.044L108.297 148.131C108.228 148.131 108.173 148.074 108.173 148.005C108.173 147.937 108.239 147.885 108.298 147.882L109.046 147.886C109.114 147.886 109.17 147.942 109.17 148.011C109.17 148.079 109.113 148.135 109.045 148.135ZM106.554 148.12H106.553L105.805 148.116C105.736 148.116 105.681 148.059 105.681 147.99C105.681 147.922 105.738 147.866 105.806 147.866H105.807L106.554 147.871C106.623 147.871 106.678 147.928 106.678 147.996C106.678 148.065 106.622 148.12 106.554 148.12ZM104.062 148.105H104.062L103.314 148.101C103.245 148.101 103.19 148.045 103.19 147.976C103.19 147.908 103.256 147.85 103.315 147.852L104.063 147.856C104.132 147.856 104.187 147.912 104.187 147.981C104.187 148.05 104.131 148.105 104.062 148.105ZM101.571 148.09H101.57L100.823 148.086C100.754 148.086 100.699 148.03 100.699 147.961C100.699 147.892 100.755 147.837 100.823 147.837H100.824L101.572 147.841C101.641 147.841 101.695 147.897 101.695 147.966C101.695 148.035 101.639 148.09 101.571 148.09ZM99.0795 148.075H99.0788L98.3312 148.071C98.2627 148.071 98.2073 148.015 98.2073 147.946C98.2073 147.877 98.2634 147.822 98.3319 147.822H98.3325L99.0802 147.826C99.1493 147.826 99.2041 147.882 99.2041 147.951C99.2041 148.02 99.1479 148.075 99.0795 148.075ZM96.5881 148.061H96.5874L95.8398 148.057C95.7713 148.057 95.7159 148.001 95.7159 147.931C95.7159 147.863 95.772 147.808 95.8405 147.808H95.8411L96.5888 147.812C96.6579 147.812 96.7127 147.869 96.7127 147.937C96.7127 148.005 96.6566 148.061 96.5881 148.061ZM94.0967 148.046H94.096L93.3484 148.042C93.2799 148.042 93.2245 147.986 93.2245 147.917C93.2245 147.849 93.2806 147.793 93.3491 147.793H93.3498L94.0974 147.797C94.1665 147.797 94.2213 147.853 94.2213 147.923C94.2213 147.991 94.1652 148.046 94.0967 148.046ZM91.6053 148.031H91.6046L90.857 148.027C90.7886 148.027 90.7331 147.97 90.7331 147.902C90.7331 147.834 90.7892 147.778 90.8577 147.778H90.8584L91.606 147.782C91.6751 147.782 91.7299 147.838 91.7299 147.908C91.7299 147.976 91.6738 148.031 91.6053 148.031ZM89.1139 148.017H89.1132L88.3656 148.012C88.2965 148.012 88.2417 147.955 88.2417 147.887C88.2417 147.819 88.2978 147.763 88.3663 147.763H88.367L89.1146 147.768C89.1838 147.768 89.2385 147.825 89.2385 147.893C89.2385 147.962 89.1824 148.017 89.1139 148.017ZM86.6225 148.002H86.6219L85.8742 147.998C85.8051 147.998 85.7503 147.942 85.7503 147.873C85.7503 147.804 85.8065 147.749 85.8749 147.749H85.8756L86.6232 147.753C86.6924 147.753 86.7471 147.809 86.7471 147.878C86.7471 147.947 86.691 148.002 86.6225 148.002ZM84.1312 147.987H84.1305L83.3829 147.983C83.3137 147.983 83.2589 147.926 83.2589 147.858C83.2589 147.789 83.3151 147.734 83.3835 147.734H83.3842L84.1318 147.738C84.201 147.738 84.2558 147.794 84.2558 147.863C84.2558 147.931 84.1996 147.987 84.1312 147.987ZM81.6398 147.973H81.6391L80.8915 147.968C80.8223 147.968 80.7675 147.911 80.7675 147.843C80.7675 147.774 80.8237 147.719 80.8921 147.719H80.8928L81.6405 147.723C81.7096 147.723 81.7644 147.78 81.7644 147.849C81.7644 147.917 81.7082 147.973 81.6398 147.973ZM79.1484 147.957H79.1477L78.4001 147.953C78.3309 147.953 78.2762 147.897 78.2762 147.828C78.2762 147.76 78.3405 147.712 78.4014 147.704L79.1491 147.708C79.2175 147.708 79.273 147.765 79.273 147.834C79.273 147.902 79.2168 147.957 79.1484 147.957ZM76.657 147.943H76.6563L75.9087 147.939C75.8395 147.939 75.7848 147.883 75.7848 147.814C75.7848 147.745 75.8409 147.69 75.9094 147.69H75.9101L76.6577 147.694C76.7261 147.694 76.7816 147.75 76.7816 147.819C76.7816 147.888 76.7255 147.943 76.657 147.943ZM74.1656 147.928H74.1649L73.4173 147.924C73.3481 147.924 73.2934 147.868 73.2934 147.799C73.2934 147.73 73.357 147.678 73.4187 147.675L74.1663 147.679C74.2354 147.679 74.2902 147.735 74.2902 147.804C74.2902 147.873 74.2341 147.928 74.1656 147.928ZM71.6742 147.914H71.6735L70.9259 147.91C70.8568 147.91 70.802 147.853 70.802 147.784C70.802 147.716 70.8581 147.66 70.9266 147.66H70.9273L71.6749 147.665C71.744 147.665 71.7988 147.721 71.7988 147.79C71.7988 147.858 71.7427 147.914 71.6742 147.914ZM69.1828 147.899H69.1821L68.4345 147.895C68.3654 147.895 68.3106 147.838 68.3106 147.769C68.3106 147.701 68.3743 147.643 68.4359 147.645L69.1835 147.65C69.2527 147.65 69.3074 147.706 69.3074 147.775C69.3074 147.843 69.2513 147.899 69.1828 147.899ZM66.6914 147.884H66.6908L65.9431 147.879C65.874 147.879 65.8192 147.823 65.8192 147.754C65.8192 147.686 65.8754 147.63 65.9438 147.63H65.9445L66.6921 147.634C66.7613 147.634 66.816 147.691 66.816 147.76C66.816 147.828 66.7599 147.884 66.6914 147.884ZM64.2001 147.869H64.1994L63.4518 147.864C63.3826 147.864 63.3278 147.808 63.3278 147.739C63.3278 147.671 63.384 147.615 63.4524 147.615H63.4531L64.2007 147.62C64.2699 147.62 64.3247 147.677 64.3247 147.745C64.3247 147.814 64.2685 147.869 64.2001 147.869ZM61.7087 147.854H61.708L60.9604 147.85C60.8919 147.85 60.8364 147.794 60.8364 147.725C60.8364 147.656 60.8926 147.601 60.961 147.601H60.9617L61.7094 147.605C61.7785 147.605 61.8333 147.662 61.8333 147.73C61.8333 147.799 61.7771 147.854 61.7087 147.854ZM59.2173 147.84H59.2166L58.469 147.836C58.4005 147.836 58.3451 147.78 58.3451 147.71C58.3451 147.642 58.4012 147.587 58.4697 147.587H58.4703L59.218 147.591C59.2871 147.591 59.3419 147.647 59.3419 147.716C59.3419 147.784 59.2857 147.84 59.2173 147.84ZM56.7259 147.825H56.7252L55.9776 147.821C55.9091 147.821 55.8537 147.764 55.8537 147.695C55.8537 147.627 55.9098 147.572 55.9783 147.572H55.979L56.7266 147.576C56.7957 147.576 56.8505 147.632 56.8505 147.701C56.8505 147.769 56.7944 147.825 56.7259 147.825ZM54.2345 147.81H54.2338L53.4862 147.806C53.417 147.806 53.3623 147.75 53.3623 147.681C53.3623 147.613 53.4184 147.557 53.4869 147.557H53.4876L54.2352 147.561C54.3043 147.561 54.3591 147.617 54.3591 147.686C54.3591 147.755 54.303 147.81 54.2345 147.81ZM51.7431 147.795H51.7424L50.9948 147.791C50.9257 147.791 50.8709 147.735 50.8709 147.666C50.8709 147.598 50.927 147.542 50.9955 147.542H50.9962L51.7438 147.546C51.813 147.546 51.8677 147.602 51.8677 147.671C51.8677 147.74 51.8116 147.795 51.7431 147.795ZM49.2517 147.78H49.251L48.5034 147.776C48.4343 147.776 48.3795 147.72 48.3795 147.651C48.3795 147.582 48.4356 147.527 48.5041 147.527H48.5048L49.2524 147.531C49.3216 147.531 49.3763 147.587 49.3763 147.656C49.3763 147.725 49.3202 147.78 49.2517 147.78ZM46.7603 147.766H46.7597L46.012 147.761C45.9429 147.761 45.8881 147.704 45.8881 147.636C45.8881 147.567 45.9443 147.512 46.0127 147.512H46.0134L46.761 147.517C46.8302 147.517 46.885 147.574 46.885 147.642C46.885 147.71 46.8288 147.766 46.7603 147.766ZM44.269 147.751H44.2683L43.5207 147.747C43.4515 147.747 43.3967 147.69 43.3967 147.621C43.3967 147.553 43.4584 147.504 43.522 147.498L44.2696 147.502C44.3381 147.502 44.3936 147.558 44.3936 147.627C44.3936 147.695 44.3374 147.751 44.269 147.751ZM41.7776 147.736H41.7769L41.0293 147.732C40.9601 147.732 40.9053 147.676 40.9053 147.607C40.9053 147.539 40.9615 147.483 41.0299 147.483H41.0306L41.7783 147.487C41.8467 147.487 41.9022 147.544 41.9022 147.613C41.9022 147.681 41.846 147.736 41.7776 147.736ZM39.2862 147.722H39.2855L38.5379 147.717C38.4687 147.717 38.414 147.66 38.414 147.592C38.414 147.523 38.4756 147.47 38.5392 147.468L39.2869 147.473C39.356 147.473 39.4108 147.53 39.4108 147.598C39.4108 147.667 39.3546 147.722 39.2862 147.722ZM36.7948 147.707H36.7941L36.0465 147.703C35.9773 147.703 35.9226 147.646 35.9226 147.578C35.9226 147.509 35.9787 147.454 36.0472 147.454H36.0479L36.7955 147.458C36.8646 147.458 36.9194 147.514 36.9194 147.583C36.9194 147.652 36.8633 147.707 36.7948 147.707ZM120.711 147.694C120.659 147.694 120.611 147.661 120.593 147.608C120.571 147.543 120.606 147.473 120.672 147.451C120.904 147.374 121.136 147.287 121.362 147.192C121.426 147.166 121.499 147.194 121.525 147.258C121.552 147.322 121.522 147.394 121.459 147.421C121.227 147.519 120.988 147.608 120.75 147.687C120.737 147.691 120.724 147.693 120.711 147.693V147.694ZM34.3034 147.693H34.3027L33.5551 147.689C33.486 147.689 33.4312 147.632 33.4312 147.563C33.4312 147.495 33.4921 147.437 33.5565 147.439L34.3041 147.444C34.3732 147.444 34.428 147.5 34.428 147.569C34.428 147.637 34.3719 147.693 34.3034 147.693ZM31.812 147.678H31.8113L31.0637 147.673C30.9946 147.673 30.9398 147.617 30.9398 147.548C30.9398 147.48 30.9959 147.424 31.0644 147.424H31.0651L31.8127 147.429C31.8819 147.429 31.9366 147.485 31.9366 147.554C31.9366 147.622 31.8805 147.678 31.812 147.678ZM29.3206 147.663H29.32L28.5723 147.659C28.5032 147.659 28.4484 147.603 28.4484 147.534C28.4484 147.465 28.5045 147.41 28.573 147.41H28.5737L29.3213 147.414C29.3905 147.414 29.4452 147.471 29.4452 147.539C29.4452 147.608 29.3891 147.663 29.3206 147.663ZM26.8292 147.648H26.8286L26.0809 147.644C26.0118 147.644 25.957 147.588 25.957 147.519C25.957 147.45 26.0132 147.395 26.0816 147.395H26.0823L26.8299 147.399C26.8991 147.399 26.9539 147.455 26.9539 147.524C26.9539 147.593 26.8977 147.648 26.8292 147.648ZM24.3379 147.634H24.3372L23.5896 147.63C23.5211 147.63 23.4656 147.574 23.4656 147.504C23.4656 147.436 23.5218 147.381 23.5902 147.381H23.5909L24.3385 147.385C24.4077 147.385 24.4625 147.441 24.4625 147.51C24.4625 147.578 24.4063 147.634 24.3379 147.634ZM21.8465 147.619H21.8458L21.0982 147.615C21.029 147.615 20.9742 147.558 20.9742 147.489C20.9742 147.421 21.0304 147.366 21.0989 147.366H21.0995L21.8472 147.37C21.9163 147.37 21.9711 147.427 21.9711 147.496C21.9711 147.564 21.9149 147.619 21.8465 147.619ZM19.3551 147.591C19.3551 147.591 19.351 147.591 19.3489 147.591C19.0997 147.579 18.8471 147.559 18.5972 147.533C18.5287 147.526 18.4794 147.464 18.4863 147.396C18.4938 147.327 18.5534 147.277 18.6232 147.285C18.8683 147.311 19.1161 147.33 19.3612 147.342C19.4297 147.346 19.4831 147.404 19.4797 147.473C19.4763 147.539 19.4215 147.591 19.3551 147.591ZM16.8931 147.237C16.8836 147.237 16.874 147.236 16.8637 147.233C16.6207 147.175 16.3756 147.109 16.1359 147.036C16.0702 147.017 16.0325 146.947 16.0524 146.881C16.0723 146.815 16.1421 146.778 16.2078 146.798C16.4433 146.869 16.6836 146.934 16.9219 146.991C16.989 147.008 17.0301 147.075 17.0136 147.142C16.9999 147.199 16.9486 147.237 16.8925 147.237H16.8931ZM122.949 146.612C122.909 146.612 122.869 146.592 122.845 146.556C122.808 146.499 122.823 146.421 122.881 146.384C123.086 146.249 123.288 146.105 123.482 145.956C123.536 145.914 123.615 145.924 123.657 145.978C123.698 146.033 123.689 146.111 123.634 146.153C123.436 146.306 123.229 146.454 123.018 146.592C122.997 146.606 122.973 146.613 122.949 146.613V146.612ZM14.54 146.43C14.5229 146.43 14.5058 146.427 14.4887 146.419C14.2614 146.317 14.0334 146.206 13.8116 146.09C13.7507 146.058 13.7267 145.983 13.7589 145.922C13.7911 145.861 13.8657 145.837 13.9273 145.869C14.1457 145.983 14.3689 146.091 14.5921 146.192C14.6551 146.22 14.6825 146.294 14.6544 146.357C14.6338 146.403 14.588 146.43 14.5407 146.43H14.54ZM12.38 145.2C12.3554 145.2 12.33 145.192 12.3088 145.177C12.1041 145.033 11.9008 144.882 11.7043 144.728C11.6502 144.685 11.6413 144.606 11.6837 144.552C11.7262 144.498 11.8049 144.489 11.859 144.532C12.0521 144.684 12.2513 144.832 12.4526 144.973C12.5087 145.013 12.5224 145.09 12.4827 145.146C12.4588 145.181 12.4197 145.199 12.3807 145.199L12.38 145.2ZM124.833 144.994C124.803 144.994 124.773 144.983 124.749 144.962C124.698 144.916 124.694 144.837 124.74 144.786C124.903 144.604 125.061 144.413 125.21 144.218C125.252 144.164 125.33 144.153 125.385 144.195C125.439 144.237 125.45 144.315 125.408 144.37C125.255 144.569 125.092 144.766 124.924 144.952C124.9 144.979 124.866 144.993 124.832 144.993L124.833 144.994ZM10.4856 143.589C10.4535 143.589 10.4206 143.577 10.3966 143.551C10.2221 143.372 10.0495 143.186 9.88521 142.997C9.84003 142.945 9.8455 142.866 9.89753 142.821C9.94957 142.776 10.0276 142.781 10.0735 142.833C10.2351 143.019 10.4035 143.202 10.5753 143.377C10.6232 143.427 10.6226 143.505 10.5733 143.553C10.5493 143.577 10.5178 143.589 10.4863 143.589H10.4856ZM126.236 142.946C126.217 142.946 126.198 142.941 126.18 142.932C126.118 142.901 126.094 142.826 126.125 142.765C126.236 142.547 126.339 142.321 126.433 142.096C126.459 142.032 126.532 142.003 126.596 142.028C126.659 142.054 126.689 142.127 126.663 142.191C126.568 142.423 126.461 142.654 126.348 142.878C126.326 142.921 126.282 142.946 126.237 142.946L126.236 142.946ZM8.9233 141.654C8.88291 141.654 8.8432 141.634 8.81923 141.598C8.68025 141.388 8.54607 141.173 8.42009 140.957C8.38518 140.897 8.40503 140.821 8.46459 140.787C8.52416 140.752 8.60015 140.772 8.63507 140.831C8.75899 141.043 8.89044 141.254 9.02668 141.46C9.06433 141.517 9.04927 141.595 8.99176 141.632C8.97054 141.646 8.94658 141.653 8.9233 141.653V141.654ZM127.06 140.603C127.052 140.603 127.043 140.603 127.035 140.6C126.967 140.586 126.924 140.52 126.938 140.453C126.976 140.271 127.01 140.083 127.038 139.896L127.063 139.725C127.074 139.657 127.137 139.608 127.204 139.619C127.272 139.629 127.319 139.692 127.31 139.76L127.284 139.933C127.256 140.124 127.221 140.316 127.182 140.504C127.169 140.563 127.117 140.603 127.06 140.603ZM7.75052 139.459C7.70191 139.459 7.65535 139.43 7.6355 139.382C7.53897 139.152 7.44791 138.914 7.3637 138.678C7.34111 138.613 7.37466 138.541 7.4397 138.519C7.50405 138.497 7.57525 138.53 7.59853 138.595C7.68069 138.827 7.77037 139.06 7.86485 139.287C7.89155 139.35 7.86143 139.423 7.79776 139.449C7.78201 139.456 7.76558 139.459 7.74984 139.459H7.75052ZM127.434 138.14C127.428 138.14 127.422 138.14 127.417 138.139C127.348 138.129 127.301 138.066 127.31 137.999C127.344 137.756 127.378 137.509 127.412 137.259C127.421 137.191 127.483 137.143 127.552 137.152C127.621 137.162 127.668 137.224 127.659 137.293C127.625 137.543 127.591 137.79 127.557 138.033C127.548 138.095 127.495 138.14 127.434 138.14ZM7.0118 137.082C6.95429 137.082 6.90226 137.041 6.88993 136.983C6.83859 136.737 6.79408 136.487 6.75711 136.241C6.74684 136.173 6.79408 136.109 6.86186 136.099C6.93101 136.09 6.99331 136.136 7.00358 136.204C7.03987 136.446 7.08369 136.691 7.13435 136.932C7.14873 136.999 7.10559 137.065 7.03781 137.079C7.0296 137.081 7.0207 137.082 7.01248 137.082H7.0118ZM127.762 135.671C127.757 135.671 127.752 135.671 127.747 135.671C127.678 135.662 127.63 135.6 127.638 135.532L127.731 134.791C127.74 134.722 127.803 134.674 127.87 134.683C127.939 134.691 127.988 134.753 127.979 134.821L127.885 135.563C127.877 135.626 127.824 135.672 127.762 135.672V135.671ZM6.73315 134.611C6.66606 134.611 6.6106 134.558 6.60855 134.491L6.58459 133.744C6.58253 133.676 6.63662 133.618 6.70508 133.616C6.77423 133.61 6.83105 133.668 6.83379 133.736L6.85776 134.483C6.85981 134.551 6.80572 134.609 6.73726 134.611C6.73589 134.611 6.73452 134.611 6.73315 134.611ZM128.063 133.198C128.058 133.198 128.053 133.198 128.048 133.198C127.98 133.189 127.931 133.128 127.939 133.059C127.968 132.814 127.996 132.567 128.024 132.318C128.031 132.249 128.094 132.201 128.161 132.207C128.23 132.215 128.279 132.277 128.272 132.345C128.244 132.595 128.215 132.842 128.187 133.088C128.179 133.152 128.126 133.198 128.063 133.198ZM6.65305 132.122C6.58596 132.122 6.5305 132.068 6.52845 132.001L6.50448 131.255C6.50243 131.186 6.55652 131.129 6.62498 131.126C6.69276 131.122 6.75164 131.178 6.75369 131.247L6.77765 131.993C6.77971 132.062 6.72562 132.119 6.65716 132.122C6.65579 132.122 6.65442 132.122 6.65305 132.122ZM128.335 130.722C128.331 130.722 128.326 130.722 128.322 130.722C128.254 130.715 128.204 130.653 128.211 130.585C128.237 130.339 128.263 130.092 128.287 129.842C128.294 129.773 128.355 129.724 128.424 129.73C128.492 129.737 128.542 129.798 128.535 129.866C128.51 130.116 128.485 130.364 128.459 130.61C128.452 130.675 128.398 130.722 128.335 130.722H128.335ZM6.57295 129.632C6.50585 129.632 6.4504 129.579 6.44834 129.512L6.42438 128.765C6.42233 128.697 6.47641 128.639 6.54488 128.637C6.60376 128.627 6.67153 128.688 6.67359 128.757L6.69755 129.504C6.6996 129.572 6.64552 129.63 6.57705 129.632C6.57569 129.632 6.57432 129.632 6.57295 129.632ZM128.58 128.243C128.576 128.243 128.572 128.243 128.568 128.243C128.5 128.236 128.449 128.175 128.456 128.107C128.478 127.861 128.501 127.613 128.524 127.363C128.53 127.295 128.589 127.243 128.658 127.25C128.727 127.256 128.778 127.317 128.771 127.385C128.75 127.635 128.727 127.883 128.704 128.13C128.697 128.195 128.643 128.243 128.58 128.243ZM6.49285 127.143C6.42575 127.143 6.3703 127.089 6.36824 127.022L6.34428 126.276C6.34223 126.207 6.39631 126.15 6.46478 126.147C6.52434 126.138 6.59075 126.198 6.59349 126.268L6.61745 127.014C6.6195 127.083 6.56542 127.14 6.49695 127.143C6.49558 127.143 6.49422 127.143 6.49285 127.143ZM128.795 125.761C128.795 125.761 128.788 125.761 128.784 125.761C128.716 125.755 128.665 125.695 128.67 125.626L128.729 124.882C128.734 124.813 128.791 124.762 128.863 124.768C128.932 124.773 128.983 124.833 128.977 124.902L128.919 125.647C128.913 125.712 128.859 125.761 128.795 125.761V125.761ZM6.41274 124.653C6.34565 124.653 6.29019 124.6 6.28814 124.533L6.26418 123.786C6.26212 123.718 6.31621 123.66 6.38467 123.658C6.45108 123.654 6.51133 123.71 6.51338 123.778L6.53735 124.525C6.5394 124.593 6.48531 124.651 6.41685 124.653C6.41548 124.653 6.41411 124.653 6.41274 124.653ZM128.98 123.276C128.98 123.276 128.975 123.276 128.971 123.276C128.903 123.272 128.851 123.212 128.856 123.144L128.906 122.399C128.91 122.33 128.968 122.279 129.038 122.282C129.107 122.287 129.159 122.346 129.155 122.415L129.105 123.161C129.1 123.227 129.045 123.277 128.981 123.277L128.98 123.276ZM6.33264 122.164C6.26555 122.164 6.21009 122.11 6.20804 122.043L6.18407 121.297C6.18202 121.228 6.23611 121.171 6.30457 121.168C6.3703 121.161 6.43123 121.22 6.43328 121.289L6.45724 122.035C6.4593 122.104 6.40521 122.161 6.33675 122.164H6.33264ZM129.135 120.79C129.135 120.79 129.13 120.79 129.128 120.79C129.06 120.786 129.007 120.727 129.011 120.659C129.025 120.411 129.038 120.163 129.051 119.913C129.055 119.845 129.114 119.791 129.182 119.795C129.251 119.799 129.304 119.858 129.3 119.926C129.287 120.176 129.273 120.425 129.26 120.673C129.256 120.739 129.201 120.79 129.136 120.79H129.135ZM6.25254 119.675C6.18544 119.675 6.12999 119.622 6.12793 119.555L6.10397 118.808C6.10192 118.74 6.156 118.682 6.22447 118.679C6.29019 118.674 6.35113 118.731 6.35318 118.8L6.37714 119.546C6.3792 119.615 6.32511 119.672 6.25665 119.675C6.25528 119.675 6.25391 119.675 6.25254 119.675ZM129.258 118.303C129.258 118.303 129.255 118.303 129.253 118.303C129.184 118.3 129.131 118.242 129.134 118.173C129.145 117.925 129.155 117.676 129.164 117.427C129.167 117.359 129.226 117.302 129.294 117.307C129.362 117.31 129.416 117.368 129.414 117.437C129.404 117.686 129.394 117.935 129.383 118.184C129.38 118.251 129.325 118.303 129.258 118.303ZM6.17244 117.186C6.10534 117.186 6.04989 117.133 6.04783 117.066L6.02387 116.319C6.02182 116.251 6.0759 116.193 6.14436 116.19C6.2053 116.183 6.27034 116.242 6.27308 116.311L6.29704 117.057C6.29909 117.126 6.24501 117.183 6.17654 117.186C6.17517 117.186 6.1738 117.186 6.17244 117.186ZM129.349 115.813H129.345C129.277 115.811 129.222 115.754 129.224 115.685C129.231 115.437 129.238 115.189 129.245 114.939C129.247 114.87 129.301 114.818 129.373 114.818C129.441 114.82 129.496 114.877 129.494 114.946C129.488 115.195 129.481 115.445 129.473 115.693C129.471 115.761 129.416 115.814 129.349 115.814V115.813ZM6.09233 114.697C6.02524 114.697 5.96978 114.643 5.96773 114.576L5.94377 113.83C5.94171 113.761 5.9958 113.704 6.06426 113.701C6.1252 113.694 6.19024 113.752 6.19298 113.821L6.21694 114.568C6.21899 114.636 6.16491 114.694 6.09644 114.697C6.09507 114.697 6.0937 114.697 6.09233 114.697ZM129.404 113.323H129.402C129.333 113.322 129.278 113.266 129.279 113.197C129.284 112.948 129.286 112.699 129.289 112.45C129.29 112.381 129.355 112.329 129.415 112.327C129.484 112.328 129.539 112.384 129.538 112.453C129.535 112.703 129.532 112.952 129.529 113.201C129.527 113.269 129.472 113.323 129.404 113.323ZM6.01223 112.208C5.94514 112.208 5.88968 112.154 5.88763 112.087L5.86367 111.341C5.86161 111.272 5.9157 111.215 5.98416 111.212C6.04509 111.205 6.11013 111.263 6.11287 111.333L6.13683 112.079C6.13889 112.148 6.0848 112.205 6.01634 112.208C6.01497 112.208 6.0136 112.208 6.01223 112.208ZM129.423 110.833C129.355 110.833 129.299 110.778 129.299 110.708V110.648C129.299 110.42 129.299 110.191 129.297 109.963C129.297 109.894 129.353 109.838 129.421 109.837C129.49 109.837 129.546 109.893 129.546 109.961C129.546 110.19 129.547 110.42 129.547 110.648V110.708C129.547 110.778 129.492 110.833 129.423 110.833H129.423ZM5.93213 109.718C5.86504 109.718 5.80958 109.665 5.80753 109.598L5.78356 108.851C5.78151 108.783 5.8356 108.725 5.90406 108.723C5.97321 108.714 6.03003 108.775 6.03277 108.843L6.05673 109.59C6.05879 109.658 6.0047 109.716 5.93624 109.718H5.93213ZM129.405 108.343C129.337 108.343 129.281 108.288 129.28 108.22C129.276 107.972 129.272 107.723 129.267 107.474C129.266 107.406 129.32 107.348 129.389 107.347C129.449 107.342 129.514 107.4 129.516 107.469C129.521 107.718 129.526 107.968 129.529 108.216C129.53 108.285 129.475 108.341 129.407 108.343H129.405ZM5.85203 107.229C5.78493 107.229 5.72948 107.175 5.72742 107.108L5.70346 106.362C5.70141 106.293 5.75549 106.236 5.82396 106.233C5.88557 106.227 5.94993 106.284 5.95267 106.353L5.97663 107.1C5.97868 107.169 5.9246 107.226 5.85613 107.229H5.85203ZM129.347 105.853C129.279 105.853 129.224 105.8 129.222 105.733C129.214 105.484 129.205 105.236 129.197 104.987C129.194 104.918 129.248 104.86 129.316 104.858C129.386 104.851 129.443 104.909 129.446 104.977C129.455 105.226 129.464 105.476 129.472 105.725C129.474 105.793 129.42 105.851 129.351 105.853H129.347H129.347ZM5.77193 104.739C5.70483 104.739 5.64937 104.686 5.64732 104.619L5.62336 103.872C5.6213 103.804 5.67539 103.746 5.74385 103.744C5.81232 103.739 5.86983 103.796 5.87256 103.864L5.89653 104.611C5.89858 104.679 5.8445 104.736 5.77603 104.739C5.77466 104.739 5.77329 104.739 5.77193 104.739ZM129.246 103.365C129.18 103.365 129.125 103.313 129.121 103.247C129.109 102.998 129.096 102.75 129.083 102.502C129.079 102.433 129.132 102.374 129.201 102.37C129.268 102.367 129.328 102.419 129.332 102.488C129.346 102.737 129.359 102.986 129.371 103.234C129.375 103.303 129.321 103.362 129.253 103.365C129.251 103.365 129.249 103.365 129.247 103.365H129.246ZM5.69182 102.25C5.62473 102.25 5.56927 102.196 5.56722 102.129L5.54326 101.383C5.5412 101.314 5.59529 101.257 5.66375 101.254C5.73564 101.254 5.79041 101.306 5.79246 101.374L5.81643 102.121C5.81848 102.189 5.76439 102.247 5.69593 102.25H5.69182ZM129.1 100.879C129.035 100.879 128.98 100.828 128.976 100.763C128.96 100.514 128.942 100.267 128.923 100.018C128.919 99.9497 128.97 99.8902 129.038 99.8847C129.11 99.8799 129.167 99.9312 129.172 99.9997C129.19 100.248 129.208 100.497 129.225 100.746C129.229 100.814 129.177 100.874 129.109 100.878C129.106 100.878 129.103 100.878 129.101 100.878L129.1 100.879ZM5.61104 99.7608C5.54394 99.7608 5.48849 99.7075 5.48643 99.6404L5.46247 98.8938C5.46041 98.8254 5.5145 98.7679 5.58297 98.7652C5.64527 98.7549 5.70894 98.8165 5.71168 98.8856L5.73564 99.6322C5.73769 99.7006 5.68361 99.7581 5.61514 99.7608C5.61377 99.7608 5.6124 99.7608 5.61104 99.7608ZM128.906 98.3963C128.843 98.3963 128.788 98.3477 128.782 98.2827C128.76 98.035 128.738 97.7873 128.715 97.5396C128.708 97.4711 128.758 97.4102 128.827 97.4041C128.896 97.3986 128.956 97.4479 128.962 97.5163C128.986 97.7647 129.008 98.0131 129.03 98.2608C129.036 98.3293 128.986 98.3902 128.917 98.3957C128.914 98.3957 128.91 98.3957 128.906 98.3957V98.3963ZM5.53093 97.2713C5.46384 97.2713 5.40838 97.2179 5.40633 97.1509L5.38237 96.4043C5.38031 96.3359 5.4344 96.2784 5.50286 96.2757C5.56585 96.2715 5.62884 96.327 5.63157 96.3961L5.65554 97.1427C5.65759 97.2111 5.6035 97.2686 5.53504 97.2713H5.53093ZM128.663 95.9171C128.6 95.9171 128.545 95.8699 128.539 95.8062C128.511 95.5592 128.484 95.3115 128.455 95.0644C128.447 94.996 128.496 94.9344 128.565 94.9262C128.634 94.918 128.695 94.9673 128.703 95.0357C128.732 95.2834 128.76 95.5311 128.786 95.7795C128.794 95.848 128.745 95.9095 128.676 95.9171C128.671 95.9171 128.667 95.9178 128.663 95.9178V95.9171ZM5.45083 94.7818C5.38374 94.7818 5.32828 94.7284 5.32623 94.6614L5.29816 93.7861H5.75002C5.81916 93.7861 5.87462 93.8416 5.87462 93.9107C5.87462 93.9798 5.81916 94.0352 5.75002 94.0352H5.55489L5.57475 94.6532C5.5768 94.7216 5.52272 94.7791 5.45425 94.7818H5.45015H5.45083ZM127.844 94.0352H127.097C127.028 94.0352 126.972 93.9791 126.972 93.9107C126.972 93.8423 127.028 93.7861 127.097 93.7861H127.844C127.914 93.7861 127.969 93.8416 127.969 93.9107C127.969 93.9798 127.914 94.0352 127.844 94.0352ZM125.353 94.0352H124.605C124.536 94.0352 124.481 93.9791 124.481 93.9107C124.481 93.8423 124.536 93.7861 124.605 93.7861H125.353C125.422 93.7861 125.478 93.8416 125.478 93.9107C125.478 93.9798 125.422 94.0352 125.353 94.0352ZM122.862 94.0352H122.114C122.045 94.0352 121.989 93.9791 121.989 93.9107C121.989 93.8423 122.045 93.7861 122.114 93.7861H122.862C122.931 93.7861 122.986 93.8416 122.986 93.9107C122.986 93.9798 122.931 94.0352 122.862 94.0352ZM120.37 94.0352H119.623C119.553 94.0352 119.498 93.9791 119.498 93.9107C119.498 93.8423 119.553 93.7861 119.623 93.7861H120.37C120.439 93.7861 120.495 93.8416 120.495 93.9107C120.495 93.9798 120.439 94.0352 120.37 94.0352ZM117.879 94.0352H117.131C117.062 94.0352 117.007 93.9791 117.007 93.9107C117.007 93.8423 117.062 93.7861 117.131 93.7861H117.879C117.948 93.7861 118.003 93.8416 118.003 93.9107C118.003 93.9798 117.948 94.0352 117.879 94.0352ZM115.387 94.0352H114.64C114.571 94.0352 114.515 93.9791 114.515 93.9107C114.515 93.8423 114.571 93.7861 114.64 93.7861H115.387C115.457 93.7861 115.512 93.8416 115.512 93.9107C115.512 93.9798 115.457 94.0352 115.387 94.0352ZM112.896 94.0352H112.148C112.079 94.0352 112.024 93.9791 112.024 93.9107C112.024 93.8423 112.079 93.7861 112.148 93.7861H112.896C112.965 93.7861 113.021 93.8416 113.021 93.9107C113.021 93.9798 112.965 94.0352 112.896 94.0352ZM110.405 94.0352H109.657C109.588 94.0352 109.532 93.9791 109.532 93.9107C109.532 93.8423 109.588 93.7861 109.657 93.7861H110.405C110.474 93.7861 110.529 93.8416 110.529 93.9107C110.529 93.9798 110.474 94.0352 110.405 94.0352ZM107.913 94.0352H107.166C107.097 94.0352 107.041 93.9791 107.041 93.9107C107.041 93.8423 107.097 93.7861 107.166 93.7861H107.913C107.982 93.7861 108.038 93.8416 108.038 93.9107C108.038 93.9798 107.982 94.0352 107.913 94.0352ZM105.422 94.0352H104.674C104.605 94.0352 104.55 93.9791 104.55 93.9107C104.55 93.8423 104.605 93.7861 104.674 93.7861H105.422C105.491 93.7861 105.547 93.8416 105.547 93.9107C105.547 93.9798 105.491 94.0352 105.422 94.0352ZM102.931 94.0352H102.183C102.114 94.0352 102.058 93.9791 102.058 93.9107C102.058 93.8423 102.114 93.7861 102.183 93.7861H102.931C103 93.7861 103.055 93.8416 103.055 93.9107C103.055 93.9798 103 94.0352 102.931 94.0352ZM100.439 94.0352H99.6915C99.6224 94.0352 99.5669 93.9791 99.5669 93.9107C99.5669 93.8423 99.6224 93.7861 99.6915 93.7861H100.439C100.508 93.7861 100.564 93.8416 100.564 93.9107C100.564 93.9798 100.508 94.0352 100.439 94.0352ZM97.9478 94.0352H97.2001C97.131 94.0352 97.0756 93.9791 97.0756 93.9107C97.0756 93.8423 97.131 93.7861 97.2001 93.7861H97.9478C98.0169 93.7861 98.0724 93.8416 98.0724 93.9107C98.0724 93.9798 98.0169 94.0352 97.9478 94.0352ZM95.4564 94.0352H94.7088C94.6396 94.0352 94.5842 93.9791 94.5842 93.9107C94.5842 93.8423 94.6396 93.7861 94.7088 93.7861H95.4564C95.5255 93.7861 95.581 93.8416 95.581 93.9107C95.581 93.9798 95.5255 94.0352 95.4564 94.0352ZM92.965 94.0352H92.2174C92.1482 94.0352 92.0928 93.9791 92.0928 93.9107C92.0928 93.8423 92.1482 93.7861 92.2174 93.7861H92.965C93.0341 93.7861 93.0896 93.8416 93.0896 93.9107C93.0896 93.9798 93.0341 94.0352 92.965 94.0352ZM90.4736 94.0352H89.726C89.6568 94.0352 89.6014 93.9791 89.6014 93.9107C89.6014 93.8423 89.6568 93.7861 89.726 93.7861H90.4736C90.5428 93.7861 90.5982 93.8416 90.5982 93.9107C90.5982 93.9798 90.5428 94.0352 90.4736 94.0352ZM87.9822 94.0352H87.2346C87.1655 94.0352 87.11 93.9791 87.11 93.9107C87.11 93.8423 87.1655 93.7861 87.2346 93.7861H87.9822C88.0514 93.7861 88.1068 93.8416 88.1068 93.9107C88.1068 93.9798 88.0514 94.0352 87.9822 94.0352ZM85.4908 94.0352H84.7432C84.6741 94.0352 84.6186 93.9791 84.6186 93.9107C84.6186 93.8423 84.6741 93.7861 84.7432 93.7861H85.4908C85.56 93.7861 85.6154 93.8416 85.6154 93.9107C85.6154 93.9798 85.56 94.0352 85.4908 94.0352ZM82.9995 94.0352H82.2518C82.1827 94.0352 82.1272 93.9791 82.1272 93.9107C82.1272 93.8423 82.1827 93.7861 82.2518 93.7861H82.9995C83.0686 93.7861 83.1241 93.8416 83.1241 93.9107C83.1241 93.9798 83.0686 94.0352 82.9995 94.0352ZM80.5081 94.0352H79.7604C79.6913 94.0352 79.6358 93.9791 79.6358 93.9107C79.6358 93.8423 79.6913 93.7861 79.7604 93.7861H80.5081C80.5772 93.7861 80.6327 93.8416 80.6327 93.9107C80.6327 93.9798 80.5772 94.0352 80.5081 94.0352ZM78.0167 94.0352H77.2691C77.1999 94.0352 77.1445 93.9791 77.1445 93.9107C77.1445 93.8423 77.1999 93.7861 77.2691 93.7861H78.0167C78.0858 93.7861 78.1413 93.8416 78.1413 93.9107C78.1413 93.9798 78.0858 94.0352 78.0167 94.0352ZM75.5253 94.0352H74.7777C74.7085 94.0352 74.6531 93.9791 74.6531 93.9107C74.6531 93.8423 74.7085 93.7861 74.7777 93.7861H75.5253C75.5944 93.7861 75.6499 93.8416 75.6499 93.9107C75.6499 93.9798 75.5944 94.0352 75.5253 94.0352ZM73.0339 94.0352H72.2863C72.2171 94.0352 72.1617 93.9791 72.1617 93.9107C72.1617 93.8423 72.2171 93.7861 72.2863 93.7861H73.0339C73.1031 93.7861 73.1585 93.8416 73.1585 93.9107C73.1585 93.9798 73.1031 94.0352 73.0339 94.0352ZM70.5425 94.0352H69.7949C69.7257 94.0352 69.6703 93.9791 69.6703 93.9107C69.6703 93.8423 69.7257 93.7861 69.7949 93.7861H70.5425C70.6117 93.7861 70.6671 93.8416 70.6671 93.9107C70.6671 93.9798 70.6117 94.0352 70.5425 94.0352ZM68.0511 94.0352H67.3035C67.2344 94.0352 67.1789 93.9791 67.1789 93.9107C67.1789 93.8423 67.2344 93.7861 67.3035 93.7861H68.0511C68.1203 93.7861 68.1757 93.8416 68.1757 93.9107C68.1757 93.9798 68.1203 94.0352 68.0511 94.0352ZM65.5597 94.0352H64.8121C64.743 94.0352 64.6875 93.9791 64.6875 93.9107C64.6875 93.8423 64.743 93.7861 64.8121 93.7861H65.5597C65.6289 93.7861 65.6843 93.8416 65.6843 93.9107C65.6843 93.9798 65.6289 94.0352 65.5597 94.0352ZM63.0684 94.0352H62.3207C62.2516 94.0352 62.1961 93.9791 62.1961 93.9107C62.1961 93.8423 62.2516 93.7861 62.3207 93.7861H63.0684C63.1375 93.7861 63.193 93.8416 63.193 93.9107C63.193 93.9798 63.1375 94.0352 63.0684 94.0352ZM60.577 94.0352H59.8293C59.7602 94.0352 59.7047 93.9791 59.7047 93.9107C59.7047 93.8423 59.7602 93.7861 59.8293 93.7861H60.577C60.6461 93.7861 60.7016 93.8416 60.7016 93.9107C60.7016 93.9798 60.6461 94.0352 60.577 94.0352ZM58.0856 94.0352H57.338C57.2688 94.0352 57.2134 93.9791 57.2134 93.9107C57.2134 93.8423 57.2688 93.7861 57.338 93.7861H58.0856C58.1547 93.7861 58.2102 93.8416 58.2102 93.9107C58.2102 93.9798 58.1547 94.0352 58.0856 94.0352ZM55.5942 94.0352H54.8466C54.7774 94.0352 54.722 93.9791 54.722 93.9107C54.722 93.8423 54.7774 93.7861 54.8466 93.7861H55.5942C55.6633 93.7861 55.7188 93.8416 55.7188 93.9107C55.7188 93.9798 55.6633 94.0352 55.5942 94.0352ZM53.1028 94.0352H52.3552C52.286 94.0352 52.2306 93.9791 52.2306 93.9107C52.2306 93.8423 52.286 93.7861 52.3552 93.7861H53.1028C53.172 93.7861 53.2274 93.8416 53.2274 93.9107C53.2274 93.9798 53.172 94.0352 53.1028 94.0352ZM50.6114 94.0352H49.8638C49.7946 94.0352 49.7392 93.9791 49.7392 93.9107C49.7392 93.8423 49.7946 93.7861 49.8638 93.7861H50.6114C50.6806 93.7861 50.736 93.8416 50.736 93.9107C50.736 93.9798 50.6806 94.0352 50.6114 94.0352ZM48.12 94.0352H47.3724C47.3033 94.0352 47.2478 93.9791 47.2478 93.9107C47.2478 93.8423 47.3033 93.7861 47.3724 93.7861H48.12C48.1892 93.7861 48.2446 93.8416 48.2446 93.9107C48.2446 93.9798 48.1892 94.0352 48.12 94.0352ZM45.6286 94.0352H44.881C44.8119 94.0352 44.7564 93.9791 44.7564 93.9107C44.7564 93.8423 44.8119 93.7861 44.881 93.7861H45.6286C45.6978 93.7861 45.7532 93.8416 45.7532 93.9107C45.7532 93.9798 45.6978 94.0352 45.6286 94.0352ZM43.1373 94.0352H42.3896C42.3205 94.0352 42.265 93.9791 42.265 93.9107C42.265 93.8423 42.3205 93.7861 42.3896 93.7861H43.1373C43.2064 93.7861 43.2619 93.8416 43.2619 93.9107C43.2619 93.9798 43.2064 94.0352 43.1373 94.0352ZM40.6459 94.0352H39.8982C39.8291 94.0352 39.7736 93.9791 39.7736 93.9107C39.7736 93.8423 39.8291 93.7861 39.8982 93.7861H40.6459C40.715 93.7861 40.7705 93.8416 40.7705 93.9107C40.7705 93.9798 40.715 94.0352 40.6459 94.0352ZM38.1545 94.0352H37.4069C37.3377 94.0352 37.2823 93.9791 37.2823 93.9107C37.2823 93.8423 37.3377 93.7861 37.4069 93.7861H38.1545C38.2236 93.7861 38.2791 93.8416 38.2791 93.9107C38.2791 93.9798 38.2236 94.0352 38.1545 94.0352ZM35.6631 94.0352H34.9155C34.8463 94.0352 34.7909 93.9791 34.7909 93.9107C34.7909 93.8423 34.8463 93.7861 34.9155 93.7861H35.6631C35.7322 93.7861 35.7877 93.8416 35.7877 93.9107C35.7877 93.9798 35.7322 94.0352 35.6631 94.0352ZM33.1717 94.0352H32.4241C32.3549 94.0352 32.2995 93.9791 32.2995 93.9107C32.2995 93.8423 32.3549 93.7861 32.4241 93.7861H33.1717C33.2409 93.7861 33.2963 93.8416 33.2963 93.9107C33.2963 93.9798 33.2409 94.0352 33.1717 94.0352ZM30.6803 94.0352H29.9327C29.8635 94.0352 29.8081 93.9791 29.8081 93.9107C29.8081 93.8423 29.8635 93.7861 29.9327 93.7861H30.6803C30.7495 93.7861 30.8049 93.8416 30.8049 93.9107C30.8049 93.9798 30.7495 94.0352 30.6803 94.0352ZM28.1889 94.0352H27.4413C27.3722 94.0352 27.3167 93.9791 27.3167 93.9107C27.3167 93.8423 27.3722 93.7861 27.4413 93.7861H28.1889C28.2581 93.7861 28.3135 93.8416 28.3135 93.9107C28.3135 93.9798 28.2581 94.0352 28.1889 94.0352ZM25.6975 94.0352H24.9499C24.8808 94.0352 24.8253 93.9791 24.8253 93.9107C24.8253 93.8423 24.8808 93.7861 24.9499 93.7861H25.6975C25.7667 93.7861 25.8221 93.8416 25.8221 93.9107C25.8221 93.9798 25.7667 94.0352 25.6975 94.0352ZM23.2062 94.0352H22.4585C22.3894 94.0352 22.3339 93.9791 22.3339 93.9107C22.3339 93.8423 22.3894 93.7861 22.4585 93.7861H23.2062C23.2753 93.7861 23.3308 93.8416 23.3308 93.9107C23.3308 93.9798 23.2753 94.0352 23.2062 94.0352ZM20.7148 94.0352H19.9671C19.898 94.0352 19.8425 93.9791 19.8425 93.9107C19.8425 93.8423 19.898 93.7861 19.9671 93.7861H20.7148C20.7839 93.7861 20.8394 93.8416 20.8394 93.9107C20.8394 93.9798 20.7839 94.0352 20.7148 94.0352ZM18.2234 94.0352H17.4758C17.4066 94.0352 17.3512 93.9791 17.3512 93.9107C17.3512 93.8423 17.4066 93.7861 17.4758 93.7861H18.2234C18.2925 93.7861 18.348 93.8416 18.348 93.9107C18.348 93.9798 18.2925 94.0352 18.2234 94.0352ZM15.732 94.0352H14.9844C14.9152 94.0352 14.8598 93.9791 14.8598 93.9107C14.8598 93.8423 14.9152 93.7861 14.9844 93.7861H15.732C15.8011 93.7861 15.8566 93.8416 15.8566 93.9107C15.8566 93.9798 15.8011 94.0352 15.732 94.0352ZM13.2406 94.0352H12.493C12.4238 94.0352 12.3684 93.9791 12.3684 93.9107C12.3684 93.8423 12.4238 93.7861 12.493 93.7861H13.2406C13.3098 93.7861 13.3652 93.8416 13.3652 93.9107C13.3652 93.9798 13.3098 94.0352 13.2406 94.0352ZM10.7492 94.0352H10.0016C9.93245 94.0352 9.877 93.9791 9.877 93.9107C9.877 93.8423 9.93245 93.7861 10.0016 93.7861H10.7492C10.8184 93.7861 10.8738 93.8416 10.8738 93.9107C10.8738 93.9798 10.8184 94.0352 10.7492 94.0352ZM8.25784 94.0352H7.51021C7.44106 94.0352 7.38561 93.9791 7.38561 93.9107C7.38561 93.8423 7.44106 93.7861 7.51021 93.7861H8.25784C8.32698 93.7861 8.38244 93.8416 8.38244 93.9107C8.38244 93.9798 8.32698 94.0352 8.25784 94.0352Z" fill="white"/>
<path d="M32.3444 62.8197L32.6531 59.5166C33.0016 58.7276 33.7253 58.1698 34.5804 58.0337C37.7776 57.5252 45.7064 56.6308 49.5246 59.4824L50.0949 63.3213L32.3444 62.8197Z" fill="#484949"/>
<path d="M42.3311 59.641C41.5951 59.8203 40.8578 59.8197 40.119 59.6383C39.2249 59.4187 38.5944 58.6194 38.5944 57.7038V47.3597H43.8613V57.6962C43.8613 58.6166 43.2293 59.4228 42.3311 59.641Z" fill="#303030"/>
<path d="M83.3563 62.8197L83.665 59.5166C84.0135 58.7276 84.7372 58.1698 85.5923 58.0337C88.7895 57.5252 96.7183 56.6308 100.537 59.4824L101.107 63.3213L83.3563 62.8197Z" fill="#484949"/>
<path d="M93.343 59.6412C92.607 59.8205 91.8697 59.8198 91.1309 59.6385C90.2368 59.4188 89.6063 58.6195 89.6063 57.7039V46.2698H94.8732V57.6957C94.8732 58.6161 94.2412 59.4222 93.343 59.6405V59.6412Z" fill="#303030"/>
<path d="M38.0593 49.8951L94.6985 48.0208C95.9897 47.9783 97.0858 47.047 97.3069 45.7803C97.6171 44.008 97.8909 41.3549 97.4829 38.6047C97.0194 35.4767 94.3274 33.1534 91.1507 33.0782C80.5847 32.827 53.6861 32.8345 38.8603 38.6963C37.2925 39.3163 36.1293 40.6555 35.7322 42.2869C35.3536 43.843 35.1017 45.9206 35.5966 48.0358C35.8595 49.1594 36.8995 49.9334 38.0586 49.8951H38.0593Z" fill="#303030"/>
<path d="M37.08 46.9527C36.954 46.9527 36.8452 46.8569 36.8322 46.7289C36.8233 46.6393 36.6172 44.5111 37.1711 42.4622C37.5921 40.9054 38.8245 39.6538 40.3875 39.1953C43.543 38.2702 49.5726 36.6969 54.4985 36.5587C54.6368 36.5546 54.7504 36.6634 54.7546 36.8009C54.7587 36.9385 54.6498 37.0528 54.5122 37.0569C49.6417 37.1937 43.66 38.7553 40.5272 39.6737C39.1298 40.0836 38.0282 41.2017 37.6517 42.5929C37.1218 44.5501 37.3251 46.6584 37.3272 46.679C37.3409 46.8158 37.2409 46.9376 37.104 46.9513C37.0958 46.952 37.0869 46.9527 37.0786 46.9527H37.08Z" fill="#616161"/>
<path d="M6.06562 61.5325C24.3639 61.2985 103.522 60.4671 126.516 63.2399C128.495 63.4787 130.111 64.926 130.54 66.864C131.899 73.0036 134.632 87.266 134.308 101.403C134.264 103.327 132.853 104.951 130.952 105.31L78.4651 115.235H59.8211L3.89601 104.124C1.92495 103.733 0.471468 102.064 0.369458 100.066C0.0059163 92.9533 -0.562332 76.2651 1.36218 65.5228C1.7709 63.2399 3.73581 61.5626 6.06631 61.5325H6.06562Z" fill="#4F4F4F"/>
<path d="M78.0341 110.839H77.2865C77.218 110.839 77.1619 110.784 77.1619 110.715C77.1619 110.645 77.218 110.59 77.2865 110.59H78.0341C78.1033 110.59 78.1587 110.645 78.1587 110.715C78.1587 110.784 78.1033 110.839 78.0341 110.839ZM75.5427 110.839H74.7951C74.7266 110.839 74.6705 110.784 74.6705 110.715C74.6705 110.645 74.7266 110.59 74.7951 110.59H75.5427C75.6119 110.59 75.6673 110.645 75.6673 110.715C75.6673 110.784 75.6119 110.839 75.5427 110.839ZM73.0513 110.839H72.3037C72.2353 110.839 72.1791 110.784 72.1791 110.715C72.1791 110.645 72.2353 110.59 72.3037 110.59H73.0513C73.1205 110.59 73.1759 110.645 73.1759 110.715C73.1759 110.784 73.1205 110.839 73.0513 110.839ZM70.5599 110.839H69.8123C69.7439 110.839 69.6877 110.784 69.6877 110.715C69.6877 110.645 69.7439 110.59 69.8123 110.59H70.5599C70.6291 110.59 70.6845 110.645 70.6845 110.715C70.6845 110.784 70.6291 110.839 70.5599 110.839ZM68.0686 110.839H67.3209C67.2525 110.839 67.1963 110.784 67.1963 110.715C67.1963 110.645 67.2525 110.59 67.3209 110.59H68.0686C68.1377 110.59 68.1932 110.645 68.1932 110.715C68.1932 110.784 68.1377 110.839 68.0686 110.839ZM65.5772 110.839H64.8295C64.7611 110.839 64.7049 110.784 64.7049 110.715C64.7049 110.645 64.7611 110.59 64.8295 110.59H65.5772C65.6463 110.59 65.7018 110.645 65.7018 110.715C65.7018 110.784 65.6463 110.839 65.5772 110.839ZM63.0858 110.839H62.3382C62.2697 110.839 62.2136 110.784 62.2136 110.715C62.2136 110.645 62.2697 110.59 62.3382 110.59H63.0858C63.1549 110.59 63.2104 110.645 63.2104 110.715C63.2104 110.784 63.1549 110.839 63.0858 110.839ZM60.5944 110.839H60.2685L59.5113 110.691C59.4442 110.678 59.3997 110.613 59.4134 110.545C59.4271 110.478 59.4915 110.433 59.5599 110.447L60.2932 110.593L60.5944 110.59C60.6635 110.59 60.719 110.645 60.719 110.715C60.719 110.784 60.6635 110.839 60.5944 110.839ZM79.7505 110.516C79.6916 110.516 79.6396 110.474 79.6279 110.415C79.6149 110.347 79.6594 110.282 79.7272 110.269L80.4618 110.13C80.5289 110.117 80.5946 110.162 80.6077 110.229C80.6207 110.297 80.5762 110.362 80.5084 110.375L79.7738 110.514C79.7662 110.515 79.758 110.516 79.7505 110.516ZM57.825 110.353C57.8168 110.353 57.8086 110.353 57.8004 110.35L57.0672 110.205C57.0001 110.191 56.9556 110.126 56.9692 110.058C56.9829 109.991 57.0473 109.946 57.1158 109.96L57.849 110.106C57.9161 110.12 57.9606 110.185 57.9469 110.253C57.9353 110.312 57.8832 110.353 57.825 110.353V110.353ZM82.1987 110.053C82.1399 110.053 82.0878 110.011 82.0762 109.952C82.0632 109.884 82.1077 109.819 82.1755 109.806L82.9101 109.667C82.9779 109.655 83.0429 109.698 83.0559 109.766C83.0689 109.834 83.0244 109.899 82.9566 109.912L82.222 110.051C82.2145 110.052 82.2063 110.053 82.1987 110.053ZM55.3816 109.867C55.3734 109.867 55.3652 109.867 55.3569 109.865L54.6237 109.719C54.5566 109.705 54.5121 109.64 54.5258 109.572C54.5388 109.505 54.6038 109.461 54.6723 109.475L55.4055 109.62C55.4726 109.634 55.5171 109.699 55.5034 109.767C55.4918 109.826 55.4398 109.867 55.3816 109.867V109.867ZM84.647 109.59C84.5881 109.59 84.5361 109.548 84.5245 109.488C84.5114 109.42 84.5559 109.355 84.6237 109.342L85.3583 109.204C85.4261 109.191 85.4911 109.235 85.5042 109.303C85.5172 109.371 85.4727 109.436 85.4049 109.449L84.6703 109.587C84.6628 109.589 84.6545 109.59 84.647 109.59ZM52.9374 109.381C52.9292 109.381 52.921 109.381 52.9128 109.379L52.1795 109.233C52.1124 109.219 52.0679 109.154 52.0816 109.087C52.0953 109.019 52.1597 108.974 52.2281 108.989L52.9614 109.134C53.0285 109.148 53.073 109.213 53.0593 109.281C53.0477 109.34 52.9956 109.381 52.9374 109.381V109.381ZM87.0953 109.126C87.0364 109.126 86.9843 109.084 86.9727 109.025C86.9597 108.957 87.0042 108.892 87.072 108.879L87.8066 108.74C87.8744 108.729 87.9394 108.772 87.9524 108.84C87.9654 108.907 87.9209 108.972 87.8531 108.985L87.1185 109.124C87.111 109.126 87.1028 109.126 87.0953 109.126ZM50.4933 108.896C50.4851 108.896 50.4769 108.895 50.4686 108.893L49.7354 108.747C49.6683 108.733 49.6238 108.668 49.6375 108.601C49.6512 108.534 49.7155 108.489 49.784 108.503L50.5172 108.649C50.5843 108.662 50.6288 108.727 50.6152 108.795C50.6035 108.855 50.5515 108.895 50.4933 108.895V108.896ZM89.5435 108.663C89.4846 108.663 89.4326 108.621 89.421 108.562C89.408 108.494 89.4525 108.429 89.5202 108.416L90.2548 108.277C90.3226 108.265 90.3877 108.308 90.4007 108.376C90.4137 108.444 90.3692 108.509 90.3014 108.522L89.5668 108.661C89.5592 108.662 89.551 108.663 89.5435 108.663ZM48.0498 108.41C48.0416 108.41 48.0334 108.409 48.0252 108.407L47.2919 108.261C47.2248 108.248 47.1803 108.183 47.194 108.115C47.2077 108.047 47.2721 108.003 47.3405 108.017L48.0738 108.163C48.1409 108.176 48.1854 108.241 48.1717 108.309C48.16 108.369 48.108 108.409 48.0498 108.409V108.41ZM91.9918 108.2C91.9329 108.2 91.8809 108.158 91.8692 108.098C91.8562 108.031 91.9007 107.966 91.9685 107.953L92.7031 107.814C92.7709 107.801 92.8359 107.845 92.8489 107.913C92.8619 107.981 92.8174 108.046 92.7496 108.059L92.015 108.198C92.0075 108.199 91.9993 108.2 91.9918 108.2ZM45.6057 107.924C45.5975 107.924 45.5892 107.923 45.581 107.921L44.8478 107.775C44.7807 107.762 44.7362 107.697 44.7499 107.629C44.7629 107.562 44.8286 107.517 44.8964 107.531L45.6296 107.677C45.6967 107.691 45.7412 107.756 45.7275 107.823C45.7159 107.883 45.6639 107.923 45.6057 107.923V107.924ZM94.44 107.736C94.3811 107.736 94.3291 107.695 94.3175 107.635C94.3045 107.567 94.349 107.502 94.4167 107.489L95.1514 107.35C95.2191 107.338 95.2842 107.382 95.2972 107.45C95.3102 107.517 95.2657 107.582 95.1979 107.595L94.4633 107.734C94.4558 107.736 94.4475 107.736 94.44 107.736ZM43.1615 107.438C43.1533 107.438 43.1451 107.437 43.1369 107.435L42.4036 107.29C42.3365 107.276 42.292 107.211 42.3057 107.143C42.3194 107.075 42.3845 107.031 42.4522 107.045L43.1855 107.191C43.2533 107.205 43.2971 107.27 43.2834 107.337C43.2718 107.397 43.2197 107.437 43.1615 107.437V107.438ZM96.8883 107.274C96.8294 107.274 96.7774 107.232 96.7657 107.173C96.7527 107.105 96.7972 107.04 96.865 107.027L97.5996 106.888C97.6681 106.876 97.7324 106.919 97.7454 106.987C97.7584 107.055 97.7139 107.12 97.6462 107.133L96.9116 107.272C96.904 107.273 96.8958 107.274 96.8883 107.274ZM40.7174 106.953C40.7092 106.953 40.7009 106.952 40.6927 106.95L39.9595 106.804C39.8924 106.791 39.8479 106.726 39.8616 106.658C39.8753 106.591 39.9403 106.546 40.0081 106.56L40.7413 106.706C40.8084 106.72 40.8529 106.785 40.8392 106.852C40.8276 106.912 40.7756 106.952 40.7174 106.952V106.953ZM99.3365 106.811C99.2777 106.811 99.2256 106.769 99.214 106.709C99.201 106.642 99.2455 106.576 99.3132 106.563L100.048 106.425C100.116 106.412 100.181 106.456 100.194 106.524C100.207 106.592 100.162 106.657 100.094 106.67L99.3598 106.808C99.3523 106.81 99.3441 106.811 99.3365 106.811ZM38.2739 106.467C38.2657 106.467 38.2575 106.466 38.2493 106.464L37.516 106.319C37.4489 106.305 37.4044 106.24 37.4181 106.172C37.4311 106.104 37.4962 106.06 37.5646 106.074L38.2979 106.22C38.365 106.234 38.4095 106.299 38.3958 106.366C38.3841 106.426 38.3321 106.466 38.2739 106.466V106.467ZM101.785 106.348C101.726 106.348 101.674 106.306 101.662 106.247C101.649 106.179 101.694 106.114 101.762 106.101L102.496 105.962C102.563 105.95 102.629 105.993 102.642 106.061C102.655 106.129 102.61 106.194 102.543 106.207L101.808 106.346C101.801 106.347 101.792 106.348 101.785 106.348ZM35.8298 105.982C35.8216 105.982 35.8133 105.981 35.8051 105.979L35.0719 105.833C35.0048 105.82 34.9603 105.755 34.974 105.687C34.9877 105.62 35.052 105.575 35.1205 105.589L35.8537 105.735C35.9208 105.748 35.9653 105.813 35.9516 105.881C35.94 105.941 35.888 105.981 35.8298 105.981V105.982ZM104.233 105.885C104.174 105.885 104.122 105.844 104.11 105.784C104.097 105.716 104.142 105.651 104.21 105.638L104.944 105.499C105.011 105.487 105.077 105.531 105.09 105.599C105.103 105.666 105.059 105.731 104.991 105.744L104.256 105.883C104.249 105.885 104.241 105.885 104.233 105.885ZM33.3856 105.497C33.3774 105.497 33.3692 105.496 33.361 105.494L32.6277 105.348C32.5606 105.334 32.5161 105.269 32.5298 105.202C32.5435 105.135 32.6079 105.09 32.6763 105.104L33.4096 105.25C33.4767 105.263 33.5212 105.328 33.5075 105.396C33.4958 105.456 33.4438 105.496 33.3856 105.496V105.497ZM106.681 105.423C106.622 105.423 106.57 105.381 106.559 105.321C106.546 105.254 106.59 105.189 106.658 105.176L107.393 105.037C107.46 105.024 107.525 105.068 107.538 105.136C107.551 105.204 107.507 105.269 107.439 105.282L106.705 105.421C106.697 105.422 106.689 105.423 106.681 105.423ZM30.9422 105.011C30.9339 105.011 30.9257 105.011 30.9175 105.009L30.1843 104.863C30.1172 104.849 30.0727 104.784 30.0864 104.717C30.1001 104.649 30.1644 104.604 30.2329 104.619L30.9661 104.764C31.0332 104.778 31.0777 104.843 31.064 104.911C31.0524 104.97 31.0003 105.011 30.9422 105.011V105.011ZM109.13 104.96C109.071 104.96 109.019 104.918 109.007 104.859C108.994 104.791 109.038 104.726 109.106 104.713L109.841 104.574C109.909 104.562 109.974 104.606 109.987 104.673C110 104.741 109.955 104.806 109.887 104.819L109.153 104.958C109.145 104.959 109.137 104.96 109.13 104.96ZM28.498 104.526C28.4898 104.526 28.4816 104.526 28.4734 104.524L27.7401 104.378C27.673 104.364 27.6285 104.299 27.6422 104.231C27.6559 104.164 27.7203 104.12 27.7887 104.134L28.522 104.279C28.5891 104.293 28.6336 104.358 28.6199 104.426C28.6082 104.485 28.5562 104.526 28.498 104.526V104.526ZM111.578 104.498C111.519 104.498 111.467 104.456 111.455 104.396C111.442 104.329 111.487 104.264 111.555 104.251L112.289 104.112C112.357 104.099 112.422 104.143 112.435 104.211C112.448 104.279 112.403 104.344 112.336 104.357L111.601 104.496C111.594 104.497 111.585 104.498 111.578 104.498ZM26.0539 104.041C26.0456 104.041 26.0374 104.04 26.0292 104.038L25.296 103.893C25.2289 103.879 25.1844 103.814 25.1981 103.746C25.2118 103.679 25.2761 103.634 25.3446 103.648L26.0778 103.794C26.1449 103.808 26.1894 103.873 26.1757 103.941C26.1641 104 26.1121 104.04 26.0539 104.04V104.041ZM114.026 104.035C113.967 104.035 113.915 103.993 113.904 103.934C113.891 103.866 113.935 103.801 114.003 103.788L114.737 103.649C114.805 103.637 114.87 103.681 114.883 103.748C114.896 103.816 114.852 103.881 114.784 103.894L114.049 104.033C114.042 104.034 114.034 104.035 114.026 104.035ZM116.474 103.572C116.415 103.572 116.363 103.53 116.352 103.47C116.339 103.403 116.383 103.338 116.451 103.325L117.186 103.186C117.253 103.173 117.318 103.217 117.331 103.285C117.344 103.353 117.3 103.418 117.232 103.431L116.498 103.57C116.49 103.571 116.482 103.572 116.474 103.572ZM23.6097 103.555C23.6015 103.555 23.5933 103.555 23.5851 103.553L22.8518 103.407C22.7847 103.393 22.7402 103.328 22.7539 103.26C22.7669 103.193 22.8327 103.149 22.9004 103.162L23.6337 103.308C23.7008 103.322 23.7453 103.387 23.7316 103.455C23.7199 103.514 23.6679 103.555 23.6097 103.555V103.555ZM118.923 103.108C118.864 103.108 118.812 103.067 118.8 103.007C118.787 102.939 118.832 102.874 118.899 102.861L119.634 102.722C119.702 102.71 119.767 102.754 119.78 102.822C119.793 102.889 119.748 102.954 119.68 102.967L118.946 103.106C118.938 103.108 118.93 103.108 118.923 103.108ZM21.1663 103.069C21.158 103.069 21.1498 103.069 21.1416 103.067L20.4084 102.921C20.3413 102.907 20.2968 102.842 20.3105 102.774C20.3242 102.707 20.3885 102.662 20.457 102.677L21.1902 102.822C21.2573 102.836 21.3018 102.901 21.2881 102.969C21.2765 103.028 21.2244 103.069 21.1663 103.069V103.069ZM121.371 102.645C121.312 102.645 121.26 102.603 121.248 102.544C121.235 102.476 121.28 102.411 121.348 102.398L122.082 102.259C122.151 102.247 122.215 102.291 122.228 102.358C122.241 102.426 122.196 102.491 122.129 102.504L121.394 102.643C121.387 102.644 121.378 102.645 121.371 102.645ZM18.7221 102.584C18.7139 102.584 18.7057 102.583 18.6975 102.581L17.9642 102.435C17.8971 102.421 17.8526 102.356 17.8663 102.289C17.88 102.222 17.945 102.177 18.0128 102.191L18.7461 102.337C18.8132 102.35 18.8577 102.415 18.844 102.483C18.8323 102.542 18.7803 102.583 18.7221 102.583V102.584ZM123.819 102.182C123.76 102.182 123.708 102.14 123.697 102.081C123.684 102.013 123.728 101.948 123.796 101.935L124.53 101.796C124.598 101.784 124.663 101.827 124.676 101.895C124.689 101.963 124.645 102.028 124.577 102.041L123.842 102.18C123.835 102.181 123.827 102.182 123.819 102.182ZM16.278 102.098C16.2697 102.098 16.2615 102.097 16.2533 102.095L15.5201 101.949C15.453 101.936 15.4085 101.871 15.4222 101.803C15.4352 101.736 15.5002 101.691 15.5687 101.705L16.3019 101.851C16.369 101.864 16.4135 101.929 16.3998 101.997C16.3882 102.057 16.3362 102.098 16.278 102.098ZM126.267 101.719C126.208 101.719 126.156 101.677 126.145 101.617C126.132 101.55 126.176 101.485 126.244 101.472L126.979 101.333C127.046 101.32 127.111 101.364 127.124 101.432C127.138 101.5 127.093 101.565 127.025 101.578L126.291 101.717C126.283 101.718 126.275 101.719 126.267 101.719ZM13.8345 101.612C13.8263 101.612 13.8181 101.611 13.8098 101.609L13.0766 101.463C13.0095 101.45 12.965 101.385 12.9787 101.317C12.9924 101.25 13.0567 101.205 13.1252 101.219L13.8585 101.365C13.9256 101.378 13.9701 101.443 13.9564 101.511C13.9447 101.571 13.8927 101.611 13.8345 101.611V101.612ZM128.716 101.255C128.657 101.255 128.605 101.214 128.593 101.154C128.58 101.086 128.625 101.021 128.692 101.008L129.427 100.869C129.495 100.857 129.56 100.901 129.573 100.969C129.586 101.036 129.541 101.101 129.473 101.114L128.739 101.253C128.731 101.255 128.723 101.255 128.716 101.255ZM11.3903 101.126C11.3821 101.126 11.3739 101.125 11.3657 101.123L10.6325 100.977C10.5654 100.964 10.5209 100.899 10.5346 100.831C10.5482 100.763 10.6126 100.719 10.6811 100.733L11.4143 100.879C11.4814 100.893 11.5259 100.958 11.5122 101.025C11.5006 101.085 11.4485 101.125 11.3903 101.125V101.126ZM8.9462 100.64C8.93798 100.64 8.92977 100.639 8.92155 100.637L8.18831 100.492C8.12121 100.478 8.07671 100.413 8.0904 100.345C8.1041 100.278 8.16845 100.234 8.23692 100.247L8.97016 100.393C9.03725 100.407 9.08176 100.472 9.06806 100.54C9.05643 100.599 9.00439 100.639 8.9462 100.639V100.64ZM6.50205 100.154C6.49383 100.154 6.48562 100.154 6.4774 100.152L5.74416 100.006C5.67706 99.9921 5.63256 99.9271 5.64626 99.8593C5.65926 99.7922 5.72431 99.7471 5.79277 99.7615L6.52601 99.9072C6.59311 99.9209 6.63761 99.9859 6.62392 100.054C6.61228 100.113 6.56024 100.154 6.50205 100.154V100.154ZM129.812 99.6588C129.743 99.6588 129.688 99.6027 129.688 99.5336V99.0826V98.787C129.688 98.7179 129.744 98.6625 129.812 98.6625C129.881 98.6625 129.937 98.7179 129.937 98.7863V99.0819V99.5343C129.937 99.6027 129.881 99.6581 129.812 99.6581V99.6588ZM4.84044 98.9937C4.77472 98.9937 4.71926 98.9417 4.71584 98.8753C4.7042 98.6358 4.69256 98.386 4.68161 98.128C4.67887 98.0596 4.73158 98.0014 4.80073 97.998C4.87056 97.9959 4.92739 98.0479 4.93081 98.1171C4.94245 98.3744 4.95409 98.6235 4.96504 98.863C4.96847 98.9314 4.91507 98.9902 4.8466 98.9937C4.84455 98.9937 4.8425 98.9937 4.84044 98.9937ZM129.793 97.1686C129.725 97.1686 129.67 97.1145 129.669 97.0468C129.664 96.7977 129.658 96.5493 129.651 96.3016C129.649 96.2325 129.704 96.1757 129.773 96.1736C129.848 96.1688 129.899 96.2263 129.901 96.2947C129.907 96.5438 129.913 96.7922 129.918 97.042C129.919 97.1104 129.864 97.1679 129.796 97.1693H129.793V97.1686ZM4.73295 96.5048C4.66654 96.5048 4.61109 96.4521 4.60835 96.3851L4.58028 95.6378C4.57754 95.5694 4.63163 95.5112 4.70009 95.5092C4.76581 95.5064 4.82675 95.5605 4.8288 95.6289L4.85687 96.3755C4.85961 96.4439 4.80621 96.5021 4.73706 96.5048C4.73569 96.5048 4.73364 96.5048 4.73227 96.5048H4.73295ZM129.717 94.6811C129.651 94.6811 129.595 94.6285 129.593 94.5614C129.582 94.313 129.571 94.0653 129.56 93.8175C129.556 93.7491 129.61 93.6903 129.678 93.6875C129.747 93.6821 129.806 93.7375 129.808 93.8059C129.82 94.0543 129.831 94.3027 129.841 94.5511C129.844 94.6196 129.79 94.6777 129.722 94.6805C129.721 94.6805 129.719 94.6805 129.717 94.6805L129.717 94.6811ZM4.64737 94.0153C4.58028 94.0153 4.52482 93.9619 4.52277 93.8949L4.50086 93.1476C4.49881 93.0785 4.55289 93.0217 4.62204 93.0196C4.69256 93.021 4.74802 93.0716 4.75007 93.1408L4.77198 93.8873C4.77403 93.9558 4.71994 94.0133 4.65148 94.0153H4.64737ZM129.589 92.195C129.524 92.195 129.469 92.1444 129.465 92.078C129.45 91.8289 129.434 91.5805 129.417 91.3328C129.413 91.2644 129.465 91.2048 129.533 91.2001C129.604 91.1987 129.661 91.2473 129.666 91.3157C129.682 91.5641 129.699 91.8125 129.714 92.0623C129.718 92.1307 129.666 92.1903 129.597 92.1944C129.595 92.1944 129.592 92.1944 129.59 92.1944L129.589 92.195ZM4.58302 91.5251C4.51524 91.5251 4.45978 91.471 4.45841 91.4033L4.44335 90.6553C4.44198 90.5869 4.49675 90.5301 4.5659 90.5287C4.63163 90.5233 4.69119 90.5821 4.69256 90.6512L4.70762 91.3978C4.70899 91.4669 4.65422 91.5237 4.58576 91.5251H4.58302ZM129.413 89.7096C129.348 89.7096 129.293 89.6604 129.289 89.5953C129.269 89.3463 129.248 89.0985 129.227 88.8508C129.221 88.7824 129.272 88.7222 129.341 88.716C129.408 88.7078 129.469 88.7612 129.476 88.8296C129.497 89.0773 129.517 89.3257 129.538 89.5748C129.543 89.6433 129.492 89.7035 129.424 89.7089C129.42 89.7089 129.417 89.7089 129.413 89.7089L129.413 89.7096ZM4.54126 89.0342C4.47348 89.0342 4.41734 88.9795 4.41665 88.911L4.40844 88.1631C4.40844 88.0947 4.46321 88.0379 4.53167 88.0372H4.53304C4.6015 88.0372 4.65696 88.0919 4.65764 88.1604L4.66586 88.9069C4.66654 88.9754 4.61177 89.0322 4.54262 89.0328H4.54126V89.0342ZM129.191 87.2276C129.127 87.2276 129.073 87.1797 129.067 87.1154C129.042 86.867 129.018 86.6193 128.992 86.3722C128.985 86.3038 129.035 86.2429 129.103 86.2354C129.172 86.2285 129.232 86.2778 129.24 86.3462C129.265 86.5933 129.291 86.8417 129.315 87.0901C129.321 87.1585 129.272 87.2194 129.203 87.2263C129.199 87.2263 129.195 87.2263 129.191 87.2263V87.2276ZM4.52414 86.5433C4.45568 86.5433 4.39954 86.4879 4.39954 86.4188V85.9911V85.6722C4.39954 85.6038 4.45568 85.5477 4.52414 85.5477C4.59329 85.5477 4.64874 85.6031 4.64874 85.6722V85.9918V86.4188C4.64874 86.4879 4.59329 86.5433 4.52414 86.5433ZM128.928 84.7504C128.866 84.7504 128.811 84.7039 128.804 84.6403C128.775 84.3919 128.746 84.1441 128.717 83.8985C128.709 83.83 128.757 83.7685 128.826 83.7602C128.896 83.7507 128.956 83.8013 128.964 83.869C128.994 84.1154 129.022 84.3631 129.051 84.6122C129.059 84.6806 129.01 84.7422 128.942 84.7504C128.937 84.7504 128.932 84.7511 128.927 84.7511L128.928 84.7504ZM4.53372 84.0538H4.53236C4.46389 84.0538 4.40844 83.997 4.40912 83.9279C4.41117 83.6795 4.41391 83.4311 4.41734 83.1813C4.41802 83.1129 4.47348 83.0581 4.54194 83.0581H4.54331C4.61177 83.0588 4.66723 83.1156 4.66654 83.1841C4.66312 83.4331 4.66038 83.6822 4.65833 83.93C4.65833 83.9984 4.60219 84.0531 4.53372 84.0531V84.0538ZM128.625 82.2773C128.563 82.2773 128.51 82.2315 128.501 82.1692C128.469 81.9208 128.436 81.6738 128.403 81.4288C128.394 81.3604 128.442 81.2981 128.51 81.2885C128.579 81.2789 128.64 81.3275 128.65 81.3953C128.683 81.6402 128.716 81.888 128.748 82.1364C128.757 82.2048 128.709 82.2671 128.641 82.276C128.635 82.2767 128.63 82.2773 128.625 82.2773ZM4.57206 81.5643H4.56932C4.50086 81.5629 4.44609 81.5061 4.44746 81.437C4.45294 81.1879 4.4591 80.9388 4.46526 80.6897C4.46663 80.6206 4.52208 80.5625 4.59329 80.5686C4.66175 80.5707 4.71652 80.6275 4.71447 80.6966C4.70831 80.9457 4.70214 81.1941 4.69667 81.4432C4.6953 81.5109 4.63984 81.565 4.57206 81.565V81.5643ZM128.284 79.809C128.223 79.809 128.169 79.7646 128.16 79.7023C128.124 79.4539 128.088 79.2075 128.051 78.9632C128.041 78.8955 128.088 78.8318 128.156 78.8216C128.224 78.8127 128.287 78.8585 128.297 78.9263C128.334 79.1706 128.371 79.4176 128.407 79.666C128.417 79.7344 128.37 79.7974 128.301 79.807C128.295 79.8077 128.289 79.8084 128.284 79.8084V79.809ZM4.64395 79.0741C4.64395 79.0741 4.64121 79.0741 4.63916 79.0741C4.57069 79.0713 4.51661 79.0139 4.51935 78.9454C4.52825 78.6957 4.53783 78.4466 4.5481 78.1975C4.55084 78.1284 4.61451 78.0757 4.6775 78.0784C4.74596 78.0812 4.79936 78.1393 4.79662 78.2078C4.78635 78.4562 4.77677 78.7052 4.76787 78.9543C4.76513 79.0214 4.71036 79.0741 4.64327 79.0741H4.64395ZM127.906 77.3462C127.845 77.3462 127.793 77.3024 127.782 77.2415C127.743 76.9931 127.702 76.7468 127.662 76.5045C127.651 76.4368 127.697 76.3724 127.765 76.3615C127.834 76.3499 127.897 76.3964 127.908 76.4641C127.948 76.7071 127.988 76.9534 128.028 77.2025C128.039 77.2702 127.993 77.3346 127.925 77.3455C127.918 77.3469 127.911 77.3469 127.905 77.3469L127.906 77.3462ZM4.75418 76.5839C4.75418 76.5839 4.74938 76.5839 4.74733 76.5839C4.67887 76.5805 4.62546 76.5216 4.62957 76.4532C4.64327 76.2034 4.65696 75.9536 4.67134 75.7052C4.67544 75.6368 4.73295 75.5841 4.80279 75.5882C4.87125 75.5923 4.92397 75.6512 4.91986 75.7196C4.90548 75.968 4.8911 76.2171 4.8781 76.4662C4.87467 76.5326 4.8199 76.5839 4.75349 76.5839H4.75418ZM127.492 74.8889C127.433 74.8889 127.38 74.8464 127.37 74.7862C127.326 74.5371 127.283 74.2921 127.239 74.0506C127.227 73.9828 127.272 73.9178 127.339 73.9062C127.407 73.8939 127.472 73.939 127.484 74.0068C127.527 74.2483 127.571 74.494 127.615 74.7431C127.626 74.8108 127.581 74.8752 127.513 74.8875C127.506 74.8888 127.499 74.8895 127.491 74.8895L127.492 74.8889ZM4.91027 74.0964C4.91027 74.0964 4.90411 74.0964 4.90069 74.0964C4.83223 74.0916 4.78019 74.0314 4.78567 73.963C4.80415 73.7132 4.82264 73.4648 4.8425 73.2171C4.84797 73.1486 4.90617 73.0994 4.97668 73.1028C5.04515 73.1083 5.0965 73.1685 5.09102 73.2369C5.07116 73.484 5.05199 73.7317 5.03419 73.9815C5.0294 74.0471 4.97463 74.0971 4.91027 74.0971V74.0964ZM127.044 72.4376C126.985 72.4376 126.933 72.3959 126.921 72.3364C126.873 72.0859 126.827 71.8416 126.779 71.6028C126.766 71.535 126.81 71.47 126.878 71.457C126.944 71.4427 127.011 71.4878 127.024 71.5556C127.07 71.7951 127.118 72.0394 127.166 72.2905C127.179 72.3583 127.134 72.4233 127.066 72.4363C127.058 72.4376 127.051 72.4383 127.043 72.4383L127.044 72.4376ZM5.12183 71.6144C5.11772 71.6144 5.11361 71.6144 5.1095 71.6144C5.04104 71.6076 4.99106 71.5467 4.99791 71.4782C5.02255 71.2285 5.04789 70.9801 5.0739 70.7337C5.08143 70.6653 5.141 70.616 5.21083 70.6229C5.27929 70.6304 5.32859 70.6913 5.32174 70.7597C5.29572 71.0054 5.27039 71.2531 5.24574 71.5022C5.23958 71.5665 5.1855 71.6144 5.12183 71.6144ZM126.559 69.9933C126.501 69.9933 126.449 69.9529 126.437 69.8941C126.385 69.6402 126.334 69.3966 126.284 69.1625C126.27 69.0955 126.313 69.0291 126.38 69.0147C126.448 69.001 126.514 69.0435 126.528 69.1105C126.577 69.3446 126.629 69.5889 126.682 69.8434C126.695 69.9105 126.652 69.9769 126.585 69.9906C126.577 69.9919 126.568 69.9933 126.56 69.9933H126.559ZM5.40253 69.1393C5.39705 69.1393 5.39157 69.1393 5.3861 69.1379C5.31763 69.129 5.26971 69.0667 5.27861 68.9983C5.31079 68.7485 5.34502 68.5015 5.37925 68.2558C5.38883 68.1881 5.45182 68.1416 5.52028 68.1498C5.58806 68.1593 5.63599 68.2223 5.6264 68.2907C5.59148 68.535 5.55794 68.7814 5.52576 69.0298C5.51754 69.0927 5.46414 69.1386 5.40253 69.1386V69.1393ZM125.76 67.824C125.755 67.824 125.75 67.824 125.746 67.8234C125.505 67.7953 125.258 67.7672 125.004 67.7399C124.935 67.7323 124.886 67.6708 124.893 67.6023C124.901 67.5339 124.96 67.4846 125.031 67.4921C125.286 67.5202 125.534 67.5483 125.774 67.5763C125.843 67.5845 125.891 67.6461 125.884 67.7145C125.876 67.7782 125.823 67.8247 125.76 67.8247V67.824ZM123.282 67.566C123.278 67.566 123.274 67.566 123.27 67.566C123.027 67.5435 122.779 67.5216 122.526 67.499C122.457 67.4928 122.407 67.4326 122.413 67.3642C122.419 67.2957 122.48 67.2458 122.548 67.2513C122.801 67.2732 123.05 67.2957 123.293 67.3183C123.361 67.3245 123.412 67.3854 123.406 67.4538C123.399 67.5181 123.345 67.5667 123.282 67.5667V67.566ZM120.798 67.3573C120.798 67.3573 120.792 67.3573 120.789 67.3573C120.544 67.3389 120.296 67.3197 120.044 67.3019C119.976 67.2971 119.924 67.2376 119.929 67.1685C119.934 67.1 119.995 67.0494 120.062 67.0535C120.315 67.072 120.564 67.0905 120.809 67.1089C120.877 67.1144 120.929 67.1739 120.924 67.2424C120.919 67.3074 120.864 67.3573 120.8 67.3573H120.798ZM118.313 67.1815C118.313 67.1815 118.307 67.1815 118.304 67.1815L117.559 67.1336C117.49 67.1295 117.438 67.0699 117.442 67.0015C117.447 66.9331 117.503 66.8824 117.575 66.8852L118.321 66.9331C118.389 66.9379 118.441 66.9967 118.437 67.0658C118.433 67.1315 118.378 67.1822 118.313 67.1822L118.313 67.1815ZM115.825 67.0302C115.825 67.0302 115.82 67.0302 115.818 67.0302L115.072 66.9885C115.004 66.9851 114.951 66.9262 114.954 66.8571C114.958 66.788 115.017 66.7373 115.086 66.7394L115.833 66.7811C115.901 66.7846 115.954 66.8441 115.95 66.9125C115.946 66.9789 115.891 67.0302 115.826 67.0302H115.825ZM113.337 66.8982C113.337 66.8982 113.333 66.8982 113.33 66.8982L112.584 66.8619C112.516 66.8585 112.462 66.8003 112.466 66.7312C112.469 66.6628 112.529 66.6094 112.596 66.6128L113.343 66.6491C113.411 66.6525 113.465 66.7107 113.461 66.7798C113.458 66.8462 113.403 66.8982 113.337 66.8982ZM110.847 66.7811C110.847 66.7811 110.844 66.7811 110.842 66.7811L110.095 66.749C110.026 66.7462 109.973 66.6881 109.976 66.619C109.979 66.5505 110.04 66.4978 110.106 66.4999L110.853 66.5321C110.921 66.5348 110.975 66.593 110.972 66.6621C110.969 66.7291 110.914 66.7811 110.847 66.7811ZM108.358 66.6771C108.358 66.6771 108.355 66.6771 108.353 66.6771L107.606 66.6484C107.538 66.6457 107.484 66.5882 107.486 66.5191C107.489 66.4499 107.552 66.3938 107.616 66.3993L108.363 66.428C108.431 66.4308 108.485 66.4889 108.483 66.5574C108.48 66.6244 108.425 66.6771 108.358 66.6771ZM5.77428 66.6758C5.76744 66.6758 5.75991 66.6758 5.75306 66.6737C5.68528 66.6621 5.6401 66.5977 5.65173 66.53L5.6935 66.2953C5.73184 66.0804 5.90916 65.9285 6.12413 65.9258H6.18917C6.26517 65.9148 6.31446 65.9784 6.31583 66.0476C6.3172 66.116 6.26174 66.1728 6.19328 66.1742H6.12824C6.03239 66.1762 5.9564 66.2426 5.93928 66.3391L5.8982 66.5731C5.88793 66.634 5.83522 66.6764 5.77565 66.6764L5.77428 66.6758ZM105.868 66.5841C105.868 66.5841 105.865 66.5841 105.863 66.5841L105.116 66.5581C105.047 66.556 104.994 66.4978 104.996 66.4294C104.998 66.361 105.056 66.3042 105.124 66.309L105.871 66.335C105.94 66.3377 105.994 66.3952 105.991 66.4636C105.989 66.5307 105.934 66.5841 105.867 66.5841H105.868ZM103.377 66.5006C103.377 66.5006 103.375 66.5006 103.373 66.5006L102.626 66.4773C102.558 66.4753 102.504 66.4178 102.506 66.3493C102.508 66.2809 102.564 66.2303 102.634 66.2289L103.381 66.2522C103.45 66.2542 103.504 66.3117 103.502 66.3808C103.5 66.4479 103.444 66.5013 103.377 66.5013V66.5006ZM100.887 66.4253H100.883L100.136 66.4041C100.067 66.402 100.013 66.3446 100.015 66.2761C100.017 66.207 100.074 66.1495 100.143 66.155L100.891 66.1762C100.959 66.1783 101.014 66.2357 101.012 66.3042C101.01 66.3719 100.954 66.4253 100.887 66.4253H100.887ZM98.3958 66.3576H98.3924L97.6455 66.3384C97.577 66.3363 97.5223 66.2795 97.5243 66.2104C97.5264 66.142 97.5722 66.0914 97.6523 66.0893L98.3999 66.1085C98.4684 66.1105 98.5232 66.1673 98.5211 66.2364C98.5191 66.3042 98.4636 66.3576 98.3965 66.3576H98.3958ZM95.9045 66.296H95.9017L95.1548 66.2789C95.0856 66.2775 95.0315 66.22 95.0329 66.1516C95.0343 66.0831 95.0815 66.0298 95.1603 66.0298L95.9079 66.0469C95.9763 66.0482 96.0311 66.1057 96.0297 66.1742C96.0284 66.2419 95.9729 66.296 95.9051 66.296H95.9045ZM93.4131 66.2405H93.4103L92.6634 66.2248C92.5949 66.2234 92.5402 66.1666 92.5415 66.0975C92.5429 66.0284 92.6066 65.9737 92.6689 65.9757L93.4165 65.9915C93.485 65.9928 93.5397 66.0496 93.5384 66.1187C93.537 66.1865 93.4815 66.2405 93.4137 66.2405H93.4131ZM90.9217 66.1906H90.9189L90.1713 66.1762C90.1029 66.1748 90.0481 66.118 90.0488 66.0496C90.0501 65.9812 90.1029 65.9203 90.1754 65.9271L90.923 65.9415C90.9915 65.9429 91.0463 65.9997 91.0449 66.0688C91.0435 66.1365 90.9881 66.1906 90.9203 66.1906H90.9217ZM7.93568 66.1523C7.86721 66.1523 7.81176 66.0975 7.81107 66.0291C7.81039 65.9607 7.86516 65.9039 7.93431 65.9032L8.68193 65.8943C8.74081 65.8929 8.80722 65.9483 8.8079 66.0175C8.80859 66.0859 8.75382 66.1427 8.68467 66.1434L7.93705 66.1523H7.93568ZM88.431 66.1447H88.4289L87.682 66.1324C87.6135 66.131 87.5581 66.0749 87.5594 66.0058C87.5608 65.9374 87.6163 65.8833 87.684 65.8833H87.6861L88.4337 65.8956C88.5022 65.897 88.5576 65.9538 88.5563 66.0222C88.5549 66.09 88.4994 66.1447 88.4317 66.1447H88.431ZM10.4291 66.1228C10.3613 66.1228 10.3052 66.0681 10.3045 65.9997C10.3038 65.9305 10.3586 65.8744 10.4277 65.8738L11.1754 65.8655C11.2459 65.8587 11.3007 65.9196 11.3013 65.9887C11.302 66.0578 11.2473 66.1139 11.1781 66.1146L10.4305 66.1228H10.4291ZM85.9396 66.1044H85.9375L85.1899 66.0927C85.1208 66.0914 85.066 66.0352 85.0674 65.9661C85.0687 65.897 85.1173 65.8395 85.194 65.8436L85.9416 65.8553C86.0101 65.8566 86.0656 65.9128 86.0642 65.9819C86.0628 66.0503 86.0074 66.1044 85.9396 66.1044ZM12.9219 66.0955C12.8534 66.0955 12.798 66.0407 12.7973 65.9723C12.7966 65.9039 12.8514 65.8471 12.9205 65.8464L13.6681 65.8382C13.7441 65.8409 13.7934 65.8929 13.7941 65.9613C13.7948 66.0298 13.7393 66.0866 13.6709 66.0873L12.9232 66.0955H12.9219ZM15.4146 66.0695C15.3462 66.0695 15.2907 66.0147 15.29 65.9463C15.2893 65.8779 15.3448 65.8211 15.4133 65.8204L16.1609 65.8128C16.2376 65.8176 16.2862 65.8676 16.2869 65.936C16.2875 66.0044 16.2321 66.0613 16.1636 66.0619L15.416 66.0695H15.4146ZM83.4475 66.0674H83.4455L82.6978 66.0571C82.6294 66.0565 82.5739 65.9997 82.5753 65.9312C82.576 65.8628 82.6321 65.8087 82.6999 65.8087H82.7013L83.4489 65.819C83.518 65.8197 83.5728 65.8765 83.5714 65.9449C83.5708 66.0133 83.5146 66.0681 83.4468 66.0681L83.4475 66.0674ZM17.9074 66.0448C17.8389 66.0448 17.7835 65.9901 17.7828 65.9217C17.7828 65.8525 17.8376 65.7964 17.906 65.7957L18.6536 65.7889C18.7303 65.7951 18.7789 65.8436 18.7796 65.9121C18.7796 65.9805 18.7248 66.0373 18.6564 66.038L17.9088 66.0448H17.9074ZM80.9561 66.0346H80.9548L80.2071 66.0257C80.1387 66.025 80.0832 65.9682 80.0839 65.8998C80.0846 65.8306 80.138 65.7704 80.2099 65.7766L80.9575 65.7855C81.026 65.7862 81.0814 65.843 81.0807 65.9114C81.08 65.9798 81.0246 66.0346 80.9561 66.0346ZM20.4001 66.0222C20.3317 66.0222 20.2762 65.9668 20.2755 65.8991C20.2755 65.8306 20.3303 65.7738 20.3988 65.7732L21.1464 65.7663H21.1478C21.2162 65.7663 21.2717 65.8217 21.2724 65.8895C21.2724 65.9586 21.2176 66.0147 21.1491 66.0154L20.4015 66.0222H20.4001ZM78.4647 66.0058H78.4634L77.7158 65.9976C77.6473 65.9969 77.5918 65.9408 77.5925 65.8717C77.5932 65.8026 77.6535 65.7451 77.7185 65.7485L78.4661 65.7567C78.5353 65.7574 78.59 65.8142 78.5893 65.8826C78.5887 65.9511 78.5332 66.0058 78.4647 66.0058ZM22.8929 66.001C22.8244 66.001 22.769 65.9456 22.7683 65.8779C22.7683 65.8087 22.8231 65.7526 22.8915 65.7519L23.6392 65.7458H23.6398C23.7083 65.7458 23.7638 65.8005 23.7644 65.8696C23.7644 65.9388 23.7097 65.9949 23.6405 65.9949L22.8929 66.001ZM25.3857 65.9812C25.3172 65.9812 25.2617 65.9258 25.2611 65.8573C25.2611 65.7889 25.3158 65.7321 25.385 65.7321L26.1326 65.7266H26.1333C26.2017 65.7266 26.2572 65.7814 26.2579 65.8505C26.2579 65.9196 26.2031 65.9757 26.134 65.9757L25.3863 65.9812H25.3857ZM75.9734 65.9798H75.972L75.2244 65.973C75.1552 65.973 75.1004 65.9162 75.1011 65.8471C75.1011 65.7786 75.1573 65.7239 75.2257 65.7239H75.2271L75.9747 65.7307C76.0439 65.7314 76.0986 65.7875 76.098 65.8566C76.0973 65.9251 76.0418 65.9798 75.9734 65.9798ZM27.8784 65.9634C27.8099 65.9634 27.7545 65.908 27.7538 65.8395C27.7538 65.7711 27.8086 65.7143 27.8777 65.7143L28.6254 65.7095C28.6931 65.7034 28.75 65.7643 28.7506 65.8334C28.7506 65.9025 28.6959 65.9579 28.6267 65.9586L27.8791 65.9634H27.8784ZM73.482 65.9572H73.4806L72.733 65.9511C72.6638 65.9511 72.6091 65.8943 72.6091 65.8258C72.6091 65.7574 72.6652 65.702 72.7337 65.702H72.7343L73.482 65.7081C73.5511 65.7081 73.6059 65.7649 73.6059 65.8341C73.6059 65.9025 73.5497 65.9572 73.4813 65.9572H73.482ZM30.3712 65.947C30.3027 65.947 30.2473 65.8915 30.2466 65.8231C30.2466 65.754 30.3013 65.6979 30.3705 65.6979L31.1181 65.6931H31.1188C31.1873 65.6931 31.2427 65.7485 31.2434 65.8169C31.2434 65.8861 31.1886 65.9422 31.1195 65.9422L30.3719 65.947H30.3712ZM70.9906 65.9381H70.9899L70.2423 65.9326C70.1738 65.9326 70.1184 65.8758 70.1184 65.8074C70.1184 65.7383 70.1786 65.6746 70.2436 65.6835L70.9913 65.689C71.0604 65.689 71.1152 65.7458 71.1152 65.8142C71.1152 65.8826 71.059 65.9381 70.9906 65.9381ZM32.8639 65.9319C32.7955 65.9319 32.74 65.8765 32.7393 65.8081C32.7393 65.7389 32.7941 65.6835 32.8632 65.6828L33.6109 65.6787H33.6116C33.68 65.6787 33.7355 65.7342 33.7362 65.8026C33.7362 65.8717 33.6807 65.9278 33.6122 65.9278L32.8646 65.9319H32.8639ZM68.4992 65.9217H68.4985L67.7509 65.9175C67.6824 65.9175 67.627 65.8614 67.627 65.7923C67.627 65.7239 67.6838 65.6719 67.7523 65.6685L68.4999 65.6726C68.569 65.6726 68.6238 65.7287 68.6238 65.7978C68.6238 65.8662 68.5677 65.9217 68.4992 65.9217ZM35.3567 65.9189C35.2882 65.9189 35.2328 65.8635 35.2321 65.7951C35.2321 65.7259 35.2875 65.6705 35.356 65.6698L36.1036 65.6664C36.1721 65.6664 36.2275 65.7218 36.2282 65.7903C36.2282 65.8594 36.1735 65.9148 36.1043 65.9155L35.3567 65.9189ZM66.0078 65.908L65.2602 65.9045C65.1917 65.9045 65.1356 65.8484 65.1363 65.7793C65.1363 65.7109 65.1924 65.6555 65.2609 65.6555L66.0085 65.6589C66.0776 65.6589 66.1331 65.715 66.1324 65.7841C66.1324 65.8525 66.0763 65.908 66.0078 65.908ZM37.8494 65.9073C37.781 65.9073 37.7248 65.8518 37.7248 65.7834C37.7248 65.715 37.7803 65.6589 37.8488 65.6582L38.5964 65.6555C38.6648 65.6555 38.721 65.7109 38.721 65.7793C38.721 65.8484 38.6655 65.9039 38.5971 65.9045L37.8494 65.9073ZM40.3422 65.8977C40.2737 65.8977 40.2176 65.8423 40.2176 65.7738C40.2176 65.7054 40.273 65.6493 40.3415 65.6486L41.0891 65.6459C41.1576 65.6459 41.2137 65.7013 41.2137 65.7697C41.2137 65.8382 41.1583 65.8943 41.0898 65.895L40.3422 65.8977ZM63.5164 65.897L62.7688 65.8943C62.6996 65.8943 62.6442 65.8382 62.6449 65.7691C62.6449 65.7006 62.701 65.6452 62.7695 65.6452L63.5171 65.6479C63.5862 65.6479 63.6417 65.704 63.641 65.7732C63.641 65.8416 63.5849 65.897 63.5164 65.897ZM42.8343 65.8895C42.7658 65.8895 42.7097 65.8341 42.7097 65.7656C42.7097 65.6965 42.7651 65.6411 42.8336 65.6404L43.5812 65.6383C43.6497 65.6383 43.7058 65.6938 43.7058 65.7622C43.7058 65.8313 43.6504 65.8868 43.5819 65.8868L42.8343 65.8888V65.8895ZM61.0243 65.8881L60.2767 65.8861C60.2076 65.8861 60.1521 65.83 60.1528 65.7608C60.1528 65.6924 60.2089 65.637 60.2774 65.637L61.025 65.639C61.0942 65.639 61.1496 65.6951 61.1489 65.7636C61.1489 65.832 61.0928 65.8874 61.0243 65.8874V65.8881ZM45.3263 65.8826C45.2579 65.8826 45.2017 65.8272 45.2017 65.7581C45.2017 65.689 45.2572 65.6336 45.3263 65.6336L46.074 65.6322C46.1431 65.6322 46.1986 65.6876 46.1986 65.7567C46.1986 65.8258 46.1431 65.8813 46.074 65.8813L45.3263 65.8826ZM58.5323 65.8813L57.7846 65.8799C57.7155 65.8799 57.66 65.8238 57.66 65.7554C57.66 65.6869 57.7162 65.6308 57.7846 65.6308L58.5323 65.6322C58.6014 65.6322 58.6569 65.6883 58.6569 65.7567C58.6569 65.8252 58.6007 65.8813 58.5323 65.8813ZM47.8184 65.8779C47.7499 65.8779 47.6938 65.8224 47.6938 65.7533C47.6938 65.6849 47.7493 65.6288 47.8184 65.6288H48.566C48.6352 65.6281 48.6906 65.6835 48.6906 65.7519C48.6906 65.8204 48.6352 65.8765 48.566 65.8765H47.8184V65.8772V65.8779ZM56.0402 65.8772H55.2926C55.2234 65.8765 55.168 65.8204 55.168 65.7519C55.168 65.6835 55.2241 65.6274 55.2926 65.6274H56.0402C56.1087 65.6281 56.1648 65.6842 56.1648 65.7533C56.1648 65.8217 56.1087 65.8779 56.0402 65.8779V65.8772ZM50.3105 65.8758C50.2413 65.8758 50.1859 65.8204 50.1859 65.7513C50.1859 65.6821 50.2413 65.6267 50.3105 65.6267H51.0561C51.1252 65.6267 51.1807 65.6821 51.1807 65.7506C51.1807 65.819 51.1252 65.8751 51.0561 65.8751H50.3105V65.8758ZM53.5481 65.8758H52.8005C52.7314 65.8758 52.6759 65.8197 52.6759 65.7513C52.6759 65.6828 52.7314 65.6267 52.8005 65.6267H53.5481C53.6173 65.6267 53.6727 65.6828 53.6727 65.7519C53.6727 65.8211 53.6166 65.8765 53.5481 65.8765V65.8758Z" fill="white"/>
<path d="M76.7087 123.059H60.3747C58.2345 123.059 56.4319 121.467 56.1779 119.352L54.291 103.643C53.9905 101.14 55.9547 98.9388 58.4879 98.9388H78.1102C80.592 98.9388 82.5398 101.056 82.3207 103.516L80.9193 119.225C80.7255 121.395 78.8982 123.059 76.7087 123.059Z" fill="#8F8F8F"/>
<path d="M74.7009 120.17H62.2693C60.6399 120.17 59.2679 118.959 59.0748 117.349L57.6384 105.392C57.4098 103.488 58.905 101.812 60.8329 101.812H75.7676C77.6565 101.812 79.1394 103.423 78.9723 105.296L77.9057 117.253C77.7585 118.904 76.368 120.17 74.7009 120.17V120.17Z" fill="#303030"/>
</g>
<path d="M148.207 142.198C148.277 142.43 149.314 147.455 149.767 149.66C149.893 150.27 150.442 150.697 151.064 150.666C151.403 150.649 151.799 150.619 152.213 150.565C152.949 150.47 153.508 149.857 153.536 149.117C153.61 147.185 153.646 143.476 152.937 142.039C151.958 140.057 148.207 142.199 148.207 142.199V142.198Z" fill="#FFC7AE"/>
<path d="M125.144 143.637C124.699 143.623 125.321 145.932 124.648 148.202C124.496 148.713 124.113 149.115 123.579 149.123C123.233 149.127 122.822 149.12 122.406 149.087C121.78 149.037 121.276 148.551 121.218 147.926L120.671 142.038L125.144 143.637V143.637Z" fill="#FFC7AE"/>
<path d="M112.701 81.0501C112.899 82.0159 119.907 122.867 120.331 144.005C120.339 144.36 120.599 144.657 120.951 144.706C121.841 144.829 123.573 144.989 125.253 144.678C125.483 144.635 125.656 144.445 125.671 144.212C125.916 140.273 127.885 106.967 125.473 91.289C125.473 91.289 145.397 133.2 148.416 144.756C148.49 145.037 148.748 145.227 149.038 145.211C149.891 145.166 151.666 145.013 153.075 144.495C153.58 144.309 153.868 143.778 153.74 143.256C152.053 136.34 140.228 88.6902 132.199 78.1918L112.701 81.0501Z" fill="#484949"/>
<path d="M125.473 91.5508C125.539 91.5508 125.605 91.5258 125.656 91.4764C125.759 91.3754 125.761 91.2102 125.66 91.107L122.993 88.3799C122.891 88.2767 122.726 88.2752 122.623 88.3755C122.52 88.4765 122.518 88.6424 122.619 88.7449L125.286 91.4719C125.337 91.5243 125.405 91.5508 125.473 91.5508Z" fill="url(#paint0_linear_245_6378)"/>
<path d="M105.964 28.3339C111.924 27.4382 123.623 26.1554 131.254 28.3929L130.426 51.9664L102.78 48.9872L100.435 45.6556C100.435 45.6556 101.522 29.0019 105.964 28.3339H105.964Z" fill="#6F90DE"/>
<path d="M119.734 15.7137C119.734 15.7137 120.287 25.0901 120.182 28.0066C120.182 28.0066 112.502 29.2629 110.674 27.9499L112.118 16.8351L119.734 15.7145V15.7137Z" fill="#FFC7AE"/>
<path d="M120 17.5001L120 23.1499C120.058 23.3176 119.494 24.0348 119.338 24.1202C118.386 24.6477 116.267 26.3596 112.132 23.7327C111.701 23.4591 111.606 23.3451 111.606 23.3451L111.5 22.5001L111.606 20.6305L111 19.0001L120 17.5001Z" fill="#EFA591"/>
<path d="M112.269 6.32263C112.269 6.32263 109.177 11.748 108.688 14.7177C108.2 17.6873 107.347 19.5562 110.738 20.5301C114.129 21.504 117.226 20.0959 119.124 17.2899C119.124 17.2899 122.089 12.9704 121.737 11.0329C121.385 9.09542 112.269 6.32337 112.269 6.32337V6.32263Z" fill="#FFC7AE"/>
<path d="M118.174 15.0229L117.737 14.9757C117.737 14.9757 119.935 11.4789 118.423 10.6599C116.911 9.84151 110.783 7.89001 109.671 5.52197C108.599 3.23945 110.059 0.597147 111.881 0.0102974C111.996 -0.026565 112.121 0.0390526 112.165 0.151114L112.28 0.439376C112.359 0.636222 112.637 0.637698 112.717 0.44159C112.794 0.255066 113.057 0.241058 113.145 0.422421C113.487 1.13165 114.491 2.33263 117.437 3.21069C121.617 4.45591 124.25 6.48481 124.002 9.43749C123.986 9.62475 124.174 9.74861 124.345 9.66899C124.68 9.51122 125.194 9.47509 125.806 10.1136C126.871 11.2238 126.116 13.7246 123.324 15.5485C123.191 15.6355 123.172 15.8257 123.294 15.926C123.727 16.2792 124.343 17.0739 122.442 17.8407C120.498 18.6251 119.421 18.401 119.022 18.252C118.915 18.2122 118.851 18.1031 118.87 17.9903L119.313 15.3974C119.336 15.2632 119.241 15.1379 119.106 15.1231L118.174 15.0229Z" fill="#303030"/>
<path d="M118.009 15.5581C118.009 15.5581 119.346 12.0237 120.868 13.2188C122.389 14.4139 119.583 17.2014 118.257 17.197L118.009 15.5581Z" fill="#FFC7AE"/>
<path d="M84.8931 46.7746L85.6262 43.8942C85.9891 42.4691 87.4068 41.58 88.8481 41.8742L157.891 55.9534C159.464 56.2741 160.473 57.8127 160.142 59.3823L155.933 79.3256L84.8923 46.7746H84.8931Z" fill="#FFB800"/>
<path d="M78.3451 81.7583L83.5378 44.4536C83.6455 43.6817 84.3882 43.1656 85.1494 43.3352L156.062 59.0747C157.576 59.4109 158.525 60.9149 158.177 62.4247L152.225 88.2107L78.3451 81.7583Z" fill="#CFDFFF"/>
<path d="M80.217 80.0681L82.2063 46.771C82.2572 45.9151 83.0582 45.3046 83.8976 45.4823L155.556 60.6386C156.567 60.8524 157.232 61.8197 157.07 62.8393L153.253 86.892L80.217 80.0681Z" fill="#F3F6FD"/>
<path d="M75.0277 87.9389L79.5389 51.8734C79.7638 50.076 81.4588 48.8404 83.2401 49.1766L156.72 63.0391C158.21 63.3199 159.191 64.7554 158.91 66.2446L152.703 99.1104C152.411 100.661 150.955 101.712 149.391 101.504L78.1573 91.9952C76.1776 91.7313 74.7814 89.9206 75.0285 87.9396L75.0277 87.9389Z" fill="#FFCD76"/>
<path d="M109.096 54.0543C108.807 55.5848 107.332 56.5912 105.801 56.3022L89.4178 53.2116C87.8866 52.9226 86.8798 51.4481 87.1689 49.9183C87.458 48.3878 88.9332 47.3815 90.4638 47.6705L106.847 50.761C108.379 51.05 109.385 52.5245 109.096 54.0543Z" fill="#FFB800"/>
<path d="M133.418 84.726C134.332 83.1984 136.116 80.29 136.983 79.3824C136.983 79.3824 136.19 78.8818 134.669 79.0683C133.148 79.2549 131.956 78.5132 132.001 77.686L139.26 75.4602C139.586 74.779 140.886 67.647 136.983 58.5L144.849 58C145.739 64.2519 145.228 70.9992 142.135 77.7398C142.135 77.7398 139.734 85.1912 136.976 86.8448C129.779 91.16 133.068 85.3121 133.418 84.726Z" fill="#EAB251"/>
<path d="M123.544 38.6718L131.255 28.3931C131.255 28.3931 143.646 41.55 146.024 58.2494L138.294 62.0167C135.896 56.3938 131.48 48.7758 123.545 38.6718H123.544Z" fill="#6E8FDE"/>
<path d="M134.592 84.9753C135.506 83.4477 137.29 80.5392 138.157 79.6317C138.157 79.6317 137.364 79.1311 135.842 79.3176C134.321 79.5041 133.129 78.7625 133.175 77.9353L140.434 75.7095C140.76 75.0283 142.196 71.1636 138.293 62.0166L146.023 58.2493C146.913 64.5011 146.402 71.2484 143.308 77.9891C143.308 77.9891 140.908 85.4405 138.15 87.0941C130.953 91.4092 134.241 85.5614 134.591 84.9753H134.592Z" fill="#FFC7AE"/>
<defs>
<linearGradient id="paint0_linear_245_6378" x1="114.02" y1="76.8494" x2="132.315" y2="100.514" gradientUnits="userSpaceOnUse">
<stop stop-color="#CB236D"/>
<stop offset="1" stop-color="#4C246D"/>
</linearGradient>
</defs>
</svg>
