<svg width="568" height="363" viewBox="0 0 568 363" fill="none" xmlns="http://www.w3.org/2000/svg">
<path d="M190.478 212.193C193.958 208.404 194.915 200.982 191.336 195.986C191.219 195.825 191.103 195.667 190.983 195.51C185.188 187.997 177.54 188.938 172.676 192.066C169.73 193.988 167.194 196.889 165.305 200.497C165.305 200.497 165.504 189.23 162.027 181.406C158.551 173.582 144.216 165.581 133.786 169.962C123.356 174.343 118.69 187.04 118.69 187.04C95.3947 167.551 87.5345 196.695 87.5345 196.695C79.3214 192.878 73.0741 195.289 71.0646 200.387C69.3496 204.685 69.6413 209.4 71.5575 212.193C116.234 217.551 160.347 222.342 190.478 212.193Z" fill="white"/>
<path d="M503.95 147.147C509.832 131.191 495.029 125.638 485.587 130.157C485.587 130.157 484.471 115.621 476.6 113.009C464.23 108.904 458.508 115.855 457.948 120.714C457.948 120.714 445.462 98.6395 416.59 100.683C387.718 102.726 391.557 131.293 391.557 131.293C391.557 131.293 384.664 123.427 374.74 127.234C366.747 130.295 363.566 139.617 365.642 147.155C411.176 150.525 461.278 155.134 503.95 147.147Z" fill="white"/>
<path d="M254.146 121.6C257.901 111.474 248.451 107.95 242.423 110.818C242.423 110.818 241.711 101.593 236.685 99.9357C228.788 97.3304 225.135 101.741 224.778 104.825C224.778 104.825 216.807 90.8163 198.374 92.113C179.942 93.4096 182.392 111.539 182.392 111.539C182.392 111.539 177.992 106.547 171.657 108.963C166.554 110.905 164.522 116.822 165.848 121.605C194.918 123.744 226.904 126.669 254.146 121.6Z" fill="white"/>
<path d="M447.77 257.493C443.945 245.764 453.583 241.684 459.715 245.015C459.715 245.015 460.439 234.331 465.561 232.413C473.606 229.394 477.328 234.502 477.685 238.074C477.685 238.074 485.806 221.842 504.581 223.353C523.355 224.864 520.865 245.848 520.865 245.848C520.865 245.848 525.368 240.068 531.831 242.864C537.031 245.116 539.102 251.96 537.752 257.512C508.129 259.975 475.534 263.363 447.77 257.493Z" fill="white"/>
<path fill-rule="evenodd" clip-rule="evenodd" d="M242.681 180.411C238.885 186.683 235.805 193.359 233.501 200.312C233.159 201.406 232.461 202.356 231.518 203.012C230.574 203.668 229.438 203.993 228.288 203.936L207.134 202.985C206.451 202.953 205.769 203.055 205.126 203.286C204.484 203.517 203.893 203.871 203.388 204.33C202.884 204.789 202.475 205.342 202.186 205.958C201.897 206.575 201.733 207.242 201.703 207.921L200.131 242.426C200.098 243.105 200.201 243.784 200.433 244.424C200.665 245.064 201.021 245.652 201.482 246.154C201.943 246.656 202.499 247.063 203.118 247.351C203.737 247.639 204.407 247.802 205.09 247.831L226.147 248.783C227.286 248.834 228.377 249.257 229.251 249.985C230.125 250.714 230.735 251.709 230.985 252.816C232.616 259.964 235.051 266.906 238.242 273.511C238.742 274.524 238.895 275.672 238.676 276.779C238.458 277.886 237.881 278.891 237.033 279.639L221.104 293.533C220.588 293.98 220.167 294.524 219.863 295.134C219.56 295.744 219.38 296.407 219.335 297.087C219.293 297.729 219.371 298.373 219.566 298.985C222.207 298.688 224.881 298.536 227.574 298.535H434.469C434.473 298.387 434.471 298.239 434.462 298.09C434.381 296.723 433.758 295.443 432.73 294.532L417.007 280.591C416.152 279.838 415.571 278.827 415.352 277.712C415.134 276.598 415.29 275.443 415.797 274.426C419.058 267.861 421.565 260.951 423.272 253.827C423.53 252.729 424.144 251.746 425.018 251.028C425.892 250.311 426.978 249.898 428.11 249.854L449.276 249.047C450.654 248.994 451.954 248.399 452.89 247.392C453.827 246.385 454.324 245.049 454.271 243.678L452.953 209.149C452.899 207.778 452.301 206.484 451.29 205.552C450.278 204.619 448.936 204.125 447.559 204.177L426.501 204.984C425.364 205.024 424.245 204.693 423.315 204.04C422.384 203.388 421.694 202.451 421.349 201.372C419.136 194.386 416.142 187.67 412.423 181.351C411.844 180.379 411.602 179.245 411.733 178.123C411.865 177.001 412.362 175.952 413.148 175.138L427.868 159.969C428.824 158.981 429.348 157.656 429.325 156.284C429.303 154.912 428.735 153.605 427.747 152.649L402.783 128.655C401.792 127.7 400.46 127.176 399.081 127.199C397.702 127.221 396.388 127.788 395.429 128.775L380.782 143.86C379.992 144.677 378.954 145.212 377.828 145.382C376.701 145.551 375.551 145.347 374.553 144.799C368.098 141.282 361.266 138.5 354.185 136.504C353.092 136.197 352.129 135.543 351.443 134.641C350.758 133.739 350.387 132.639 350.387 131.508L350.472 110.427C350.475 109.053 349.931 107.734 348.958 106.759C347.985 105.784 346.664 105.232 345.283 105.226L310.583 105.106C309.202 105.103 307.877 105.644 306.897 106.613C305.918 107.581 305.364 108.896 305.358 110.27L305.285 131.243C305.281 132.377 304.903 133.479 304.207 134.377C303.512 135.276 302.539 135.922 301.439 136.215C294.335 138.122 287.47 140.819 280.974 144.257C279.972 144.792 278.821 144.985 277.698 144.806C276.576 144.628 275.543 144.089 274.757 143.27L260.158 128.004C259.206 127.012 257.897 126.437 256.519 126.403C255.141 126.369 253.805 126.88 252.805 127.824L227.671 151.65C226.675 152.598 226.096 153.9 226.062 155.272C226.028 156.644 226.542 157.973 227.49 158.97L242.004 174.163C242.79 174.986 243.282 176.044 243.404 177.173C243.526 178.302 243.272 179.44 242.681 180.411Z" fill="#E0E0E0"/>
<path d="M345.876 200.919C314.009 188.108 286.129 220.717 303.846 250.055C306.958 255.19 311.662 259.179 317.248 261.422C349.116 274.233 376.995 241.623 359.278 212.297C356.17 207.156 351.466 203.162 345.876 200.919Z" fill="white"/>
<path fill-rule="evenodd" clip-rule="evenodd" d="M150.085 233.68C147.245 238.374 144.942 243.37 143.218 248.574C142.962 249.393 142.44 250.104 141.734 250.595C141.028 251.086 140.178 251.329 139.318 251.287L123.493 250.575C122.983 250.551 122.472 250.627 121.991 250.8C121.511 250.973 121.069 251.238 120.691 251.581C120.314 251.925 120.008 252.339 119.792 252.8C119.575 253.261 119.453 253.761 119.431 254.269L118.254 280.094C118.23 280.602 118.307 281.111 118.48 281.59C118.654 282.068 118.921 282.508 119.265 282.884C119.61 283.26 120.026 283.565 120.489 283.78C120.952 283.996 121.453 284.118 121.964 284.14L137.717 284.852C138.569 284.89 139.384 285.206 140.038 285.752C140.692 286.297 141.148 287.042 141.336 287.87C142.556 293.22 144.377 298.416 146.765 303.36C147.139 304.117 147.253 304.976 147.089 305.805C146.926 306.634 146.494 307.386 145.86 307.946L137.062 315.624H288.346L280.494 308.658C279.855 308.095 279.42 307.338 279.256 306.504C279.093 305.67 279.21 304.806 279.589 304.045C282.028 299.131 283.904 293.959 285.181 288.627C285.374 287.805 285.833 287.069 286.487 286.532C287.14 285.995 287.953 285.687 288.8 285.654L304.634 285.05C305.664 285.01 306.637 284.564 307.337 283.811C308.038 283.057 308.41 282.057 308.371 281.031L307.384 255.188C307.344 254.162 306.897 253.194 306.14 252.496C305.383 251.798 304.379 251.428 303.349 251.467L287.596 252.071C286.746 252.101 285.908 251.853 285.213 251.365C284.517 250.877 284 250.175 283.742 249.367C282.087 244.139 279.847 239.112 277.064 234.382C276.632 233.655 276.451 232.806 276.549 231.967C276.647 231.127 277.019 230.342 277.607 229.733L288.619 218.379C289.334 217.64 289.726 216.648 289.709 215.622C289.692 214.595 289.268 213.617 288.528 212.901L269.853 194.942C269.112 194.228 268.116 193.836 267.084 193.853C266.052 193.87 265.07 194.294 264.352 195.033L253.395 206.323C252.804 206.934 252.027 207.335 251.185 207.462C250.342 207.589 249.481 207.436 248.735 207.026C243.906 204.394 238.795 202.311 233.499 200.817C232.68 200.588 231.96 200.098 231.447 199.423C230.934 198.748 230.657 197.924 230.657 197.078L230.721 181.3C230.723 180.272 230.316 179.284 229.588 178.555C228.86 177.825 227.872 177.412 226.839 177.408L200.881 177.318C199.848 177.315 198.856 177.721 198.124 178.445C197.391 179.17 196.977 180.155 196.972 181.183L196.918 196.88C196.915 197.729 196.631 198.553 196.111 199.226C195.591 199.898 194.864 200.382 194.04 200.601C188.726 202.028 183.591 204.047 178.731 206.62C177.981 207.02 177.121 207.165 176.281 207.031C175.441 206.898 174.668 206.494 174.08 205.882L163.16 194.456C162.447 193.713 161.468 193.283 160.437 193.257C159.406 193.232 158.407 193.614 157.658 194.321L138.857 212.153C138.111 212.863 137.678 213.838 137.653 214.864C137.628 215.891 138.012 216.886 138.721 217.632L149.578 229.003C150.166 229.619 150.534 230.411 150.626 231.256C150.717 232.101 150.527 232.953 150.085 233.68Z" fill="#CFDFFF"/>
<path d="M224.42 248.151C199.765 238.239 178.194 263.469 191.902 286.167C194.31 290.14 197.949 293.227 202.271 294.962C226.927 304.874 248.497 279.644 234.79 256.955C232.385 252.977 228.745 249.887 224.42 248.151Z" fill="white"/>
<path d="M284 363C440.849 363 568 348.503 568 330.62C568 312.737 440.849 298.239 284 298.239C127.151 298.239 0 312.737 0 330.62C0 348.503 127.151 363 284 363Z" fill="white"/>
<path d="M396.298 292.557C395.798 291.042 395.128 289.588 394.302 288.222C394.173 288.011 394.117 287.764 394.143 287.518C394.169 287.273 394.276 287.043 394.447 286.864L397.613 283.558C397.819 283.341 397.931 283.051 397.923 282.752C397.916 282.454 397.79 282.17 397.573 281.963L392.106 276.777C391.998 276.675 391.871 276.595 391.733 276.542C391.594 276.488 391.447 276.463 391.298 276.467C391.15 276.47 391.003 276.503 390.868 276.563C390.732 276.623 390.61 276.71 390.507 276.817L387.327 280.129C387.157 280.308 386.933 280.426 386.689 280.465C386.445 280.504 386.195 280.461 385.978 280.344C384.564 279.598 383.071 279.011 381.526 278.596C381.286 278.532 381.074 278.391 380.923 278.195C380.771 277.999 380.688 277.759 380.687 277.511L380.669 272.945C380.668 272.798 380.639 272.652 380.582 272.515C380.524 272.379 380.441 272.255 380.336 272.151C380.231 272.047 380.106 271.965 379.969 271.908C379.832 271.852 379.685 271.824 379.536 271.824L371.984 271.852C371.836 271.852 371.689 271.882 371.552 271.938C371.415 271.995 371.291 272.078 371.186 272.183C371.082 272.288 370.999 272.412 370.943 272.549C370.886 272.685 370.857 272.832 370.858 272.979V277.57C370.859 277.816 370.779 278.055 370.63 278.252C370.481 278.448 370.272 278.591 370.034 278.657C368.494 279.09 367.008 279.695 365.604 280.461C365.386 280.58 365.136 280.625 364.89 280.588C364.645 280.552 364.419 280.436 364.246 280.258L361.059 276.973C360.956 276.867 360.833 276.782 360.696 276.724C360.56 276.665 360.414 276.633 360.265 276.631C360.117 276.629 359.969 276.656 359.831 276.71C359.693 276.765 359.568 276.846 359.461 276.949L354.028 282.172C353.813 282.38 353.689 282.664 353.684 282.962C353.679 283.261 353.792 283.549 354 283.764L357.206 287.067C357.377 287.244 357.485 287.472 357.514 287.716C357.542 287.96 357.489 288.207 357.363 288.419C356.554 289.794 355.902 291.255 355.419 292.775C355.345 293.011 355.196 293.216 354.993 293.358C354.791 293.501 354.547 293.574 354.3 293.565L349.718 293.39C349.418 293.379 349.126 293.487 348.906 293.691C348.687 293.894 348.557 294.176 348.546 294.474L348.259 301.987C348.247 302.285 348.355 302.576 348.558 302.796C348.762 303.015 349.045 303.145 349.345 303.157L353.948 303.333C354.195 303.341 354.433 303.431 354.624 303.588C354.815 303.744 354.949 303.959 355.006 304.199C355.377 305.749 355.922 307.253 356.632 308.682C356.742 308.903 356.777 309.154 356.73 309.397C356.683 309.639 356.558 309.86 356.373 310.024L352.97 313.066C352.746 313.265 352.611 313.543 352.593 313.841C352.575 314.138 352.676 314.431 352.874 314.655L357.891 320.277C358.09 320.501 358.371 320.636 358.671 320.653C358.97 320.67 359.265 320.568 359.489 320.37L362.935 317.322C363.119 317.158 363.353 317.059 363.6 317.04C363.846 317.022 364.092 317.085 364.299 317.22C365.946 318.279 367.731 319.106 369.605 319.678C369.842 319.75 370.049 319.898 370.194 320.098C370.339 320.298 370.414 320.541 370.407 320.787L370.268 325.35C370.26 325.649 370.371 325.938 370.577 326.155C370.783 326.373 371.067 326.5 371.367 326.508L378.913 326.733C379.213 326.742 379.504 326.632 379.723 326.428C379.942 326.223 380.07 325.941 380.079 325.642L380.215 321.055C380.223 320.809 380.311 320.572 380.467 320.38C380.622 320.189 380.836 320.054 381.076 319.995C383.443 319.41 385.693 318.427 387.728 317.088C387.934 316.952 388.18 316.886 388.428 316.902C388.675 316.918 388.91 317.015 389.097 317.177L392.547 320.188C392.773 320.385 393.068 320.484 393.367 320.464C393.667 320.445 393.946 320.308 394.145 320.084L399.121 314.427C399.219 314.316 399.294 314.186 399.342 314.046C399.389 313.905 399.408 313.757 399.398 313.609C399.388 313.461 399.349 313.317 399.283 313.184C399.217 313.052 399.125 312.933 399.013 312.836L395.546 309.809C395.359 309.648 395.232 309.43 395.183 309.188C395.134 308.947 395.166 308.697 395.274 308.476C395.965 307.038 396.492 305.527 396.844 303.972C396.899 303.731 397.031 303.514 397.221 303.355C397.412 303.197 397.649 303.104 397.896 303.093L402.475 302.887C402.775 302.873 403.057 302.742 403.259 302.521C403.462 302.301 403.568 302.009 403.555 301.71L403.212 294.198C403.199 293.9 403.067 293.619 402.846 293.418C402.625 293.216 402.333 293.11 402.034 293.123L397.428 293.331C397.18 293.343 396.936 293.274 396.732 293.134C396.528 292.994 396.376 292.791 396.298 292.557Z" fill="#757575"/>
<path d="M372.685 292.354C379.859 289.481 386.131 296.812 382.145 303.415C381.444 304.572 380.385 305.47 379.127 305.975C371.957 308.844 365.685 301.513 369.671 294.914C370.369 293.756 371.428 292.858 372.685 292.354Z" fill="white"/>
<path d="M413.159 311.984H342.848V328.647H413.159V311.984Z" fill="white"/>
<path fill-rule="evenodd" clip-rule="evenodd" d="M165.776 292.821C164.975 294.145 164.327 295.554 163.842 297.021C163.767 297.248 163.619 297.444 163.422 297.58C163.224 297.715 162.988 297.782 162.748 297.771L158.286 297.569C157.996 297.557 157.713 297.659 157.499 297.855C157.285 298.05 157.158 298.322 157.144 298.61L156.813 305.888C156.8 306.177 156.902 306.459 157.099 306.673C157.295 306.887 157.568 307.014 157.859 307.027L162.294 307.227C162.534 307.238 162.764 307.327 162.948 307.481C163.132 307.635 163.26 307.845 163.313 308.078C163.654 309.585 164.165 311.048 164.834 312.441C164.939 312.656 164.97 312.898 164.923 313.132C164.875 313.365 164.751 313.577 164.571 313.733L162.157 315.84H204.642L202.518 313.942C202.339 313.782 202.217 313.568 202.172 313.333C202.127 313.098 202.16 312.855 202.267 312.641C202.955 311.257 203.483 309.8 203.842 308.298C203.897 308.066 204.027 307.858 204.212 307.706C204.397 307.555 204.627 307.468 204.867 307.459L209.326 307.289C209.617 307.278 209.89 307.152 210.088 306.939C210.285 306.727 210.389 306.445 210.378 306.155L210.1 298.878C210.089 298.589 209.964 298.316 209.751 298.119C209.538 297.922 209.255 297.817 208.964 297.828L204.526 297.997C204.286 298.006 204.05 297.935 203.854 297.797C203.658 297.659 203.513 297.461 203.441 297.232C202.974 295.76 202.342 294.344 201.559 293.012C201.436 292.807 201.385 292.568 201.413 292.331C201.44 292.095 201.545 291.874 201.711 291.702L204.816 288.503C205.017 288.294 205.128 288.015 205.123 287.726C205.118 287.437 204.998 287.162 204.789 286.961L199.526 281.901C199.423 281.801 199.301 281.723 199.168 281.67C199.034 281.617 198.891 281.591 198.747 281.593C198.603 281.596 198.462 281.626 198.33 281.683C198.198 281.74 198.078 281.822 197.978 281.925L194.891 285.107C194.724 285.279 194.505 285.391 194.267 285.427C194.029 285.462 193.786 285.419 193.576 285.303C192.216 284.562 190.776 283.976 189.284 283.556C189.054 283.492 188.851 283.354 188.707 283.163C188.563 282.973 188.485 282.741 188.486 282.502V278.056C188.487 277.913 188.459 277.771 188.404 277.639C188.35 277.506 188.269 277.386 188.168 277.285C188.067 277.183 187.946 277.103 187.814 277.047C187.681 276.992 187.539 276.964 187.395 276.963L180.079 276.937C179.936 276.936 179.793 276.964 179.66 277.018C179.528 277.073 179.407 277.153 179.305 277.254C179.203 277.354 179.122 277.474 179.067 277.606C179.011 277.738 178.983 277.88 178.982 278.023L178.964 282.446C178.963 282.686 178.883 282.918 178.736 283.108C178.59 283.298 178.384 283.434 178.151 283.497C176.655 283.899 175.209 284.467 173.839 285.19C173.629 285.304 173.386 285.345 173.15 285.307C172.914 285.269 172.697 285.155 172.533 284.982L169.452 281.773C169.353 281.669 169.234 281.586 169.102 281.528C168.971 281.469 168.829 281.438 168.686 281.434C168.542 281.43 168.399 281.455 168.264 281.507C168.13 281.558 168.008 281.636 167.903 281.735L162.608 286.759C162.397 286.959 162.275 287.234 162.268 287.523C162.261 287.812 162.369 288.093 162.569 288.303L165.635 291.506C165.801 291.679 165.904 291.902 165.93 292.14C165.955 292.378 165.901 292.617 165.776 292.821Z" fill="#606060"/>
<path d="M186.721 296.824C179.773 294.041 173.697 301.143 177.558 307.539C178.236 308.659 179.262 309.53 180.481 310.018C187.427 312.798 193.502 305.697 189.641 299.304C188.965 298.183 187.94 297.312 186.721 296.824Z" fill="white"/>
<path fill-rule="evenodd" clip-rule="evenodd" d="M444.3 308.549C445.02 309.737 445.602 311.001 446.037 312.319C446.1 312.522 446.227 312.699 446.401 312.824C446.574 312.948 446.783 313.012 446.996 313.008L451.007 312.826C451.265 312.815 451.518 312.906 451.71 313.078C451.902 313.25 452.018 313.491 452.034 313.748L452.343 320.28C452.355 320.538 452.264 320.789 452.091 320.981C451.918 321.172 451.676 321.288 451.417 321.303L447.434 321.481C447.217 321.489 447.008 321.568 446.84 321.706C446.672 321.845 446.556 322.035 446.509 322.247C446.202 323.6 445.743 324.914 445.139 326.164C445.046 326.357 445.019 326.575 445.062 326.784C445.105 326.994 445.215 327.184 445.376 327.325L447.605 329.27H409.331L411.325 327.507C411.486 327.364 411.595 327.172 411.636 326.961C411.676 326.75 411.646 326.531 411.55 326.339C410.934 325.096 410.459 323.788 410.134 322.44C410.085 322.23 409.968 322.042 409.801 321.905C409.633 321.769 409.425 321.691 409.209 321.684L405.198 321.534C405.069 321.529 404.942 321.499 404.824 321.445C404.706 321.391 404.601 321.315 404.513 321.221C404.425 321.126 404.356 321.016 404.311 320.895C404.266 320.774 404.246 320.645 404.251 320.517L404.501 313.982C404.511 313.722 404.624 313.477 404.816 313.301C405.007 313.125 405.261 313.031 405.522 313.041L409.505 313.192C409.72 313.2 409.932 313.137 410.108 313.013C410.285 312.889 410.415 312.712 410.48 312.507C410.898 311.185 411.466 309.914 412.17 308.718C412.28 308.534 412.326 308.318 412.301 308.105C412.276 307.892 412.181 307.693 412.032 307.538L409.255 304.669C409.074 304.481 408.976 304.23 408.98 303.971C408.985 303.711 409.093 303.464 409.28 303.283L414.003 298.739C414.191 298.558 414.443 298.46 414.704 298.464C414.965 298.469 415.213 298.576 415.394 298.763L418.171 301.621C418.322 301.775 418.519 301.875 418.732 301.907C418.946 301.938 419.164 301.899 419.353 301.796C420.574 301.13 421.867 300.604 423.206 300.226C423.413 300.168 423.594 300.045 423.724 299.874C423.853 299.704 423.923 299.496 423.922 299.283V295.288C423.921 295.16 423.946 295.032 423.995 294.913C424.043 294.794 424.115 294.686 424.206 294.595C424.297 294.503 424.405 294.431 424.524 294.381C424.643 294.331 424.771 294.306 424.9 294.305L431.468 294.284C431.598 294.283 431.726 294.308 431.845 294.357C431.965 294.406 432.073 294.478 432.165 294.569C432.257 294.659 432.33 294.767 432.38 294.886C432.429 295.005 432.455 295.132 432.456 295.261V299.23C432.457 299.445 432.53 299.654 432.662 299.824C432.794 299.993 432.978 300.115 433.187 300.171C434.531 300.538 435.829 301.053 437.059 301.707C437.248 301.808 437.466 301.844 437.678 301.81C437.89 301.776 438.086 301.674 438.234 301.519L441.011 298.631C441.1 298.538 441.206 298.463 441.325 298.41C441.443 298.358 441.57 298.329 441.7 298.326C441.829 298.323 441.958 298.345 442.078 298.392C442.199 298.439 442.309 298.508 442.402 298.598L447.144 303.108C447.238 303.196 447.314 303.302 447.366 303.42C447.419 303.537 447.447 303.664 447.45 303.792C447.454 303.921 447.431 304.049 447.384 304.168C447.338 304.288 447.268 304.398 447.178 304.491L444.429 307.37C444.281 307.525 444.187 307.724 444.164 307.938C444.141 308.151 444.188 308.366 444.3 308.549Z" fill="#FFA912"/>
<path d="M425.51 312.209C431.748 309.714 437.2 316.089 433.735 321.823C433.126 322.828 432.206 323.61 431.113 324.05C424.875 326.545 419.423 320.17 422.888 314.436C423.497 313.431 424.417 312.649 425.51 312.209Z" fill="white"/>
<path fill-rule="evenodd" clip-rule="evenodd" d="M111.563 310.036C110.866 311.186 110.301 312.411 109.88 313.688C109.819 313.885 109.696 314.056 109.528 314.177C109.36 314.297 109.158 314.359 108.951 314.355L105.066 314.179C104.816 314.169 104.571 314.256 104.385 314.423C104.199 314.59 104.086 314.823 104.071 315.072L103.772 321.4C103.76 321.649 103.848 321.893 104.016 322.079C104.184 322.264 104.418 322.376 104.668 322.391L108.527 322.564C108.737 322.57 108.94 322.647 109.102 322.781C109.265 322.915 109.378 323.1 109.423 323.305C109.72 324.615 110.165 325.889 110.75 327.099C110.84 327.286 110.866 327.497 110.824 327.7C110.783 327.903 110.676 328.087 110.52 328.225L108.361 330.109H145.437L143.506 328.4C143.35 328.261 143.244 328.076 143.205 327.871C143.165 327.667 143.194 327.455 143.288 327.269C143.885 326.065 144.345 324.798 144.659 323.492C144.707 323.289 144.82 323.107 144.983 322.974C145.145 322.842 145.346 322.766 145.556 322.76L149.441 322.614C149.566 322.61 149.69 322.58 149.803 322.528C149.917 322.476 150.02 322.402 150.105 322.311C150.19 322.219 150.257 322.112 150.3 321.995C150.344 321.878 150.363 321.754 150.359 321.629L150.117 315.298C150.107 315.047 149.997 314.81 149.811 314.639C149.626 314.468 149.38 314.378 149.127 314.388L145.269 314.533C145.06 314.541 144.855 314.48 144.684 314.36C144.514 314.24 144.387 314.068 144.325 313.87C143.919 312.589 143.37 311.358 142.687 310.2C142.581 310.021 142.536 309.812 142.56 309.606C142.585 309.399 142.676 309.206 142.821 309.057L145.511 306.277C145.686 306.095 145.782 305.852 145.777 305.601C145.773 305.349 145.668 305.11 145.487 304.935L140.912 300.533C140.73 300.358 140.485 300.262 140.233 300.267C139.98 300.271 139.739 300.375 139.564 300.556L136.874 303.324C136.728 303.473 136.537 303.571 136.33 303.601C136.124 303.632 135.912 303.594 135.729 303.494C134.546 302.849 133.294 302.339 131.996 301.973C131.797 301.917 131.62 301.798 131.495 301.633C131.37 301.468 131.303 301.266 131.303 301.059V297.19C131.304 297.066 131.28 296.942 131.233 296.827C131.186 296.712 131.116 296.607 131.028 296.518C130.94 296.43 130.835 296.359 130.72 296.311C130.605 296.263 130.481 296.238 130.356 296.238L123.993 296.217C123.868 296.217 123.744 296.241 123.628 296.288C123.512 296.335 123.407 296.405 123.318 296.493C123.229 296.581 123.158 296.685 123.11 296.8C123.062 296.915 123.037 297.039 123.037 297.163V301.009C123.035 301.217 122.965 301.419 122.837 301.583C122.709 301.748 122.53 301.866 122.328 301.92C121.026 302.276 119.768 302.775 118.577 303.408C118.394 303.506 118.183 303.541 117.977 303.508C117.772 303.475 117.583 303.376 117.439 303.226L114.749 300.428C114.663 300.338 114.56 300.265 114.445 300.214C114.331 300.164 114.207 300.136 114.082 300.133C113.957 300.13 113.832 300.151 113.715 300.197C113.598 300.242 113.492 300.309 113.401 300.396L108.808 304.765C108.717 304.851 108.644 304.953 108.593 305.067C108.542 305.181 108.514 305.303 108.511 305.428C108.508 305.552 108.53 305.676 108.575 305.792C108.62 305.908 108.688 306.015 108.775 306.104L111.438 308.893C111.582 309.044 111.672 309.237 111.695 309.443C111.717 309.65 111.671 309.858 111.563 310.036Z" fill="#FFA912"/>
<path d="M129.766 313.581C123.723 311.164 118.442 317.34 121.798 322.894C122.388 323.868 123.28 324.625 124.339 325.052C130.382 327.469 135.663 321.293 132.306 315.739C131.717 314.765 130.825 314.007 129.766 313.581Z" fill="white"/>
<path fill-rule="evenodd" clip-rule="evenodd" d="M514.192 299.597C514.836 300.663 515.36 301.796 515.753 302.977C515.807 303.163 515.921 303.326 516.078 303.44C516.235 303.555 516.425 303.614 516.62 303.61L520.22 303.447C520.336 303.442 520.453 303.459 520.562 303.498C520.672 303.537 520.773 303.598 520.859 303.676C520.945 303.754 521.015 303.849 521.064 303.954C521.113 304.059 521.141 304.173 521.146 304.289L521.411 310.164C521.417 310.279 521.399 310.395 521.36 310.504C521.321 310.613 521.26 310.713 521.182 310.799C521.104 310.885 521.009 310.954 520.904 311.003C520.799 311.052 520.685 311.08 520.569 311.086L516.987 311.245C516.793 311.254 516.608 311.327 516.459 311.451C516.311 311.575 516.208 311.745 516.166 311.934C515.889 313.15 515.475 314.331 514.932 315.455C514.849 315.628 514.824 315.824 514.863 316.012C514.901 316.201 515 316.372 515.145 316.499L517.121 318.223H482.793L484.558 316.674C484.703 316.546 484.802 316.373 484.838 316.183C484.875 315.993 484.848 315.797 484.762 315.624C484.208 314.506 483.782 313.33 483.491 312.118C483.446 311.931 483.341 311.763 483.192 311.641C483.042 311.519 482.857 311.449 482.664 311.442L479.063 311.304C478.947 311.299 478.832 311.272 478.726 311.223C478.619 311.174 478.524 311.105 478.445 311.02C478.366 310.934 478.304 310.833 478.264 310.724C478.224 310.615 478.206 310.498 478.212 310.382L478.437 304.504C478.441 304.388 478.469 304.274 478.518 304.168C478.567 304.062 478.636 303.967 478.722 303.888C478.808 303.809 478.909 303.748 479.019 303.708C479.129 303.669 479.246 303.651 479.363 303.656L482.945 303.795C483.138 303.802 483.328 303.745 483.487 303.634C483.645 303.523 483.762 303.364 483.821 303.18C484.196 301.991 484.705 300.848 485.339 299.773C485.438 299.608 485.48 299.414 485.457 299.223C485.435 299.032 485.35 298.854 485.215 298.716L482.71 296.132C482.629 296.049 482.566 295.951 482.523 295.843C482.48 295.735 482.46 295.621 482.462 295.505C482.464 295.389 482.488 295.275 482.535 295.169C482.581 295.063 482.648 294.968 482.732 294.887L486.98 290.801C487.148 290.643 487.371 290.557 487.601 290.561C487.832 290.565 488.052 290.659 488.214 290.822L490.707 293.391C490.842 293.53 491.019 293.62 491.211 293.649C491.402 293.678 491.598 293.644 491.768 293.551C492.867 292.953 494.029 292.479 495.233 292.137C495.418 292.085 495.582 291.974 495.698 291.821C495.815 291.668 495.878 291.481 495.878 291.289V287.698C495.877 287.582 495.9 287.467 495.944 287.36C495.988 287.253 496.053 287.156 496.135 287.074C496.217 286.992 496.314 286.927 496.422 286.883C496.529 286.839 496.644 286.816 496.76 286.816L502.665 286.794C502.781 286.794 502.896 286.816 503.004 286.86C503.111 286.904 503.209 286.969 503.291 287.051C503.373 287.132 503.439 287.229 503.483 287.336C503.528 287.443 503.551 287.557 503.551 287.673V291.243C503.552 291.436 503.617 291.624 503.736 291.776C503.855 291.929 504.02 292.038 504.208 292.088C505.417 292.413 506.585 292.873 507.691 293.459C507.861 293.549 508.057 293.581 508.247 293.55C508.437 293.52 508.613 293.428 508.746 293.29L511.233 290.69C511.394 290.526 511.613 290.431 511.844 290.426C512.075 290.421 512.298 290.506 512.467 290.663L516.743 294.718C516.908 294.879 517.003 295.097 517.009 295.327C517.015 295.556 516.93 295.779 516.774 295.947L514.306 298.534C514.172 298.674 514.088 298.854 514.068 299.047C514.047 299.239 514.09 299.432 514.192 299.597Z" fill="#FFCD76"/>
<path d="M497.294 302.882C502.9 300.636 507.806 306.369 504.699 311.525C504.152 312.43 503.323 313.134 502.339 313.528C496.733 315.771 491.827 310.041 494.934 304.882C495.482 303.978 496.31 303.276 497.294 302.882Z" fill="white"/>
<path fill-rule="evenodd" clip-rule="evenodd" d="M49.6378 303.841C49.0131 304.873 48.5059 305.971 48.1255 307.115C48.0729 307.295 47.962 307.453 47.8102 307.563C47.6583 307.674 47.4739 307.732 47.2857 307.728L43.7979 307.57C43.6852 307.565 43.5724 307.581 43.4662 307.619C43.36 307.657 43.2623 307.716 43.179 307.792C43.0956 307.868 43.0282 307.959 42.9805 308.061C42.9329 308.163 42.9059 308.273 42.9013 308.386L42.6443 314.077C42.6387 314.189 42.6554 314.301 42.6934 314.406C42.7314 314.512 42.79 314.609 42.8658 314.692C42.9417 314.775 43.0332 314.842 43.1352 314.89C43.2372 314.937 43.3477 314.964 43.4602 314.969L46.9301 315.124C47.1177 315.133 47.2973 315.203 47.441 315.323C47.5847 315.444 47.6845 315.608 47.725 315.791C47.9935 316.969 48.3945 318.113 48.9205 319.202C49.0012 319.37 49.0248 319.56 48.9876 319.742C48.9504 319.925 48.8544 320.09 48.7143 320.214L46.8001 321.884H80.0541L78.3437 320.383C78.2033 320.259 78.1079 320.092 78.0723 319.908C78.0366 319.724 78.0627 319.533 78.1465 319.366C78.683 318.283 79.096 317.144 79.3778 315.969C79.4209 315.788 79.5226 315.626 79.6673 315.507C79.812 315.389 79.9917 315.321 80.1787 315.315L83.6665 315.181C83.7797 315.177 83.8909 315.15 83.9938 315.103C84.0966 315.056 84.1891 314.989 84.2658 314.905C84.3425 314.822 84.4019 314.725 84.4406 314.619C84.4793 314.513 84.4965 314.401 84.4913 314.288L84.2732 308.594C84.269 308.481 84.2424 308.371 84.1949 308.268C84.1475 308.166 84.0801 308.074 83.9968 307.997C83.9134 307.921 83.8157 307.862 83.7092 307.823C83.6028 307.785 83.4897 307.767 83.3766 307.773L79.9068 307.907C79.7194 307.913 79.535 307.859 79.3817 307.751C79.2284 307.644 79.1147 307.489 79.058 307.311C78.6948 306.159 78.2015 305.052 77.5876 304.011C77.4913 303.851 77.4509 303.664 77.4725 303.478C77.4941 303.293 77.5766 303.12 77.7071 302.987L80.1339 300.484C80.2122 300.403 80.2737 300.308 80.315 300.204C80.3563 300.1 80.3766 299.989 80.3747 299.877C80.3727 299.765 80.3486 299.654 80.3037 299.551C80.2588 299.449 80.194 299.356 80.113 299.278L75.9976 295.32C75.8352 295.167 75.6191 295.083 75.3956 295.087C75.1722 295.091 74.9591 295.182 74.8022 295.34L72.3873 297.829C72.2566 297.963 72.0852 298.051 71.8995 298.079C71.7138 298.107 71.524 298.073 71.3592 297.983C70.295 297.404 69.1693 296.945 68.003 296.614C67.8233 296.564 67.665 296.456 67.5523 296.308C67.4396 296.16 67.3785 295.979 67.3784 295.793V292.314C67.3787 292.201 67.3569 292.09 67.3141 291.987C67.2714 291.883 67.2085 291.789 67.1291 291.71C67.0497 291.63 66.9553 291.567 66.8514 291.524C66.7475 291.481 66.6361 291.459 66.5236 291.459L60.8033 291.438C60.6908 291.438 60.5794 291.46 60.4753 291.502C60.3713 291.545 60.2767 291.608 60.197 291.687C60.1173 291.766 60.0541 291.86 60.0109 291.963C59.9678 292.067 59.9456 292.178 59.9456 292.29V295.748C59.9441 295.935 59.881 296.117 59.766 296.264C59.651 296.412 59.4905 296.519 59.309 296.567C58.1378 296.882 57.006 297.327 55.9349 297.894C55.7698 297.981 55.5807 298.013 55.3962 297.983C55.2117 297.954 55.0419 297.865 54.9127 297.73L52.5039 295.212C52.3477 295.053 52.1351 294.961 51.9116 294.956C51.6882 294.951 51.4716 295.034 51.3084 295.186L47.1661 299.114C47.0065 299.27 46.9141 299.481 46.9085 299.704C46.903 299.926 46.9846 300.142 47.1363 300.305L49.5272 302.811C49.6568 302.947 49.7378 303.121 49.7578 303.307C49.7778 303.493 49.7356 303.681 49.6378 303.841Z" fill="#FFCD76"/>
<path d="M66.009 307.023C60.5786 304.847 55.8267 310.401 58.8362 315.395C59.3664 316.272 60.169 316.953 61.1225 317.336C66.5529 319.508 71.3049 313.957 68.2953 308.96C67.765 308.084 66.9623 307.404 66.009 307.023Z" fill="white"/>
<path fill-rule="evenodd" clip-rule="evenodd" d="M535.727 310.81C536.188 311.575 536.563 312.388 536.844 313.235C536.889 313.381 536.986 313.505 537.118 313.584C537.25 313.662 537.406 313.689 537.557 313.659L540.133 313.545C540.218 313.539 540.303 313.55 540.383 313.578C540.464 313.606 540.537 313.65 540.6 313.708C540.662 313.766 540.712 313.835 540.745 313.913C540.779 313.991 540.797 314.075 540.796 314.159L540.985 318.366C540.99 318.45 540.979 318.535 540.951 318.614C540.922 318.694 540.878 318.767 540.82 318.828C540.762 318.89 540.692 318.939 540.614 318.973C540.536 319.006 540.452 319.023 540.368 319.023L537.804 319.14C537.664 319.143 537.53 319.194 537.423 319.283C537.316 319.373 537.242 319.495 537.214 319.632C537.017 320.503 536.722 321.349 536.335 322.154C536.275 322.278 536.257 322.418 536.285 322.553C536.312 322.688 536.383 322.81 536.486 322.901L537.916 324.148H513.319L514.575 323.036C514.681 322.946 514.753 322.822 514.779 322.686C514.805 322.55 514.784 322.409 514.72 322.286C514.319 321.486 514.008 320.645 513.795 319.776C513.762 319.642 513.687 319.522 513.58 319.435C513.473 319.347 513.341 319.297 513.202 319.291L510.626 319.192C510.542 319.192 510.458 319.175 510.38 319.142C510.303 319.109 510.233 319.06 510.175 318.998C510.117 318.937 510.073 318.864 510.044 318.785C510.016 318.706 510.004 318.622 510.009 318.538L510.17 314.331C510.169 314.247 510.187 314.164 510.22 314.087C510.254 314.009 510.303 313.94 510.364 313.882C510.426 313.825 510.499 313.78 510.578 313.752C510.658 313.723 510.742 313.712 510.827 313.717L513.391 313.815C513.528 313.818 513.662 313.776 513.773 313.696C513.884 313.616 513.966 313.503 514.008 313.373C514.279 312.522 514.644 311.704 515.097 310.933C515.169 310.816 515.2 310.677 515.184 310.54C515.167 310.403 515.105 310.275 515.007 310.177L513.215 308.334C513.154 308.277 513.106 308.207 513.073 308.131C513.04 308.054 513.023 307.972 513.023 307.888C513.023 307.805 513.04 307.723 513.073 307.646C513.106 307.569 513.154 307.5 513.215 307.443L516.254 304.518C516.373 304.4 516.534 304.333 516.702 304.333C516.871 304.333 517.032 304.4 517.151 304.518L518.935 306.361C519.03 306.463 519.156 306.529 519.294 306.55C519.432 306.571 519.573 306.544 519.694 306.475C520.476 306.048 521.304 305.709 522.162 305.464C522.296 305.426 522.413 305.345 522.497 305.234C522.58 305.124 522.625 304.988 522.625 304.85V302.281C522.624 302.116 522.688 301.957 522.803 301.839C522.919 301.721 523.076 301.652 523.242 301.648H527.468C527.551 301.646 527.633 301.66 527.71 301.69C527.787 301.719 527.857 301.764 527.917 301.822C527.976 301.879 528.023 301.947 528.055 302.023C528.087 302.099 528.104 302.18 528.104 302.263V304.819C528.102 304.959 528.148 305.095 528.233 305.206C528.318 305.317 528.437 305.397 528.573 305.434C529.438 305.666 530.274 305.995 531.066 306.414C531.187 306.481 531.327 306.506 531.464 306.485C531.602 306.463 531.727 306.396 531.822 306.294L533.602 304.432C533.659 304.372 533.728 304.324 533.804 304.29C533.88 304.257 533.961 304.238 534.045 304.236C534.128 304.234 534.21 304.249 534.288 304.279C534.365 304.308 534.436 304.353 534.496 304.41L537.557 307.314C537.617 307.371 537.665 307.439 537.699 307.515C537.733 307.591 537.751 307.672 537.753 307.755C537.755 307.838 537.741 307.92 537.711 307.997C537.681 308.074 537.636 308.145 537.579 308.205L535.808 310.048C535.71 310.148 535.648 310.277 535.634 310.415C535.619 310.554 535.652 310.693 535.727 310.81Z" fill="#484949"/>
<path d="M523.625 313.164C527.636 311.557 531.15 315.662 528.92 319.355C528.526 320.001 527.935 320.503 527.232 320.787C523.221 322.394 519.704 318.289 521.938 314.599C522.328 313.95 522.921 313.446 523.625 313.164Z" fill="white"/>
<path fill-rule="evenodd" clip-rule="evenodd" d="M91.8588 324.516C91.4126 325.257 91.0497 326.045 90.7769 326.865C90.7338 327.006 90.6391 327.127 90.5115 327.203C90.3838 327.279 90.2323 327.305 90.0865 327.275L87.591 327.165C87.5089 327.159 87.4263 327.17 87.3485 327.197C87.2707 327.224 87.1994 327.267 87.1391 327.323C87.0787 327.379 87.0306 327.447 86.9978 327.522C86.965 327.597 86.9482 327.678 86.9485 327.761L86.7662 331.835C86.7604 331.917 86.7716 331.999 86.7991 332.076C86.8265 332.153 86.8696 332.224 86.9257 332.283C86.9818 332.343 87.0497 332.391 87.125 332.423C87.2004 332.456 87.2818 332.472 87.3639 332.472L89.8474 332.585C89.9827 332.589 90.1127 332.637 90.2164 332.724C90.3201 332.81 90.3913 332.929 90.4183 333.061C90.6092 333.905 90.8949 334.725 91.27 335.505C91.3283 335.625 91.3455 335.761 91.319 335.891C91.2926 336.022 91.2239 336.14 91.1236 336.228L89.7384 337.437H113.566L112.349 336.359C112.247 336.272 112.177 336.152 112.152 336.02C112.126 335.889 112.146 335.752 112.209 335.633C112.598 334.858 112.898 334.043 113.105 333.201C113.137 333.072 113.21 332.956 113.313 332.871C113.417 332.786 113.545 332.737 113.679 332.731L116.174 332.636C116.256 332.636 116.337 332.619 116.413 332.587C116.488 332.555 116.555 332.507 116.611 332.448C116.667 332.389 116.711 332.318 116.738 332.242C116.766 332.165 116.777 332.083 116.772 332.002L116.617 327.927C116.617 327.846 116.6 327.765 116.568 327.69C116.535 327.615 116.488 327.548 116.428 327.492C116.368 327.436 116.298 327.393 116.221 327.366C116.144 327.338 116.062 327.327 115.98 327.332L113.497 327.427C113.364 327.429 113.234 327.389 113.126 327.312C113.019 327.235 112.939 327.125 112.899 326.999C112.636 326.174 112.282 325.382 111.844 324.635C111.774 324.521 111.744 324.387 111.76 324.254C111.775 324.122 111.836 323.998 111.931 323.903L113.667 322.117C113.726 322.062 113.773 321.995 113.805 321.921C113.836 321.846 113.853 321.767 113.853 321.686C113.853 321.605 113.836 321.525 113.805 321.451C113.773 321.377 113.726 321.31 113.667 321.254L110.723 318.421C110.608 318.306 110.451 318.242 110.288 318.242C110.125 318.242 109.969 318.306 109.853 318.421L108.126 320.207C108.034 320.305 107.911 320.369 107.778 320.389C107.644 320.409 107.508 320.384 107.391 320.317C106.633 319.903 105.831 319.575 105 319.337C104.87 319.301 104.756 319.222 104.675 319.115C104.594 319.007 104.551 318.877 104.552 318.742V316.254C104.552 316.094 104.49 315.94 104.378 315.826C104.267 315.711 104.114 315.645 103.954 315.641H99.8594C99.7794 315.639 99.6998 315.652 99.6251 315.681C99.5505 315.71 99.4825 315.753 99.4251 315.809C99.3677 315.864 99.3221 315.931 99.2909 316.004C99.2597 316.078 99.2437 316.156 99.2438 316.236V318.712C99.2451 318.848 99.2011 318.98 99.1189 319.088C99.0366 319.195 98.9208 319.273 98.7895 319.308C97.9512 319.533 97.1412 319.851 96.3747 320.257C96.2573 320.323 96.1212 320.347 95.9883 320.326C95.8554 320.305 95.7335 320.24 95.6424 320.141L93.918 318.337C93.8625 318.279 93.796 318.233 93.7224 318.2C93.6488 318.168 93.5695 318.15 93.489 318.148C93.4085 318.146 93.3284 318.16 93.2533 318.189C93.1782 318.218 93.1095 318.261 93.0513 318.317L90.0865 321.129C90.0282 321.185 89.9814 321.251 89.9488 321.324C89.9162 321.397 89.8984 321.476 89.8964 321.557C89.8945 321.637 89.9084 321.716 89.9374 321.791C89.9665 321.866 90.01 321.934 90.0656 321.992L91.7811 323.778C91.8761 323.874 91.9355 324 91.9496 324.134C91.9637 324.268 91.9317 324.403 91.8588 324.516Z" fill="#303030"/>
<path d="M103.582 326.796C99.6969 325.24 96.2928 329.216 98.4536 332.794C98.8345 333.419 99.4078 333.905 100.088 334.181C103.974 335.737 107.381 331.761 105.217 328.186C104.839 327.558 104.265 327.07 103.582 326.796Z" fill="white"/>
<path d="M443.788 207.999L442.078 208.836L443.339 211.39L445.049 210.552L443.788 207.999Z" fill="#FFB68E"/>
<path d="M425.711 211.231L425.656 214.076L427.562 214.112L427.616 211.268L425.711 211.231Z" fill="#FFB68E"/>
<path d="M444.776 209.725C444.624 209.808 444.168 210.295 443.786 210.438C443.351 210.6 442.789 210.338 442.627 210.46C442.465 210.581 441.327 212.715 441.327 212.715L439.891 213.927C439.805 213.999 439.746 214.098 439.724 214.209C439.702 214.319 439.719 214.433 439.772 214.533L439.932 214.837L440.162 215.27L443.008 213.784L444.476 212.6L444.649 212.925L446.508 211.954L446.106 211.192C445.806 210.618 444.927 209.644 444.776 209.725Z" fill="#303030"/>
<path d="M427.83 213.536C427.657 213.536 427.019 213.744 426.617 213.684C426.157 213.62 425.806 213.119 425.592 213.146C425.378 213.173 423.362 214.492 423.362 214.492L421.516 214.864C421.405 214.886 421.306 214.945 421.234 215.031C421.163 215.117 421.123 215.225 421.121 215.337V215.679V216.172L424.332 216.234L426.195 215.9V216.269L428.295 216.309L428.311 215.448C428.295 214.812 427.998 213.536 427.83 213.536Z" fill="#303030"/>
<path d="M442.154 209.633L444.5 208.807C444.5 208.807 441.019 193.077 438.773 188.684C436.526 184.291 436.248 183.704 435.704 181.663C435.161 179.623 435.164 163.961 435.164 163.961L427.203 169.03C427.203 169.03 428.693 182.401 430.077 186.197C431.461 189.992 442.154 209.633 442.154 209.633Z" fill="#484949"/>
<path d="M425.503 211.924L428.125 211.975C428.125 211.975 430.074 201.571 430.436 197.807C430.799 194.044 431.491 188.544 431.247 186.501C434.293 178.417 436.311 169.986 437.256 161.403L423.281 161.134C423.281 161.134 423.981 185.222 423.965 186.094C423.949 186.966 425.503 211.924 425.503 211.924Z" fill="#757575"/>
<path d="M412.3 121.891L410.758 122.707L411.852 124.756L413.394 123.94L412.3 121.891Z" fill="#FFC7AE"/>
<path d="M433.505 142.608C432.713 143.722 430.907 144.996 430.069 144.387C430.069 144.387 417.094 138.128 416.672 136.788C416.251 135.447 411.039 123.67 411.039 123.67L413.202 122.991C413.202 122.991 420.027 133.46 420.322 134.419C420.616 135.377 433.443 139.496 433.443 139.496C434.272 140.104 434.294 141.483 433.505 142.608Z" fill="#4167C1"/>
<path d="M409.447 122.369C409.077 122.184 409.647 121.271 409.775 120.857C409.902 120.442 412.096 120.07 412.315 120.318C412.534 120.566 412.564 122.254 412.191 122.674C411.818 123.094 409.988 122.639 409.447 122.369Z" fill="#FFC7AE"/>
<path d="M437.265 145.733C437.265 145.157 436.635 140.729 435.83 139.48C435.508 138.982 433.857 138.236 432.375 138.171C430.732 138.101 429.453 138.252 427.831 139.598C426.209 140.944 424.333 143.319 424.077 146.145C423.82 148.972 422.836 161.49 422.836 161.49C422.836 161.49 425.288 162.459 429.34 162.889C433.392 163.32 437.519 162.413 437.519 162.413C437.773 159.858 437.235 147.155 437.265 145.733Z" fill="#6F90DE"/>
<path d="M431.884 139.329C432.965 139.329 434.316 139.329 434.392 138.597L434.587 134.483L431.121 135.261L430.675 138.371C430.532 139.06 431.073 139.329 431.884 139.329Z" fill="#FFC7AE"/>
<path d="M430.797 137.528L434.424 137.935L434.587 134.483L431.329 135.216L431.119 135.291L430.797 137.528Z" fill="#F3937A"/>
<path d="M417.853 136.121L416.203 136.69L416.94 138.811L418.59 138.243L417.853 136.121Z" fill="#FFC7AE"/>
<path d="M434.106 141.87C434.376 143.216 434.036 145.389 433.025 145.569C433.025 145.569 425.824 149.625 422 150.5C420.381 150.871 420 150 419.5 149.5C418.5 148.5 416.562 137.91 416.562 137.91L418.365 137.175C418.365 137.175 421 144.5 421.5 145C421.5 145 422 146.227 423.5 145.569C426.205 144.383 431.805 139.762 431.805 139.762C432.827 139.582 433.849 140.53 434.106 141.87Z" fill="#6F90DE"/>
<path d="M411.779 119.946C411.295 119.959 410.82 119.814 410.427 119.532C409.886 119.082 409.978 120.07 410.581 120.393C411.184 120.716 411.911 121.115 412.162 120.932C412.244 120.853 412.3 120.753 412.324 120.643C412.349 120.532 412.34 120.417 412.299 120.312C412.258 120.207 412.187 120.116 412.094 120.051C412.002 119.986 411.892 119.95 411.779 119.946Z" fill="#FFC7AE"/>
<path d="M429.102 128.639C429.102 128.639 426.578 135.638 429.281 136.798C431.984 137.959 435.03 134.193 435.03 134.193L435.606 128.889L429.102 128.639Z" fill="#FFBA9F"/>
<path d="M435.67 133.178L434.605 133.003L434.305 129.503L435.224 127.788C435.224 127.788 434.856 126.776 435.797 126.712C436.738 126.647 437.757 128.006 437.792 129.282C437.857 131.764 435.67 133.178 435.67 133.178Z" fill="#303030"/>
<path d="M434.748 134.392L434.648 134.376L435.097 131.651L435.851 131.775C435.926 131.787 435.997 131.814 436.061 131.853C436.125 131.893 436.181 131.945 436.225 132.006C436.269 132.067 436.3 132.136 436.317 132.209C436.334 132.282 436.337 132.358 436.324 132.432L436.17 133.377C436.117 133.699 435.937 133.987 435.67 134.177C435.404 134.368 435.072 134.445 434.748 134.392Z" fill="#FFBA9F"/>
<path d="M436.385 128.76C436.18 130.09 434.401 130.914 429.687 129.377C426.908 128.467 426.303 125.969 427.084 124.87C428.138 123.39 429.957 124.488 432.85 124.932C435.742 125.376 436.591 127.43 436.385 128.76Z" fill="#303030"/>
<path d="M423.802 150.129L423.699 149.879C426.72 148.639 429.669 147.234 432.533 145.669L432.663 145.906C429.789 147.474 426.831 148.884 423.802 150.129Z" fill="#484949"/>
<path d="M410.934 121.315C413.781 124.02 418.708 130.456 415.632 134.557C412.557 138.658 411.503 140.253 411.361 140.537" stroke="#757575" stroke-width="1.70866"/>
<path d="M410.946 121.244C410.897 121.573 410 122.469 409.656 122.528C409.313 122.587 408.267 121.158 408.375 120.913C408.483 120.668 409.672 120.046 410.105 120.162C410.537 120.278 410.994 120.918 410.946 121.244Z" fill="#FFC7AE"/>
<path d="M416.665 137.305C416.406 137.33 416.144 137.292 415.902 137.195C415.66 137.098 415.446 136.945 415.276 136.747C414.868 136.284 414.422 135.008 414.422 135.008C414.422 135.008 414.498 133.703 415.409 133.853C416.319 134.004 418.049 135.248 417.995 136.214C417.971 136.637 417.055 137.24 416.665 137.305Z" fill="#FFC7AE"/>
<path opacity="0.83" d="M185.359 328.576L263.532 157.641L306.175 150.398L387.283 328.576H185.359Z" fill="#FFF9E1"/>
<path d="M288.499 5.19041L289.677 3.95243L412.641 121.742L411.36 122.597L288.499 5.19041Z" fill="#757575"/>
<rect x="286.203" y="5.98029" width="1.70866" height="107.646" fill="#757575"/>
<path d="M307.002 161.486C307.002 161.486 301.133 164.897 286.458 164.897C271.783 164.897 265.914 161.486 265.914 161.486L267.871 158.078L285.982 155.655L304.569 158.573L307.002 161.486Z" fill="#F7BC46"/>
<path d="M286.47 99.0317C287.992 99.0317 289.451 99.6335 290.527 100.705C291.603 101.776 292.208 103.229 292.209 104.744V112.64C292.209 115.795 289.638 117.302 286.47 117.302C283.302 117.302 280.734 115.795 280.734 112.64V104.744C280.734 103.994 280.883 103.251 281.171 102.558C281.459 101.865 281.882 101.235 282.414 100.705C282.947 100.174 283.579 99.7536 284.275 99.4666C284.971 99.1795 285.717 99.0317 286.47 99.0317Z" fill="#303030"/>
<path d="M312.137 163.685C312.137 163.685 304.8 167.947 286.457 167.947C268.114 167.947 260.777 163.685 260.777 163.685L263.21 159.421L285.846 156.371L309.093 160.024L312.137 163.685Z" fill="#FFD012"/>
<path d="M286.471 114.107C288.128 114.107 289.687 114.508 289.687 116.279V123.26H283.254V116.279C283.254 114.508 284.816 114.107 286.471 114.107Z" fill="#484949"/>
<path d="M286.48 166.119C282.655 166.119 279.555 163.204 279.555 159.607V145.415H293.406V159.602C293.406 163.204 290.305 166.119 286.48 166.119Z" fill="#FFF666"/>
<path d="M312.137 163.686C312.137 160.03 260.777 160.03 260.777 163.686L276.064 121.058C276.064 117.811 296.561 117.811 296.561 121.058L312.137 163.686Z" fill="#303030"/>
<path d="M287.744 9.15279C290.282 9.15279 292.339 7.10387 292.339 4.5764C292.339 2.04892 290.282 0 287.744 0C285.206 0 283.148 2.04892 283.148 4.5764C283.148 7.10387 285.206 9.15279 287.744 9.15279Z" fill="#5D5D5D"/>
<path d="M286.321 337.998C342.081 337.998 387.283 333.84 387.283 328.711C387.283 323.582 342.081 319.424 286.321 319.424C230.561 319.424 185.359 323.582 185.359 328.711C185.359 333.84 230.561 337.998 286.321 337.998Z" fill="#FFF5CF"/>
<path d="M487.624 337.99L489.224 337.998L446.499 211.868L444.898 211.862L487.624 337.99Z" fill="#757575"/>
<path d="M462.812 337.88L464.414 337.888L421.686 211.757L420.086 211.752L462.812 337.88Z" fill="#757575"/>
<path d="M427.107 230.114L451.919 230.224L451.378 228.631L426.566 228.518L427.107 230.114Z" fill="#757575"/>
<path d="M423.048 218.14L447.858 218.25L447.317 216.654L422.508 216.544L423.048 218.14Z" fill="#757575"/>
<path d="M431.162 242.088L455.974 242.201L455.433 240.604L430.621 240.491L431.162 242.088Z" fill="#757575"/>
<path d="M435.216 254.065L460.028 254.175L459.488 252.579L434.676 252.468L435.216 254.065Z" fill="#757575"/>
<path d="M439.275 266.038L464.087 266.149L463.546 264.553L438.734 264.442L439.275 266.038Z" fill="#757575"/>
<path d="M443.33 278.013L468.139 278.123L467.598 276.527L442.789 276.416L443.33 278.013Z" fill="#757575"/>
<path d="M447.384 289.987L472.196 290.097L471.656 288.501L446.844 288.39L447.384 289.987Z" fill="#757575"/>
<path d="M451.447 301.961L476.256 302.071L475.716 300.475L450.906 300.364L451.447 301.961Z" fill="#757575"/>
<path d="M455.228 313.138L480.04 313.248L479.499 311.652L454.688 311.541L455.228 313.138Z" fill="#757575"/>
<path d="M459.283 325.112L484.095 325.222L483.554 323.626L458.742 323.515L459.283 325.112Z" fill="#757575"/>
<path d="M444.049 211.474L442.427 216.264L419.215 216.366L420.837 211.577H419.234L376.52 337.729H378.12L382.445 324.956L405.656 324.853L401.331 337.624H402.932L445.671 211.474H444.049ZM441.886 217.86L438.372 228.238L415.163 228.34L418.677 217.962L441.886 217.86ZM390.822 300.187L394.336 289.809L417.545 289.707L414.031 300.084L390.822 300.187ZM413.493 301.681L410.249 311.259L387.04 311.364L390.284 301.783L413.493 301.681ZM394.879 288.221L398.393 277.843L421.605 277.741L418.091 288.118L394.879 288.221ZM398.934 276.247L402.448 265.869L425.657 265.764L422.143 276.144L398.934 276.247ZM402.989 264.273L406.503 253.895L429.714 253.79L426.2 264.168L402.989 264.273ZM407.043 252.299L410.557 241.921L433.769 241.816L430.255 252.194L407.043 252.299ZM411.098 240.325L414.612 229.947L437.821 229.842L434.307 240.22L411.098 240.325ZM382.985 323.346L386.499 312.968L409.708 312.863L406.194 323.241L382.985 323.346Z" fill="#484949"/>
</svg>
