<svg width="30" height="30" viewBox="0 0 30 30" fill="none" xmlns="http://www.w3.org/2000/svg">
<circle cx="14.5" cy="14.5" r="14.5" fill="#232323"/>
<path d="M6.41526 23.3811C6.17532 23.3929 5.98047 23.197 5.98047 22.9568C5.98047 22.7166 6.17535 22.5231 6.41522 22.5101C7.32002 22.461 8.21106 22.2588 9.05015 21.9113C10.0234 21.5081 10.9076 20.9173 11.6525 20.1724C12.3974 19.4276 12.9882 18.5433 13.3913 17.5701C13.6388 16.9727 13.8125 16.3491 13.9098 15.7129H6.45198C6.19157 15.7129 5.98047 15.5017 5.98047 15.2413C5.98047 14.9809 6.19157 14.7698 6.45198 14.7698H13.9974C14.0004 14.6801 14.0019 14.5903 14.0019 14.5004C14.0019 14.3655 13.9985 14.2307 13.9918 14.0962H6.45198C6.19157 14.0962 5.98047 13.8851 5.98047 13.6247C5.98047 13.3643 6.19157 13.1532 6.45198 13.1532H13.888C13.7876 12.5637 13.6213 11.9858 13.3913 11.4307C12.9882 10.4575 12.3974 9.57322 11.6525 8.82835C10.9076 8.08349 10.0234 7.49264 9.05015 7.08952C8.21106 6.74195 7.32003 6.53982 6.41522 6.49071C6.17536 6.47769 5.98047 6.28418 5.98047 6.04396C5.98047 5.80374 6.17532 5.6079 6.41526 5.61964C7.43436 5.66954 8.4384 5.89453 9.38305 6.28582C10.4618 6.73266 11.442 7.38759 12.2676 8.21323C13.0933 9.03887 13.7482 10.0191 14.195 11.0978C14.3276 11.4178 14.441 11.7445 14.5351 12.0764C14.6291 11.7445 14.7425 11.4178 14.8751 11.0978C15.3219 10.0191 15.9768 9.03887 16.8025 8.21323C17.6281 7.38759 18.6083 6.73266 19.6871 6.28582C20.6317 5.89453 21.6358 5.66954 22.6549 5.61964C22.8948 5.6079 23.0896 5.80374 23.0896 6.04396C23.0896 6.28418 22.8948 6.47769 22.6549 6.49071C21.7501 6.53982 20.8591 6.74195 20.02 7.08952C19.0468 7.49264 18.1625 8.08349 17.4176 8.82835C16.6728 9.57322 16.0819 10.4575 15.6788 11.4307C15.4488 11.9858 15.2826 12.5637 15.1821 13.1532H22.6181C22.8785 13.1532 23.0896 13.3643 23.0896 13.6247C23.0896 13.8851 22.8785 14.0962 22.6181 14.0962H15.0784C15.0716 14.2307 15.0682 14.3655 15.0682 14.5004C15.0682 14.5903 15.0697 14.6801 15.0727 14.7698H22.6181C22.8785 14.7698 23.0896 14.9809 23.0896 15.2413C23.0896 15.5017 22.8785 15.7129 22.6181 15.7129H15.1603C15.2576 16.3491 15.4313 16.9727 15.6788 17.5701C16.0819 18.5433 16.6728 19.4276 17.4176 20.1724C18.1625 20.9173 19.0468 21.5081 20.02 21.9113C20.8591 22.2588 21.7501 22.461 22.6549 22.5101C22.8948 22.5231 23.0896 22.7166 23.0896 22.9568C23.0896 23.197 22.8948 23.3929 22.6549 23.3811C21.6358 23.3312 20.6317 23.1062 19.6871 22.715C18.6083 22.2681 17.6281 21.6132 16.8025 20.7875C15.9768 19.9619 15.3219 18.9817 14.8751 17.903C14.7425 17.583 14.6291 17.2562 14.5351 16.9244C14.441 17.2562 14.3276 17.583 14.195 17.903C13.7482 18.9817 13.0933 19.9619 12.2676 20.7875C11.442 21.6132 10.4618 22.2681 9.38305 22.715C8.4384 23.1062 7.43436 23.3312 6.41526 23.3811Z" fill="#FFD012"/>
</svg>
