<?xml version="1.0" standalone="no"?>
<!DOCTYPE svg PUBLIC "-//W3C//DTD SVG 20010904//EN"
 "http://www.w3.org/TR/2001/REC-SVG-20010904/DTD/svg10.dtd">
<svg version="1.0" xmlns="http://www.w3.org/2000/svg"
 width="700.000000pt" height="700.000000pt" viewBox="0 0 700.000000 700.000000"
 preserveAspectRatio="xMidYMid meet">
<metadata>
Created by potrace 1.14, written by Peter Selinger 2001-2017
</metadata>
<g transform="translate(0.000000,700.000000) scale(0.100000,-0.100000)"
fill="#000000" stroke="none">
<path d="M3178 6996 c-1 -2 -39 -6 -83 -9 -335 -25 -704 -117 -1040 -259 -120
-51 -292 -137 -365 -183 -22 -14 -42 -25 -44 -25 -12 0 -196 -125 -315 -214
-185 -138 -419 -364 -557 -537 -32 -41 -61 -76 -64 -79 -11 -10 -108 -146
-157 -220 -206 -309 -386 -729 -468 -1096 -26 -118 -33 -153 -50 -274 -3 -25
-8 -58 -10 -75 -14 -95 -20 -214 -20 -410 1 -229 7 -330 30 -480 3 -16 7 -48
11 -70 69 -473 296 -1017 592 -1425 74 -102 86 -117 125 -163 10 -12 37 -44
60 -72 54 -65 287 -298 352 -351 28 -23 77 -64 110 -91 51 -42 218 -161 281
-200 147 -92 353 -201 484 -257 137 -59 439 -159 548 -181 9 -2 62 -12 117
-24 109 -22 132 -26 215 -36 30 -4 62 -9 71 -10 50 -10 215 -18 367 -19 291
-3 573 31 847 101 1067 272 1938 1048 2332 2078 30 79 99 293 108 335 1 8 8
33 13 55 23 85 56 267 76 415 25 184 26 652 1 778 -2 10 -6 44 -9 76 -23 211
-135 633 -217 813 -10 23 -19 45 -19 48 0 15 -124 263 -180 361 -273 475 -655
876 -1120 1175 -47 31 -98 62 -115 71 -16 8 -68 37 -115 62 -127 71 -331 159
-498 216 -82 28 -158 52 -168 54 -11 3 -66 16 -123 30 -107 27 -288 59 -396
72 -33 3 -73 8 -90 11 -34 5 -511 13 -517 9z"/>
</g>
</svg>
