<svg width="294" height="242" viewBox="0 0 294 242" fill="none" xmlns="http://www.w3.org/2000/svg">
<g opacity="0.07">
<path fill-rule="evenodd" clip-rule="evenodd" d="M138.994 126.095C141.488 130.207 143.509 134.584 145.019 139.143C145.252 139.848 145.712 140.458 146.328 140.879C146.943 141.299 147.681 141.508 148.428 141.473L162.332 140.844C163.235 140.807 164.117 141.126 164.784 141.733C165.451 142.34 165.848 143.184 165.889 144.081L166.922 166.69C166.962 167.588 166.641 168.466 166.03 169.131C165.419 169.795 164.567 170.191 163.662 170.231L149.842 170.851C149.094 170.885 148.378 171.163 147.804 171.641C147.23 172.119 146.83 172.77 146.666 173.496C145.602 178.176 144.011 182.724 141.925 187.052C141.598 187.717 141.501 188.471 141.649 189.196C141.797 189.922 142.182 190.578 142.744 191.065L153.211 200.173C153.55 200.466 153.826 200.823 154.026 201.222C154.225 201.622 154.343 202.056 154.374 202.501C154.404 202.946 154.346 203.392 154.202 203.815C154.059 204.237 153.832 204.627 153.537 204.963L138.514 221.987C137.915 222.662 137.072 223.074 136.168 223.132C135.264 223.191 134.373 222.893 133.69 222.301L123.279 213.239C122.714 212.751 122.004 212.46 121.257 212.412C120.51 212.364 119.768 212.56 119.144 212.971C113.002 217.001 106.211 219.96 99.0646 221.719C98.3402 221.896 97.6941 222.304 97.2249 222.88C96.7557 223.456 96.4893 224.168 96.4662 224.909L96.0556 238.715C96.0264 239.613 95.6393 240.464 94.9793 241.079C94.3192 241.694 93.4402 242.025 92.5351 241.997L69.7557 241.322C68.8508 241.296 67.9935 240.914 67.3719 240.26C66.7504 239.607 66.4153 238.735 66.4404 237.836L66.8603 224.104C66.8806 223.361 66.6546 222.633 66.2172 222.03C65.7798 221.426 65.1552 220.983 64.4392 220.766C58.7825 219.044 53.3923 216.554 48.4212 213.369C47.797 212.962 47.0552 212.772 46.3109 212.827C45.5667 212.883 44.8616 213.18 44.3049 213.674L33.9018 222.847C33.2249 223.445 32.3365 223.752 31.4319 223.7C30.5273 223.648 29.6805 223.241 29.0777 222.569L13.9357 205.647C13.3374 204.975 13.0319 204.094 13.0861 203.198C13.1402 202.302 13.5496 201.464 14.2247 200.867L24.4974 191.712C25.0556 191.217 25.4345 190.553 25.5758 189.823C25.7172 189.093 25.6132 188.337 25.2799 187.671C23.1372 183.372 21.491 178.846 20.3727 174.18C20.2017 173.458 19.7965 172.811 19.2194 172.34C18.6422 171.869 17.9252 171.599 17.1786 171.572L3.28362 171.045C2.37856 171.009 1.52493 170.618 0.910304 169.957C0.295675 169.297 -0.0297026 168.421 0.00562772 167.522L0.872996 144.913C0.907002 144.014 1.29875 143.166 1.96232 142.554C2.6259 141.942 3.50696 141.616 4.41203 141.649L18.2418 142.176C18.9896 142.202 19.7253 141.983 20.336 141.554C20.9467 141.125 21.3986 140.508 21.6224 139.799C23.0793 135.225 25.0476 130.827 27.4904 126.687C27.8714 126.051 28.0314 125.308 27.9457 124.573C27.8599 123.838 27.5331 123.151 27.0156 122.618L17.34 112.678C16.7129 112.031 16.3697 111.164 16.3855 110.266C16.4013 109.368 16.7748 108.513 17.4241 107.888L33.8251 92.1682C34.1465 91.8582 34.5264 91.6141 34.943 91.45C35.3595 91.286 35.8045 91.205 36.2526 91.2119C36.7007 91.2187 37.1429 91.3132 37.5542 91.49C37.9654 91.6668 38.3375 91.9224 38.6491 92.2421L48.2689 102.127C48.7895 102.662 49.4729 103.011 50.2136 103.122C50.9542 103.232 51.7108 103.097 52.3665 102.737C56.6043 100.434 61.0907 98.6128 65.7403 97.3094C66.4584 97.1091 67.0905 96.6805 67.5396 96.0892C67.9888 95.4979 68.2303 94.7767 68.227 94.0361L68.2277 80.221C68.2265 79.7766 68.3135 79.3362 68.4837 78.9252C68.6539 78.5141 68.9039 78.1403 69.2196 77.8252C69.5353 77.51 69.9103 77.2597 70.3234 77.0885C70.7365 76.9173 71.1795 76.8286 71.6271 76.8274L94.4252 76.7441C94.8729 76.7429 95.3163 76.8293 95.7303 76.9982C96.1443 77.1672 96.5208 77.4155 96.8381 77.7289C97.1555 78.0423 97.4076 78.4147 97.58 78.8248C97.7524 79.235 97.8418 79.6749 97.843 80.1193L97.898 93.8603C97.901 94.605 98.1507 95.328 98.6084 95.9179C99.0662 96.5078 99.7066 96.9318 100.431 97.1246C105.094 98.3755 109.601 100.14 113.869 102.386C114.525 102.739 115.279 102.867 116.015 102.75C116.751 102.632 117.428 102.277 117.939 101.739L127.541 91.7705C127.85 91.4477 128.22 91.1885 128.629 91.0077C129.039 90.8269 129.48 90.7281 129.928 90.7169C130.376 90.7057 130.822 90.7824 131.241 90.9425C131.659 91.1027 132.041 91.3432 132.365 91.6503L148.867 107.259C149.522 107.881 149.903 108.735 149.925 109.634C149.948 110.533 149.611 111.405 148.988 112.058L139.432 122.008C138.916 122.547 138.594 123.239 138.515 123.978C138.435 124.717 138.604 125.461 138.994 126.095ZM102.304 171.821C114.338 151.95 95.4056 129.886 73.7526 138.532C69.9559 140.048 66.761 142.752 64.6534 146.235C52.62 166.098 71.552 188.161 93.1958 179.524C96.9931 178.006 100.19 175.302 102.304 171.821Z" fill="#757575"/>
<path fill-rule="evenodd" clip-rule="evenodd" d="M273.387 109.958C275.138 112.845 276.557 115.918 277.617 119.119C277.781 119.614 278.104 120.043 278.536 120.338C278.968 120.634 279.486 120.78 280.01 120.756L289.773 120.314C290.407 120.288 291.027 120.512 291.495 120.938C291.963 121.364 292.242 121.957 292.271 122.587L292.996 138.461C293.024 139.092 292.799 139.708 292.37 140.175C291.941 140.641 291.342 140.919 290.707 140.947L281.003 141.383C280.478 141.407 279.975 141.602 279.572 141.937C279.17 142.273 278.889 142.73 278.773 143.239C278.026 146.526 276.91 149.719 275.445 152.758C275.215 153.225 275.147 153.754 275.251 154.263C275.355 154.773 275.625 155.234 276.02 155.575L283.369 161.97C283.607 162.176 283.801 162.427 283.941 162.707C284.081 162.988 284.164 163.293 284.185 163.605C284.207 163.917 284.166 164.231 284.065 164.527C283.964 164.824 283.805 165.098 283.598 165.334L273.05 177.286C272.629 177.76 272.037 178.049 271.402 178.091C270.768 178.132 270.142 177.922 269.663 177.507L262.353 171.144C261.956 170.802 261.458 170.598 260.933 170.564C260.409 170.53 259.887 170.668 259.449 170.956C255.137 173.786 250.369 175.863 245.351 177.098C244.843 177.223 244.389 177.509 244.06 177.913C243.73 178.318 243.543 178.818 243.527 179.338L243.239 189.032C243.218 189.662 242.946 190.259 242.483 190.692C242.019 191.124 241.402 191.356 240.767 191.336L224.773 190.862C224.137 190.844 223.535 190.575 223.099 190.117C222.663 189.658 222.427 189.046 222.445 188.415L222.74 178.773C222.754 178.252 222.595 177.74 222.288 177.316C221.981 176.893 221.543 176.581 221.04 176.429C217.068 175.22 213.284 173.472 209.793 171.235C209.355 170.95 208.834 170.817 208.312 170.855C207.789 170.894 207.294 171.103 206.903 171.45L199.599 177.89C199.123 178.31 198.5 178.526 197.865 178.489C197.229 178.453 196.635 178.167 196.212 177.695L185.58 165.814C185.16 165.342 184.945 164.723 184.983 164.094C185.021 163.465 185.309 162.877 185.783 162.457L192.996 156.03C193.388 155.682 193.654 155.216 193.753 154.703C193.852 154.191 193.779 153.66 193.545 153.193C192.041 150.174 190.885 146.996 190.1 143.72C189.98 143.213 189.695 142.759 189.29 142.428C188.885 142.097 188.381 141.908 187.857 141.889L178.101 141.519C177.465 141.494 176.866 141.219 176.435 140.755C176.003 140.291 175.774 139.676 175.799 139.045L176.408 123.171C176.432 122.54 176.707 121.944 177.173 121.514C177.639 121.085 178.258 120.856 178.893 120.879L188.603 121.249C189.128 121.267 189.645 121.114 190.074 120.812C190.503 120.511 190.82 120.078 190.977 119.58C192 116.369 193.382 113.28 195.097 110.374C195.365 109.927 195.477 109.406 195.417 108.89C195.357 108.374 195.127 107.891 194.764 107.517L187.97 100.538C187.53 100.083 187.289 99.4745 187.3 98.8441C187.311 98.2138 187.573 97.6134 188.029 97.1746L199.545 86.1372C199.771 85.9196 200.037 85.7482 200.33 85.633C200.622 85.5178 200.935 85.461 201.249 85.4658C201.564 85.4706 201.874 85.5369 202.163 85.6611C202.452 85.7852 202.713 85.9647 202.932 86.1892L209.686 93.1298C210.052 93.5051 210.532 93.7505 211.052 93.8279C211.572 93.9054 212.103 93.8106 212.563 93.5582C215.539 91.9407 218.689 90.6622 221.953 89.7471C222.458 89.6064 222.901 89.3055 223.217 88.8903C223.532 88.4752 223.702 87.9688 223.699 87.4488L223.7 77.7488C223.699 77.4368 223.76 77.1276 223.88 76.839C223.999 76.5503 224.175 76.2879 224.396 76.0666C224.618 75.8454 224.881 75.6696 225.171 75.5494C225.461 75.4292 225.772 75.3669 226.087 75.3661L242.094 75.3076C242.408 75.3067 242.72 75.3674 243.01 75.486C243.301 75.6046 243.565 75.779 243.788 75.999C244.011 76.2191 244.188 76.4805 244.309 76.7685C244.43 77.0565 244.493 77.3653 244.494 77.6774L244.532 87.3254C244.534 87.8482 244.71 88.3558 245.031 88.77C245.352 89.1842 245.802 89.4819 246.311 89.6172C249.585 90.4956 252.749 91.7347 255.746 93.3115C256.206 93.5591 256.736 93.6489 257.253 93.5667C257.769 93.4845 258.244 93.235 258.604 92.857L265.346 85.858C265.562 85.6314 265.822 85.4494 266.109 85.3224C266.397 85.1955 266.707 85.1261 267.022 85.1183C267.336 85.1104 267.649 85.1642 267.943 85.2767C268.237 85.3892 268.505 85.558 268.733 85.7736L280.319 96.7331C280.779 97.1695 281.046 97.7691 281.062 98.4005C281.078 99.032 280.841 99.644 280.404 100.103L273.695 107.089C273.332 107.467 273.106 107.953 273.05 108.472C272.995 108.991 273.113 109.513 273.387 109.958ZM247.625 142.063C256.074 128.111 242.782 112.619 227.578 118.69C224.913 119.754 222.669 121.653 221.19 124.098C212.741 138.044 226.033 153.536 241.23 147.471C243.896 146.405 246.141 144.507 247.625 142.063Z" fill="#6F90DE"/>
</g>
<path d="M203.533 8.38308C197.861 7.42846 191.97 7.42615 186.523 8.75093C173.842 11.8349 161.495 23.3899 163.033 37.4572C163.532 42.0268 162.009 46.7366 165.955 49.3193C168.09 50.7166 174.291 52.338 176.834 51.9126C183.591 50.7831 188.826 45.5687 186.514 38.4876C185.774 36.22 184.675 34.0804 184.1 31.7613C183.525 29.4417 183.544 26.8009 184.904 24.7999C187.574 20.8721 194.188 20.5463 198.299 21.3353C203.152 22.2662 207.14 25.4254 209.02 30.0516C211.364 35.8171 211.063 42.325 209.506 48.3325C207.839 54.7606 204.256 59.2997 199.32 63.6454C195.071 67.3872 190.5 70.8995 187.287 75.5776C184.338 79.8722 182.733 84.8966 181.738 89.952C181.545 90.9319 175.091 99.4238 174.61 102.257C174.542 102.657 179.762 104.855 180.155 104.922C182.205 105.274 188.01 106.271 190.147 106.638C190.586 106.714 191.012 106.414 191.097 105.968C193.689 92.2256 200.184 79.7677 212.377 72.2112C216.813 69.4615 221.434 67.3837 225.173 63.6153C230.502 58.2442 233.657 52.6238 234.375 45.0574C235.03 38.1466 234.029 30.9672 230.589 24.9731C226.892 18.531 220.634 13.8758 213.748 11.1971C210.537 9.94783 207.078 8.97892 203.533 8.38256L203.533 8.38308Z" fill="#FFC737"/>
<path d="M194.567 122.663C193.442 129.004 188.985 134.059 182.739 133.06C181.39 132.844 176.799 132.122 175.677 131.491C171.606 129.197 172.193 125.799 173.074 120.828C174.199 114.488 177.414 108.589 183.66 109.589C189.906 110.588 195.691 116.323 194.567 122.663L194.567 122.663Z" fill="#FFC737"/>
<path d="M198.311 6.03461C192.639 5.07996 186.747 5.07762 181.3 6.40237C168.619 9.48626 156.273 21.0412 157.81 35.1085C158.309 39.6781 160.279 45.6451 164.225 48.2278C166.36 49.6252 169.069 49.9888 171.612 49.5639C178.369 48.4344 183.603 43.2201 181.292 36.139C180.552 33.8714 179.453 31.7318 178.878 29.4127C178.303 27.0936 178.321 24.4523 179.681 22.4513C182.351 18.5235 188.965 18.1978 193.077 18.9867C197.93 19.9177 201.917 23.0769 203.798 27.7031C206.142 33.4686 205.841 39.9765 204.284 45.984C202.617 52.4121 199.033 56.9511 194.098 61.2968C189.849 65.0386 185.277 68.5508 182.065 73.2289C179.116 77.5234 177.51 82.5478 176.516 87.6032C176.323 88.5831 174.83 98.8985 174.349 101.732C174.281 102.132 174.54 102.505 174.933 102.573C176.983 102.925 182.788 103.922 184.925 104.289C185.364 104.365 185.79 104.065 185.875 103.619C188.467 89.8764 194.962 77.4186 207.155 69.8621C211.591 67.1125 216.212 65.0347 219.951 61.2664C225.28 55.8953 228.435 50.2749 229.153 42.7085C229.808 35.7977 228.807 28.6184 225.367 22.6243C221.669 16.1821 215.412 11.5269 208.526 8.84821C205.315 7.59991 201.856 6.63098 198.311 6.03461Z" fill="#FFEDA4"/>
<path d="M177.144 131.771C183.393 132.771 189.371 128.439 190.496 122.096C191.621 115.752 187.467 109.799 181.218 108.799C174.968 107.8 168.99 112.132 167.865 118.475C166.74 124.819 170.894 130.772 177.144 131.771Z" fill="#FFEDA4"/>
<path d="M84.9226 208.208C84.9226 208.208 84.4033 211.139 84.1484 214.04C84.0489 215.174 84.9266 216.159 86.068 216.207C89.946 216.368 98.2424 216.681 101.219 216.549C101.667 216.528 101.959 216.072 101.794 215.657C101.654 215.31 101.387 215.029 101.046 214.872L87.3429 208.597L84.9234 208.207L84.9226 208.208Z" fill="#484949"/>
<path d="M84.4923 206.485L84.9097 209.991C84.9097 209.991 87.3108 211.104 88.9498 209.85L87.9556 205.943L84.4923 206.485Z" fill="url(#paint0_linear_245_7992)"/>
<path d="M84.8093 140.57C84.6289 141.485 83.841 186.261 88.6452 206.326C88.7237 206.653 88.5571 206.991 88.244 207.118C87.5071 207.418 86.0631 207.852 84.332 207.91C83.7957 207.928 83.3152 207.581 83.1639 207.068C81.7904 202.413 75.2106 179.088 74.3523 156.806C73.3929 131.909 74.3523 155.958 74.3523 155.958L74.9145 140.568L84.8093 140.57Z" fill="#484949"/>
<path d="M69.1615 209.737C69.1615 209.737 68.3339 211.217 67.533 215.149C67.3882 215.859 67.8865 216.538 68.6106 216.609C69.8912 216.735 71.8627 216.896 73.4427 216.885C74.1708 216.88 74.7387 216.248 74.6513 215.529C74.4766 214.093 73.9313 211.738 72.2478 209.903L69.1623 209.736L69.1615 209.737Z" fill="#484949"/>
<path d="M68.4345 205.227L69.4102 210.529C69.4102 210.529 70.3753 211.244 72.2829 210.726L71.8169 205.021L68.4337 205.228L68.4345 205.227Z" fill="url(#paint1_linear_245_7992)"/>
<path d="M65.7977 141.944C61.8688 165.567 66.6503 200.331 68.2625 207.136C68.3612 207.552 68.6985 207.872 69.1224 207.942C69.8424 208.06 71.0274 208.158 72.1955 207.819C72.5984 207.703 72.8807 207.341 72.8969 206.924C73.1129 201.423 72.7238 167.652 76.385 154.306C76.5702 153.63 76.9852 153.04 77.5587 152.634L84.6643 147.601L85.2087 139.466L65.7977 141.944Z" fill="#757575"/>
<path d="M90.8272 97.1805C79.0533 96.987 66.0611 100.261 66.0611 100.261C62.5512 120.664 65.4471 144.197 65.4471 144.197C74.5621 146.578 84.8452 142.741 84.8452 142.741C86.3603 134.212 93.4288 110.212 93.4288 110.212C99.1818 109.501 103.921 107.848 107.824 105.661C104.847 102.223 103.443 97.8486 102.834 95.2632C98.6714 96.5518 94.4585 97.2409 90.8272 97.1805Z" fill="url(#paint2_linear_245_7992)"/>
<path d="M125.608 79.9024C124.451 78.5106 122.987 79.169 122.987 79.169C121.255 86.4611 112.169 92.3734 102.836 95.2635C103.446 97.8497 104.849 102.224 107.826 105.662C123.316 96.9841 125.607 79.9024 125.607 79.9024H125.608Z" fill="#FFBA9F"/>
<path d="M125.329 80.2563C125.45 80.64 124.048 81.2235 123.223 79.6559C123.194 78.9048 122.735 75.6859 123.186 75.0734C125.586 71.8134 130.239 67.7265 130.239 67.7265C131.026 68.4994 130.378 69.2594 130.378 69.2594L128.12 71.6023C128.592 72.4525 129.168 73.1698 129.437 74.1982C129.642 74.9767 129.517 75.8092 129.122 76.5176C128.726 77.2285 128.185 78.1537 127.674 78.8766C126.706 80.2459 125.327 80.2563 125.327 80.2563H125.329Z" fill="#FFBA9F"/>
<path d="M127.129 73.1221L125.071 74.8597L124.426 76.5892L126.26 78.6161C126.26 78.6161 126.876 75.1836 127.335 74.4414C127.794 73.6983 127.556 73.3397 127.129 73.1221Z" fill="#F3937A"/>
<path d="M70.5803 111.62L66.064 100.262C66.064 100.262 55.0659 107.707 53.2579 117.146C55.336 117.298 59.117 117.837 62.8186 119.699C63.6316 115.242 70.5803 111.62 70.5803 111.62Z" fill="url(#paint3_linear_245_7992)"/>
<path d="M80.1927 122.308C80.1927 122.308 67.8452 129.261 63.6784 123.325C62.8137 122.091 62.6066 120.866 62.8193 119.699C59.1177 117.837 55.3367 117.298 53.2586 117.145C52.7134 119.991 53.0014 123.017 54.6799 126.077C61.978 139.377 81.8259 125.342 81.8259 125.342L80.1927 122.308Z" fill="#FFC7AE"/>
<path d="M78.7061 131.105L85.4452 107.658C85.5213 107.392 85.7494 107.197 86.026 107.165C87.2467 107.023 90.785 106.625 94.8701 106.28C99.7908 105.865 105.504 105.53 108.919 105.815C109.404 105.856 109.698 106.367 109.482 106.803C107.54 110.716 99.5529 126.637 95.5536 131.852C95.4209 132.024 95.2163 132.126 94.9979 132.123L79.3621 131.978C78.9075 131.974 78.5815 131.539 78.7069 131.103L78.7061 131.105Z" fill="#303030"/>
<path d="M95.5688 104.249L100.455 103.438C100.716 103.394 100.928 103.642 100.846 103.892L100.362 105.352C100.32 105.479 100.208 105.571 100.076 105.589L95.3738 106.214C95.1303 106.246 94.9297 106.026 94.9863 105.789L95.2857 104.514C95.318 104.377 95.4297 104.272 95.5696 104.249H95.5688Z" fill="#F6F7F8"/>
<path d="M91.9068 108.37L92.3097 106.281C92.3501 106.072 92.524 105.914 92.7368 105.892L102.606 104.894C102.938 104.86 103.204 105.164 103.126 105.487L102.498 108.09C102.448 108.298 102.266 108.449 102.052 108.46L92.4075 108.943C92.0937 108.959 91.8477 108.677 91.9076 108.37H91.9068Z" fill="#F6F7F8"/>
<path d="M80.3374 125.442C80.3374 125.442 79.399 121.596 79.7776 120.232C80.1562 118.867 80.89 117.113 83.3356 117.503C85.7811 117.893 88.666 118.919 88.666 118.919C88.666 118.919 88.5204 120.696 86.6613 120.123L87.8141 121.011C87.8141 121.011 87.6491 122.434 86.0797 121.673L87.1516 122.852C87.1516 122.852 86.4777 124.02 85.3224 123.271C84.1672 122.521 83.6139 125.904 80.3374 125.441V125.442Z" fill="#FFC7AE"/>
<path d="M78.9052 87.658L75.1588 98.4518C75.0965 98.6307 75.1701 98.829 75.3368 98.9201C76.3577 99.4826 80.0378 101.109 84.4719 98.3076C84.9338 98.0158 85.2485 97.5403 85.3181 96.9995L86.5316 87.6572L78.9052 87.658Z" fill="#FFBA9F"/>
<path d="M78.9016 87.658L77.1723 92.7042C77.1101 92.8831 77.4202 93.0264 77.5868 93.1174C78.6078 93.68 80.8804 95.5056 85.3145 92.7042C85.7764 92.4124 85.8782 92.2909 85.8782 92.2909L86.5279 87.6572L78.9016 87.658Z" fill="#F3937A"/>
<path d="M62.586 119.618C64.0158 116.596 67.7334 110.233 69.4491 110.233" stroke="black" stroke-width="0.22"/>
<path d="M86.642 79.3039C86.642 79.3039 90.7562 87.019 90.2288 90.1356C89.7013 93.2521 84.6027 93.0281 80.1503 90.4974L77.0392 82.1665L86.642 79.3039Z" fill="#FFBA9F"/>
<path d="M80.3421 86.4049C80.5233 86.3251 80.5896 86.1042 80.4812 85.9398C80.1512 85.4385 79.5339 84.415 79.3366 83.5188C79.3366 83.5188 78.5972 83.0465 81.2189 82.4219C83.8407 81.7965 87.751 80.8262 88.5729 78.6026C89.3745 76.4347 87.2689 70.9834 83.9102 75.3273C83.7824 75.4925 83.5325 75.4966 83.4047 75.3306C82.8538 74.6165 81.4066 73.1344 79.3964 74.033C77.5157 74.8736 77.3037 76.2469 77.3296 76.9392C77.3369 77.1431 77.1541 77.3011 76.9535 77.2632C76.003 77.0826 73.721 76.9271 72.6556 79.2595C71.7779 81.1808 72.3482 82.268 72.8676 82.7999C73.0358 82.9724 72.9622 83.2561 72.7317 83.3262C72.1064 83.5172 71.2999 84.0451 71.3808 85.5038C71.4924 87.5203 73.7558 87.343 74.3997 87.2511C74.5056 87.2358 74.6116 87.272 74.6828 87.351C75.2353 87.9603 77.7244 90.5465 80.4181 90.8584C80.6511 90.885 80.8323 90.6561 80.7554 90.4345L79.5898 87.0577C79.5356 86.9005 79.6108 86.7288 79.7629 86.6619L80.3413 86.4065L80.3421 86.4049Z" fill="#303030"/>
<path d="M80.8115 86.883C80.8115 86.883 77.8822 84.8811 77.6678 86.5671C77.4534 88.2531 80.3059 89.0091 81.7184 88.3805L80.8115 86.883Z" fill="#FFBA9F"/>
<defs>
<linearGradient id="paint0_linear_245_7992" x1="84.4931" y1="208.195" x2="88.9507" y2="208.195" gradientUnits="userSpaceOnUse">
<stop stop-color="#FEBBBA"/>
<stop offset="1" stop-color="#FF928E"/>
</linearGradient>
<linearGradient id="paint1_linear_245_7992" x1="68.4353" y1="207.967" x2="72.2837" y2="207.967" gradientUnits="userSpaceOnUse">
<stop stop-color="#FEBBBA"/>
<stop offset="1" stop-color="#FF928E"/>
</linearGradient>
<linearGradient id="paint2_linear_245_7992" x1="82.0229" y1="111.405" x2="149.72" y2="-5.66335" gradientUnits="userSpaceOnUse">
<stop stop-color="#6F90DE"/>
<stop offset="1" stop-color="#4042E2"/>
</linearGradient>
<linearGradient id="paint3_linear_245_7992" x1="67.8663" y1="103.219" x2="135.564" y2="-13.8498" gradientUnits="userSpaceOnUse">
<stop stop-color="#6F90DE"/>
<stop offset="1" stop-color="#4042E2"/>
</linearGradient>
</defs>
</svg>
