<svg width="14" height="11" viewBox="0 0 14 11" fill="none" xmlns="http://www.w3.org/2000/svg">
<path d="M8.60271 0.579856C8.32972 0.884502 8.32972 1.37662 8.60271 1.68127L11.3186 4.71992L0.699976 4.71992C0.314989 4.71992 -2.43538e-07 5.07143 -2.24759e-07 5.50106C-2.05979e-07 5.93069 0.314989 6.28221 0.699976 6.28221L11.3256 6.28221L8.60971 9.31305C8.33672 9.61769 8.33672 10.1098 8.60971 10.4145C8.8827 10.7191 9.32368 10.7191 9.59668 10.4145L13.5095 6.04786C13.7825 5.74322 13.7825 5.2511 13.5095 4.94645L9.59668 0.579856C9.32368 0.283022 8.8757 0.283022 8.60271 0.579856Z" fill="#303030"/>
</svg>
